solid CATIA STL
  facet normal  0.000000e+000 -5.877852e-001  8.090170e-001
    outer loop
      vertex  0.000000e+000  1.027018e+000 -3.160836e+000
      vertex  6.760000e+000  2.688768e+000 -1.953504e+000
      vertex  0.000000e+000  2.688768e+000 -1.953504e+000
    endloop
  endfacet
  facet normal  0.000000e+000 -9.510565e-001  3.090170e-001
    outer loop
      vertex  0.000000e+000  2.688768e+000 -1.953504e+000
      vertex  6.760000e+000  2.688768e+000 -1.953504e+000
      vertex  6.760000e+000  3.323500e+000  0.000000e+000
    endloop
  endfacet
  facet normal  0.000000e+000 -9.510565e-001  3.090170e-001
    outer loop
      vertex  0.000000e+000  2.688768e+000 -1.953504e+000
      vertex  6.760000e+000  3.323500e+000  0.000000e+000
      vertex  0.000000e+000  3.323500e+000  0.000000e+000
    endloop
  endfacet
  facet normal  0.000000e+000 -5.877852e-001  8.090170e-001
    outer loop
      vertex  6.760000e+000  2.688768e+000 -1.953504e+000
      vertex  0.000000e+000  1.027018e+000 -3.160836e+000
      vertex  6.760000e+000  1.027018e+000 -3.160836e+000
    endloop
  endfacet
  facet normal  0.000000e+000  0.000000e+000  1.000000e+000
    outer loop
      vertex  6.760000e+000  1.027018e+000 -3.160836e+000
      vertex  0.000000e+000  1.027018e+000 -3.160836e+000
      vertex  0.000000e+000 -1.027018e+000 -3.160836e+000
    endloop
  endfacet
  facet normal  0.000000e+000  0.000000e+000  1.000000e+000
    outer loop
      vertex  6.760000e+000  1.027018e+000 -3.160836e+000
      vertex  0.000000e+000 -1.027018e+000 -3.160836e+000
      vertex  6.760000e+000 -1.027018e+000 -3.160836e+000
    endloop
  endfacet
  facet normal  0.000000e+000  5.877852e-001  8.090170e-001
    outer loop
      vertex  6.760000e+000 -1.027018e+000 -3.160836e+000
      vertex  0.000000e+000 -1.027018e+000 -3.160836e+000
      vertex  0.000000e+000 -2.688768e+000 -1.953504e+000
    endloop
  endfacet
  facet normal  -0.000000e+000  5.877852e-001  8.090170e-001
    outer loop
      vertex  6.760000e+000 -1.027018e+000 -3.160836e+000
      vertex  0.000000e+000 -2.688768e+000 -1.953504e+000
      vertex  6.760000e+000 -2.688768e+000 -1.953504e+000
    endloop
  endfacet
  facet normal  0.000000e+000  9.510565e-001  3.090170e-001
    outer loop
      vertex  6.760000e+000 -2.688768e+000 -1.953504e+000
      vertex  0.000000e+000 -2.688768e+000 -1.953504e+000
      vertex  0.000000e+000 -3.323500e+000  3.358859e-015
    endloop
  endfacet
  facet normal  -0.000000e+000  9.510565e-001  3.090170e-001
    outer loop
      vertex  6.760000e+000 -2.688768e+000 -1.953504e+000
      vertex  0.000000e+000 -3.323500e+000  3.358859e-015
      vertex  6.760000e+000 -3.323500e+000  3.358859e-015
    endloop
  endfacet
  facet normal  0.000000e+000  5.877852e-001 -8.090170e-001
    outer loop
      vertex  0.000000e+000 -1.027018e+000  3.160836e+000
      vertex  6.760000e+000 -2.688768e+000  1.953504e+000
      vertex  0.000000e+000 -2.688768e+000  1.953504e+000
    endloop
  endfacet
  facet normal  0.000000e+000  9.510565e-001 -3.090170e-001
    outer loop
      vertex  0.000000e+000 -2.688768e+000  1.953504e+000
      vertex  6.760000e+000 -2.688768e+000  1.953504e+000
      vertex  6.760000e+000 -3.323500e+000  3.358859e-015
    endloop
  endfacet
  facet normal  0.000000e+000  9.510565e-001 -3.090170e-001
    outer loop
      vertex  0.000000e+000 -2.688768e+000  1.953504e+000
      vertex  6.760000e+000 -3.323500e+000  3.358859e-015
      vertex  0.000000e+000 -3.323500e+000  3.358859e-015
    endloop
  endfacet
  facet normal  0.000000e+000  5.877852e-001 -8.090170e-001
    outer loop
      vertex  6.760000e+000 -2.688768e+000  1.953504e+000
      vertex  0.000000e+000 -1.027018e+000  3.160836e+000
      vertex  6.760000e+000 -1.027018e+000  3.160836e+000
    endloop
  endfacet
  facet normal  0.000000e+000  0.000000e+000 -1.000000e+000
    outer loop
      vertex  6.760000e+000 -1.027018e+000  3.160836e+000
      vertex  0.000000e+000 -1.027018e+000  3.160836e+000
      vertex  0.000000e+000  1.027018e+000  3.160836e+000
    endloop
  endfacet
  facet normal  0.000000e+000  0.000000e+000 -1.000000e+000
    outer loop
      vertex  6.760000e+000 -1.027018e+000  3.160836e+000
      vertex  0.000000e+000  1.027018e+000  3.160836e+000
      vertex  6.760000e+000  1.027018e+000  3.160836e+000
    endloop
  endfacet
  facet normal  -0.000000e+000 -5.877852e-001 -8.090170e-001
    outer loop
      vertex  6.760000e+000  1.027018e+000  3.160836e+000
      vertex  0.000000e+000  1.027018e+000  3.160836e+000
      vertex  0.000000e+000  2.688768e+000  1.953504e+000
    endloop
  endfacet
  facet normal  0.000000e+000 -5.877852e-001 -8.090170e-001
    outer loop
      vertex  6.760000e+000  1.027018e+000  3.160836e+000
      vertex  0.000000e+000  2.688768e+000  1.953504e+000
      vertex  6.760000e+000  2.688768e+000  1.953504e+000
    endloop
  endfacet
  facet normal  -0.000000e+000 -9.510565e-001 -3.090170e-001
    outer loop
      vertex  6.760000e+000  2.688768e+000  1.953504e+000
      vertex  0.000000e+000  2.688768e+000  1.953504e+000
      vertex  0.000000e+000  3.323500e+000  0.000000e+000
    endloop
  endfacet
  facet normal  0.000000e+000 -9.510565e-001 -3.090170e-001
    outer loop
      vertex  6.760000e+000  2.688768e+000  1.953504e+000
      vertex  0.000000e+000  3.323500e+000  0.000000e+000
      vertex  6.760000e+000  3.323500e+000  0.000000e+000
    endloop
  endfacet
  facet normal -8.616120e-001  3.803920e-001  3.360456e-001
    outer loop
      vertex  0.000000e+000  5.672466e+000  3.275000e+000
      vertex  5.551115e-017  3.949553e+000  5.225278e+000
      vertex  5.516891e-001  6.500000e+000  3.752777e+000
    endloop
  endfacet
  facet normal -8.616120e-001  4.812200e-001  1.614063e-001
    outer loop
      vertex  4.655523e-011  6.500000e+000  8.077747e-001
      vertex  0.000000e+000  5.672466e+000  3.275000e+000
      vertex  5.516891e-001  6.500000e+000  3.752777e+000
    endloop
  endfacet
  facet normal -8.616120e-001  1.008281e-001 -4.974519e-001
    outer loop
      vertex  0.000000e+000  1.043196e-014 -6.550000e+000
      vertex -5.551115e-017  2.550447e+000 -6.033052e+000
      vertex  5.516891e-001  9.468208e-015 -7.505554e+000
    endloop
  endfacet
  facet normal -8.616120e-001 -1.008281e-001 -4.974519e-001
    outer loop
      vertex -5.551115e-017 -2.550447e+000 -6.033052e+000
      vertex  0.000000e+000  1.043196e-014 -6.550000e+000
      vertex  5.516891e-001  9.468208e-015 -7.505554e+000
    endloop
  endfacet
  facet normal -8.616120e-001  4.812200e-001 -1.614063e-001
    outer loop
      vertex  0.000000e+000  5.672466e+000 -3.275000e+000
      vertex  0.000000e+000  6.500000e+000 -8.077747e-001
      vertex  5.516891e-001  6.500000e+000 -3.752777e+000
    endloop
  endfacet
  facet normal -8.616120e-001  3.803920e-001 -3.360456e-001
    outer loop
      vertex  0.000000e+000  3.949553e+000 -5.225278e+000
      vertex  0.000000e+000  5.672466e+000 -3.275000e+000
      vertex  5.516891e-001  6.500000e+000 -3.752777e+000
    endloop
  endfacet
  facet normal -8.616120e-001 -3.803920e-001 -3.360456e-001
    outer loop
      vertex  0.000000e+000 -5.672466e+000 -3.275000e+000
      vertex -5.551115e-017 -3.949553e+000 -5.225278e+000
      vertex  5.516891e-001 -6.500000e+000 -3.752777e+000
    endloop
  endfacet
  facet normal -8.616120e-001 -4.812200e-001 -1.614063e-001
    outer loop
      vertex  2.775558e-017 -6.500000e+000 -8.077747e-001
      vertex  0.000000e+000 -5.672466e+000 -3.275000e+000
      vertex  5.516891e-001 -6.500000e+000 -3.752777e+000
    endloop
  endfacet
  facet normal -8.616120e-001 -1.008281e-001  4.974519e-001
    outer loop
      vertex  0.000000e+000 -2.507726e-015  6.550000e+000
      vertex  4.655526e-011 -2.550447e+000  6.033052e+000
      vertex  5.516891e-001 -6.354816e-015  7.505554e+000
    endloop
  endfacet
  facet normal -8.616120e-001  1.008281e-001  4.974519e-001
    outer loop
      vertex -2.775558e-017  2.550447e+000  6.033052e+000
      vertex  0.000000e+000 -2.507726e-015  6.550000e+000
      vertex  5.516891e-001 -6.354816e-015  7.505554e+000
    endloop
  endfacet
  facet normal -8.616120e-001 -4.812200e-001  1.614063e-001
    outer loop
      vertex  0.000000e+000 -5.672466e+000  3.275000e+000
      vertex -5.551115e-017 -6.500000e+000  8.077747e-001
      vertex  5.516891e-001 -6.500000e+000  3.752777e+000
    endloop
  endfacet
  facet normal -8.616120e-001 -3.803920e-001  3.360456e-001
    outer loop
      vertex  0.000000e+000 -3.949553e+000  5.225278e+000
      vertex  0.000000e+000 -5.672466e+000  3.275000e+000
      vertex  5.516891e-001 -6.500000e+000  3.752777e+000
    endloop
  endfacet
  facet normal  7.105204e-001  4.607567e-001  5.318496e-001
    outer loop
      vertex  3.148311e+000  6.500000e+000  3.752777e+000
      vertex  3.700000e+000  3.949553e+000  5.225278e+000
      vertex  3.700000e+000  4.609077e+000  4.653913e+000
    endloop
  endfacet
  facet normal  8.298610e-001  4.181658e-001  3.694157e-001
    outer loop
      vertex  3.148311e+000  6.500000e+000  3.752777e+000
      vertex  3.700000e+000  4.609077e+000  4.653913e+000
      vertex  3.700000e+000  5.186799e+000  3.999952e+000
    endloop
  endfacet
  facet normal  8.655434e-001  4.160913e-001  2.787521e-001
    outer loop
      vertex  3.148311e+000  6.500000e+000  3.752777e+000
      vertex  3.700000e+000  5.186799e+000  3.999952e+000
      vertex  3.700000e+000  5.672466e+000  3.275000e+000
    endloop
  endfacet
  facet normal  8.655434e-001  4.494522e-001  2.209694e-001
    outer loop
      vertex  3.148311e+000  6.500000e+000  3.752777e+000
      vertex  3.700000e+000  5.672466e+000  3.275000e+000
      vertex  3.700000e+000  6.057459e+000  2.491924e+000
    endloop
  endfacet
  facet normal  8.298612e-001  5.290061e-001  1.774344e-001
    outer loop
      vertex  3.148311e+000  6.500000e+000  3.752777e+000
      vertex  3.700000e+000  6.057459e+000  2.491924e+000
      vertex  3.700000e+000  6.334946e+000  1.664621e+000
    endloop
  endfacet
  facet normal  7.105205e-001  6.909735e-001  1.331023e-001
    outer loop
      vertex  3.148311e+000  6.500000e+000  3.752777e+000
      vertex  3.700000e+000  6.334946e+000  1.664621e+000
      vertex  3.700000e+000  6.500000e+000  8.077747e-001
    endloop
  endfacet
  facet normal  7.210634e-001  2.228071e-001 -6.560676e-001
    outer loop
      vertex  3.148311e+000  9.420134e-015 -7.505554e+000
      vertex  3.700000e+000  2.550447e+000 -6.033052e+000
      vertex  3.700000e+000  1.651056e+000 -6.338494e+000
    endloop
  endfacet
  facet normal  8.642544e-001  6.392071e-002 -4.989775e-001
    outer loop
      vertex  3.148311e+000  9.420134e-015 -7.505554e+000
      vertex  3.700000e+000  1.651056e+000 -6.338494e+000
      vertex  3.700000e+000  1.043196e-014 -6.550000e+000
    endloop
  endfacet
  facet normal  8.616120e-001 -1.008281e-001 -4.974520e-001
    outer loop
      vertex  3.148311e+000  9.420134e-015 -7.505554e+000
      vertex  3.700000e+000  1.043196e-014 -6.550000e+000
      vertex  3.700000e+000 -2.550447e+000 -6.033052e+000
    endloop
  endfacet
  facet normal  7.105205e-001  6.909735e-001 -1.331023e-001
    outer loop
      vertex  3.148311e+000  6.500000e+000 -3.752777e+000
      vertex  3.700000e+000  6.500000e+000 -8.077747e-001
      vertex  3.700000e+000  6.334946e+000 -1.664621e+000
    endloop
  endfacet
  facet normal  8.298612e-001  5.290061e-001 -1.774344e-001
    outer loop
      vertex  3.148311e+000  6.500000e+000 -3.752777e+000
      vertex  3.700000e+000  6.334946e+000 -1.664621e+000
      vertex  3.700000e+000  6.057459e+000 -2.491924e+000
    endloop
  endfacet
  facet normal  8.655434e-001  4.494522e-001 -2.209694e-001
    outer loop
      vertex  3.148311e+000  6.500000e+000 -3.752777e+000
      vertex  3.700000e+000  6.057459e+000 -2.491924e+000
      vertex  3.700000e+000  5.672466e+000 -3.275000e+000
    endloop
  endfacet
  facet normal  8.655434e-001  4.160913e-001 -2.787521e-001
    outer loop
      vertex  3.148311e+000  6.500000e+000 -3.752777e+000
      vertex  3.700000e+000  5.672466e+000 -3.275000e+000
      vertex  3.700000e+000  5.186799e+000 -3.999952e+000
    endloop
  endfacet
  facet normal  8.298610e-001  4.181658e-001 -3.694157e-001
    outer loop
      vertex  3.148311e+000  6.500000e+000 -3.752777e+000
      vertex  3.700000e+000  5.186799e+000 -3.999952e+000
      vertex  3.700000e+000  4.609077e+000 -4.653913e+000
    endloop
  endfacet
  facet normal  7.105204e-001  4.607567e-001 -5.318496e-001
    outer loop
      vertex  3.148311e+000  6.500000e+000 -3.752777e+000
      vertex  3.700000e+000  4.609077e+000 -4.653913e+000
      vertex  3.700000e+000  3.949553e+000 -5.225278e+000
    endloop
  endfacet
  facet normal  7.105204e-001 -4.607567e-001 -5.318496e-001
    outer loop
      vertex  3.148311e+000 -6.500000e+000 -3.752777e+000
      vertex  3.700000e+000 -3.949553e+000 -5.225278e+000
      vertex  3.700000e+000 -4.609077e+000 -4.653913e+000
    endloop
  endfacet
  facet normal  8.298610e-001 -4.181658e-001 -3.694157e-001
    outer loop
      vertex  3.148311e+000 -6.500000e+000 -3.752777e+000
      vertex  3.700000e+000 -4.609077e+000 -4.653913e+000
      vertex  3.700000e+000 -5.186799e+000 -3.999952e+000
    endloop
  endfacet
  facet normal  8.655434e-001 -4.160913e-001 -2.787521e-001
    outer loop
      vertex  3.148311e+000 -6.500000e+000 -3.752777e+000
      vertex  3.700000e+000 -5.186799e+000 -3.999952e+000
      vertex  3.700000e+000 -5.672466e+000 -3.275000e+000
    endloop
  endfacet
  facet normal  8.655434e-001 -4.494522e-001 -2.209694e-001
    outer loop
      vertex  3.148311e+000 -6.500000e+000 -3.752777e+000
      vertex  3.700000e+000 -5.672466e+000 -3.275000e+000
      vertex  3.700000e+000 -6.057459e+000 -2.491924e+000
    endloop
  endfacet
  facet normal  8.298612e-001 -5.290061e-001 -1.774344e-001
    outer loop
      vertex  3.148311e+000 -6.500000e+000 -3.752777e+000
      vertex  3.700000e+000 -6.057459e+000 -2.491924e+000
      vertex  3.700000e+000 -6.334946e+000 -1.664621e+000
    endloop
  endfacet
  facet normal  7.105205e-001 -6.909735e-001 -1.331023e-001
    outer loop
      vertex  3.148311e+000 -6.500000e+000 -3.752777e+000
      vertex  3.700000e+000 -6.334946e+000 -1.664621e+000
      vertex  3.700000e+000 -6.500000e+000 -8.077747e-001
    endloop
  endfacet
  facet normal  7.210634e-001 -2.228071e-001  6.560676e-001
    outer loop
      vertex  3.148311e+000 -6.499038e-015  7.505554e+000
      vertex  3.700000e+000 -2.550447e+000  6.033052e+000
      vertex  3.700000e+000 -1.651056e+000  6.338494e+000
    endloop
  endfacet
  facet normal  8.642544e-001 -6.392071e-002  4.989775e-001
    outer loop
      vertex  3.148311e+000 -6.499038e-015  7.505554e+000
      vertex  3.700000e+000 -1.651056e+000  6.338494e+000
      vertex  3.700000e+000  4.764235e-015  6.550000e+000
    endloop
  endfacet
  facet normal  8.652106e-001  4.336812e-002  4.995296e-001
    outer loop
      vertex  3.148311e+000 -6.499038e-015  7.505554e+000
      vertex  3.700000e+000  4.764235e-015  6.550000e+000
      vertex  3.700000e+000  1.128805e+000  6.452000e+000
    endloop
  endfacet
  facet normal  7.817022e-001  1.762901e-001  5.982169e-001
    outer loop
      vertex  3.148311e+000 -6.499038e-015  7.505554e+000
      vertex  3.700000e+000  1.128805e+000  6.452000e+000
      vertex  3.700000e+000  2.550447e+000  6.033052e+000
    endloop
  endfacet
  facet normal  7.105205e-001 -6.909735e-001  1.331023e-001
    outer loop
      vertex  3.148311e+000 -6.500000e+000  3.752777e+000
      vertex  3.700000e+000 -6.500000e+000  8.077747e-001
      vertex  3.700000e+000 -6.334946e+000  1.664621e+000
    endloop
  endfacet
  facet normal  8.298612e-001 -5.290061e-001  1.774344e-001
    outer loop
      vertex  3.148311e+000 -6.500000e+000  3.752777e+000
      vertex  3.700000e+000 -6.334946e+000  1.664621e+000
      vertex  3.700000e+000 -6.057459e+000  2.491924e+000
    endloop
  endfacet
  facet normal  8.655434e-001 -4.494522e-001  2.209694e-001
    outer loop
      vertex  3.148311e+000 -6.500000e+000  3.752777e+000
      vertex  3.700000e+000 -6.057459e+000  2.491924e+000
      vertex  3.700000e+000 -5.672466e+000  3.275000e+000
    endloop
  endfacet
  facet normal  8.655434e-001 -4.160913e-001  2.787521e-001
    outer loop
      vertex  3.148311e+000 -6.500000e+000  3.752777e+000
      vertex  3.700000e+000 -5.672466e+000  3.275000e+000
      vertex  3.700000e+000 -5.186799e+000  3.999952e+000
    endloop
  endfacet
  facet normal  8.298610e-001 -4.181658e-001  3.694157e-001
    outer loop
      vertex  3.148311e+000 -6.500000e+000  3.752777e+000
      vertex  3.700000e+000 -5.186799e+000  3.999952e+000
      vertex  3.700000e+000 -4.609077e+000  4.653913e+000
    endloop
  endfacet
  facet normal  7.105204e-001 -4.607567e-001  5.318496e-001
    outer loop
      vertex  3.148311e+000 -6.500000e+000  3.752777e+000
      vertex  3.700000e+000 -4.609077e+000  4.653913e+000
      vertex  3.700000e+000 -3.949553e+000  5.225278e+000
    endloop
  endfacet
  facet normal -1.000000e+000  0.000000e+000  0.000000e+000
    outer loop
      vertex  0.000000e+000 -1.027018e+000 -3.160836e+000
      vertex  0.000000e+000  1.043196e-014 -6.550000e+000
      vertex  0.000000e+000 -5.672466e+000 -3.275000e+000
    endloop
  endfacet
  facet normal -1.000000e+000  3.354013e-017  5.809321e-017
    outer loop
      vertex  0.000000e+000 -5.672466e+000 -3.275000e+000
      vertex  0.000000e+000  1.043196e-014 -6.550000e+000
      vertex -5.551115e-017 -2.550447e+000 -6.033052e+000
    endloop
  endfacet
  facet normal -9.999999e-001  3.354009e-017  5.809316e-017
    outer loop
      vertex  0.000000e+000 -5.672466e+000 -3.275000e+000
      vertex -5.551115e-017 -2.550447e+000 -6.033052e+000
      vertex -5.551115e-017 -3.949553e+000 -5.225278e+000
    endloop
  endfacet
  facet normal -1.000000e+000 -5.500466e-017  1.639920e-016
    outer loop
      vertex -5.551115e-017  2.550447e+000 -6.033052e+000
      vertex  0.000000e+000  1.043196e-014 -6.550000e+000
      vertex  0.000000e+000  3.949553e+000 -5.225278e+000
    endloop
  endfacet
  facet normal -9.999999e-001  -0.000000e+000  0.000000e+000
    outer loop
      vertex  0.000000e+000  3.949553e+000 -5.225278e+000
      vertex  0.000000e+000  1.043196e-014 -6.550000e+000
      vertex  0.000000e+000  5.672466e+000 -3.275000e+000
    endloop
  endfacet
  facet normal -1.000000e+000  0.000000e+000  0.000000e+000
    outer loop
      vertex  0.000000e+000  1.043196e-014 -6.550000e+000
      vertex  0.000000e+000 -1.027018e+000 -3.160836e+000
      vertex  0.000000e+000  5.672466e+000 -3.275000e+000
    endloop
  endfacet
  facet normal -1.000000e+000  0.000000e+000  0.000000e+000
    outer loop
      vertex  0.000000e+000  5.672466e+000 -3.275000e+000
      vertex  0.000000e+000 -1.027018e+000 -3.160836e+000
      vertex  0.000000e+000  1.027018e+000 -3.160836e+000
    endloop
  endfacet
  facet normal -9.999999e-001  6.791397e-011 -5.999650e-011
    outer loop
      vertex  0.000000e+000 -3.949553e+000  5.225278e+000
      vertex  4.655526e-011 -2.550447e+000  6.033052e+000
      vertex  0.000000e+000 -5.672466e+000  3.275000e+000
    endloop
  endfacet
  facet normal -1.000000e+000 -2.812893e-011  4.872074e-011
    outer loop
      vertex  0.000000e+000 -5.672466e+000  3.275000e+000
      vertex  4.655526e-011 -2.550447e+000  6.033052e+000
      vertex  0.000000e+000 -2.507726e-015  6.550000e+000
    endloop
  endfacet
  facet normal -1.000000e+000  0.000000e+000  0.000000e+000
    outer loop
      vertex  0.000000e+000 -5.672466e+000  3.275000e+000
      vertex  0.000000e+000 -2.507726e-015  6.550000e+000
      vertex  0.000000e+000 -1.027018e+000  3.160836e+000
    endloop
  endfacet
  facet normal -1.000000e+000 -1.025289e-017  3.106933e-018
    outer loop
      vertex  0.000000e+000 -1.027018e+000  3.160836e+000
      vertex  0.000000e+000 -2.507726e-015  6.550000e+000
      vertex -2.775558e-017  2.550447e+000  6.033052e+000
    endloop
  endfacet
  facet normal -1.000000e+000  0.000000e+000 -9.663471e-018
    outer loop
      vertex  0.000000e+000 -1.027018e+000  3.160836e+000
      vertex -2.775558e-017  2.550447e+000  6.033052e+000
      vertex  0.000000e+000  1.027018e+000  3.160836e+000
    endloop
  endfacet
  facet normal -1.000000e+000  4.129066e-017 -3.156411e-017
    outer loop
      vertex  0.000000e+000  1.027018e+000  3.160836e+000
      vertex -2.775558e-017  2.550447e+000  6.033052e+000
      vertex  5.551115e-017  3.949553e+000  5.225278e+000
    endloop
  endfacet
  facet normal -1.000000e+000 -6.846318e-019  2.785838e-017
    outer loop
      vertex  0.000000e+000  1.027018e+000  3.160836e+000
      vertex  5.551115e-017  3.949553e+000  5.225278e+000
      vertex  0.000000e+000  5.672466e+000  3.275000e+000
    endloop
  endfacet
  facet normal -1.000000e+000  1.614183e-017 -5.244799e-018
    outer loop
      vertex  0.000000e+000 -3.323500e+000  3.358859e-015
      vertex -5.551115e-017 -6.500000e+000  8.077747e-001
      vertex  0.000000e+000 -2.688768e+000  1.953504e+000
    endloop
  endfacet
  facet normal -1.000000e+000  8.676218e-018  1.958933e-017
    outer loop
      vertex  0.000000e+000 -2.688768e+000  1.953504e+000
      vertex -5.551115e-017 -6.500000e+000  8.077747e-001
      vertex  0.000000e+000 -5.672466e+000  3.275000e+000
    endloop
  endfacet
  facet normal -1.000000e+000  0.000000e+000  0.000000e+000
    outer loop
      vertex  0.000000e+000 -2.688768e+000  1.953504e+000
      vertex  0.000000e+000 -5.672466e+000  3.275000e+000
      vertex  0.000000e+000 -1.027018e+000  3.160836e+000
    endloop
  endfacet
  facet normal -1.000000e+000  1.904956e-017  6.189578e-018
    outer loop
      vertex  0.000000e+000 -3.323500e+000  3.358859e-015
      vertex  0.000000e+000 -2.688768e+000 -1.953504e+000
      vertex -5.551115e-017 -6.500000e+000  8.077747e-001
    endloop
  endfacet
  facet normal -1.000000e+000 -2.277673e-017 -5.154082e-017
    outer loop
      vertex -5.551115e-017 -6.500000e+000  8.077747e-001
      vertex  0.000000e+000 -2.688768e+000 -1.953504e+000
      vertex  2.775558e-017 -6.500000e+000 -8.077747e-001
    endloop
  endfacet
  facet normal -1.000000e+000 -1.242266e-017 -1.709832e-017
    outer loop
      vertex  0.000000e+000 -2.688768e+000 -1.953504e+000
      vertex  0.000000e+000 -1.027018e+000 -3.160836e+000
      vertex  2.775558e-017 -6.500000e+000 -8.077747e-001
    endloop
  endfacet
  facet normal -1.000000e+000 -2.742063e-019  1.115774e-017
    outer loop
      vertex  2.775558e-017 -6.500000e+000 -8.077747e-001
      vertex  0.000000e+000 -1.027018e+000 -3.160836e+000
      vertex  0.000000e+000 -5.672466e+000 -3.275000e+000
    endloop
  endfacet
  facet normal -1.000000e+000  1.353758e-011  4.398627e-012
    outer loop
      vertex  0.000000e+000  3.323500e+000  0.000000e+000
      vertex  0.000000e+000  2.688768e+000  1.953504e+000
      vertex  4.655523e-011  6.500000e+000  8.077747e-001
    endloop
  endfacet
  facet normal -1.000000e+000  2.083688e-011  2.867951e-011
    outer loop
      vertex  4.655523e-011  6.500000e+000  8.077747e-001
      vertex  0.000000e+000  2.688768e+000  1.953504e+000
      vertex  0.000000e+000  1.027018e+000  3.160836e+000
    endloop
  endfacet
  facet normal -1.000000e+000  4.599341e-013 -1.871520e-011
    outer loop
      vertex  4.655523e-011  6.500000e+000  8.077747e-001
      vertex  0.000000e+000  1.027018e+000  3.160836e+000
      vertex  0.000000e+000  5.672466e+000  3.275000e+000
    endloop
  endfacet
  facet normal -1.000000e+000  7.328070e-012  2.881696e-011
    outer loop
      vertex  4.655523e-011  6.500000e+000  8.077747e-001
      vertex  0.000000e+000  6.500000e+000 -8.077747e-001
      vertex  0.000000e+000  3.323500e+000  0.000000e+000
    endloop
  endfacet
  facet normal -1.000000e+000  0.000000e+000  -0.000000e+000
    outer loop
      vertex  0.000000e+000  3.323500e+000  0.000000e+000
      vertex  0.000000e+000  6.500000e+000 -8.077747e-001
      vertex  0.000000e+000  2.688768e+000 -1.953504e+000
    endloop
  endfacet
  facet normal -1.000000e+000  0.000000e+000  0.000000e+000
    outer loop
      vertex  0.000000e+000  6.500000e+000 -8.077747e-001
      vertex  0.000000e+000  5.672466e+000 -3.275000e+000
      vertex  0.000000e+000  2.688768e+000 -1.953504e+000
    endloop
  endfacet
  facet normal -1.000000e+000  0.000000e+000  -0.000000e+000
    outer loop
      vertex  0.000000e+000  2.688768e+000 -1.953504e+000
      vertex  0.000000e+000  5.672466e+000 -3.275000e+000
      vertex  0.000000e+000  1.027018e+000 -3.160836e+000
    endloop
  endfacet
  facet normal  2.777113e-017  5.000001e-001  8.660254e-001
    outer loop
      vertex  5.516891e-001 -6.354816e-015  7.505554e+000
      vertex  3.148311e+000 -6.499038e-015  7.505554e+000
      vertex -2.775558e-017  2.550447e+000  6.033052e+000
    endloop
  endfacet
  facet normal  -0.000000e+000  5.000001e-001  8.660254e-001
    outer loop
      vertex -2.775558e-017  2.550447e+000  6.033052e+000
      vertex  3.148311e+000 -6.499038e-015  7.505554e+000
      vertex  3.700000e+000  2.550447e+000  6.033052e+000
    endloop
  endfacet
  facet normal  0.000000e+000  4.999999e-001  8.660255e-001
    outer loop
      vertex -2.775558e-017  2.550447e+000  6.033052e+000
      vertex  3.700000e+000  2.550447e+000  6.033052e+000
      vertex  5.551115e-017  3.949553e+000  5.225278e+000
    endloop
  endfacet
  facet normal  0.000000e+000  4.999999e-001  8.660255e-001
    outer loop
      vertex  5.551115e-017  3.949553e+000  5.225278e+000
      vertex  3.700000e+000  2.550447e+000  6.033052e+000
      vertex  3.700000e+000  3.250000e+000  5.629165e+000
    endloop
  endfacet
  facet normal  0.000000e+000  4.999999e-001  8.660255e-001
    outer loop
      vertex  5.551115e-017  3.949553e+000  5.225278e+000
      vertex  3.700000e+000  3.250000e+000  5.629165e+000
      vertex  3.700000e+000  3.949553e+000  5.225278e+000
    endloop
  endfacet
  facet normal  -0.000000e+000  5.000001e-001  8.660254e-001
    outer loop
      vertex  3.148311e+000  6.500000e+000  3.752777e+000
      vertex  5.516891e-001  6.500000e+000  3.752777e+000
      vertex  3.700000e+000  3.949553e+000  5.225278e+000
    endloop
  endfacet
  facet normal  0.000000e+000  5.000001e-001  8.660254e-001
    outer loop
      vertex  3.700000e+000  3.949553e+000  5.225278e+000
      vertex  5.516891e-001  6.500000e+000  3.752777e+000
      vertex  5.551115e-017  3.949553e+000  5.225278e+000
    endloop
  endfacet
  facet normal  0.000000e+000 -5.000001e-001  8.660254e-001
    outer loop
      vertex  5.516891e-001 -6.500000e+000  3.752777e+000
      vertex  3.148311e+000 -6.500000e+000  3.752777e+000
      vertex  0.000000e+000 -3.949553e+000  5.225278e+000
    endloop
  endfacet
  facet normal  0.000000e+000 -5.000001e-001  8.660254e-001
    outer loop
      vertex  0.000000e+000 -3.949553e+000  5.225278e+000
      vertex  3.148311e+000 -6.500000e+000  3.752777e+000
      vertex  3.700000e+000 -3.949553e+000  5.225278e+000
    endloop
  endfacet
  facet normal  0.000000e+000 -4.999999e-001  8.660255e-001
    outer loop
      vertex  0.000000e+000 -3.949553e+000  5.225278e+000
      vertex  3.700000e+000 -3.949553e+000  5.225278e+000
      vertex  4.655526e-011 -2.550447e+000  6.033052e+000
    endloop
  endfacet
  facet normal  0.000000e+000 -4.999999e-001  8.660255e-001
    outer loop
      vertex  4.655526e-011 -2.550447e+000  6.033052e+000
      vertex  3.700000e+000 -3.949553e+000  5.225278e+000
      vertex  3.700000e+000 -3.250000e+000  5.629165e+000
    endloop
  endfacet
  facet normal  0.000000e+000 -4.999999e-001  8.660255e-001
    outer loop
      vertex  4.655526e-011 -2.550447e+000  6.033052e+000
      vertex  3.700000e+000 -3.250000e+000  5.629165e+000
      vertex  3.700000e+000 -2.550447e+000  6.033052e+000
    endloop
  endfacet
  facet normal -2.777113e-017 -5.000001e-001  8.660254e-001
    outer loop
      vertex  3.148311e+000 -6.499038e-015  7.505554e+000
      vertex  5.516891e-001 -6.354816e-015  7.505554e+000
      vertex  3.700000e+000 -2.550447e+000  6.033052e+000
    endloop
  endfacet
  facet normal  0.000000e+000 -5.000001e-001  8.660254e-001
    outer loop
      vertex  3.700000e+000 -2.550447e+000  6.033052e+000
      vertex  5.516891e-001 -6.354816e-015  7.505554e+000
      vertex  4.655526e-011 -2.550447e+000  6.033052e+000
    endloop
  endfacet
  facet normal  0.000000e+000 -1.000000e+000  0.000000e+000
    outer loop
      vertex  5.516891e-001 -6.500000e+000 -3.752777e+000
      vertex  3.148311e+000 -6.500000e+000 -3.752777e+000
      vertex  2.775558e-017 -6.500000e+000 -8.077747e-001
    endloop
  endfacet
  facet normal  0.000000e+000 -1.000000e+000  0.000000e+000
    outer loop
      vertex  2.775558e-017 -6.500000e+000 -8.077747e-001
      vertex  3.148311e+000 -6.500000e+000 -3.752777e+000
      vertex  3.700000e+000 -6.500000e+000 -8.077747e-001
    endloop
  endfacet
  facet normal  0.000000e+000 -1.000000e+000  0.000000e+000
    outer loop
      vertex  2.775558e-017 -6.500000e+000 -8.077747e-001
      vertex  3.700000e+000 -6.500000e+000 -8.077747e-001
      vertex -5.551115e-017 -6.500000e+000  8.077747e-001
    endloop
  endfacet
  facet normal  0.000000e+000 -1.000000e+000  0.000000e+000
    outer loop
      vertex -5.551115e-017 -6.500000e+000  8.077747e-001
      vertex  3.700000e+000 -6.500000e+000 -8.077747e-001
      vertex  3.700000e+000 -6.500000e+000 -2.664535e-015
    endloop
  endfacet
  facet normal  0.000000e+000 -1.000000e+000  0.000000e+000
    outer loop
      vertex -5.551115e-017 -6.500000e+000  8.077747e-001
      vertex  3.700000e+000 -6.500000e+000 -2.664535e-015
      vertex  3.700000e+000 -6.500000e+000  8.077747e-001
    endloop
  endfacet
  facet normal  0.000000e+000 -1.000000e+000  0.000000e+000
    outer loop
      vertex  3.148311e+000 -6.500000e+000  3.752777e+000
      vertex  5.516891e-001 -6.500000e+000  3.752777e+000
      vertex  3.700000e+000 -6.500000e+000  8.077747e-001
    endloop
  endfacet
  facet normal  0.000000e+000 -1.000000e+000  0.000000e+000
    outer loop
      vertex  3.700000e+000 -6.500000e+000  8.077747e-001
      vertex  5.516891e-001 -6.500000e+000  3.752777e+000
      vertex -5.551115e-017 -6.500000e+000  8.077747e-001
    endloop
  endfacet
  facet normal -9.257069e-018 -5.000001e-001 -8.660254e-001
    outer loop
      vertex  5.516891e-001  9.468208e-015 -7.505554e+000
      vertex  3.148311e+000  9.420134e-015 -7.505554e+000
      vertex -5.551115e-017 -2.550447e+000 -6.033052e+000
    endloop
  endfacet
  facet normal  0.000000e+000 -5.000001e-001 -8.660254e-001
    outer loop
      vertex -5.551115e-017 -2.550447e+000 -6.033052e+000
      vertex  3.148311e+000  9.420134e-015 -7.505554e+000
      vertex  3.700000e+000 -2.550447e+000 -6.033052e+000
    endloop
  endfacet
  facet normal  -0.000000e+000 -4.999999e-001 -8.660255e-001
    outer loop
      vertex -5.551115e-017 -2.550447e+000 -6.033052e+000
      vertex  3.700000e+000 -2.550447e+000 -6.033052e+000
      vertex -5.551115e-017 -3.949553e+000 -5.225278e+000
    endloop
  endfacet
  facet normal  0.000000e+000 -4.999999e-001 -8.660255e-001
    outer loop
      vertex -5.551115e-017 -3.949553e+000 -5.225278e+000
      vertex  3.700000e+000 -2.550447e+000 -6.033052e+000
      vertex  3.700000e+000 -3.250000e+000 -5.629165e+000
    endloop
  endfacet
  facet normal  0.000000e+000 -4.999999e-001 -8.660255e-001
    outer loop
      vertex -5.551115e-017 -3.949553e+000 -5.225278e+000
      vertex  3.700000e+000 -3.250000e+000 -5.629165e+000
      vertex  3.700000e+000 -3.949553e+000 -5.225278e+000
    endloop
  endfacet
  facet normal  0.000000e+000 -5.000001e-001 -8.660254e-001
    outer loop
      vertex  3.148311e+000 -6.500000e+000 -3.752777e+000
      vertex  5.516891e-001 -6.500000e+000 -3.752777e+000
      vertex  3.700000e+000 -3.949553e+000 -5.225278e+000
    endloop
  endfacet
  facet normal  -0.000000e+000 -5.000001e-001 -8.660254e-001
    outer loop
      vertex  3.700000e+000 -3.949553e+000 -5.225278e+000
      vertex  5.516891e-001 -6.500000e+000 -3.752777e+000
      vertex -5.551115e-017 -3.949553e+000 -5.225278e+000
    endloop
  endfacet
  facet normal  0.000000e+000  5.000001e-001 -8.660254e-001
    outer loop
      vertex  5.516891e-001  6.500000e+000 -3.752777e+000
      vertex  3.148311e+000  6.500000e+000 -3.752777e+000
      vertex  0.000000e+000  3.949553e+000 -5.225278e+000
    endloop
  endfacet
  facet normal  0.000000e+000  5.000001e-001 -8.660254e-001
    outer loop
      vertex  0.000000e+000  3.949553e+000 -5.225278e+000
      vertex  3.148311e+000  6.500000e+000 -3.752777e+000
      vertex  3.700000e+000  3.949553e+000 -5.225278e+000
    endloop
  endfacet
  facet normal  0.000000e+000  4.999999e-001 -8.660255e-001
    outer loop
      vertex  0.000000e+000  3.949553e+000 -5.225278e+000
      vertex  3.700000e+000  3.949553e+000 -5.225278e+000
      vertex -5.551115e-017  2.550447e+000 -6.033052e+000
    endloop
  endfacet
  facet normal  0.000000e+000  4.999999e-001 -8.660255e-001
    outer loop
      vertex -5.551115e-017  2.550447e+000 -6.033052e+000
      vertex  3.700000e+000  3.949553e+000 -5.225278e+000
      vertex  3.700000e+000  3.250000e+000 -5.629165e+000
    endloop
  endfacet
  facet normal  0.000000e+000  4.999999e-001 -8.660255e-001
    outer loop
      vertex -5.551115e-017  2.550447e+000 -6.033052e+000
      vertex  3.700000e+000  3.250000e+000 -5.629165e+000
      vertex  3.700000e+000  2.550447e+000 -6.033052e+000
    endloop
  endfacet
  facet normal  9.257069e-018  5.000001e-001 -8.660254e-001
    outer loop
      vertex  3.148311e+000  9.420134e-015 -7.505554e+000
      vertex  5.516891e-001  9.468208e-015 -7.505554e+000
      vertex  3.700000e+000  2.550447e+000 -6.033052e+000
    endloop
  endfacet
  facet normal  0.000000e+000  5.000001e-001 -8.660254e-001
    outer loop
      vertex  3.700000e+000  2.550447e+000 -6.033052e+000
      vertex  5.516891e-001  9.468208e-015 -7.505554e+000
      vertex -5.551115e-017  2.550447e+000 -6.033052e+000
    endloop
  endfacet
  facet normal  0.000000e+000  1.000000e+000  0.000000e+000
    outer loop
      vertex  5.516891e-001  6.500000e+000  3.752777e+000
      vertex  3.148311e+000  6.500000e+000  3.752777e+000
      vertex  4.655523e-011  6.500000e+000  8.077747e-001
    endloop
  endfacet
  facet normal  0.000000e+000  1.000000e+000  0.000000e+000
    outer loop
      vertex  4.655523e-011  6.500000e+000  8.077747e-001
      vertex  3.148311e+000  6.500000e+000  3.752777e+000
      vertex  3.700000e+000  6.500000e+000  8.077747e-001
    endloop
  endfacet
  facet normal  0.000000e+000  1.000000e+000  0.000000e+000
    outer loop
      vertex  4.655523e-011  6.500000e+000  8.077747e-001
      vertex  3.700000e+000  6.500000e+000  8.077747e-001
      vertex  0.000000e+000  6.500000e+000 -8.077747e-001
    endloop
  endfacet
  facet normal  0.000000e+000  1.000000e+000  0.000000e+000
    outer loop
      vertex  0.000000e+000  6.500000e+000 -8.077747e-001
      vertex  3.700000e+000  6.500000e+000  8.077747e-001
      vertex  3.700000e+000  6.500000e+000  3.737082e-015
    endloop
  endfacet
  facet normal  0.000000e+000  1.000000e+000  0.000000e+000
    outer loop
      vertex  0.000000e+000  6.500000e+000 -8.077747e-001
      vertex  3.700000e+000  6.500000e+000  3.737082e-015
      vertex  3.700000e+000  6.500000e+000 -8.077747e-001
    endloop
  endfacet
  facet normal  0.000000e+000  1.000000e+000  0.000000e+000
    outer loop
      vertex  3.148311e+000  6.500000e+000 -3.752777e+000
      vertex  5.516891e-001  6.500000e+000 -3.752777e+000
      vertex  3.700000e+000  6.500000e+000 -8.077747e-001
    endloop
  endfacet
  facet normal  0.000000e+000  1.000000e+000  0.000000e+000
    outer loop
      vertex  3.700000e+000  6.500000e+000 -8.077747e-001
      vertex  5.516891e-001  6.500000e+000 -3.752777e+000
      vertex  0.000000e+000  6.500000e+000 -8.077747e-001
    endloop
  endfacet
  facet normal  1.000000e+000  0.000000e+000  0.000000e+000
    outer loop
      vertex  3.700000e+000 -3.949553e+000  5.225278e+000
      vertex  3.700000e+000 -4.052684e+000  5.081904e+000
      vertex  3.700000e+000 -3.250000e+000  5.629165e+000
    endloop
  endfacet
  facet normal  1.000000e+000  -0.000000e+000  0.000000e+000
    outer loop
      vertex  3.700000e+000 -5.370552e+000  3.661580e+000
      vertex  3.700000e+000 -5.672466e+000  3.275000e+000
      vertex  3.700000e+000 -5.856297e+000  2.820244e+000
    endloop
  endfacet
  facet normal  1.000000e+000  0.000000e+000  0.000000e+000
    outer loop
      vertex  3.700000e+000 -5.672466e+000  3.275000e+000
      vertex  3.700000e+000 -6.057459e+000  2.491924e+000
      vertex  3.700000e+000 -5.856297e+000  2.820244e+000
    endloop
  endfacet
  facet normal  1.000000e+000  0.000000e+000  0.000000e+000
    outer loop
      vertex  3.700000e+000 -4.052684e+000  5.081904e+000
      vertex  3.700000e+000 -3.949553e+000  5.225278e+000
      vertex  3.700000e+000 -4.764837e+000  4.421123e+000
    endloop
  endfacet
  facet normal  1.000000e+000  0.000000e+000  0.000000e+000
    outer loop
      vertex  3.700000e+000 -4.764837e+000  4.421123e+000
      vertex  3.700000e+000 -3.949553e+000  5.225278e+000
      vertex  3.700000e+000 -4.609077e+000  4.653913e+000
    endloop
  endfacet
  facet normal  1.000000e+000  0.000000e+000  0.000000e+000
    outer loop
      vertex  3.700000e+000 -4.764837e+000  4.421123e+000
      vertex  3.700000e+000 -4.609077e+000  4.653913e+000
      vertex  3.700000e+000 -5.370552e+000  3.661580e+000
    endloop
  endfacet
  facet normal  1.000000e+000  0.000000e+000  0.000000e+000
    outer loop
      vertex  3.700000e+000 -5.370552e+000  3.661580e+000
      vertex  3.700000e+000 -4.609077e+000  4.653913e+000
      vertex  3.700000e+000 -5.186799e+000  3.999952e+000
    endloop
  endfacet
  facet normal  1.000000e+000  0.000000e+000  0.000000e+000
    outer loop
      vertex  3.700000e+000 -5.370552e+000  3.661580e+000
      vertex  3.700000e+000 -5.186799e+000  3.999952e+000
      vertex  3.700000e+000 -5.672466e+000  3.275000e+000
    endloop
  endfacet
  facet normal  1.000000e+000  -0.000000e+000  0.000000e+000
    outer loop
      vertex  3.700000e+000 -5.856297e+000  2.820244e+000
      vertex  3.700000e+000 -6.057459e+000  2.491924e+000
      vertex  3.700000e+000 -6.211223e+000  1.915909e+000
    endloop
  endfacet
  facet normal  1.000000e+000  0.000000e+000  -0.000000e+000
    outer loop
      vertex  3.700000e+000 -6.211223e+000  1.915909e+000
      vertex  3.700000e+000 -6.057459e+000  2.491924e+000
      vertex  3.700000e+000 -6.334946e+000  1.664621e+000
    endloop
  endfacet
  facet normal  1.000000e+000  -0.000000e+000  0.000000e+000
    outer loop
      vertex  3.700000e+000 -6.211223e+000  1.915909e+000
      vertex  3.700000e+000 -6.334946e+000  1.664621e+000
      vertex  3.700000e+000 -6.427401e+000  9.687747e-001
    endloop
  endfacet
  facet normal  1.000000e+000  0.000000e+000  -0.000000e+000
    outer loop
      vertex  3.700000e+000 -6.427401e+000  9.687747e-001
      vertex  3.700000e+000 -6.334946e+000  1.664621e+000
      vertex  3.700000e+000 -6.500000e+000  8.077747e-001
    endloop
  endfacet
  facet normal  1.000000e+000  -0.000000e+000  0.000000e+000
    outer loop
      vertex  3.700000e+000 -6.427401e+000  9.687747e-001
      vertex  3.700000e+000 -6.500000e+000  8.077747e-001
      vertex  3.700000e+000 -6.500000e+000 -2.664535e-015
    endloop
  endfacet
  facet normal  1.000000e+000  0.000000e+000  0.000000e+000
    outer loop
      vertex  3.700000e+000  3.949553e+000  5.225278e+000
      vertex  3.700000e+000  3.250000e+000  5.629165e+000
      vertex  3.700000e+000  4.052684e+000  5.081904e+000
    endloop
  endfacet
  facet normal  1.000000e+000  0.000000e+000  0.000000e+000
    outer loop
      vertex  3.700000e+000  5.370552e+000  3.661580e+000
      vertex  3.700000e+000  5.856297e+000  2.820244e+000
      vertex  3.700000e+000  5.672466e+000  3.275000e+000
    endloop
  endfacet
  facet normal  1.000000e+000  -0.000000e+000  -0.000000e+000
    outer loop
      vertex  3.700000e+000  5.672466e+000  3.275000e+000
      vertex  3.700000e+000  5.856297e+000  2.820244e+000
      vertex  3.700000e+000  6.057459e+000  2.491924e+000
    endloop
  endfacet
  facet normal  1.000000e+000  -0.000000e+000  -0.000000e+000
    outer loop
      vertex  3.700000e+000  3.949553e+000  5.225278e+000
      vertex  3.700000e+000  4.052684e+000  5.081904e+000
      vertex  3.700000e+000  4.609077e+000  4.653913e+000
    endloop
  endfacet
  facet normal  1.000000e+000  0.000000e+000  0.000000e+000
    outer loop
      vertex  3.700000e+000  4.609077e+000  4.653913e+000
      vertex  3.700000e+000  4.052684e+000  5.081904e+000
      vertex  3.700000e+000  4.764837e+000  4.421123e+000
    endloop
  endfacet
  facet normal  1.000000e+000  -0.000000e+000  -0.000000e+000
    outer loop
      vertex  3.700000e+000  4.609077e+000  4.653913e+000
      vertex  3.700000e+000  4.764837e+000  4.421123e+000
      vertex  3.700000e+000  5.186799e+000  3.999952e+000
    endloop
  endfacet
  facet normal  1.000000e+000  0.000000e+000  0.000000e+000
    outer loop
      vertex  3.700000e+000  5.186799e+000  3.999952e+000
      vertex  3.700000e+000  4.764837e+000  4.421123e+000
      vertex  3.700000e+000  5.370552e+000  3.661580e+000
    endloop
  endfacet
  facet normal  1.000000e+000  -0.000000e+000  -0.000000e+000
    outer loop
      vertex  3.700000e+000  5.186799e+000  3.999952e+000
      vertex  3.700000e+000  5.370552e+000  3.661580e+000
      vertex  3.700000e+000  5.672466e+000  3.275000e+000
    endloop
  endfacet
  facet normal  1.000000e+000  0.000000e+000  0.000000e+000
    outer loop
      vertex  3.700000e+000  6.057459e+000  2.491924e+000
      vertex  3.700000e+000  5.856297e+000  2.820244e+000
      vertex  3.700000e+000  6.334946e+000  1.664621e+000
    endloop
  endfacet
  facet normal  1.000000e+000  0.000000e+000  0.000000e+000
    outer loop
      vertex  3.700000e+000  6.334946e+000  1.664621e+000
      vertex  3.700000e+000  5.856297e+000  2.820244e+000
      vertex  3.700000e+000  6.211223e+000  1.915909e+000
    endloop
  endfacet
  facet normal  1.000000e+000  0.000000e+000  0.000000e+000
    outer loop
      vertex  3.700000e+000  6.334946e+000  1.664621e+000
      vertex  3.700000e+000  6.211223e+000  1.915909e+000
      vertex  3.700000e+000  6.500000e+000  8.077747e-001
    endloop
  endfacet
  facet normal  1.000000e+000  0.000000e+000  0.000000e+000
    outer loop
      vertex  3.700000e+000  6.500000e+000  8.077747e-001
      vertex  3.700000e+000  6.211223e+000  1.915909e+000
      vertex  3.700000e+000  6.427401e+000  9.687747e-001
    endloop
  endfacet
  facet normal  1.000000e+000  0.000000e+000  0.000000e+000
    outer loop
      vertex  3.700000e+000  6.500000e+000  8.077747e-001
      vertex  3.700000e+000  6.427401e+000  9.687747e-001
      vertex  3.700000e+000  6.500000e+000  3.737082e-015
    endloop
  endfacet
  facet normal  1.000000e+000  0.000000e+000  0.000000e+000
    outer loop
      vertex  3.700000e+000  6.500000e+000 -8.077747e-001
      vertex  3.700000e+000  6.500000e+000  3.737082e-015
      vertex  3.700000e+000  6.427401e+000 -9.687747e-001
    endloop
  endfacet
  facet normal  1.000000e+000  0.000000e+000  0.000000e+000
    outer loop
      vertex  3.700000e+000  5.856297e+000 -2.820244e+000
      vertex  3.700000e+000  5.370552e+000 -3.661580e+000
      vertex  3.700000e+000  5.672466e+000 -3.275000e+000
    endloop
  endfacet
  facet normal  1.000000e+000  -0.000000e+000  0.000000e+000
    outer loop
      vertex  3.700000e+000  5.672466e+000 -3.275000e+000
      vertex  3.700000e+000  5.370552e+000 -3.661580e+000
      vertex  3.700000e+000  5.186799e+000 -3.999952e+000
    endloop
  endfacet
  facet normal  1.000000e+000  -0.000000e+000  0.000000e+000
    outer loop
      vertex  3.700000e+000  6.500000e+000 -8.077747e-001
      vertex  3.700000e+000  6.427401e+000 -9.687747e-001
      vertex  3.700000e+000  6.334946e+000 -1.664621e+000
    endloop
  endfacet
  facet normal  1.000000e+000  0.000000e+000  -0.000000e+000
    outer loop
      vertex  3.700000e+000  6.334946e+000 -1.664621e+000
      vertex  3.700000e+000  6.427401e+000 -9.687747e-001
      vertex  3.700000e+000  6.211223e+000 -1.915909e+000
    endloop
  endfacet
  facet normal  1.000000e+000  -0.000000e+000  0.000000e+000
    outer loop
      vertex  3.700000e+000  6.334946e+000 -1.664621e+000
      vertex  3.700000e+000  6.211223e+000 -1.915909e+000
      vertex  3.700000e+000  6.057459e+000 -2.491924e+000
    endloop
  endfacet
  facet normal  1.000000e+000  0.000000e+000  -0.000000e+000
    outer loop
      vertex  3.700000e+000  6.057459e+000 -2.491924e+000
      vertex  3.700000e+000  6.211223e+000 -1.915909e+000
      vertex  3.700000e+000  5.856297e+000 -2.820244e+000
    endloop
  endfacet
  facet normal  1.000000e+000  -0.000000e+000  0.000000e+000
    outer loop
      vertex  3.700000e+000  6.057459e+000 -2.491924e+000
      vertex  3.700000e+000  5.856297e+000 -2.820244e+000
      vertex  3.700000e+000  5.672466e+000 -3.275000e+000
    endloop
  endfacet
  facet normal  1.000000e+000  0.000000e+000  0.000000e+000
    outer loop
      vertex  3.700000e+000  5.186799e+000 -3.999952e+000
      vertex  3.700000e+000  5.370552e+000 -3.661580e+000
      vertex  3.700000e+000  4.609077e+000 -4.653913e+000
    endloop
  endfacet
  facet normal  1.000000e+000  0.000000e+000  0.000000e+000
    outer loop
      vertex  3.700000e+000  4.609077e+000 -4.653913e+000
      vertex  3.700000e+000  5.370552e+000 -3.661580e+000
      vertex  3.700000e+000  4.764837e+000 -4.421123e+000
    endloop
  endfacet
  facet normal  1.000000e+000  0.000000e+000  0.000000e+000
    outer loop
      vertex  3.700000e+000  4.609077e+000 -4.653913e+000
      vertex  3.700000e+000  4.764837e+000 -4.421123e+000
      vertex  3.700000e+000  3.949553e+000 -5.225278e+000
    endloop
  endfacet
  facet normal  1.000000e+000  0.000000e+000  0.000000e+000
    outer loop
      vertex  3.700000e+000  3.949553e+000 -5.225278e+000
      vertex  3.700000e+000  4.764837e+000 -4.421123e+000
      vertex  3.700000e+000  4.052684e+000 -5.081904e+000
    endloop
  endfacet
  facet normal  1.000000e+000  0.000000e+000  0.000000e+000
    outer loop
      vertex  3.700000e+000  3.949553e+000 -5.225278e+000
      vertex  3.700000e+000  4.052684e+000 -5.081904e+000
      vertex  3.700000e+000  3.250000e+000 -5.629165e+000
    endloop
  endfacet
  facet normal -9.999999e-001  0.000000e+000  0.000000e+000
    outer loop
      vertex  3.700000e+000 -2.550447e+000 -6.033052e+000
      vertex  3.700000e+000  1.043196e-014 -6.550000e+000
      vertex  3.700000e+000 -1.128713e+000 -6.401250e+000
    endloop
  endfacet
  facet normal  1.000000e+000  0.000000e+000  0.000000e+000
    outer loop
      vertex  3.700000e+000 -2.550447e+000 -6.033052e+000
      vertex  3.700000e+000 -1.128713e+000 -6.401250e+000
      vertex  3.700000e+000 -3.250000e+000 -5.629165e+000
    endloop
  endfacet
  facet normal  9.999999e-001  -0.000000e+000  0.000000e+000
    outer loop
      vertex  3.700000e+000  1.651056e+000 -6.338494e+000
      vertex  3.700000e+000  1.128713e+000 -6.401250e+000
      vertex  3.700000e+000  1.043196e-014 -6.550000e+000
    endloop
  endfacet
  facet normal  1.000000e+000  0.000000e+000  0.000000e+000
    outer loop
      vertex  3.700000e+000  1.043196e-014 -6.550000e+000
      vertex  3.700000e+000  1.128713e+000 -6.401250e+000
      vertex  3.700000e+000 -1.128713e+000 -6.401250e+000
    endloop
  endfacet
  facet normal  1.000000e+000  0.000000e+000  0.000000e+000
    outer loop
      vertex  3.700000e+000  2.550447e+000 -6.033052e+000
      vertex  3.700000e+000  3.250000e+000 -5.629165e+000
      vertex  3.700000e+000  1.651056e+000 -6.338494e+000
    endloop
  endfacet
  facet normal  1.000000e+000  0.000000e+000  -0.000000e+000
    outer loop
      vertex  3.700000e+000  1.651056e+000 -6.338494e+000
      vertex  3.700000e+000  3.250000e+000 -5.629165e+000
      vertex  3.700000e+000  1.647047e+000 -6.287864e+000
    endloop
  endfacet
  facet normal  1.000000e+000  0.000000e+000  0.000000e+000
    outer loop
      vertex  3.700000e+000  1.651056e+000 -6.338494e+000
      vertex  3.700000e+000  1.647047e+000 -6.287864e+000
      vertex  3.700000e+000  1.128713e+000 -6.401250e+000
    endloop
  endfacet
  facet normal  1.000000e+000  0.000000e+000  0.000000e+000
    outer loop
      vertex  3.700000e+000 -6.500000e+000 -8.077747e-001
      vertex  3.700000e+000 -6.427401e+000 -9.687747e-001
      vertex  3.700000e+000 -6.500000e+000 -2.664535e-015
    endloop
  endfacet
  facet normal  1.000000e+000  -0.000000e+000  -0.000000e+000
    outer loop
      vertex  3.700000e+000 -5.856297e+000 -2.820244e+000
      vertex  3.700000e+000 -5.672466e+000 -3.275000e+000
      vertex  3.700000e+000 -5.370552e+000 -3.661580e+000
    endloop
  endfacet
  facet normal  1.000000e+000  0.000000e+000  0.000000e+000
    outer loop
      vertex  3.700000e+000 -5.672466e+000 -3.275000e+000
      vertex  3.700000e+000 -5.186799e+000 -3.999952e+000
      vertex  3.700000e+000 -5.370552e+000 -3.661580e+000
    endloop
  endfacet
  facet normal  1.000000e+000  0.000000e+000  0.000000e+000
    outer loop
      vertex  3.700000e+000 -6.427401e+000 -9.687747e-001
      vertex  3.700000e+000 -6.500000e+000 -8.077747e-001
      vertex  3.700000e+000 -6.211223e+000 -1.915909e+000
    endloop
  endfacet
  facet normal  1.000000e+000  0.000000e+000  0.000000e+000
    outer loop
      vertex  3.700000e+000 -6.211223e+000 -1.915909e+000
      vertex  3.700000e+000 -6.500000e+000 -8.077747e-001
      vertex  3.700000e+000 -6.334946e+000 -1.664621e+000
    endloop
  endfacet
  facet normal  1.000000e+000  0.000000e+000  0.000000e+000
    outer loop
      vertex  3.700000e+000 -6.211223e+000 -1.915909e+000
      vertex  3.700000e+000 -6.334946e+000 -1.664621e+000
      vertex  3.700000e+000 -5.856297e+000 -2.820244e+000
    endloop
  endfacet
  facet normal  1.000000e+000  0.000000e+000  0.000000e+000
    outer loop
      vertex  3.700000e+000 -5.856297e+000 -2.820244e+000
      vertex  3.700000e+000 -6.334946e+000 -1.664621e+000
      vertex  3.700000e+000 -6.057459e+000 -2.491924e+000
    endloop
  endfacet
  facet normal  1.000000e+000  0.000000e+000  0.000000e+000
    outer loop
      vertex  3.700000e+000 -5.856297e+000 -2.820244e+000
      vertex  3.700000e+000 -6.057459e+000 -2.491924e+000
      vertex  3.700000e+000 -5.672466e+000 -3.275000e+000
    endloop
  endfacet
  facet normal  1.000000e+000  -0.000000e+000  -0.000000e+000
    outer loop
      vertex  3.700000e+000 -5.370552e+000 -3.661580e+000
      vertex  3.700000e+000 -5.186799e+000 -3.999952e+000
      vertex  3.700000e+000 -4.764837e+000 -4.421123e+000
    endloop
  endfacet
  facet normal  1.000000e+000  0.000000e+000  0.000000e+000
    outer loop
      vertex  3.700000e+000 -4.764837e+000 -4.421123e+000
      vertex  3.700000e+000 -5.186799e+000 -3.999952e+000
      vertex  3.700000e+000 -4.609077e+000 -4.653913e+000
    endloop
  endfacet
  facet normal  1.000000e+000  -0.000000e+000  -0.000000e+000
    outer loop
      vertex  3.700000e+000 -4.764837e+000 -4.421123e+000
      vertex  3.700000e+000 -4.609077e+000 -4.653913e+000
      vertex  3.700000e+000 -4.052684e+000 -5.081904e+000
    endloop
  endfacet
  facet normal  1.000000e+000  0.000000e+000  0.000000e+000
    outer loop
      vertex  3.700000e+000 -4.052684e+000 -5.081904e+000
      vertex  3.700000e+000 -4.609077e+000 -4.653913e+000
      vertex  3.700000e+000 -3.949553e+000 -5.225278e+000
    endloop
  endfacet
  facet normal  1.000000e+000  -0.000000e+000  -0.000000e+000
    outer loop
      vertex  3.700000e+000 -4.052684e+000 -5.081904e+000
      vertex  3.700000e+000 -3.949553e+000 -5.225278e+000
      vertex  3.700000e+000 -3.250000e+000 -5.629165e+000
    endloop
  endfacet
  facet normal  1.000000e+000  0.000000e+000  0.000000e+000
    outer loop
      vertex  3.700000e+000 -2.550447e+000  6.033052e+000
      vertex  3.700000e+000 -3.250000e+000  5.629165e+000
      vertex  3.700000e+000 -1.651056e+000  6.338494e+000
    endloop
  endfacet
  facet normal  1.000000e+000  0.000000e+000  0.000000e+000
    outer loop
      vertex  3.700000e+000 -1.651056e+000  6.338494e+000
      vertex  3.700000e+000 -3.250000e+000  5.629165e+000
      vertex  3.700000e+000 -1.647047e+000  6.287864e+000
    endloop
  endfacet
  facet normal  1.000000e+000  0.000000e+000  -0.000000e+000
    outer loop
      vertex  3.700000e+000 -1.651056e+000  6.338494e+000
      vertex  3.700000e+000 -1.647047e+000  6.287864e+000
      vertex  3.700000e+000 -1.128713e+000  6.401250e+000
    endloop
  endfacet
  facet normal  1.000000e+000  0.000000e+000  0.000000e+000
    outer loop
      vertex  3.700000e+000  3.250000e+000  5.629165e+000
      vertex  3.700000e+000  2.550447e+000  6.033052e+000
      vertex  3.700000e+000  1.128713e+000  6.401250e+000
    endloop
  endfacet
  facet normal  1.000000e+000  -0.000000e+000  0.000000e+000
    outer loop
      vertex  3.700000e+000  1.128713e+000  6.401250e+000
      vertex  3.700000e+000  2.550447e+000  6.033052e+000
      vertex  3.700000e+000  1.128805e+000  6.452000e+000
    endloop
  endfacet
  facet normal  1.000000e+000  0.000000e+000  0.000000e+000
    outer loop
      vertex  3.700000e+000  1.128713e+000  6.401250e+000
      vertex  3.700000e+000  1.128805e+000  6.452000e+000
      vertex  3.700000e+000 -1.128713e+000  6.401250e+000
    endloop
  endfacet
  facet normal  1.000000e+000  0.000000e+000  0.000000e+000
    outer loop
      vertex  3.700000e+000 -1.128713e+000  6.401250e+000
      vertex  3.700000e+000  1.128805e+000  6.452000e+000
      vertex  3.700000e+000  4.764235e-015  6.550000e+000
    endloop
  endfacet
  facet normal  9.999999e-001  0.000000e+000  0.000000e+000
    outer loop
      vertex  3.700000e+000 -1.128713e+000  6.401250e+000
      vertex  3.700000e+000  4.764235e-015  6.550000e+000
      vertex  3.700000e+000 -1.651056e+000  6.338494e+000
    endloop
  endfacet
  facet normal  9.999999e-001  0.000000e+000  0.000000e+000
    outer loop
      vertex  6.760000e+000  2.688768e+000 -1.953504e+000
      vertex  6.760000e+000  1.027018e+000 -3.160836e+000
      vertex  6.760000e+000  5.631055e+000 -2.711773e+000
    endloop
  endfacet
  facet normal  1.000000e+000  0.000000e+000  -0.000000e+000
    outer loop
      vertex  6.760000e+000  1.027018e+000 -3.160836e+000
      vertex  6.760000e+000  3.896811e+000 -4.886447e+000
      vertex  6.760000e+000  5.631055e+000 -2.711773e+000
    endloop
  endfacet
  facet normal  1.000000e+000  0.000000e+000  0.000000e+000
    outer loop
      vertex  6.760000e+000  1.390756e+000 -6.093299e+000
      vertex  6.760000e+000  3.896811e+000 -4.886447e+000
      vertex  6.760000e+000 -1.390756e+000 -6.093299e+000
    endloop
  endfacet
  facet normal  9.999999e-001  0.000000e+000  0.000000e+000
    outer loop
      vertex  6.760000e+000 -1.390756e+000 -6.093299e+000
      vertex  6.760000e+000  3.896811e+000 -4.886447e+000
      vertex  6.760000e+000  1.027018e+000 -3.160836e+000
    endloop
  endfacet
  facet normal  1.000000e+000  0.000000e+000  0.000000e+000
    outer loop
      vertex  6.760000e+000 -1.390756e+000 -6.093299e+000
      vertex  6.760000e+000  1.027018e+000 -3.160836e+000
      vertex  6.760000e+000 -3.896811e+000 -4.886447e+000
    endloop
  endfacet
  facet normal  1.000000e+000  0.000000e+000  0.000000e+000
    outer loop
      vertex  6.760000e+000 -3.896811e+000 -4.886447e+000
      vertex  6.760000e+000  1.027018e+000 -3.160836e+000
      vertex  6.760000e+000 -1.027018e+000 -3.160836e+000
    endloop
  endfacet
  facet normal  1.000000e+000  0.000000e+000  0.000000e+000
    outer loop
      vertex  6.760000e+000 -3.896811e+000 -4.886447e+000
      vertex  6.760000e+000 -1.027018e+000 -3.160836e+000
      vertex  6.760000e+000 -5.631055e+000 -2.711773e+000
    endloop
  endfacet
  facet normal  9.999999e-001  -0.000000e+000  0.000000e+000
    outer loop
      vertex  6.760000e+000 -5.631055e+000 -2.711773e+000
      vertex  6.760000e+000 -1.027018e+000 -3.160836e+000
      vertex  6.760000e+000 -2.688768e+000 -1.953504e+000
    endloop
  endfacet
  facet normal  1.000000e+000  0.000000e+000  0.000000e+000
    outer loop
      vertex  6.760000e+000  3.896811e+000  4.886447e+000
      vertex  6.760000e+000  1.390756e+000  6.093299e+000
      vertex  6.760000e+000  1.027018e+000  3.160836e+000
    endloop
  endfacet
  facet normal  1.000000e+000  0.000000e+000  -0.000000e+000
    outer loop
      vertex  6.760000e+000  1.027018e+000  3.160836e+000
      vertex  6.760000e+000  1.390756e+000  6.093299e+000
      vertex  6.760000e+000 -1.390756e+000  6.093299e+000
    endloop
  endfacet
  facet normal  1.000000e+000  0.000000e+000  0.000000e+000
    outer loop
      vertex  6.760000e+000  1.027018e+000  3.160836e+000
      vertex  6.760000e+000 -1.390756e+000  6.093299e+000
      vertex  6.760000e+000 -1.027018e+000  3.160836e+000
    endloop
  endfacet
  facet normal  9.999999e-001  0.000000e+000  0.000000e+000
    outer loop
      vertex  6.760000e+000 -1.027018e+000  3.160836e+000
      vertex  6.760000e+000 -1.390756e+000  6.093299e+000
      vertex  6.760000e+000 -3.896811e+000  4.886447e+000
    endloop
  endfacet
  facet normal  1.000000e+000  0.000000e+000  0.000000e+000
    outer loop
      vertex  6.760000e+000 -1.027018e+000  3.160836e+000
      vertex  6.760000e+000 -3.896811e+000  4.886447e+000
      vertex  6.760000e+000 -5.631055e+000  2.711773e+000
    endloop
  endfacet
  facet normal  9.999999e-001  -0.000000e+000  0.000000e+000
    outer loop
      vertex  6.760000e+000 -1.027018e+000  3.160836e+000
      vertex  6.760000e+000 -5.631055e+000  2.711773e+000
      vertex  6.760000e+000 -2.688768e+000  1.953504e+000
    endloop
  endfacet
  facet normal  1.000000e+000  0.000000e+000  0.000000e+000
    outer loop
      vertex  6.760000e+000 -2.688768e+000  1.953504e+000
      vertex  6.760000e+000 -5.631055e+000  2.711773e+000
      vertex  6.760000e+000 -6.250000e+000  4.873204e-015
    endloop
  endfacet
  facet normal  9.999999e-001  -0.000000e+000  0.000000e+000
    outer loop
      vertex  6.760000e+000 -2.688768e+000  1.953504e+000
      vertex  6.760000e+000 -6.250000e+000  4.873204e-015
      vertex  6.760000e+000 -3.323500e+000  3.358859e-015
    endloop
  endfacet
  facet normal  1.000000e+000  0.000000e+000  0.000000e+000
    outer loop
      vertex  6.760000e+000 -5.631055e+000 -2.711773e+000
      vertex  6.760000e+000 -2.688768e+000 -1.953504e+000
      vertex  6.760000e+000 -6.250000e+000  4.873204e-015
    endloop
  endfacet
  facet normal  9.999999e-001  0.000000e+000  0.000000e+000
    outer loop
      vertex  6.760000e+000 -6.250000e+000  4.873204e-015
      vertex  6.760000e+000 -2.688768e+000 -1.953504e+000
      vertex  6.760000e+000 -3.323500e+000  3.358859e-015
    endloop
  endfacet
  facet normal  1.000000e+000  0.000000e+000  0.000000e+000
    outer loop
      vertex  6.760000e+000  2.688768e+000  1.953504e+000
      vertex  6.760000e+000  6.250000e+000 -7.303918e-015
      vertex  6.760000e+000  1.027018e+000  3.160836e+000
    endloop
  endfacet
  facet normal  9.999999e-001  0.000000e+000  0.000000e+000
    outer loop
      vertex  6.760000e+000  1.027018e+000  3.160836e+000
      vertex  6.760000e+000  6.250000e+000 -7.303918e-015
      vertex  6.760000e+000  5.631055e+000  2.711773e+000
    endloop
  endfacet
  facet normal  1.000000e+000  0.000000e+000  0.000000e+000
    outer loop
      vertex  6.760000e+000  1.027018e+000  3.160836e+000
      vertex  6.760000e+000  5.631055e+000  2.711773e+000
      vertex  6.760000e+000  3.896811e+000  4.886447e+000
    endloop
  endfacet
  facet normal  1.000000e+000  0.000000e+000  0.000000e+000
    outer loop
      vertex  6.760000e+000  2.688768e+000 -1.953504e+000
      vertex  6.760000e+000  5.631055e+000 -2.711773e+000
      vertex  6.760000e+000  3.323500e+000  0.000000e+000
    endloop
  endfacet
  facet normal  1.000000e+000  0.000000e+000  0.000000e+000
    outer loop
      vertex  6.760000e+000  3.323500e+000  0.000000e+000
      vertex  6.760000e+000  5.631055e+000 -2.711773e+000
      vertex  6.760000e+000  6.250000e+000 -7.303918e-015
    endloop
  endfacet
  facet normal  9.999999e-001  0.000000e+000  0.000000e+000
    outer loop
      vertex  6.760000e+000  3.323500e+000  0.000000e+000
      vertex  6.760000e+000  6.250000e+000 -7.303918e-015
      vertex  6.760000e+000  2.688768e+000  1.953504e+000
    endloop
  endfacet
  facet normal  2.284777e-002  0.000000e+000 -9.997389e-001
    outer loop
      vertex  6.510000e+000 -1.446386e+000 -6.337031e+000
      vertex  3.700000e+000 -1.128713e+000 -6.401250e+000
      vertex  3.700000e+000  1.128713e+000 -6.401250e+000
    endloop
  endfacet
  facet normal  5.145952e-002 -7.807958e-001 -6.226635e-001
    outer loop
      vertex  3.700000e+000 -4.764837e+000 -4.421123e+000
      vertex  6.510000e+000 -5.856297e+000 -2.820244e+000
      vertex  3.700000e+000 -5.370552e+000 -3.661580e+000
    endloop
  endfacet
  facet normal  -0.000000e+000 -8.660255e-001 -4.999999e-001
    outer loop
      vertex  3.700000e+000 -5.370552e+000 -3.661580e+000
      vertex  6.510000e+000 -5.856297e+000 -2.820244e+000
      vertex  3.700000e+000 -5.856297e+000 -2.820244e+000
    endloop
  endfacet
  facet normal  1.526376e-017 -9.972038e-001 -7.472987e-002
    outer loop
      vertex  6.510000e+000 -6.500000e+000 -2.090586e-015
      vertex  3.700000e+000 -6.500000e+000 -2.664535e-015
      vertex  3.700000e+000 -6.427401e+000 -9.687747e-001
    endloop
  endfacet
  facet normal  5.145977e-002 -9.736362e-001 -2.222264e-001
    outer loop
      vertex  6.510000e+000 -6.500000e+000 -2.090586e-015
      vertex  3.700000e+000 -6.427401e+000 -9.687747e-001
      vertex  3.700000e+000 -6.211223e+000 -1.915909e+000
    endloop
  endfacet
  facet normal  1.516577e-001 -9.201064e-001 -3.611152e-001
    outer loop
      vertex  6.510000e+000 -6.500000e+000 -2.090586e-015
      vertex  3.700000e+000 -6.211223e+000 -1.915909e+000
      vertex  3.700000e+000 -5.856297e+000 -2.820244e+000
    endloop
  endfacet
  facet normal  0.000000e+000 -9.749279e-001 -2.225210e-001
    outer loop
      vertex  6.510000e+000 -6.500000e+000 -2.090586e-015
      vertex  3.700000e+000 -5.856297e+000 -2.820244e+000
      vertex  6.510000e+000 -5.856297e+000 -2.820244e+000
    endloop
  endfacet
  facet normal  0.000000e+000  9.308737e-001 -3.653410e-001
    outer loop
      vertex  6.510000e+000  5.856297e+000 -2.820244e+000
      vertex  3.700000e+000  5.856297e+000 -2.820244e+000
      vertex  3.700000e+000  6.211223e+000 -1.915909e+000
    endloop
  endfacet
  facet normal  5.145947e-002  9.736362e-001 -2.222265e-001
    outer loop
      vertex  6.510000e+000  5.856297e+000 -2.820244e+000
      vertex  3.700000e+000  6.211223e+000 -1.915909e+000
      vertex  3.700000e+000  6.427401e+000 -9.687747e-001
    endloop
  endfacet
  facet normal  1.516580e-001  9.856692e-001 -7.386547e-002
    outer loop
      vertex  6.510000e+000  5.856297e+000 -2.820244e+000
      vertex  3.700000e+000  6.427401e+000 -9.687747e-001
      vertex  3.700000e+000  6.500000e+000  3.737082e-015
    endloop
  endfacet
  facet normal  3.516696e-017  9.749279e-001 -2.225210e-001
    outer loop
      vertex  6.510000e+000  5.856297e+000 -2.820244e+000
      vertex  3.700000e+000  6.500000e+000  3.737082e-015
      vertex  6.510000e+000  6.500000e+000  4.181171e-015
    endloop
  endfacet
  facet normal  0.000000e+000  6.801725e-001 -7.330521e-001
    outer loop
      vertex  6.510000e+000  4.052684e+000 -5.081904e+000
      vertex  3.700000e+000  4.052684e+000 -5.081904e+000
      vertex  3.700000e+000  4.764837e+000 -4.421123e+000
    endloop
  endfacet
  facet normal  5.145975e-002  7.807958e-001 -6.226635e-001
    outer loop
      vertex  6.510000e+000  4.052684e+000 -5.081904e+000
      vertex  3.700000e+000  4.764837e+000 -4.421123e+000
      vertex  3.700000e+000  5.370552e+000 -3.661580e+000
    endloop
  endfacet
  facet normal  1.516578e-001  8.560082e-001 -4.942164e-001
    outer loop
      vertex  6.510000e+000  4.052684e+000 -5.081904e+000
      vertex  3.700000e+000  5.370552e+000 -3.661580e+000
      vertex  3.700000e+000  5.856297e+000 -2.820244e+000
    endloop
  endfacet
  facet normal  0.000000e+000  7.818316e-001 -6.234899e-001
    outer loop
      vertex  6.510000e+000  4.052684e+000 -5.081904e+000
      vertex  3.700000e+000  5.856297e+000 -2.820244e+000
      vertex  6.510000e+000  5.856297e+000 -2.820244e+000
    endloop
  endfacet
  facet normal  2.284777e-002  0.000000e+000 -9.997389e-001
    outer loop
      vertex  6.510000e+000  1.446386e+000 -6.337031e+000
      vertex  6.510000e+000 -1.446386e+000 -6.337031e+000
      vertex  3.700000e+000  1.128713e+000 -6.401250e+000
    endloop
  endfacet
  facet normal -1.832926e-003  2.136976e-001 -9.768982e-001
    outer loop
      vertex  6.510000e+000  1.446386e+000 -6.337031e+000
      vertex  3.700000e+000  1.128713e+000 -6.401250e+000
      vertex  3.700000e+000  1.647047e+000 -6.287864e+000
    endloop
  endfacet
  facet normal  1.095727e-002  3.800656e-001 -9.248946e-001
    outer loop
      vertex  6.510000e+000  1.446386e+000 -6.337031e+000
      vertex  3.700000e+000  1.647047e+000 -6.287864e+000
      vertex  3.700000e+000  3.250000e+000 -5.629165e+000
    endloop
  endfacet
  facet normal  1.516579e-001  5.568042e-001 -8.166816e-001
    outer loop
      vertex  6.510000e+000  1.446386e+000 -6.337031e+000
      vertex  3.700000e+000  3.250000e+000 -5.629165e+000
      vertex  3.700000e+000  4.052684e+000 -5.081904e+000
    endloop
  endfacet
  facet normal  0.000000e+000  4.338838e-001 -9.009688e-001
    outer loop
      vertex  6.510000e+000  1.446386e+000 -6.337031e+000
      vertex  3.700000e+000  4.052684e+000 -5.081904e+000
      vertex  6.510000e+000  4.052684e+000 -5.081904e+000
    endloop
  endfacet
  facet normal  5.145967e-002 -7.807956e-001 -6.226637e-001
    outer loop
      vertex  6.510000e+000 -5.856297e+000 -2.820244e+000
      vertex  3.700000e+000 -4.764837e+000 -4.421123e+000
      vertex  6.510000e+000 -4.052684e+000 -5.081904e+000
    endloop
  endfacet
  facet normal  -0.000000e+000 -6.801725e-001 -7.330521e-001
    outer loop
      vertex  6.510000e+000 -4.052684e+000 -5.081904e+000
      vertex  3.700000e+000 -4.764837e+000 -4.421123e+000
      vertex  3.700000e+000 -4.052684e+000 -5.081904e+000
    endloop
  endfacet
  facet normal  0.000000e+000 -4.338838e-001 -9.009688e-001
    outer loop
      vertex  6.510000e+000 -4.052684e+000 -5.081904e+000
      vertex  3.700000e+000 -4.052684e+000 -5.081904e+000
      vertex  6.510000e+000 -1.446386e+000 -6.337031e+000
    endloop
  endfacet
  facet normal  1.516579e-001 -5.568042e-001 -8.166816e-001
    outer loop
      vertex  6.510000e+000 -1.446386e+000 -6.337031e+000
      vertex  3.700000e+000 -4.052684e+000 -5.081904e+000
      vertex  3.700000e+000 -3.250000e+000 -5.629165e+000
    endloop
  endfacet
  facet normal -1.718765e-002 -3.419696e-001 -9.395538e-001
    outer loop
      vertex  6.510000e+000 -1.446386e+000 -6.337031e+000
      vertex  3.700000e+000 -3.250000e+000 -5.629165e+000
      vertex  3.700000e+000 -1.128713e+000 -6.401250e+000
    endloop
  endfacet
  facet normal  2.284777e-002  0.000000e+000  9.997389e-001
    outer loop
      vertex  6.510000e+000  1.446386e+000  6.337031e+000
      vertex  3.700000e+000  1.128713e+000  6.401250e+000
      vertex  3.700000e+000 -1.128713e+000  6.401250e+000
    endloop
  endfacet
  facet normal  0.000000e+000 -9.308737e-001  3.653410e-001
    outer loop
      vertex  6.510000e+000 -5.856297e+000  2.820244e+000
      vertex  3.700000e+000 -5.856297e+000  2.820244e+000
      vertex  3.700000e+000 -6.211223e+000  1.915909e+000
    endloop
  endfacet
  facet normal  5.145947e-002 -9.736362e-001  2.222265e-001
    outer loop
      vertex  6.510000e+000 -5.856297e+000  2.820244e+000
      vertex  3.700000e+000 -6.211223e+000  1.915909e+000
      vertex  3.700000e+000 -6.427401e+000  9.687747e-001
    endloop
  endfacet
  facet normal  1.516580e-001 -9.856692e-001  7.386547e-002
    outer loop
      vertex  6.510000e+000 -5.856297e+000  2.820244e+000
      vertex  3.700000e+000 -6.427401e+000  9.687747e-001
      vertex  3.700000e+000 -6.500000e+000 -2.664535e-015
    endloop
  endfacet
  facet normal -4.545046e-017 -9.749279e-001  2.225210e-001
    outer loop
      vertex  6.510000e+000 -5.856297e+000  2.820244e+000
      vertex  3.700000e+000 -6.500000e+000 -2.664535e-015
      vertex  6.510000e+000 -6.500000e+000 -2.090586e-015
    endloop
  endfacet
  facet normal  5.145963e-002 -4.333089e-001  8.997751e-001
    outer loop
      vertex  6.510000e+000 -4.052684e+000  5.081904e+000
      vertex  6.510000e+000 -1.446386e+000  6.337031e+000
      vertex  3.700000e+000 -3.250000e+000  5.629165e+000
    endloop
  endfacet
  facet normal  0.000000e+000 -5.633202e-001  8.262387e-001
    outer loop
      vertex  6.510000e+000 -4.052684e+000  5.081904e+000
      vertex  3.700000e+000 -3.250000e+000  5.629165e+000
      vertex  3.700000e+000 -4.052684e+000  5.081904e+000
    endloop
  endfacet
  facet normal  0.000000e+000 -6.801725e-001  7.330521e-001
    outer loop
      vertex  6.510000e+000 -4.052684e+000  5.081904e+000
      vertex  3.700000e+000 -4.052684e+000  5.081904e+000
      vertex  3.700000e+000 -4.764837e+000  4.421123e+000
    endloop
  endfacet
  facet normal  5.145975e-002 -7.807958e-001  6.226635e-001
    outer loop
      vertex  6.510000e+000 -4.052684e+000  5.081904e+000
      vertex  3.700000e+000 -4.764837e+000  4.421123e+000
      vertex  3.700000e+000 -5.370552e+000  3.661580e+000
    endloop
  endfacet
  facet normal  1.516578e-001 -8.560082e-001  4.942164e-001
    outer loop
      vertex  6.510000e+000 -4.052684e+000  5.081904e+000
      vertex  3.700000e+000 -5.370552e+000  3.661580e+000
      vertex  3.700000e+000 -5.856297e+000  2.820244e+000
    endloop
  endfacet
  facet normal  0.000000e+000 -7.818316e-001  6.234899e-001
    outer loop
      vertex  6.510000e+000 -4.052684e+000  5.081904e+000
      vertex  3.700000e+000 -5.856297e+000  2.820244e+000
      vertex  6.510000e+000 -5.856297e+000  2.820244e+000
    endloop
  endfacet
  facet normal  -0.000000e+000  8.660255e-001  4.999999e-001
    outer loop
      vertex  6.510000e+000  5.856297e+000  2.820244e+000
      vertex  3.700000e+000  5.856297e+000  2.820244e+000
      vertex  3.700000e+000  5.370552e+000  3.661580e+000
    endloop
  endfacet
  facet normal  5.145952e-002  7.807958e-001  6.226635e-001
    outer loop
      vertex  6.510000e+000  5.856297e+000  2.820244e+000
      vertex  3.700000e+000  5.370552e+000  3.661580e+000
      vertex  3.700000e+000  4.764837e+000  4.421123e+000
    endloop
  endfacet
  facet normal  1.516581e-001  6.723049e-001  7.245729e-001
    outer loop
      vertex  6.510000e+000  5.856297e+000  2.820244e+000
      vertex  3.700000e+000  4.764837e+000  4.421123e+000
      vertex  3.700000e+000  4.052684e+000  5.081904e+000
    endloop
  endfacet
  facet normal  -0.000000e+000  7.818316e-001  6.234899e-001
    outer loop
      vertex  6.510000e+000  5.856297e+000  2.820244e+000
      vertex  3.700000e+000  4.052684e+000  5.081904e+000
      vertex  6.510000e+000  4.052684e+000  5.081904e+000
    endloop
  endfacet
  facet normal -1.181022e-017  9.972038e-001  7.472987e-002
    outer loop
      vertex  6.510000e+000  6.500000e+000  4.181171e-015
      vertex  3.700000e+000  6.500000e+000  3.737082e-015
      vertex  3.700000e+000  6.427401e+000  9.687747e-001
    endloop
  endfacet
  facet normal  5.145977e-002  9.736362e-001  2.222264e-001
    outer loop
      vertex  6.510000e+000  6.500000e+000  4.181171e-015
      vertex  3.700000e+000  6.427401e+000  9.687747e-001
      vertex  3.700000e+000  6.211223e+000  1.915909e+000
    endloop
  endfacet
  facet normal  1.516577e-001  9.201064e-001  3.611152e-001
    outer loop
      vertex  6.510000e+000  6.500000e+000  4.181171e-015
      vertex  3.700000e+000  6.211223e+000  1.915909e+000
      vertex  3.700000e+000  5.856297e+000  2.820244e+000
    endloop
  endfacet
  facet normal  -0.000000e+000  9.749279e-001  2.225210e-001
    outer loop
      vertex  6.510000e+000  6.500000e+000  4.181171e-015
      vertex  3.700000e+000  5.856297e+000  2.820244e+000
      vertex  6.510000e+000  5.856297e+000  2.820244e+000
    endloop
  endfacet
  facet normal  2.284777e-002  0.000000e+000  9.997389e-001
    outer loop
      vertex  6.510000e+000  1.446386e+000  6.337031e+000
      vertex  3.700000e+000 -1.128713e+000  6.401250e+000
      vertex  6.510000e+000 -1.446386e+000  6.337031e+000
    endloop
  endfacet
  facet normal -1.832926e-003 -2.136976e-001  9.768982e-001
    outer loop
      vertex  6.510000e+000 -1.446386e+000  6.337031e+000
      vertex  3.700000e+000 -1.128713e+000  6.401250e+000
      vertex  3.700000e+000 -1.647047e+000  6.287864e+000
    endloop
  endfacet
  facet normal  1.095727e-002 -3.800656e-001  9.248946e-001
    outer loop
      vertex  6.510000e+000 -1.446386e+000  6.337031e+000
      vertex  3.700000e+000 -1.647047e+000  6.287864e+000
      vertex  3.700000e+000 -3.250000e+000  5.629165e+000
    endloop
  endfacet
  facet normal  -0.000000e+000  4.338838e-001  9.009688e-001
    outer loop
      vertex  6.510000e+000  4.052684e+000  5.081904e+000
      vertex  3.700000e+000  4.052684e+000  5.081904e+000
      vertex  6.510000e+000  1.446386e+000  6.337031e+000
    endloop
  endfacet
  facet normal  1.516579e-001  5.568042e-001  8.166816e-001
    outer loop
      vertex  6.510000e+000  1.446386e+000  6.337031e+000
      vertex  3.700000e+000  4.052684e+000  5.081904e+000
      vertex  3.700000e+000  3.250000e+000  5.629165e+000
    endloop
  endfacet
  facet normal -1.718765e-002  3.419696e-001  9.395538e-001
    outer loop
      vertex  6.510000e+000  1.446386e+000  6.337031e+000
      vertex  3.700000e+000  3.250000e+000  5.629165e+000
      vertex  3.700000e+000  1.128713e+000  6.401250e+000
    endloop
  endfacet
  facet normal  9.203750e-001 -3.812329e-001  8.701392e-002
    outer loop
      vertex  6.760000e+000 -6.250000e+000  4.873204e-015
      vertex  6.760000e+000 -5.631055e+000  2.711773e+000
      vertex  6.686777e+000 -6.426777e+000 -3.108624e-015
    endloop
  endfacet
  facet normal  9.203748e-001 -3.812333e-001  8.701404e-002
    outer loop
      vertex  6.686777e+000 -6.426777e+000 -3.108624e-015
      vertex  6.760000e+000 -5.631055e+000  2.711773e+000
      vertex  6.686777e+000 -5.790326e+000  2.788474e+000
    endloop
  endfacet
  facet normal  3.744485e-001 -9.039996e-001  2.063321e-001
    outer loop
      vertex  6.686777e+000 -6.426777e+000 -3.108624e-015
      vertex  6.686777e+000 -5.790326e+000  2.788474e+000
      vertex  6.510000e+000 -6.500000e+000 -2.090586e-015
    endloop
  endfacet
  facet normal  3.744492e-001 -9.039994e-001  2.063320e-001
    outer loop
      vertex  6.510000e+000 -6.500000e+000 -2.090586e-015
      vertex  6.686777e+000 -5.790326e+000  2.788474e+000
      vertex  6.510000e+000 -5.856297e+000  2.820244e+000
    endloop
  endfacet
  facet normal  9.203748e-001  3.812333e-001  8.701402e-002
    outer loop
      vertex  6.760000e+000  5.631055e+000  2.711773e+000
      vertex  6.760000e+000  6.250000e+000 -7.303918e-015
      vertex  6.686777e+000  5.790326e+000  2.788474e+000
    endloop
  endfacet
  facet normal  9.203750e-001  3.812329e-001  8.701395e-002
    outer loop
      vertex  6.686777e+000  5.790326e+000  2.788474e+000
      vertex  6.760000e+000  6.250000e+000 -7.303918e-015
      vertex  6.686777e+000  6.426777e+000  2.220446e-015
    endloop
  endfacet
  facet normal  3.744492e-001  9.039994e-001  2.063321e-001
    outer loop
      vertex  6.686777e+000  5.790326e+000  2.788474e+000
      vertex  6.686777e+000  6.426777e+000  2.220446e-015
      vertex  6.510000e+000  5.856297e+000  2.820244e+000
    endloop
  endfacet
  facet normal  3.744486e-001  9.039997e-001  2.063321e-001
    outer loop
      vertex  6.510000e+000  5.856297e+000  2.820244e+000
      vertex  6.686777e+000  6.426777e+000  2.220446e-015
      vertex  6.510000e+000  6.500000e+000  4.181171e-015
    endloop
  endfacet
  facet normal  9.203746e-001  3.057258e-001  2.438081e-001
    outer loop
      vertex  6.760000e+000  3.896811e+000  4.886447e+000
      vertex  6.760000e+000  5.631055e+000  2.711773e+000
      vertex  6.686777e+000  4.007030e+000  5.024656e+000
    endloop
  endfacet
  facet normal  9.203747e-001  3.057254e-001  2.438079e-001
    outer loop
      vertex  6.686777e+000  4.007030e+000  5.024656e+000
      vertex  6.760000e+000  5.631055e+000  2.711773e+000
      vertex  6.686777e+000  5.790326e+000  2.788474e+000
    endloop
  endfacet
  facet normal  3.744500e-001  7.249509e-001  5.781291e-001
    outer loop
      vertex  6.686777e+000  4.007030e+000  5.024656e+000
      vertex  6.686777e+000  5.790326e+000  2.788474e+000
      vertex  6.510000e+000  4.052684e+000  5.081904e+000
    endloop
  endfacet
  facet normal  3.744493e-001  7.249512e-001  5.781293e-001
    outer loop
      vertex  6.510000e+000  4.052684e+000  5.081904e+000
      vertex  6.686777e+000  5.790326e+000  2.788474e+000
      vertex  6.510000e+000  5.856297e+000  2.820244e+000
    endloop
  endfacet
  facet normal  9.203749e-001  1.696646e-001  3.523123e-001
    outer loop
      vertex  6.760000e+000  1.390756e+000  6.093299e+000
      vertex  6.760000e+000  3.896811e+000  4.886447e+000
      vertex  6.686777e+000  1.430092e+000  6.265644e+000
    endloop
  endfacet
  facet normal  9.203746e-001  1.696650e-001  3.523130e-001
    outer loop
      vertex  6.686777e+000  1.430092e+000  6.265644e+000
      vertex  6.760000e+000  3.896811e+000  4.886447e+000
      vertex  6.686777e+000  4.007030e+000  5.024656e+000
    endloop
  endfacet
  facet normal  3.744488e-001  4.023177e-001  8.354211e-001
    outer loop
      vertex  6.686777e+000  1.430092e+000  6.265644e+000
      vertex  6.686777e+000  4.007030e+000  5.024656e+000
      vertex  6.510000e+000  1.446386e+000  6.337031e+000
    endloop
  endfacet
  facet normal  3.744493e-001  4.023176e-001  8.354210e-001
    outer loop
      vertex  6.510000e+000  1.446386e+000  6.337031e+000
      vertex  6.686777e+000  4.007030e+000  5.024656e+000
      vertex  6.510000e+000  4.052684e+000  5.081904e+000
    endloop
  endfacet
  facet normal  9.203749e-001  0.000000e+000  3.910370e-001
    outer loop
      vertex  6.760000e+000 -1.390756e+000  6.093299e+000
      vertex  6.760000e+000  1.390756e+000  6.093299e+000
      vertex  6.686777e+000 -1.430092e+000  6.265644e+000
    endloop
  endfacet
  facet normal  9.203749e-001  -0.000000e+000  3.910370e-001
    outer loop
      vertex  6.686777e+000 -1.430092e+000  6.265644e+000
      vertex  6.760000e+000  1.390756e+000  6.093299e+000
      vertex  6.686777e+000  1.430092e+000  6.265644e+000
    endloop
  endfacet
  facet normal  3.744487e-001  0.000000e+000  9.272476e-001
    outer loop
      vertex  6.686777e+000 -1.430092e+000  6.265644e+000
      vertex  6.686777e+000  1.430092e+000  6.265644e+000
      vertex  6.510000e+000 -1.446386e+000  6.337031e+000
    endloop
  endfacet
  facet normal  3.744487e-001  -0.000000e+000  9.272476e-001
    outer loop
      vertex  6.510000e+000 -1.446386e+000  6.337031e+000
      vertex  6.686777e+000  1.430092e+000  6.265644e+000
      vertex  6.510000e+000  1.446386e+000  6.337031e+000
    endloop
  endfacet
  facet normal  9.203746e-001 -1.696650e-001  3.523130e-001
    outer loop
      vertex  6.760000e+000 -3.896811e+000  4.886447e+000
      vertex  6.760000e+000 -1.390756e+000  6.093299e+000
      vertex  6.686777e+000 -4.007030e+000  5.024656e+000
    endloop
  endfacet
  facet normal  9.203749e-001 -1.696647e-001  3.523123e-001
    outer loop
      vertex  6.686777e+000 -4.007030e+000  5.024656e+000
      vertex  6.760000e+000 -1.390756e+000  6.093299e+000
      vertex  6.686777e+000 -1.430092e+000  6.265644e+000
    endloop
  endfacet
  facet normal  3.744493e-001 -4.023176e-001  8.354210e-001
    outer loop
      vertex  6.686777e+000 -4.007030e+000  5.024656e+000
      vertex  6.686777e+000 -1.430092e+000  6.265644e+000
      vertex  6.510000e+000 -4.052684e+000  5.081904e+000
    endloop
  endfacet
  facet normal  3.744488e-001 -4.023176e-001  8.354211e-001
    outer loop
      vertex  6.510000e+000 -4.052684e+000  5.081904e+000
      vertex  6.686777e+000 -1.430092e+000  6.265644e+000
      vertex  6.510000e+000 -1.446386e+000  6.337031e+000
    endloop
  endfacet
  facet normal  9.203748e-001 -3.057254e-001  2.438079e-001
    outer loop
      vertex  6.760000e+000 -5.631055e+000  2.711773e+000
      vertex  6.760000e+000 -3.896811e+000  4.886447e+000
      vertex  6.686777e+000 -5.790326e+000  2.788474e+000
    endloop
  endfacet
  facet normal  9.203746e-001 -3.057257e-001  2.438081e-001
    outer loop
      vertex  6.686777e+000 -5.790326e+000  2.788474e+000
      vertex  6.760000e+000 -3.896811e+000  4.886447e+000
      vertex  6.686777e+000 -4.007030e+000  5.024656e+000
    endloop
  endfacet
  facet normal  3.744494e-001 -7.249511e-001  5.781293e-001
    outer loop
      vertex  6.686777e+000 -5.790326e+000  2.788474e+000
      vertex  6.686777e+000 -4.007030e+000  5.024656e+000
      vertex  6.510000e+000 -5.856297e+000  2.820244e+000
    endloop
  endfacet
  facet normal  3.744500e-001 -7.249510e-001  5.781291e-001
    outer loop
      vertex  6.510000e+000 -5.856297e+000  2.820244e+000
      vertex  6.686777e+000 -4.007030e+000  5.024656e+000
      vertex  6.510000e+000 -4.052684e+000  5.081904e+000
    endloop
  endfacet
  facet normal  9.203750e-001  3.812329e-001 -8.701392e-002
    outer loop
      vertex  6.760000e+000  6.250000e+000 -7.303918e-015
      vertex  6.760000e+000  5.631055e+000 -2.711773e+000
      vertex  6.686777e+000  6.426777e+000  2.220446e-015
    endloop
  endfacet
  facet normal  9.203748e-001  3.812333e-001 -8.701404e-002
    outer loop
      vertex  6.686777e+000  6.426777e+000  2.220446e-015
      vertex  6.760000e+000  5.631055e+000 -2.711773e+000
      vertex  6.686777e+000  5.790326e+000 -2.788474e+000
    endloop
  endfacet
  facet normal  3.744485e-001  9.039996e-001 -2.063321e-001
    outer loop
      vertex  6.686777e+000  6.426777e+000  2.220446e-015
      vertex  6.686777e+000  5.790326e+000 -2.788474e+000
      vertex  6.510000e+000  6.500000e+000  4.181171e-015
    endloop
  endfacet
  facet normal  3.744492e-001  9.039994e-001 -2.063320e-001
    outer loop
      vertex  6.510000e+000  6.500000e+000  4.181171e-015
      vertex  6.686777e+000  5.790326e+000 -2.788474e+000
      vertex  6.510000e+000  5.856297e+000 -2.820244e+000
    endloop
  endfacet
  facet normal  9.203748e-001 -3.812333e-001 -8.701402e-002
    outer loop
      vertex  6.760000e+000 -5.631055e+000 -2.711773e+000
      vertex  6.760000e+000 -6.250000e+000  4.873204e-015
      vertex  6.686777e+000 -5.790326e+000 -2.788474e+000
    endloop
  endfacet
  facet normal  9.203750e-001 -3.812329e-001 -8.701395e-002
    outer loop
      vertex  6.686777e+000 -5.790326e+000 -2.788474e+000
      vertex  6.760000e+000 -6.250000e+000  4.873204e-015
      vertex  6.686777e+000 -6.426777e+000 -3.108624e-015
    endloop
  endfacet
  facet normal  3.744492e-001 -9.039994e-001 -2.063321e-001
    outer loop
      vertex  6.686777e+000 -5.790326e+000 -2.788474e+000
      vertex  6.686777e+000 -6.426777e+000 -3.108624e-015
      vertex  6.510000e+000 -5.856297e+000 -2.820244e+000
    endloop
  endfacet
  facet normal  3.744486e-001 -9.039997e-001 -2.063321e-001
    outer loop
      vertex  6.510000e+000 -5.856297e+000 -2.820244e+000
      vertex  6.686777e+000 -6.426777e+000 -3.108624e-015
      vertex  6.510000e+000 -6.500000e+000 -2.090586e-015
    endloop
  endfacet
  facet normal  9.203746e-001 -3.057258e-001 -2.438081e-001
    outer loop
      vertex  6.760000e+000 -3.896811e+000 -4.886447e+000
      vertex  6.760000e+000 -5.631055e+000 -2.711773e+000
      vertex  6.686777e+000 -4.007030e+000 -5.024656e+000
    endloop
  endfacet
  facet normal  9.203747e-001 -3.057254e-001 -2.438079e-001
    outer loop
      vertex  6.686777e+000 -4.007030e+000 -5.024656e+000
      vertex  6.760000e+000 -5.631055e+000 -2.711773e+000
      vertex  6.686777e+000 -5.790326e+000 -2.788474e+000
    endloop
  endfacet
  facet normal  3.744500e-001 -7.249509e-001 -5.781291e-001
    outer loop
      vertex  6.686777e+000 -4.007030e+000 -5.024656e+000
      vertex  6.686777e+000 -5.790326e+000 -2.788474e+000
      vertex  6.510000e+000 -4.052684e+000 -5.081904e+000
    endloop
  endfacet
  facet normal  3.744493e-001 -7.249512e-001 -5.781293e-001
    outer loop
      vertex  6.510000e+000 -4.052684e+000 -5.081904e+000
      vertex  6.686777e+000 -5.790326e+000 -2.788474e+000
      vertex  6.510000e+000 -5.856297e+000 -2.820244e+000
    endloop
  endfacet
  facet normal  9.203749e-001 -1.696646e-001 -3.523123e-001
    outer loop
      vertex  6.760000e+000 -1.390756e+000 -6.093299e+000
      vertex  6.760000e+000 -3.896811e+000 -4.886447e+000
      vertex  6.686777e+000 -1.430092e+000 -6.265644e+000
    endloop
  endfacet
  facet normal  9.203746e-001 -1.696650e-001 -3.523130e-001
    outer loop
      vertex  6.686777e+000 -1.430092e+000 -6.265644e+000
      vertex  6.760000e+000 -3.896811e+000 -4.886447e+000
      vertex  6.686777e+000 -4.007030e+000 -5.024656e+000
    endloop
  endfacet
  facet normal  3.744488e-001 -4.023177e-001 -8.354211e-001
    outer loop
      vertex  6.686777e+000 -1.430092e+000 -6.265644e+000
      vertex  6.686777e+000 -4.007030e+000 -5.024656e+000
      vertex  6.510000e+000 -1.446386e+000 -6.337031e+000
    endloop
  endfacet
  facet normal  3.744493e-001 -4.023176e-001 -8.354210e-001
    outer loop
      vertex  6.510000e+000 -1.446386e+000 -6.337031e+000
      vertex  6.686777e+000 -4.007030e+000 -5.024656e+000
      vertex  6.510000e+000 -4.052684e+000 -5.081904e+000
    endloop
  endfacet
  facet normal  9.203749e-001  0.000000e+000 -3.910370e-001
    outer loop
      vertex  6.760000e+000  1.390756e+000 -6.093299e+000
      vertex  6.760000e+000 -1.390756e+000 -6.093299e+000
      vertex  6.686777e+000  1.430092e+000 -6.265644e+000
    endloop
  endfacet
  facet normal  9.203749e-001  0.000000e+000 -3.910370e-001
    outer loop
      vertex  6.686777e+000  1.430092e+000 -6.265644e+000
      vertex  6.760000e+000 -1.390756e+000 -6.093299e+000
      vertex  6.686777e+000 -1.430092e+000 -6.265644e+000
    endloop
  endfacet
  facet normal  3.744487e-001  0.000000e+000 -9.272476e-001
    outer loop
      vertex  6.686777e+000  1.430092e+000 -6.265644e+000
      vertex  6.686777e+000 -1.430092e+000 -6.265644e+000
      vertex  6.510000e+000  1.446386e+000 -6.337031e+000
    endloop
  endfacet
  facet normal  3.744487e-001  0.000000e+000 -9.272476e-001
    outer loop
      vertex  6.510000e+000  1.446386e+000 -6.337031e+000
      vertex  6.686777e+000 -1.430092e+000 -6.265644e+000
      vertex  6.510000e+000 -1.446386e+000 -6.337031e+000
    endloop
  endfacet
  facet normal  9.203746e-001  1.696650e-001 -3.523130e-001
    outer loop
      vertex  6.760000e+000  3.896811e+000 -4.886447e+000
      vertex  6.760000e+000  1.390756e+000 -6.093299e+000
      vertex  6.686777e+000  4.007030e+000 -5.024656e+000
    endloop
  endfacet
  facet normal  9.203749e-001  1.696647e-001 -3.523123e-001
    outer loop
      vertex  6.686777e+000  4.007030e+000 -5.024656e+000
      vertex  6.760000e+000  1.390756e+000 -6.093299e+000
      vertex  6.686777e+000  1.430092e+000 -6.265644e+000
    endloop
  endfacet
  facet normal  3.744493e-001  4.023176e-001 -8.354210e-001
    outer loop
      vertex  6.686777e+000  4.007030e+000 -5.024656e+000
      vertex  6.686777e+000  1.430092e+000 -6.265644e+000
      vertex  6.510000e+000  4.052684e+000 -5.081904e+000
    endloop
  endfacet
  facet normal  3.744488e-001  4.023176e-001 -8.354211e-001
    outer loop
      vertex  6.510000e+000  4.052684e+000 -5.081904e+000
      vertex  6.686777e+000  1.430092e+000 -6.265644e+000
      vertex  6.510000e+000  1.446386e+000 -6.337031e+000
    endloop
  endfacet
  facet normal  9.203748e-001  3.057254e-001 -2.438079e-001
    outer loop
      vertex  6.760000e+000  5.631055e+000 -2.711773e+000
      vertex  6.760000e+000  3.896811e+000 -4.886447e+000
      vertex  6.686777e+000  5.790326e+000 -2.788474e+000
    endloop
  endfacet
  facet normal  9.203746e-001  3.057257e-001 -2.438081e-001
    outer loop
      vertex  6.686777e+000  5.790326e+000 -2.788474e+000
      vertex  6.760000e+000  3.896811e+000 -4.886447e+000
      vertex  6.686777e+000  4.007030e+000 -5.024656e+000
    endloop
  endfacet
  facet normal  3.744494e-001  7.249511e-001 -5.781293e-001
    outer loop
      vertex  6.686777e+000  5.790326e+000 -2.788474e+000
      vertex  6.686777e+000  4.007030e+000 -5.024656e+000
      vertex  6.510000e+000  5.856297e+000 -2.820244e+000
    endloop
  endfacet
  facet normal  3.744500e-001  7.249510e-001 -5.781291e-001
    outer loop
      vertex  6.510000e+000  5.856297e+000 -2.820244e+000
      vertex  6.686777e+000  4.007030e+000 -5.024656e+000
      vertex  6.510000e+000  4.052684e+000 -5.081904e+000
    endloop
  endfacet
endsolid CATIA STL
