solid CATIA STL
  facet normal  0.000000e+000  0.000000e+000 -9.999999e-001
    outer loop
      vertex -1.800000e+002  0.000000e+000 -1.000000e+001
      vertex  1.800000e+002  2.842171e-014 -1.000000e+001
      vertex  1.009270e+002 -2.214683e+001 -1.000000e+001
    endloop
  endfacet
  facet normal  0.000000e+000  0.000000e+000 -1.000000e+000
    outer loop
      vertex -1.800000e+002  0.000000e+000 -1.000000e+001
      vertex  1.009270e+002 -2.214683e+001 -1.000000e+001
      vertex  9.907295e+001 -2.214683e+001 -1.000000e+001
    endloop
  endfacet
  facet normal  0.000000e+000  0.000000e+000 -1.000000e+000
    outer loop
      vertex -1.800000e+002  0.000000e+000 -1.000000e+001
      vertex  9.907295e+001 -2.214683e+001 -1.000000e+001
      vertex -9.907295e+001 -2.214683e+001 -1.000000e+001
    endloop
  endfacet
  facet normal  0.000000e+000  0.000000e+000 -1.000000e+000
    outer loop
      vertex -1.800000e+002  0.000000e+000 -1.000000e+001
      vertex -9.907295e+001 -2.214683e+001 -1.000000e+001
      vertex -1.009270e+002 -2.214683e+001 -1.000000e+001
    endloop
  endfacet
  facet normal  -0.000000e+000  0.000000e+000 -1.000000e+000
    outer loop
      vertex -1.800000e+002  0.000000e+000 -1.000000e+001
      vertex -1.009270e+002 -2.214683e+001 -1.000000e+001
      vertex -1.024270e+002 -2.323664e+001 -1.000000e+001
    endloop
  endfacet
  facet normal  -0.000000e+000  0.000000e+000 -1.000000e+000
    outer loop
      vertex -1.800000e+002  0.000000e+000 -1.000000e+001
      vertex -1.024270e+002 -2.323664e+001 -1.000000e+001
      vertex -1.030000e+002 -2.500000e+001 -1.000000e+001
    endloop
  endfacet
  facet normal  -0.000000e+000  0.000000e+000 -1.000000e+000
    outer loop
      vertex -1.800000e+002  0.000000e+000 -1.000000e+001
      vertex -1.030000e+002 -2.500000e+001 -1.000000e+001
      vertex -1.800000e+002 -7.500000e+002 -1.000000e+001
    endloop
  endfacet
  facet normal  0.000000e+000  -0.000000e+000 -1.000000e+000
    outer loop
      vertex -1.800000e+002 -7.500000e+002 -1.000000e+001
      vertex -1.030000e+002 -2.500000e+001 -1.000000e+001
      vertex -1.024270e+002 -2.676336e+001 -1.000000e+001
    endloop
  endfacet
  facet normal  0.000000e+000  -0.000000e+000 -1.000000e+000
    outer loop
      vertex -1.800000e+002 -7.500000e+002 -1.000000e+001
      vertex -1.024270e+002 -2.676336e+001 -1.000000e+001
      vertex -1.009270e+002 -2.785317e+001 -1.000000e+001
    endloop
  endfacet
  facet normal  0.000000e+000  -0.000000e+000 -1.000000e+000
    outer loop
      vertex -1.800000e+002 -7.500000e+002 -1.000000e+001
      vertex -1.009270e+002 -2.785317e+001 -1.000000e+001
      vertex -1.009270e+002 -7.321469e+002 -1.000000e+001
    endloop
  endfacet
  facet normal  0.000000e+000  0.000000e+000 -1.000000e+000
    outer loop
      vertex -1.800000e+002 -7.500000e+002 -1.000000e+001
      vertex -1.009270e+002 -7.321469e+002 -1.000000e+001
      vertex -1.024270e+002 -7.332366e+002 -1.000000e+001
    endloop
  endfacet
  facet normal  0.000000e+000  0.000000e+000 -9.999999e-001
    outer loop
      vertex -1.800000e+002 -7.500000e+002 -1.000000e+001
      vertex -1.024270e+002 -7.332366e+002 -1.000000e+001
      vertex -1.030000e+002 -7.350000e+002 -1.000000e+001
    endloop
  endfacet
  facet normal  0.000000e+000  -0.000000e+000 -1.000000e+000
    outer loop
      vertex -1.800000e+002 -7.500000e+002 -1.000000e+001
      vertex -1.030000e+002 -7.350000e+002 -1.000000e+001
      vertex -1.024270e+002 -7.367634e+002 -1.000000e+001
    endloop
  endfacet
  facet normal  0.000000e+000  -0.000000e+000 -1.000000e+000
    outer loop
      vertex -1.800000e+002 -7.500000e+002 -1.000000e+001
      vertex -1.024270e+002 -7.367634e+002 -1.000000e+001
      vertex -1.009270e+002 -7.378531e+002 -1.000000e+001
    endloop
  endfacet
  facet normal  0.000000e+000  -0.000000e+000 -1.000000e+000
    outer loop
      vertex -1.800000e+002 -7.500000e+002 -1.000000e+001
      vertex -1.009270e+002 -7.378531e+002 -1.000000e+001
      vertex -9.907295e+001 -7.378531e+002 -1.000000e+001
    endloop
  endfacet
  facet normal  0.000000e+000  -0.000000e+000 -1.000000e+000
    outer loop
      vertex -1.800000e+002 -7.500000e+002 -1.000000e+001
      vertex -9.907295e+001 -7.378531e+002 -1.000000e+001
      vertex  9.907295e+001 -7.378531e+002 -1.000000e+001
    endloop
  endfacet
  facet normal  0.000000e+000  -0.000000e+000 -1.000000e+000
    outer loop
      vertex -1.800000e+002 -7.500000e+002 -1.000000e+001
      vertex  9.907295e+001 -7.378531e+002 -1.000000e+001
      vertex  1.009270e+002 -7.378531e+002 -1.000000e+001
    endloop
  endfacet
  facet normal  0.000000e+000  -0.000000e+000 -1.000000e+000
    outer loop
      vertex -1.800000e+002 -7.500000e+002 -1.000000e+001
      vertex  1.009270e+002 -7.378531e+002 -1.000000e+001
      vertex  1.800000e+002 -7.500000e+002 -1.000000e+001
    endloop
  endfacet
  facet normal  0.000000e+000  0.000000e+000 -1.000000e+000
    outer loop
      vertex  1.800000e+002 -7.500000e+002 -1.000000e+001
      vertex  1.009270e+002 -7.378531e+002 -1.000000e+001
      vertex  1.024270e+002 -7.367634e+002 -1.000000e+001
    endloop
  endfacet
  facet normal  0.000000e+000  0.000000e+000 -1.000000e+000
    outer loop
      vertex  1.800000e+002 -7.500000e+002 -1.000000e+001
      vertex  1.024270e+002 -7.367634e+002 -1.000000e+001
      vertex  1.030000e+002 -7.350000e+002 -1.000000e+001
    endloop
  endfacet
  facet normal  0.000000e+000  0.000000e+000 -9.999999e-001
    outer loop
      vertex  1.800000e+002 -7.500000e+002 -1.000000e+001
      vertex  1.030000e+002 -7.350000e+002 -1.000000e+001
      vertex  1.024270e+002 -7.332366e+002 -1.000000e+001
    endloop
  endfacet
  facet normal  0.000000e+000  0.000000e+000 -1.000000e+000
    outer loop
      vertex  1.800000e+002 -7.500000e+002 -1.000000e+001
      vertex  1.024270e+002 -7.332366e+002 -1.000000e+001
      vertex  1.009270e+002 -7.321469e+002 -1.000000e+001
    endloop
  endfacet
  facet normal  0.000000e+000  0.000000e+000 -1.000000e+000
    outer loop
      vertex  1.800000e+002 -7.500000e+002 -1.000000e+001
      vertex  1.009270e+002 -7.321469e+002 -1.000000e+001
      vertex  1.009270e+002 -2.785317e+001 -1.000000e+001
    endloop
  endfacet
  facet normal  0.000000e+000  0.000000e+000 -1.000000e+000
    outer loop
      vertex  1.800000e+002 -7.500000e+002 -1.000000e+001
      vertex  1.009270e+002 -2.785317e+001 -1.000000e+001
      vertex  1.024270e+002 -2.676336e+001 -1.000000e+001
    endloop
  endfacet
  facet normal  0.000000e+000  0.000000e+000 -1.000000e+000
    outer loop
      vertex  1.800000e+002 -7.500000e+002 -1.000000e+001
      vertex  1.024270e+002 -2.676336e+001 -1.000000e+001
      vertex  1.030000e+002 -2.500000e+001 -1.000000e+001
    endloop
  endfacet
  facet normal  0.000000e+000  0.000000e+000 -1.000000e+000
    outer loop
      vertex  1.800000e+002  2.842171e-014 -1.000000e+001
      vertex  1.800000e+002 -7.500000e+002 -1.000000e+001
      vertex  1.030000e+002 -2.500000e+001 -1.000000e+001
    endloop
  endfacet
  facet normal  0.000000e+000  0.000000e+000 -1.000000e+000
    outer loop
      vertex  1.800000e+002  2.842171e-014 -1.000000e+001
      vertex  1.030000e+002 -2.500000e+001 -1.000000e+001
      vertex  1.024270e+002 -2.323664e+001 -1.000000e+001
    endloop
  endfacet
  facet normal  0.000000e+000  0.000000e+000 -1.000000e+000
    outer loop
      vertex  1.800000e+002  2.842171e-014 -1.000000e+001
      vertex  1.024270e+002 -2.323664e+001 -1.000000e+001
      vertex  1.009270e+002 -2.214683e+001 -1.000000e+001
    endloop
  endfacet
  facet normal  0.000000e+000  -0.000000e+000 -1.000000e+000
    outer loop
      vertex -9.907295e+001 -7.321469e+002 -1.000000e+001
      vertex  9.907295e+001 -2.785317e+001 -1.000000e+001
      vertex  9.907295e+001 -7.321469e+002 -1.000000e+001
    endloop
  endfacet
  facet normal  0.000000e+000  0.000000e+000 -1.000000e+000
    outer loop
      vertex  9.907295e+001 -7.321469e+002 -1.000000e+001
      vertex  9.907295e+001 -2.785317e+001 -1.000000e+001
      vertex  1.009270e+002 -2.785317e+001 -1.000000e+001
    endloop
  endfacet
  facet normal  0.000000e+000  -0.000000e+000 -1.000000e+000
    outer loop
      vertex  9.907295e+001 -7.321469e+002 -1.000000e+001
      vertex  1.009270e+002 -2.785317e+001 -1.000000e+001
      vertex  1.009270e+002 -7.321469e+002 -1.000000e+001
    endloop
  endfacet
  facet normal  0.000000e+000  0.000000e+000 -1.000000e+000
    outer loop
      vertex  9.907295e+001 -2.785317e+001 -1.000000e+001
      vertex -9.907295e+001 -7.321469e+002 -1.000000e+001
      vertex -9.907295e+001 -2.785317e+001 -1.000000e+001
    endloop
  endfacet
  facet normal  0.000000e+000  -0.000000e+000 -1.000000e+000
    outer loop
      vertex -9.907295e+001 -2.785317e+001 -1.000000e+001
      vertex -9.907295e+001 -7.321469e+002 -1.000000e+001
      vertex -1.009270e+002 -7.321469e+002 -1.000000e+001
    endloop
  endfacet
  facet normal  0.000000e+000  0.000000e+000 -1.000000e+000
    outer loop
      vertex -9.907295e+001 -2.785317e+001 -1.000000e+001
      vertex -1.009270e+002 -7.321469e+002 -1.000000e+001
      vertex -1.009270e+002 -2.785317e+001 -1.000000e+001
    endloop
  endfacet
  facet normal  0.000000e+000  0.000000e+000 -1.000000e+000
    outer loop
      vertex  9.700000e+001 -2.500000e+001 -1.000000e+001
      vertex -9.757295e+001 -2.323664e+001 -1.000000e+001
      vertex  9.757295e+001 -2.323664e+001 -1.000000e+001
    endloop
  endfacet
  facet normal  0.000000e+000  0.000000e+000 -1.000000e+000
    outer loop
      vertex  9.757295e+001 -2.323664e+001 -1.000000e+001
      vertex -9.757295e+001 -2.323664e+001 -1.000000e+001
      vertex -9.907295e+001 -2.214683e+001 -1.000000e+001
    endloop
  endfacet
  facet normal  0.000000e+000  0.000000e+000 -1.000000e+000
    outer loop
      vertex  9.757295e+001 -2.323664e+001 -1.000000e+001
      vertex -9.907295e+001 -2.214683e+001 -1.000000e+001
      vertex  9.907295e+001 -2.214683e+001 -1.000000e+001
    endloop
  endfacet
  facet normal  0.000000e+000  0.000000e+000 -9.999999e-001
    outer loop
      vertex -9.757295e+001 -2.323664e+001 -1.000000e+001
      vertex  9.700000e+001 -2.500000e+001 -1.000000e+001
      vertex -9.700000e+001 -2.500000e+001 -1.000000e+001
    endloop
  endfacet
  facet normal  0.000000e+000  0.000000e+000 -9.999999e-001
    outer loop
      vertex -9.700000e+001 -2.500000e+001 -1.000000e+001
      vertex  9.700000e+001 -2.500000e+001 -1.000000e+001
      vertex  9.757295e+001 -2.676336e+001 -1.000000e+001
    endloop
  endfacet
  facet normal  0.000000e+000  0.000000e+000 -1.000000e+000
    outer loop
      vertex -9.700000e+001 -2.500000e+001 -1.000000e+001
      vertex  9.757295e+001 -2.676336e+001 -1.000000e+001
      vertex -9.757295e+001 -2.676336e+001 -1.000000e+001
    endloop
  endfacet
  facet normal  0.000000e+000  0.000000e+000 -1.000000e+000
    outer loop
      vertex -9.757295e+001 -2.676336e+001 -1.000000e+001
      vertex  9.757295e+001 -2.676336e+001 -1.000000e+001
      vertex  9.907295e+001 -2.785317e+001 -1.000000e+001
    endloop
  endfacet
  facet normal  0.000000e+000  0.000000e+000 -1.000000e+000
    outer loop
      vertex -9.757295e+001 -2.676336e+001 -1.000000e+001
      vertex  9.907295e+001 -2.785317e+001 -1.000000e+001
      vertex -9.907295e+001 -2.785317e+001 -1.000000e+001
    endloop
  endfacet
  facet normal  0.000000e+000  0.000000e+000 -1.000000e+000
    outer loop
      vertex  9.700000e+001 -7.350000e+002 -1.000000e+001
      vertex -9.757295e+001 -7.332366e+002 -1.000000e+001
      vertex  9.757295e+001 -7.332366e+002 -1.000000e+001
    endloop
  endfacet
  facet normal  0.000000e+000  0.000000e+000 -1.000000e+000
    outer loop
      vertex  9.757295e+001 -7.332366e+002 -1.000000e+001
      vertex -9.757295e+001 -7.332366e+002 -1.000000e+001
      vertex -9.907295e+001 -7.321469e+002 -1.000000e+001
    endloop
  endfacet
  facet normal  0.000000e+000  0.000000e+000 -1.000000e+000
    outer loop
      vertex  9.757295e+001 -7.332366e+002 -1.000000e+001
      vertex -9.907295e+001 -7.321469e+002 -1.000000e+001
      vertex  9.907295e+001 -7.321469e+002 -1.000000e+001
    endloop
  endfacet
  facet normal  0.000000e+000  0.000000e+000 -1.000000e+000
    outer loop
      vertex -9.757295e+001 -7.332366e+002 -1.000000e+001
      vertex  9.700000e+001 -7.350000e+002 -1.000000e+001
      vertex -9.700000e+001 -7.350000e+002 -1.000000e+001
    endloop
  endfacet
  facet normal  0.000000e+000  0.000000e+000 -1.000000e+000
    outer loop
      vertex -9.700000e+001 -7.350000e+002 -1.000000e+001
      vertex  9.700000e+001 -7.350000e+002 -1.000000e+001
      vertex  9.757295e+001 -7.367634e+002 -1.000000e+001
    endloop
  endfacet
  facet normal  0.000000e+000  0.000000e+000 -1.000000e+000
    outer loop
      vertex -9.700000e+001 -7.350000e+002 -1.000000e+001
      vertex  9.757295e+001 -7.367634e+002 -1.000000e+001
      vertex -9.757295e+001 -7.367634e+002 -1.000000e+001
    endloop
  endfacet
  facet normal  0.000000e+000  0.000000e+000 -1.000000e+000
    outer loop
      vertex -9.757295e+001 -7.367634e+002 -1.000000e+001
      vertex  9.757295e+001 -7.367634e+002 -1.000000e+001
      vertex  9.907295e+001 -7.378531e+002 -1.000000e+001
    endloop
  endfacet
  facet normal  0.000000e+000  0.000000e+000 -1.000000e+000
    outer loop
      vertex -9.757295e+001 -7.367634e+002 -1.000000e+001
      vertex  9.907295e+001 -7.378531e+002 -1.000000e+001
      vertex -9.907295e+001 -7.378531e+002 -1.000000e+001
    endloop
  endfacet
  facet normal  0.000000e+000  0.000000e+000  1.000000e+000
    outer loop
      vertex -1.800000e+002  0.000000e+000  0.000000e+000
      vertex -1.800000e+002 -7.500000e+002  0.000000e+000
      vertex -1.030000e+002 -2.500000e+001  0.000000e+000
    endloop
  endfacet
  facet normal  0.000000e+000  -0.000000e+000  1.000000e+000
    outer loop
      vertex -1.800000e+002  0.000000e+000  0.000000e+000
      vertex -1.030000e+002 -2.500000e+001  0.000000e+000
      vertex -1.024270e+002 -2.323664e+001  0.000000e+000
    endloop
  endfacet
  facet normal  0.000000e+000  -0.000000e+000  1.000000e+000
    outer loop
      vertex -1.800000e+002  0.000000e+000  0.000000e+000
      vertex -1.024270e+002 -2.323664e+001  0.000000e+000
      vertex -1.009270e+002 -2.214683e+001  0.000000e+000
    endloop
  endfacet
  facet normal  0.000000e+000  -0.000000e+000  1.000000e+000
    outer loop
      vertex -1.800000e+002  0.000000e+000  0.000000e+000
      vertex -1.009270e+002 -2.214683e+001  0.000000e+000
      vertex -9.907295e+001 -2.214683e+001  0.000000e+000
    endloop
  endfacet
  facet normal  0.000000e+000  -0.000000e+000  1.000000e+000
    outer loop
      vertex -1.800000e+002  0.000000e+000  0.000000e+000
      vertex -9.907295e+001 -2.214683e+001  0.000000e+000
      vertex  9.907295e+001 -2.214683e+001  0.000000e+000
    endloop
  endfacet
  facet normal  0.000000e+000  -0.000000e+000  1.000000e+000
    outer loop
      vertex -1.800000e+002  0.000000e+000  0.000000e+000
      vertex  9.907295e+001 -2.214683e+001  0.000000e+000
      vertex  1.009270e+002 -2.214683e+001  0.000000e+000
    endloop
  endfacet
  facet normal  0.000000e+000  -0.000000e+000  9.999999e-001
    outer loop
      vertex -1.800000e+002  0.000000e+000  0.000000e+000
      vertex  1.009270e+002 -2.214683e+001  0.000000e+000
      vertex  1.800000e+002  2.842171e-014  0.000000e+000
    endloop
  endfacet
  facet normal  0.000000e+000  0.000000e+000  1.000000e+000
    outer loop
      vertex -1.800000e+002 -7.500000e+002  0.000000e+000
      vertex  1.800000e+002 -7.500000e+002  0.000000e+000
      vertex  1.009270e+002 -7.378531e+002  0.000000e+000
    endloop
  endfacet
  facet normal  0.000000e+000  0.000000e+000  1.000000e+000
    outer loop
      vertex -1.800000e+002 -7.500000e+002  0.000000e+000
      vertex  1.009270e+002 -7.378531e+002  0.000000e+000
      vertex  9.907295e+001 -7.378531e+002  0.000000e+000
    endloop
  endfacet
  facet normal  0.000000e+000  0.000000e+000  1.000000e+000
    outer loop
      vertex -1.800000e+002 -7.500000e+002  0.000000e+000
      vertex  9.907295e+001 -7.378531e+002  0.000000e+000
      vertex -9.907295e+001 -7.378531e+002  0.000000e+000
    endloop
  endfacet
  facet normal  0.000000e+000  0.000000e+000  1.000000e+000
    outer loop
      vertex -1.800000e+002 -7.500000e+002  0.000000e+000
      vertex -9.907295e+001 -7.378531e+002  0.000000e+000
      vertex -1.009270e+002 -7.378531e+002  0.000000e+000
    endloop
  endfacet
  facet normal  0.000000e+000  0.000000e+000  1.000000e+000
    outer loop
      vertex -1.800000e+002 -7.500000e+002  0.000000e+000
      vertex -1.009270e+002 -7.378531e+002  0.000000e+000
      vertex -1.024270e+002 -7.367634e+002  0.000000e+000
    endloop
  endfacet
  facet normal  0.000000e+000  0.000000e+000  1.000000e+000
    outer loop
      vertex -1.800000e+002 -7.500000e+002  0.000000e+000
      vertex -1.024270e+002 -7.367634e+002  0.000000e+000
      vertex -1.030000e+002 -7.350000e+002  0.000000e+000
    endloop
  endfacet
  facet normal  0.000000e+000  -0.000000e+000  9.999999e-001
    outer loop
      vertex -1.800000e+002 -7.500000e+002  0.000000e+000
      vertex -1.030000e+002 -7.350000e+002  0.000000e+000
      vertex -1.024270e+002 -7.332366e+002  0.000000e+000
    endloop
  endfacet
  facet normal  0.000000e+000  -0.000000e+000  1.000000e+000
    outer loop
      vertex -1.800000e+002 -7.500000e+002  0.000000e+000
      vertex -1.024270e+002 -7.332366e+002  0.000000e+000
      vertex -1.009270e+002 -7.321469e+002  0.000000e+000
    endloop
  endfacet
  facet normal  0.000000e+000  -0.000000e+000  1.000000e+000
    outer loop
      vertex -1.800000e+002 -7.500000e+002  0.000000e+000
      vertex -1.009270e+002 -7.321469e+002  0.000000e+000
      vertex -1.009270e+002 -2.785317e+001  0.000000e+000
    endloop
  endfacet
  facet normal  0.000000e+000  0.000000e+000  1.000000e+000
    outer loop
      vertex -1.800000e+002 -7.500000e+002  0.000000e+000
      vertex -1.009270e+002 -2.785317e+001  0.000000e+000
      vertex -1.024270e+002 -2.676336e+001  0.000000e+000
    endloop
  endfacet
  facet normal  0.000000e+000  0.000000e+000  1.000000e+000
    outer loop
      vertex -1.800000e+002 -7.500000e+002  0.000000e+000
      vertex -1.024270e+002 -2.676336e+001  0.000000e+000
      vertex -1.030000e+002 -2.500000e+001  0.000000e+000
    endloop
  endfacet
  facet normal  0.000000e+000  0.000000e+000  1.000000e+000
    outer loop
      vertex  1.800000e+002 -7.500000e+002  0.000000e+000
      vertex  1.030000e+002 -2.500000e+001  0.000000e+000
      vertex  1.024270e+002 -2.676336e+001  0.000000e+000
    endloop
  endfacet
  facet normal  0.000000e+000  0.000000e+000  1.000000e+000
    outer loop
      vertex  1.800000e+002 -7.500000e+002  0.000000e+000
      vertex  1.024270e+002 -2.676336e+001  0.000000e+000
      vertex  1.009270e+002 -2.785317e+001  0.000000e+000
    endloop
  endfacet
  facet normal  0.000000e+000  0.000000e+000  1.000000e+000
    outer loop
      vertex  1.800000e+002 -7.500000e+002  0.000000e+000
      vertex  1.009270e+002 -2.785317e+001  0.000000e+000
      vertex  1.009270e+002 -7.321469e+002  0.000000e+000
    endloop
  endfacet
  facet normal  0.000000e+000  0.000000e+000  1.000000e+000
    outer loop
      vertex  1.800000e+002 -7.500000e+002  0.000000e+000
      vertex  1.009270e+002 -7.321469e+002  0.000000e+000
      vertex  1.024270e+002 -7.332366e+002  0.000000e+000
    endloop
  endfacet
  facet normal  0.000000e+000  0.000000e+000  9.999999e-001
    outer loop
      vertex  1.800000e+002 -7.500000e+002  0.000000e+000
      vertex  1.024270e+002 -7.332366e+002  0.000000e+000
      vertex  1.030000e+002 -7.350000e+002  0.000000e+000
    endloop
  endfacet
  facet normal  0.000000e+000  0.000000e+000  1.000000e+000
    outer loop
      vertex  1.800000e+002 -7.500000e+002  0.000000e+000
      vertex  1.030000e+002 -7.350000e+002  0.000000e+000
      vertex  1.024270e+002 -7.367634e+002  0.000000e+000
    endloop
  endfacet
  facet normal  0.000000e+000  0.000000e+000  1.000000e+000
    outer loop
      vertex  1.800000e+002 -7.500000e+002  0.000000e+000
      vertex  1.024270e+002 -7.367634e+002  0.000000e+000
      vertex  1.009270e+002 -7.378531e+002  0.000000e+000
    endloop
  endfacet
  facet normal  -0.000000e+000  0.000000e+000  1.000000e+000
    outer loop
      vertex  1.800000e+002  2.842171e-014  0.000000e+000
      vertex  1.009270e+002 -2.214683e+001  0.000000e+000
      vertex  1.024270e+002 -2.323664e+001  0.000000e+000
    endloop
  endfacet
  facet normal  -0.000000e+000  0.000000e+000  1.000000e+000
    outer loop
      vertex  1.800000e+002  2.842171e-014  0.000000e+000
      vertex  1.024270e+002 -2.323664e+001  0.000000e+000
      vertex  1.030000e+002 -2.500000e+001  0.000000e+000
    endloop
  endfacet
  facet normal  -0.000000e+000  0.000000e+000  1.000000e+000
    outer loop
      vertex  1.800000e+002  2.842171e-014  0.000000e+000
      vertex  1.030000e+002 -2.500000e+001  0.000000e+000
      vertex  1.800000e+002 -7.500000e+002  0.000000e+000
    endloop
  endfacet
  facet normal  0.000000e+000  0.000000e+000  1.000000e+000
    outer loop
      vertex  1.009270e+002 -7.321469e+002  0.000000e+000
      vertex  1.009270e+002 -2.785317e+001  0.000000e+000
      vertex  9.907295e+001 -7.321469e+002  0.000000e+000
    endloop
  endfacet
  facet normal  0.000000e+000  0.000000e+000  1.000000e+000
    outer loop
      vertex  9.907295e+001 -7.321469e+002  0.000000e+000
      vertex  1.009270e+002 -2.785317e+001  0.000000e+000
      vertex  9.907295e+001 -2.785317e+001  0.000000e+000
    endloop
  endfacet
  facet normal  0.000000e+000  0.000000e+000  1.000000e+000
    outer loop
      vertex  9.907295e+001 -7.321469e+002  0.000000e+000
      vertex  9.907295e+001 -2.785317e+001  0.000000e+000
      vertex -9.907295e+001 -7.321469e+002  0.000000e+000
    endloop
  endfacet
  facet normal  0.000000e+000  0.000000e+000  1.000000e+000
    outer loop
      vertex -1.009270e+002 -2.785317e+001  0.000000e+000
      vertex -1.009270e+002 -7.321469e+002  0.000000e+000
      vertex -9.907295e+001 -2.785317e+001  0.000000e+000
    endloop
  endfacet
  facet normal  0.000000e+000  0.000000e+000  1.000000e+000
    outer loop
      vertex -9.907295e+001 -2.785317e+001  0.000000e+000
      vertex -1.009270e+002 -7.321469e+002  0.000000e+000
      vertex -9.907295e+001 -7.321469e+002  0.000000e+000
    endloop
  endfacet
  facet normal  0.000000e+000  0.000000e+000  1.000000e+000
    outer loop
      vertex -9.907295e+001 -2.785317e+001  0.000000e+000
      vertex -9.907295e+001 -7.321469e+002  0.000000e+000
      vertex  9.907295e+001 -2.785317e+001  0.000000e+000
    endloop
  endfacet
  facet normal  -0.000000e+000  0.000000e+000  1.000000e+000
    outer loop
      vertex  9.907295e+001 -2.214683e+001  0.000000e+000
      vertex -9.907295e+001 -2.214683e+001  0.000000e+000
      vertex  9.757295e+001 -2.323664e+001  0.000000e+000
    endloop
  endfacet
  facet normal  0.000000e+000  0.000000e+000  1.000000e+000
    outer loop
      vertex  9.757295e+001 -2.323664e+001  0.000000e+000
      vertex -9.907295e+001 -2.214683e+001  0.000000e+000
      vertex -9.757295e+001 -2.323664e+001  0.000000e+000
    endloop
  endfacet
  facet normal  -0.000000e+000  0.000000e+000  1.000000e+000
    outer loop
      vertex  9.757295e+001 -2.323664e+001  0.000000e+000
      vertex -9.757295e+001 -2.323664e+001  0.000000e+000
      vertex  9.700000e+001 -2.500000e+001  0.000000e+000
    endloop
  endfacet
  facet normal  0.000000e+000  0.000000e+000  9.999999e-001
    outer loop
      vertex  9.700000e+001 -2.500000e+001  0.000000e+000
      vertex -9.757295e+001 -2.323664e+001  0.000000e+000
      vertex -9.700000e+001 -2.500000e+001  0.000000e+000
    endloop
  endfacet
  facet normal  -0.000000e+000  0.000000e+000  9.999999e-001
    outer loop
      vertex  9.700000e+001 -2.500000e+001  0.000000e+000
      vertex -9.700000e+001 -2.500000e+001  0.000000e+000
      vertex  9.757295e+001 -2.676336e+001  0.000000e+000
    endloop
  endfacet
  facet normal  0.000000e+000  0.000000e+000  1.000000e+000
    outer loop
      vertex  9.757295e+001 -2.676336e+001  0.000000e+000
      vertex -9.700000e+001 -2.500000e+001  0.000000e+000
      vertex -9.757295e+001 -2.676336e+001  0.000000e+000
    endloop
  endfacet
  facet normal  -0.000000e+000  0.000000e+000  1.000000e+000
    outer loop
      vertex  9.757295e+001 -2.676336e+001  0.000000e+000
      vertex -9.757295e+001 -2.676336e+001  0.000000e+000
      vertex  9.907295e+001 -2.785317e+001  0.000000e+000
    endloop
  endfacet
  facet normal  0.000000e+000  0.000000e+000  1.000000e+000
    outer loop
      vertex  9.907295e+001 -2.785317e+001  0.000000e+000
      vertex -9.757295e+001 -2.676336e+001  0.000000e+000
      vertex -9.907295e+001 -2.785317e+001  0.000000e+000
    endloop
  endfacet
  facet normal  -0.000000e+000  0.000000e+000  1.000000e+000
    outer loop
      vertex  9.907295e+001 -7.321469e+002  0.000000e+000
      vertex -9.907295e+001 -7.321469e+002  0.000000e+000
      vertex  9.757295e+001 -7.332366e+002  0.000000e+000
    endloop
  endfacet
  facet normal  0.000000e+000  0.000000e+000  1.000000e+000
    outer loop
      vertex  9.757295e+001 -7.332366e+002  0.000000e+000
      vertex -9.907295e+001 -7.321469e+002  0.000000e+000
      vertex -9.757295e+001 -7.332366e+002  0.000000e+000
    endloop
  endfacet
  facet normal  -0.000000e+000  0.000000e+000  1.000000e+000
    outer loop
      vertex  9.757295e+001 -7.332366e+002  0.000000e+000
      vertex -9.757295e+001 -7.332366e+002  0.000000e+000
      vertex  9.700000e+001 -7.350000e+002  0.000000e+000
    endloop
  endfacet
  facet normal  0.000000e+000  0.000000e+000  1.000000e+000
    outer loop
      vertex  9.700000e+001 -7.350000e+002  0.000000e+000
      vertex -9.757295e+001 -7.332366e+002  0.000000e+000
      vertex -9.700000e+001 -7.350000e+002  0.000000e+000
    endloop
  endfacet
  facet normal  -0.000000e+000  0.000000e+000  1.000000e+000
    outer loop
      vertex  9.700000e+001 -7.350000e+002  0.000000e+000
      vertex -9.700000e+001 -7.350000e+002  0.000000e+000
      vertex  9.757295e+001 -7.367634e+002  0.000000e+000
    endloop
  endfacet
  facet normal  0.000000e+000  0.000000e+000  1.000000e+000
    outer loop
      vertex  9.757295e+001 -7.367634e+002  0.000000e+000
      vertex -9.700000e+001 -7.350000e+002  0.000000e+000
      vertex -9.757295e+001 -7.367634e+002  0.000000e+000
    endloop
  endfacet
  facet normal  -0.000000e+000  0.000000e+000  1.000000e+000
    outer loop
      vertex  9.757295e+001 -7.367634e+002  0.000000e+000
      vertex -9.757295e+001 -7.367634e+002  0.000000e+000
      vertex  9.907295e+001 -7.378531e+002  0.000000e+000
    endloop
  endfacet
  facet normal  0.000000e+000  0.000000e+000  1.000000e+000
    outer loop
      vertex  9.907295e+001 -7.378531e+002  0.000000e+000
      vertex -9.757295e+001 -7.367634e+002  0.000000e+000
      vertex -9.907295e+001 -7.378531e+002  0.000000e+000
    endloop
  endfacet
  facet normal -5.877743e-001  8.090250e-001  0.000000e+000
    outer loop
      vertex  1.009270e+002 -7.378531e+002 -1.000000e+001
      vertex  1.024270e+002 -7.367634e+002  0.000000e+000
      vertex  1.024270e+002 -7.367634e+002 -1.000000e+001
    endloop
  endfacet
  facet normal -9.510565e-001  3.090169e-001  0.000000e+000
    outer loop
      vertex  1.024270e+002 -7.367634e+002 -1.000000e+001
      vertex  1.024270e+002 -7.367634e+002  0.000000e+000
      vertex  1.030000e+002 -7.350000e+002  0.000000e+000
    endloop
  endfacet
  facet normal -9.510565e-001  3.090169e-001  0.000000e+000
    outer loop
      vertex  1.024270e+002 -7.367634e+002 -1.000000e+001
      vertex  1.030000e+002 -7.350000e+002  0.000000e+000
      vertex  1.030000e+002 -7.350000e+002 -1.000000e+001
    endloop
  endfacet
  facet normal -5.877743e-001  8.090250e-001  0.000000e+000
    outer loop
      vertex  1.024270e+002 -7.367634e+002  0.000000e+000
      vertex  1.009270e+002 -7.378531e+002 -1.000000e+001
      vertex  1.009270e+002 -7.378531e+002  0.000000e+000
    endloop
  endfacet
  facet normal  0.000000e+000  1.000000e+000  0.000000e+000
    outer loop
      vertex  1.009270e+002 -7.378531e+002  0.000000e+000
      vertex  1.009270e+002 -7.378531e+002 -1.000000e+001
      vertex  9.907295e+001 -7.378531e+002 -1.000000e+001
    endloop
  endfacet
  facet normal  0.000000e+000  1.000000e+000  0.000000e+000
    outer loop
      vertex  1.009270e+002 -7.378531e+002  0.000000e+000
      vertex  9.907295e+001 -7.378531e+002 -1.000000e+001
      vertex  9.907295e+001 -7.378531e+002  0.000000e+000
    endloop
  endfacet
  facet normal  5.877743e-001  8.090250e-001  0.000000e+000
    outer loop
      vertex  9.907295e+001 -7.378531e+002  0.000000e+000
      vertex  9.907295e+001 -7.378531e+002 -1.000000e+001
      vertex  9.757295e+001 -7.367634e+002 -1.000000e+001
    endloop
  endfacet
  facet normal  5.877743e-001  8.090250e-001  -0.000000e+000
    outer loop
      vertex  9.907295e+001 -7.378531e+002  0.000000e+000
      vertex  9.757295e+001 -7.367634e+002 -1.000000e+001
      vertex  9.757295e+001 -7.367634e+002  0.000000e+000
    endloop
  endfacet
  facet normal  9.510565e-001  3.090169e-001  0.000000e+000
    outer loop
      vertex  9.757295e+001 -7.367634e+002  0.000000e+000
      vertex  9.757295e+001 -7.367634e+002 -1.000000e+001
      vertex  9.700000e+001 -7.350000e+002 -1.000000e+001
    endloop
  endfacet
  facet normal  9.510565e-001  3.090169e-001  -0.000000e+000
    outer loop
      vertex  9.757295e+001 -7.367634e+002  0.000000e+000
      vertex  9.700000e+001 -7.350000e+002 -1.000000e+001
      vertex  9.700000e+001 -7.350000e+002  0.000000e+000
    endloop
  endfacet
  facet normal  5.877743e-001 -8.090250e-001  0.000000e+000
    outer loop
      vertex  9.907295e+001 -7.321469e+002 -1.000000e+001
      vertex  9.757295e+001 -7.332366e+002  0.000000e+000
      vertex  9.757295e+001 -7.332366e+002 -1.000000e+001
    endloop
  endfacet
  facet normal  9.510565e-001 -3.090169e-001  0.000000e+000
    outer loop
      vertex  9.757295e+001 -7.332366e+002 -1.000000e+001
      vertex  9.757295e+001 -7.332366e+002  0.000000e+000
      vertex  9.700000e+001 -7.350000e+002  0.000000e+000
    endloop
  endfacet
  facet normal  9.510565e-001 -3.090169e-001  0.000000e+000
    outer loop
      vertex  9.757295e+001 -7.332366e+002 -1.000000e+001
      vertex  9.700000e+001 -7.350000e+002  0.000000e+000
      vertex  9.700000e+001 -7.350000e+002 -1.000000e+001
    endloop
  endfacet
  facet normal  5.877743e-001 -8.090250e-001  0.000000e+000
    outer loop
      vertex  9.757295e+001 -7.332366e+002  0.000000e+000
      vertex  9.907295e+001 -7.321469e+002 -1.000000e+001
      vertex  9.907295e+001 -7.321469e+002  0.000000e+000
    endloop
  endfacet
  facet normal  0.000000e+000 -1.000000e+000  0.000000e+000
    outer loop
      vertex  9.907295e+001 -7.321469e+002  0.000000e+000
      vertex  9.907295e+001 -7.321469e+002 -1.000000e+001
      vertex  1.009270e+002 -7.321469e+002 -1.000000e+001
    endloop
  endfacet
  facet normal  0.000000e+000 -1.000000e+000  0.000000e+000
    outer loop
      vertex  9.907295e+001 -7.321469e+002  0.000000e+000
      vertex  1.009270e+002 -7.321469e+002 -1.000000e+001
      vertex  1.009270e+002 -7.321469e+002  0.000000e+000
    endloop
  endfacet
  facet normal -5.877743e-001 -8.090250e-001  -0.000000e+000
    outer loop
      vertex  1.009270e+002 -7.321469e+002  0.000000e+000
      vertex  1.009270e+002 -7.321469e+002 -1.000000e+001
      vertex  1.024270e+002 -7.332366e+002 -1.000000e+001
    endloop
  endfacet
  facet normal -5.877743e-001 -8.090250e-001  0.000000e+000
    outer loop
      vertex  1.009270e+002 -7.321469e+002  0.000000e+000
      vertex  1.024270e+002 -7.332366e+002 -1.000000e+001
      vertex  1.024270e+002 -7.332366e+002  0.000000e+000
    endloop
  endfacet
  facet normal -9.510565e-001 -3.090169e-001  -0.000000e+000
    outer loop
      vertex  1.024270e+002 -7.332366e+002  0.000000e+000
      vertex  1.024270e+002 -7.332366e+002 -1.000000e+001
      vertex  1.030000e+002 -7.350000e+002 -1.000000e+001
    endloop
  endfacet
  facet normal -9.510565e-001 -3.090169e-001  0.000000e+000
    outer loop
      vertex  1.024270e+002 -7.332366e+002  0.000000e+000
      vertex  1.030000e+002 -7.350000e+002 -1.000000e+001
      vertex  1.030000e+002 -7.350000e+002  0.000000e+000
    endloop
  endfacet
  facet normal  5.877743e-001 -8.090250e-001  0.000000e+000
    outer loop
      vertex -1.009270e+002 -7.321469e+002 -1.000000e+001
      vertex -1.024270e+002 -7.332366e+002  0.000000e+000
      vertex -1.024270e+002 -7.332366e+002 -1.000000e+001
    endloop
  endfacet
  facet normal  9.510565e-001 -3.090169e-001  0.000000e+000
    outer loop
      vertex -1.024270e+002 -7.332366e+002 -1.000000e+001
      vertex -1.024270e+002 -7.332366e+002  0.000000e+000
      vertex -1.030000e+002 -7.350000e+002  0.000000e+000
    endloop
  endfacet
  facet normal  9.510565e-001 -3.090169e-001  0.000000e+000
    outer loop
      vertex -1.024270e+002 -7.332366e+002 -1.000000e+001
      vertex -1.030000e+002 -7.350000e+002  0.000000e+000
      vertex -1.030000e+002 -7.350000e+002 -1.000000e+001
    endloop
  endfacet
  facet normal  5.877743e-001 -8.090250e-001  0.000000e+000
    outer loop
      vertex -1.024270e+002 -7.332366e+002  0.000000e+000
      vertex -1.009270e+002 -7.321469e+002 -1.000000e+001
      vertex -1.009270e+002 -7.321469e+002  0.000000e+000
    endloop
  endfacet
  facet normal  0.000000e+000 -1.000000e+000  0.000000e+000
    outer loop
      vertex -1.009270e+002 -7.321469e+002  0.000000e+000
      vertex -1.009270e+002 -7.321469e+002 -1.000000e+001
      vertex -9.907295e+001 -7.321469e+002 -1.000000e+001
    endloop
  endfacet
  facet normal  0.000000e+000 -1.000000e+000  0.000000e+000
    outer loop
      vertex -1.009270e+002 -7.321469e+002  0.000000e+000
      vertex -9.907295e+001 -7.321469e+002 -1.000000e+001
      vertex -9.907295e+001 -7.321469e+002  0.000000e+000
    endloop
  endfacet
  facet normal -5.877743e-001 -8.090250e-001  -0.000000e+000
    outer loop
      vertex -9.907295e+001 -7.321469e+002  0.000000e+000
      vertex -9.907295e+001 -7.321469e+002 -1.000000e+001
      vertex -9.757295e+001 -7.332366e+002 -1.000000e+001
    endloop
  endfacet
  facet normal -5.877743e-001 -8.090250e-001  0.000000e+000
    outer loop
      vertex -9.907295e+001 -7.321469e+002  0.000000e+000
      vertex -9.757295e+001 -7.332366e+002 -1.000000e+001
      vertex -9.757295e+001 -7.332366e+002  0.000000e+000
    endloop
  endfacet
  facet normal -9.510565e-001 -3.090169e-001  -0.000000e+000
    outer loop
      vertex -9.757295e+001 -7.332366e+002  0.000000e+000
      vertex -9.757295e+001 -7.332366e+002 -1.000000e+001
      vertex -9.700000e+001 -7.350000e+002 -1.000000e+001
    endloop
  endfacet
  facet normal -9.510565e-001 -3.090169e-001  0.000000e+000
    outer loop
      vertex -9.757295e+001 -7.332366e+002  0.000000e+000
      vertex -9.700000e+001 -7.350000e+002 -1.000000e+001
      vertex -9.700000e+001 -7.350000e+002  0.000000e+000
    endloop
  endfacet
  facet normal -5.877743e-001  8.090250e-001  0.000000e+000
    outer loop
      vertex -9.907295e+001 -7.378531e+002 -1.000000e+001
      vertex -9.757295e+001 -7.367634e+002  0.000000e+000
      vertex -9.757295e+001 -7.367634e+002 -1.000000e+001
    endloop
  endfacet
  facet normal -9.510565e-001  3.090169e-001  0.000000e+000
    outer loop
      vertex -9.757295e+001 -7.367634e+002 -1.000000e+001
      vertex -9.757295e+001 -7.367634e+002  0.000000e+000
      vertex -9.700000e+001 -7.350000e+002  0.000000e+000
    endloop
  endfacet
  facet normal -9.510565e-001  3.090169e-001  0.000000e+000
    outer loop
      vertex -9.757295e+001 -7.367634e+002 -1.000000e+001
      vertex -9.700000e+001 -7.350000e+002  0.000000e+000
      vertex -9.700000e+001 -7.350000e+002 -1.000000e+001
    endloop
  endfacet
  facet normal -5.877743e-001  8.090250e-001  0.000000e+000
    outer loop
      vertex -9.757295e+001 -7.367634e+002  0.000000e+000
      vertex -9.907295e+001 -7.378531e+002 -1.000000e+001
      vertex -9.907295e+001 -7.378531e+002  0.000000e+000
    endloop
  endfacet
  facet normal  0.000000e+000  1.000000e+000  0.000000e+000
    outer loop
      vertex -9.907295e+001 -7.378531e+002  0.000000e+000
      vertex -9.907295e+001 -7.378531e+002 -1.000000e+001
      vertex -1.009270e+002 -7.378531e+002 -1.000000e+001
    endloop
  endfacet
  facet normal  0.000000e+000  1.000000e+000  0.000000e+000
    outer loop
      vertex -9.907295e+001 -7.378531e+002  0.000000e+000
      vertex -1.009270e+002 -7.378531e+002 -1.000000e+001
      vertex -1.009270e+002 -7.378531e+002  0.000000e+000
    endloop
  endfacet
  facet normal  5.877743e-001  8.090250e-001  0.000000e+000
    outer loop
      vertex -1.009270e+002 -7.378531e+002  0.000000e+000
      vertex -1.009270e+002 -7.378531e+002 -1.000000e+001
      vertex -1.024270e+002 -7.367634e+002 -1.000000e+001
    endloop
  endfacet
  facet normal  5.877743e-001  8.090250e-001  -0.000000e+000
    outer loop
      vertex -1.009270e+002 -7.378531e+002  0.000000e+000
      vertex -1.024270e+002 -7.367634e+002 -1.000000e+001
      vertex -1.024270e+002 -7.367634e+002  0.000000e+000
    endloop
  endfacet
  facet normal  9.510565e-001  3.090169e-001  0.000000e+000
    outer loop
      vertex -1.024270e+002 -7.367634e+002  0.000000e+000
      vertex -1.024270e+002 -7.367634e+002 -1.000000e+001
      vertex -1.030000e+002 -7.350000e+002 -1.000000e+001
    endloop
  endfacet
  facet normal  9.510565e-001  3.090169e-001  -0.000000e+000
    outer loop
      vertex -1.024270e+002 -7.367634e+002  0.000000e+000
      vertex -1.030000e+002 -7.350000e+002 -1.000000e+001
      vertex -1.030000e+002 -7.350000e+002  0.000000e+000
    endloop
  endfacet
  facet normal -5.877857e-001  8.090166e-001  0.000000e+000
    outer loop
      vertex  1.009270e+002 -2.785317e+001 -1.000000e+001
      vertex  1.024270e+002 -2.676336e+001  0.000000e+000
      vertex  1.024270e+002 -2.676336e+001 -1.000000e+001
    endloop
  endfacet
  facet normal -9.510560e-001  3.090187e-001  0.000000e+000
    outer loop
      vertex  1.024270e+002 -2.676336e+001 -1.000000e+001
      vertex  1.024270e+002 -2.676336e+001  0.000000e+000
      vertex  1.030000e+002 -2.500000e+001  0.000000e+000
    endloop
  endfacet
  facet normal -9.510560e-001  3.090187e-001  0.000000e+000
    outer loop
      vertex  1.024270e+002 -2.676336e+001 -1.000000e+001
      vertex  1.030000e+002 -2.500000e+001  0.000000e+000
      vertex  1.030000e+002 -2.500000e+001 -1.000000e+001
    endloop
  endfacet
  facet normal -5.877857e-001  8.090166e-001  0.000000e+000
    outer loop
      vertex  1.024270e+002 -2.676336e+001  0.000000e+000
      vertex  1.009270e+002 -2.785317e+001 -1.000000e+001
      vertex  1.009270e+002 -2.785317e+001  0.000000e+000
    endloop
  endfacet
  facet normal  0.000000e+000  1.000000e+000  0.000000e+000
    outer loop
      vertex  1.009270e+002 -2.785317e+001  0.000000e+000
      vertex  1.009270e+002 -2.785317e+001 -1.000000e+001
      vertex  9.907295e+001 -2.785317e+001 -1.000000e+001
    endloop
  endfacet
  facet normal  0.000000e+000  1.000000e+000  0.000000e+000
    outer loop
      vertex  1.009270e+002 -2.785317e+001  0.000000e+000
      vertex  9.907295e+001 -2.785317e+001 -1.000000e+001
      vertex  9.907295e+001 -2.785317e+001  0.000000e+000
    endloop
  endfacet
  facet normal  5.877857e-001  8.090166e-001  0.000000e+000
    outer loop
      vertex  9.907295e+001 -2.785317e+001  0.000000e+000
      vertex  9.907295e+001 -2.785317e+001 -1.000000e+001
      vertex  9.757295e+001 -2.676336e+001 -1.000000e+001
    endloop
  endfacet
  facet normal  5.877857e-001  8.090166e-001  -0.000000e+000
    outer loop
      vertex  9.907295e+001 -2.785317e+001  0.000000e+000
      vertex  9.757295e+001 -2.676336e+001 -1.000000e+001
      vertex  9.757295e+001 -2.676336e+001  0.000000e+000
    endloop
  endfacet
  facet normal  9.510560e-001  3.090187e-001  0.000000e+000
    outer loop
      vertex  9.757295e+001 -2.676336e+001  0.000000e+000
      vertex  9.757295e+001 -2.676336e+001 -1.000000e+001
      vertex  9.700000e+001 -2.500000e+001 -1.000000e+001
    endloop
  endfacet
  facet normal  9.510560e-001  3.090187e-001  -0.000000e+000
    outer loop
      vertex  9.757295e+001 -2.676336e+001  0.000000e+000
      vertex  9.700000e+001 -2.500000e+001 -1.000000e+001
      vertex  9.700000e+001 -2.500000e+001  0.000000e+000
    endloop
  endfacet
  facet normal  5.877857e-001 -8.090166e-001  0.000000e+000
    outer loop
      vertex  9.907295e+001 -2.214683e+001 -1.000000e+001
      vertex  9.757295e+001 -2.323664e+001  0.000000e+000
      vertex  9.757295e+001 -2.323664e+001 -1.000000e+001
    endloop
  endfacet
  facet normal  9.510560e-001 -3.090187e-001  0.000000e+000
    outer loop
      vertex  9.757295e+001 -2.323664e+001 -1.000000e+001
      vertex  9.757295e+001 -2.323664e+001  0.000000e+000
      vertex  9.700000e+001 -2.500000e+001  0.000000e+000
    endloop
  endfacet
  facet normal  9.510560e-001 -3.090187e-001  0.000000e+000
    outer loop
      vertex  9.757295e+001 -2.323664e+001 -1.000000e+001
      vertex  9.700000e+001 -2.500000e+001  0.000000e+000
      vertex  9.700000e+001 -2.500000e+001 -1.000000e+001
    endloop
  endfacet
  facet normal  5.877857e-001 -8.090166e-001  0.000000e+000
    outer loop
      vertex  9.757295e+001 -2.323664e+001  0.000000e+000
      vertex  9.907295e+001 -2.214683e+001 -1.000000e+001
      vertex  9.907295e+001 -2.214683e+001  0.000000e+000
    endloop
  endfacet
  facet normal  0.000000e+000 -1.000000e+000  0.000000e+000
    outer loop
      vertex  9.907295e+001 -2.214683e+001  0.000000e+000
      vertex  9.907295e+001 -2.214683e+001 -1.000000e+001
      vertex  1.009270e+002 -2.214683e+001 -1.000000e+001
    endloop
  endfacet
  facet normal  0.000000e+000 -1.000000e+000  0.000000e+000
    outer loop
      vertex  9.907295e+001 -2.214683e+001  0.000000e+000
      vertex  1.009270e+002 -2.214683e+001 -1.000000e+001
      vertex  1.009270e+002 -2.214683e+001  0.000000e+000
    endloop
  endfacet
  facet normal -5.877857e-001 -8.090166e-001  -0.000000e+000
    outer loop
      vertex  1.009270e+002 -2.214683e+001  0.000000e+000
      vertex  1.009270e+002 -2.214683e+001 -1.000000e+001
      vertex  1.024270e+002 -2.323664e+001 -1.000000e+001
    endloop
  endfacet
  facet normal -5.877857e-001 -8.090166e-001  0.000000e+000
    outer loop
      vertex  1.009270e+002 -2.214683e+001  0.000000e+000
      vertex  1.024270e+002 -2.323664e+001 -1.000000e+001
      vertex  1.024270e+002 -2.323664e+001  0.000000e+000
    endloop
  endfacet
  facet normal -9.510560e-001 -3.090187e-001  -0.000000e+000
    outer loop
      vertex  1.024270e+002 -2.323664e+001  0.000000e+000
      vertex  1.024270e+002 -2.323664e+001 -1.000000e+001
      vertex  1.030000e+002 -2.500000e+001 -1.000000e+001
    endloop
  endfacet
  facet normal -9.510560e-001 -3.090187e-001  0.000000e+000
    outer loop
      vertex  1.024270e+002 -2.323664e+001  0.000000e+000
      vertex  1.030000e+002 -2.500000e+001 -1.000000e+001
      vertex  1.030000e+002 -2.500000e+001  0.000000e+000
    endloop
  endfacet
  facet normal  5.877857e-001 -8.090166e-001  0.000000e+000
    outer loop
      vertex -1.009270e+002 -2.214683e+001 -1.000000e+001
      vertex -1.024270e+002 -2.323664e+001  0.000000e+000
      vertex -1.024270e+002 -2.323664e+001 -1.000000e+001
    endloop
  endfacet
  facet normal  9.510560e-001 -3.090187e-001  0.000000e+000
    outer loop
      vertex -1.024270e+002 -2.323664e+001 -1.000000e+001
      vertex -1.024270e+002 -2.323664e+001  0.000000e+000
      vertex -1.030000e+002 -2.500000e+001  0.000000e+000
    endloop
  endfacet
  facet normal  9.510560e-001 -3.090187e-001  0.000000e+000
    outer loop
      vertex -1.024270e+002 -2.323664e+001 -1.000000e+001
      vertex -1.030000e+002 -2.500000e+001  0.000000e+000
      vertex -1.030000e+002 -2.500000e+001 -1.000000e+001
    endloop
  endfacet
  facet normal  5.877857e-001 -8.090166e-001  0.000000e+000
    outer loop
      vertex -1.024270e+002 -2.323664e+001  0.000000e+000
      vertex -1.009270e+002 -2.214683e+001 -1.000000e+001
      vertex -1.009270e+002 -2.214683e+001  0.000000e+000
    endloop
  endfacet
  facet normal  0.000000e+000 -1.000000e+000  0.000000e+000
    outer loop
      vertex -1.009270e+002 -2.214683e+001  0.000000e+000
      vertex -1.009270e+002 -2.214683e+001 -1.000000e+001
      vertex -9.907295e+001 -2.214683e+001 -1.000000e+001
    endloop
  endfacet
  facet normal  0.000000e+000 -1.000000e+000  0.000000e+000
    outer loop
      vertex -1.009270e+002 -2.214683e+001  0.000000e+000
      vertex -9.907295e+001 -2.214683e+001 -1.000000e+001
      vertex -9.907295e+001 -2.214683e+001  0.000000e+000
    endloop
  endfacet
  facet normal -5.877857e-001 -8.090166e-001  -0.000000e+000
    outer loop
      vertex -9.907295e+001 -2.214683e+001  0.000000e+000
      vertex -9.907295e+001 -2.214683e+001 -1.000000e+001
      vertex -9.757295e+001 -2.323664e+001 -1.000000e+001
    endloop
  endfacet
  facet normal -5.877857e-001 -8.090166e-001  0.000000e+000
    outer loop
      vertex -9.907295e+001 -2.214683e+001  0.000000e+000
      vertex -9.757295e+001 -2.323664e+001 -1.000000e+001
      vertex -9.757295e+001 -2.323664e+001  0.000000e+000
    endloop
  endfacet
  facet normal -9.510560e-001 -3.090187e-001  -0.000000e+000
    outer loop
      vertex -9.757295e+001 -2.323664e+001  0.000000e+000
      vertex -9.757295e+001 -2.323664e+001 -1.000000e+001
      vertex -9.700000e+001 -2.500000e+001 -1.000000e+001
    endloop
  endfacet
  facet normal -9.510560e-001 -3.090187e-001  0.000000e+000
    outer loop
      vertex -9.757295e+001 -2.323664e+001  0.000000e+000
      vertex -9.700000e+001 -2.500000e+001 -1.000000e+001
      vertex -9.700000e+001 -2.500000e+001  0.000000e+000
    endloop
  endfacet
  facet normal -5.877857e-001  8.090166e-001  0.000000e+000
    outer loop
      vertex -9.907295e+001 -2.785317e+001 -1.000000e+001
      vertex -9.757295e+001 -2.676336e+001  0.000000e+000
      vertex -9.757295e+001 -2.676336e+001 -1.000000e+001
    endloop
  endfacet
  facet normal -9.510560e-001  3.090187e-001  0.000000e+000
    outer loop
      vertex -9.757295e+001 -2.676336e+001 -1.000000e+001
      vertex -9.757295e+001 -2.676336e+001  0.000000e+000
      vertex -9.700000e+001 -2.500000e+001  0.000000e+000
    endloop
  endfacet
  facet normal -9.510560e-001  3.090187e-001  0.000000e+000
    outer loop
      vertex -9.757295e+001 -2.676336e+001 -1.000000e+001
      vertex -9.700000e+001 -2.500000e+001  0.000000e+000
      vertex -9.700000e+001 -2.500000e+001 -1.000000e+001
    endloop
  endfacet
  facet normal -5.877857e-001  8.090166e-001  0.000000e+000
    outer loop
      vertex -9.757295e+001 -2.676336e+001  0.000000e+000
      vertex -9.907295e+001 -2.785317e+001 -1.000000e+001
      vertex -9.907295e+001 -2.785317e+001  0.000000e+000
    endloop
  endfacet
  facet normal  0.000000e+000  1.000000e+000  0.000000e+000
    outer loop
      vertex -9.907295e+001 -2.785317e+001  0.000000e+000
      vertex -9.907295e+001 -2.785317e+001 -1.000000e+001
      vertex -1.009270e+002 -2.785317e+001 -1.000000e+001
    endloop
  endfacet
  facet normal  0.000000e+000  1.000000e+000  0.000000e+000
    outer loop
      vertex -9.907295e+001 -2.785317e+001  0.000000e+000
      vertex -1.009270e+002 -2.785317e+001 -1.000000e+001
      vertex -1.009270e+002 -2.785317e+001  0.000000e+000
    endloop
  endfacet
  facet normal  5.877857e-001  8.090166e-001  0.000000e+000
    outer loop
      vertex -1.009270e+002 -2.785317e+001  0.000000e+000
      vertex -1.009270e+002 -2.785317e+001 -1.000000e+001
      vertex -1.024270e+002 -2.676336e+001 -1.000000e+001
    endloop
  endfacet
  facet normal  5.877857e-001  8.090166e-001  -0.000000e+000
    outer loop
      vertex -1.009270e+002 -2.785317e+001  0.000000e+000
      vertex -1.024270e+002 -2.676336e+001 -1.000000e+001
      vertex -1.024270e+002 -2.676336e+001  0.000000e+000
    endloop
  endfacet
  facet normal  9.510560e-001  3.090187e-001  0.000000e+000
    outer loop
      vertex -1.024270e+002 -2.676336e+001  0.000000e+000
      vertex -1.024270e+002 -2.676336e+001 -1.000000e+001
      vertex -1.030000e+002 -2.500000e+001 -1.000000e+001
    endloop
  endfacet
  facet normal  9.510560e-001  3.090187e-001  -0.000000e+000
    outer loop
      vertex -1.024270e+002 -2.676336e+001  0.000000e+000
      vertex -1.030000e+002 -2.500000e+001 -1.000000e+001
      vertex -1.030000e+002 -2.500000e+001  0.000000e+000
    endloop
  endfacet
  facet normal -7.894919e-017  1.000000e+000  0.000000e+000
    outer loop
      vertex -1.800000e+002  0.000000e+000 -1.000000e+001
      vertex -1.800000e+002  0.000000e+000  0.000000e+000
      vertex  1.800000e+002  2.842171e-014 -1.000000e+001
    endloop
  endfacet
  facet normal -7.894919e-017  1.000000e+000  0.000000e+000
    outer loop
      vertex  1.800000e+002  2.842171e-014 -1.000000e+001
      vertex -1.800000e+002  0.000000e+000  0.000000e+000
      vertex  1.800000e+002  2.842171e-014  0.000000e+000
    endloop
  endfacet
  facet normal  1.000000e+000  0.000000e+000  0.000000e+000
    outer loop
      vertex  1.800000e+002 -7.500000e+002 -1.000000e+001
      vertex  1.800000e+002  2.842171e-014 -1.000000e+001
      vertex  1.800000e+002 -7.500000e+002  0.000000e+000
    endloop
  endfacet
  facet normal  1.000000e+000  -0.000000e+000  0.000000e+000
    outer loop
      vertex  1.800000e+002 -7.500000e+002  0.000000e+000
      vertex  1.800000e+002  2.842171e-014 -1.000000e+001
      vertex  1.800000e+002  2.842171e-014  0.000000e+000
    endloop
  endfacet
  facet normal  0.000000e+000 -1.000000e+000  -0.000000e+000
    outer loop
      vertex  1.800000e+002 -7.500000e+002 -1.000000e+001
      vertex  1.800000e+002 -7.500000e+002  0.000000e+000
      vertex -1.800000e+002 -7.500000e+002 -1.000000e+001
    endloop
  endfacet
  facet normal  0.000000e+000 -1.000000e+000  0.000000e+000
    outer loop
      vertex -1.800000e+002 -7.500000e+002 -1.000000e+001
      vertex  1.800000e+002 -7.500000e+002  0.000000e+000
      vertex -1.800000e+002 -7.500000e+002  0.000000e+000
    endloop
  endfacet
  facet normal -1.000000e+000  0.000000e+000  0.000000e+000
    outer loop
      vertex -1.800000e+002  0.000000e+000 -1.000000e+001
      vertex -1.800000e+002 -7.500000e+002 -1.000000e+001
      vertex -1.800000e+002  0.000000e+000  0.000000e+000
    endloop
  endfacet
  facet normal -1.000000e+000  -0.000000e+000  0.000000e+000
    outer loop
      vertex -1.800000e+002  0.000000e+000  0.000000e+000
      vertex -1.800000e+002 -7.500000e+002 -1.000000e+001
      vertex -1.800000e+002 -7.500000e+002  0.000000e+000
    endloop
  endfacet
endsolid CATIA STL
