solid CATIA STL
  facet normal  0.000000e+000 -1.000000e+000  0.000000e+000
    outer loop
      vertex  1.520000e+000  6.933333e+000 -2.124899e-002
      vertex  1.600000e+000  6.933333e+000 -2.124899e-002
      vertex  1.520000e+000  6.933333e+000  6.828427e-001
    endloop
  endfacet
  facet normal  0.000000e+000 -1.000000e+000  0.000000e+000
    outer loop
      vertex  1.520000e+000  6.933333e+000  6.828427e-001
      vertex  1.600000e+000  6.933333e+000 -2.124899e-002
      vertex  1.600000e+000  6.933333e+000  6.828427e-001
    endloop
  endfacet
  facet normal  0.000000e+000  9.999999e-001  0.000000e+000
    outer loop
      vertex  1.520000e+000  5.933333e+000  2.828427e-001
      vertex  1.600000e+000  5.933333e+000  2.828427e-001
      vertex  1.520000e+000  5.933333e+000 -2.124899e-002
    endloop
  endfacet
  facet normal  -0.000000e+000  9.999999e-001  0.000000e+000
    outer loop
      vertex  1.520000e+000  5.933333e+000 -2.124899e-002
      vertex  1.600000e+000  5.933333e+000  2.828427e-001
      vertex  1.600000e+000  5.933333e+000 -2.124899e-002
    endloop
  endfacet
  facet normal  0.000000e+000  0.000000e+000  9.999999e-001
    outer loop
      vertex  1.520000e+000  5.333333e+000  2.828427e-001
      vertex  1.600000e+000  5.333333e+000  2.828427e-001
      vertex  1.520000e+000  5.933333e+000  2.828427e-001
    endloop
  endfacet
  facet normal  -0.000000e+000  0.000000e+000  9.999999e-001
    outer loop
      vertex  1.520000e+000  5.933333e+000  2.828427e-001
      vertex  1.600000e+000  5.333333e+000  2.828427e-001
      vertex  1.600000e+000  5.933333e+000  2.828427e-001
    endloop
  endfacet
  facet normal  1.000000e+000  0.000000e+000  0.000000e+000
    outer loop
      vertex  1.520000e+000  5.850491e+000 -1.233461e+000
      vertex  1.520000e+000  5.567648e+000 -9.506183e-001
      vertex  1.520000e+000  5.733333e+000 -1.516304e+000
    endloop
  endfacet
  facet normal  1.000000e+000  0.000000e+000  0.000000e+000
    outer loop
      vertex  1.520000e+000  6.416176e+000 -1.799147e+000
      vertex  1.520000e+000  6.699019e+000 -2.081989e+000
      vertex  1.520000e+000  6.533333e+000 -1.516304e+000
    endloop
  endfacet
  facet normal  1.000000e+000  0.000000e+000  0.000000e+000
    outer loop
      vertex  1.520000e+000  5.567648e+000 -2.081989e+000
      vertex  1.520000e+000  5.850491e+000 -1.799147e+000
      vertex  1.520000e+000  5.733333e+000 -1.516304e+000
    endloop
  endfacet
  facet normal  1.000000e+000  0.000000e+000  0.000000e+000
    outer loop
      vertex  1.520000e+000  5.567648e+000 -2.081989e+000
      vertex  1.520000e+000  5.733333e+000 -1.516304e+000
      vertex  1.520000e+000  5.567648e+000 -9.506183e-001
    endloop
  endfacet
  facet normal  1.000000e+000  0.000000e+000  0.000000e+000
    outer loop
      vertex  1.520000e+000  5.567648e+000 -2.081989e+000
      vertex  1.520000e+000  5.567648e+000 -9.506183e-001
      vertex  1.520000e+000  5.333333e+000 -1.516304e+000
    endloop
  endfacet
  facet normal  1.000000e+000  0.000000e+000  0.000000e+000
    outer loop
      vertex  1.520000e+000  6.699019e+000 -9.506183e-001
      vertex  1.520000e+000  6.133333e+000 -7.163038e-001
      vertex  1.520000e+000  6.416176e+000 -1.233461e+000
    endloop
  endfacet
  facet normal  1.000000e+000  -0.000000e+000  0.000000e+000
    outer loop
      vertex  1.520000e+000  6.699019e+000 -9.506183e-001
      vertex  1.520000e+000  6.416176e+000 -1.233461e+000
      vertex  1.520000e+000  6.533333e+000 -1.516304e+000
    endloop
  endfacet
  facet normal  1.000000e+000  -0.000000e+000  0.000000e+000
    outer loop
      vertex  1.520000e+000  6.699019e+000 -9.506183e-001
      vertex  1.520000e+000  6.533333e+000 -1.516304e+000
      vertex  1.520000e+000  6.699019e+000 -2.081989e+000
    endloop
  endfacet
  facet normal  1.000000e+000  0.000000e+000  0.000000e+000
    outer loop
      vertex  1.520000e+000  6.699019e+000 -9.506183e-001
      vertex  1.520000e+000  6.699019e+000 -2.081989e+000
      vertex  1.520000e+000  6.933333e+000 -1.516304e+000
    endloop
  endfacet
  facet normal  9.999999e-001  0.000000e+000  -0.000000e+000
    outer loop
      vertex  1.520000e+000  5.567648e+000 -9.506183e-001
      vertex  1.520000e+000  5.850491e+000 -1.233461e+000
      vertex  1.520000e+000  6.133333e+000 -7.163038e-001
    endloop
  endfacet
  facet normal  1.000000e+000  0.000000e+000  0.000000e+000
    outer loop
      vertex  1.520000e+000  6.133333e+000 -7.163038e-001
      vertex  1.520000e+000  5.850491e+000 -1.233461e+000
      vertex  1.520000e+000  6.133333e+000 -1.116304e+000
    endloop
  endfacet
  facet normal  1.000000e+000  -0.000000e+000  0.000000e+000
    outer loop
      vertex  1.520000e+000  6.133333e+000 -7.163038e-001
      vertex  1.520000e+000  6.133333e+000 -1.116304e+000
      vertex  1.520000e+000  6.416176e+000 -1.233461e+000
    endloop
  endfacet
  facet normal  0.000000e+000  9.238794e-001 -3.826839e-001
    outer loop
      vertex  1.600000e+000  6.416176e+000 -1.799147e+000
      vertex  1.520000e+000  6.416176e+000 -1.799147e+000
      vertex  1.600000e+000  6.533333e+000 -1.516304e+000
    endloop
  endfacet
  facet normal  0.000000e+000  9.238794e-001 -3.826839e-001
    outer loop
      vertex  1.600000e+000  6.533333e+000 -1.516304e+000
      vertex  1.520000e+000  6.416176e+000 -1.799147e+000
      vertex  1.520000e+000  6.533333e+000 -1.516304e+000
    endloop
  endfacet
  facet normal  -0.000000e+000  9.238794e-001  3.826839e-001
    outer loop
      vertex  1.600000e+000  6.533333e+000 -1.516304e+000
      vertex  1.520000e+000  6.533333e+000 -1.516304e+000
      vertex  1.600000e+000  6.416176e+000 -1.233461e+000
    endloop
  endfacet
  facet normal  0.000000e+000  9.238794e-001  3.826839e-001
    outer loop
      vertex  1.600000e+000  6.416176e+000 -1.233461e+000
      vertex  1.520000e+000  6.533333e+000 -1.516304e+000
      vertex  1.520000e+000  6.416176e+000 -1.233461e+000
    endloop
  endfacet
  facet normal  -0.000000e+000  3.826834e-001  9.238796e-001
    outer loop
      vertex  1.600000e+000  6.416176e+000 -1.233461e+000
      vertex  1.520000e+000  6.416176e+000 -1.233461e+000
      vertex  1.600000e+000  6.133333e+000 -1.116304e+000
    endloop
  endfacet
  facet normal  0.000000e+000  3.826834e-001  9.238796e-001
    outer loop
      vertex  1.600000e+000  6.133333e+000 -1.116304e+000
      vertex  1.520000e+000  6.416176e+000 -1.233461e+000
      vertex  1.520000e+000  6.133333e+000 -1.116304e+000
    endloop
  endfacet
  facet normal  0.000000e+000 -3.826834e-001  9.238796e-001
    outer loop
      vertex  1.600000e+000  6.133333e+000 -1.116304e+000
      vertex  1.520000e+000  6.133333e+000 -1.116304e+000
      vertex  1.600000e+000  5.850491e+000 -1.233461e+000
    endloop
  endfacet
  facet normal  0.000000e+000 -3.826834e-001  9.238796e-001
    outer loop
      vertex  1.600000e+000  5.850491e+000 -1.233461e+000
      vertex  1.520000e+000  6.133333e+000 -1.116304e+000
      vertex  1.520000e+000  5.850491e+000 -1.233461e+000
    endloop
  endfacet
  facet normal  0.000000e+000 -9.238794e-001  3.826839e-001
    outer loop
      vertex  1.600000e+000  5.850491e+000 -1.233461e+000
      vertex  1.520000e+000  5.850491e+000 -1.233461e+000
      vertex  1.600000e+000  5.733333e+000 -1.516304e+000
    endloop
  endfacet
  facet normal  0.000000e+000 -9.238794e-001  3.826839e-001
    outer loop
      vertex  1.600000e+000  5.733333e+000 -1.516304e+000
      vertex  1.520000e+000  5.850491e+000 -1.233461e+000
      vertex  1.520000e+000  5.733333e+000 -1.516304e+000
    endloop
  endfacet
  facet normal  0.000000e+000 -9.238794e-001 -3.826839e-001
    outer loop
      vertex  1.600000e+000  5.733333e+000 -1.516304e+000
      vertex  1.520000e+000  5.733333e+000 -1.516304e+000
      vertex  1.600000e+000  5.850491e+000 -1.799147e+000
    endloop
  endfacet
  facet normal  -0.000000e+000 -9.238794e-001 -3.826839e-001
    outer loop
      vertex  1.600000e+000  5.850491e+000 -1.799147e+000
      vertex  1.520000e+000  5.733333e+000 -1.516304e+000
      vertex  1.520000e+000  5.850491e+000 -1.799147e+000
    endloop
  endfacet
  facet normal  0.000000e+000 -7.071069e-001  7.071066e-001
    outer loop
      vertex  1.520000e+000  5.567648e+000 -2.081989e+000
      vertex  1.600000e+000  5.567648e+000 -2.081989e+000
      vertex  1.520000e+000  5.850491e+000 -1.799147e+000
    endloop
  endfacet
  facet normal  0.000000e+000 -7.071069e-001  7.071066e-001
    outer loop
      vertex  1.520000e+000  5.850491e+000 -1.799147e+000
      vertex  1.600000e+000  5.567648e+000 -2.081989e+000
      vertex  1.600000e+000  5.850491e+000 -1.799147e+000
    endloop
  endfacet
  facet normal  0.000000e+000 -9.238796e-001  3.826832e-001
    outer loop
      vertex  1.600000e+000  6.933333e+000 -1.516304e+000
      vertex  1.520000e+000  6.699019e+000 -2.081989e+000
      vertex  1.600000e+000  6.699019e+000 -2.081989e+000
    endloop
  endfacet
  facet normal  0.000000e+000 -9.238796e-001  3.826832e-001
    outer loop
      vertex  1.520000e+000  6.699019e+000 -2.081989e+000
      vertex  1.600000e+000  6.933333e+000 -1.516304e+000
      vertex  1.520000e+000  6.933333e+000 -1.516304e+000
    endloop
  endfacet
  facet normal  0.000000e+000 -9.238796e-001 -3.826832e-001
    outer loop
      vertex  1.520000e+000  6.933333e+000 -1.516304e+000
      vertex  1.600000e+000  6.933333e+000 -1.516304e+000
      vertex  1.600000e+000  6.699019e+000 -9.506183e-001
    endloop
  endfacet
  facet normal  -0.000000e+000 -9.238796e-001 -3.826832e-001
    outer loop
      vertex  1.520000e+000  6.933333e+000 -1.516304e+000
      vertex  1.600000e+000  6.699019e+000 -9.506183e-001
      vertex  1.520000e+000  6.699019e+000 -9.506183e-001
    endloop
  endfacet
  facet normal  0.000000e+000 -3.826832e-001 -9.238797e-001
    outer loop
      vertex  1.520000e+000  6.699019e+000 -9.506183e-001
      vertex  1.600000e+000  6.699019e+000 -9.506183e-001
      vertex  1.600000e+000  6.133333e+000 -7.163038e-001
    endloop
  endfacet
  facet normal  -0.000000e+000 -3.826832e-001 -9.238797e-001
    outer loop
      vertex  1.520000e+000  6.699019e+000 -9.506183e-001
      vertex  1.600000e+000  6.133333e+000 -7.163038e-001
      vertex  1.520000e+000  6.133333e+000 -7.163038e-001
    endloop
  endfacet
  facet normal  0.000000e+000  3.826835e-001 -9.238795e-001
    outer loop
      vertex  1.600000e+000  5.567648e+000 -9.506183e-001
      vertex  1.520000e+000  6.133333e+000 -7.163038e-001
      vertex  1.600000e+000  6.133333e+000 -7.163038e-001
    endloop
  endfacet
  facet normal  0.000000e+000  3.826835e-001 -9.238795e-001
    outer loop
      vertex  1.520000e+000  6.133333e+000 -7.163038e-001
      vertex  1.600000e+000  5.567648e+000 -9.506183e-001
      vertex  1.520000e+000  5.567648e+000 -9.506183e-001
    endloop
  endfacet
  facet normal  0.000000e+000  9.238796e-001 -3.826832e-001
    outer loop
      vertex  1.520000e+000  5.567648e+000 -9.506183e-001
      vertex  1.600000e+000  5.567648e+000 -9.506183e-001
      vertex  1.600000e+000  5.333333e+000 -1.516304e+000
    endloop
  endfacet
  facet normal  0.000000e+000  9.238796e-001 -3.826832e-001
    outer loop
      vertex  1.520000e+000  5.567648e+000 -9.506183e-001
      vertex  1.600000e+000  5.333333e+000 -1.516304e+000
      vertex  1.520000e+000  5.333333e+000 -1.516304e+000
    endloop
  endfacet
  facet normal  -0.000000e+000  9.238796e-001  3.826832e-001
    outer loop
      vertex  1.520000e+000  5.333333e+000 -1.516304e+000
      vertex  1.600000e+000  5.333333e+000 -1.516304e+000
      vertex  1.600000e+000  5.567648e+000 -2.081989e+000
    endloop
  endfacet
  facet normal  0.000000e+000  9.238796e-001  3.826832e-001
    outer loop
      vertex  1.520000e+000  5.333333e+000 -1.516304e+000
      vertex  1.600000e+000  5.567648e+000 -2.081989e+000
      vertex  1.520000e+000  5.567648e+000 -2.081989e+000
    endloop
  endfacet
  facet normal  0.000000e+000  7.071063e-001  7.071072e-001
    outer loop
      vertex  1.520000e+000  6.416176e+000 -1.799147e+000
      vertex  1.600000e+000  6.416176e+000 -1.799147e+000
      vertex  1.520000e+000  6.699019e+000 -2.081989e+000
    endloop
  endfacet
  facet normal  -0.000000e+000  7.071063e-001  7.071072e-001
    outer loop
      vertex  1.520000e+000  6.699019e+000 -2.081989e+000
      vertex  1.600000e+000  6.416176e+000 -1.799147e+000
      vertex  1.600000e+000  6.699019e+000 -2.081989e+000
    endloop
  endfacet
  facet normal  0.000000e+000  1.000000e+000  0.000000e+000
    outer loop
      vertex  1.520000e+000  5.333333e+000  2.081989e+000
      vertex  1.600000e+000  5.333333e+000  2.081989e+000
      vertex  1.520000e+000  5.333333e+000  1.681989e+000
    endloop
  endfacet
  facet normal  0.000000e+000  1.000000e+000  0.000000e+000
    outer loop
      vertex  1.520000e+000  5.333333e+000  1.681989e+000
      vertex  1.600000e+000  5.333333e+000  2.081989e+000
      vertex  1.600000e+000  5.333333e+000  1.681989e+000
    endloop
  endfacet
  facet normal  0.000000e+000  0.000000e+000  9.999999e-001
    outer loop
      vertex  1.520000e+000  5.333333e+000  1.681989e+000
      vertex  1.600000e+000  5.333333e+000  1.681989e+000
      vertex  1.520000e+000  5.933333e+000  1.681989e+000
    endloop
  endfacet
  facet normal  -0.000000e+000  0.000000e+000  9.999999e-001
    outer loop
      vertex  1.520000e+000  5.933333e+000  1.681989e+000
      vertex  1.600000e+000  5.333333e+000  1.681989e+000
      vertex  1.600000e+000  5.933333e+000  1.681989e+000
    endloop
  endfacet
  facet normal  0.000000e+000  1.000000e+000  0.000000e+000
    outer loop
      vertex  1.520000e+000  5.933333e+000  1.681989e+000
      vertex  1.600000e+000  5.933333e+000  1.681989e+000
      vertex  1.520000e+000  5.933333e+000  1.281989e+000
    endloop
  endfacet
  facet normal  0.000000e+000  1.000000e+000  0.000000e+000
    outer loop
      vertex  1.520000e+000  5.933333e+000  1.281989e+000
      vertex  1.600000e+000  5.933333e+000  1.681989e+000
      vertex  1.600000e+000  5.933333e+000  1.281989e+000
    endloop
  endfacet
  facet normal  0.000000e+000  0.000000e+000 -9.999999e-001
    outer loop
      vertex  1.520000e+000  5.333333e+000  1.281989e+000
      vertex  1.520000e+000  5.933333e+000  1.281989e+000
      vertex  1.600000e+000  5.333333e+000  1.281989e+000
    endloop
  endfacet
  facet normal  0.000000e+000  0.000000e+000 -9.999999e-001
    outer loop
      vertex  1.600000e+000  5.333333e+000  1.281989e+000
      vertex  1.520000e+000  5.933333e+000  1.281989e+000
      vertex  1.600000e+000  5.933333e+000  1.281989e+000
    endloop
  endfacet
  facet normal  0.000000e+000  1.000000e+000  0.000000e+000
    outer loop
      vertex  1.520000e+000  5.333333e+000  1.281989e+000
      vertex  1.600000e+000  5.333333e+000  1.281989e+000
      vertex  1.520000e+000  5.333333e+000  8.819892e-001
    endloop
  endfacet
  facet normal  0.000000e+000  1.000000e+000  0.000000e+000
    outer loop
      vertex  1.520000e+000  5.333333e+000  8.819892e-001
      vertex  1.600000e+000  5.333333e+000  1.281989e+000
      vertex  1.600000e+000  5.333333e+000  8.819892e-001
    endloop
  endfacet
  facet normal  0.000000e+000  0.000000e+000  1.000000e+000
    outer loop
      vertex  1.600000e+000  5.333333e+000  8.819892e-001
      vertex  1.600000e+000  6.933333e+000  8.819892e-001
      vertex  1.520000e+000  5.333333e+000  8.819892e-001
    endloop
  endfacet
  facet normal  0.000000e+000  0.000000e+000  1.000000e+000
    outer loop
      vertex  1.520000e+000  5.333333e+000  8.819892e-001
      vertex  1.600000e+000  6.933333e+000  8.819892e-001
      vertex  1.520000e+000  6.933333e+000  8.819892e-001
    endloop
  endfacet
  facet normal  0.000000e+000 -1.000000e+000  0.000000e+000
    outer loop
      vertex  1.520000e+000  6.933333e+000  8.819892e-001
      vertex  1.600000e+000  6.933333e+000  8.819892e-001
      vertex  1.520000e+000  6.933333e+000  1.281989e+000
    endloop
  endfacet
  facet normal  0.000000e+000 -1.000000e+000  0.000000e+000
    outer loop
      vertex  1.520000e+000  6.933333e+000  1.281989e+000
      vertex  1.600000e+000  6.933333e+000  8.819892e-001
      vertex  1.600000e+000  6.933333e+000  1.281989e+000
    endloop
  endfacet
  facet normal  0.000000e+000  0.000000e+000 -9.999999e-001
    outer loop
      vertex  1.520000e+000  6.333333e+000  1.281989e+000
      vertex  1.520000e+000  6.933333e+000  1.281989e+000
      vertex  1.600000e+000  6.333333e+000  1.281989e+000
    endloop
  endfacet
  facet normal  0.000000e+000  0.000000e+000 -9.999999e-001
    outer loop
      vertex  1.600000e+000  6.333333e+000  1.281989e+000
      vertex  1.520000e+000  6.933333e+000  1.281989e+000
      vertex  1.600000e+000  6.933333e+000  1.281989e+000
    endloop
  endfacet
  facet normal  0.000000e+000 -1.000000e+000  0.000000e+000
    outer loop
      vertex  1.520000e+000  6.333333e+000  1.281989e+000
      vertex  1.600000e+000  6.333333e+000  1.281989e+000
      vertex  1.520000e+000  6.333333e+000  1.681989e+000
    endloop
  endfacet
  facet normal  0.000000e+000 -1.000000e+000  0.000000e+000
    outer loop
      vertex  1.520000e+000  6.333333e+000  1.681989e+000
      vertex  1.600000e+000  6.333333e+000  1.281989e+000
      vertex  1.600000e+000  6.333333e+000  1.681989e+000
    endloop
  endfacet
  facet normal  9.999999e-001  0.000000e+000  -0.000000e+000
    outer loop
      vertex  1.520000e+000  6.333333e+000  1.681989e+000
      vertex  1.520000e+000  6.933333e+000  1.681989e+000
      vertex  1.520000e+000  6.933333e+000  2.081989e+000
    endloop
  endfacet
  facet normal  1.000000e+000  0.000000e+000  0.000000e+000
    outer loop
      vertex  1.520000e+000  6.333333e+000  1.681989e+000
      vertex  1.520000e+000  6.933333e+000  2.081989e+000
      vertex  1.520000e+000  5.933333e+000  1.681989e+000
    endloop
  endfacet
  facet normal  1.000000e+000  -0.000000e+000  0.000000e+000
    outer loop
      vertex  1.520000e+000  6.333333e+000  1.681989e+000
      vertex  1.520000e+000  5.933333e+000  1.681989e+000
      vertex  1.520000e+000  5.933333e+000  1.281989e+000
    endloop
  endfacet
  facet normal  1.000000e+000  0.000000e+000  0.000000e+000
    outer loop
      vertex  1.520000e+000  6.333333e+000  1.681989e+000
      vertex  1.520000e+000  5.933333e+000  1.281989e+000
      vertex  1.520000e+000  6.333333e+000  1.281989e+000
    endloop
  endfacet
  facet normal  1.000000e+000  0.000000e+000  0.000000e+000
    outer loop
      vertex  1.520000e+000  6.933333e+000  8.819892e-001
      vertex  1.520000e+000  6.933333e+000  1.281989e+000
      vertex  1.520000e+000  6.333333e+000  1.281989e+000
    endloop
  endfacet
  facet normal  9.999999e-001  0.000000e+000  0.000000e+000
    outer loop
      vertex  1.520000e+000  6.933333e+000  8.819892e-001
      vertex  1.520000e+000  6.333333e+000  1.281989e+000
      vertex  1.520000e+000  5.933333e+000  1.281989e+000
    endloop
  endfacet
  facet normal  1.000000e+000  0.000000e+000  0.000000e+000
    outer loop
      vertex  1.520000e+000  6.933333e+000  8.819892e-001
      vertex  1.520000e+000  5.933333e+000  1.281989e+000
      vertex  1.520000e+000  5.333333e+000  1.281989e+000
    endloop
  endfacet
  facet normal  1.000000e+000  0.000000e+000  0.000000e+000
    outer loop
      vertex  1.520000e+000  6.933333e+000  8.819892e-001
      vertex  1.520000e+000  5.333333e+000  1.281989e+000
      vertex  1.520000e+000  5.333333e+000  8.819892e-001
    endloop
  endfacet
  facet normal  1.000000e+000  0.000000e+000  0.000000e+000
    outer loop
      vertex  1.520000e+000  5.333333e+000  2.081989e+000
      vertex  1.520000e+000  5.333333e+000  1.681989e+000
      vertex  1.520000e+000  6.933333e+000  2.081989e+000
    endloop
  endfacet
  facet normal  9.999999e-001  0.000000e+000  0.000000e+000
    outer loop
      vertex  1.520000e+000  6.933333e+000  2.081989e+000
      vertex  1.520000e+000  5.333333e+000  1.681989e+000
      vertex  1.520000e+000  5.933333e+000  1.681989e+000
    endloop
  endfacet
  facet normal  0.000000e+000  0.000000e+000  9.999999e-001
    outer loop
      vertex  1.520000e+000  6.333333e+000  1.681989e+000
      vertex  1.600000e+000  6.333333e+000  1.681989e+000
      vertex  1.520000e+000  6.933333e+000  1.681989e+000
    endloop
  endfacet
  facet normal  -0.000000e+000  0.000000e+000  9.999999e-001
    outer loop
      vertex  1.520000e+000  6.933333e+000  1.681989e+000
      vertex  1.600000e+000  6.333333e+000  1.681989e+000
      vertex  1.600000e+000  6.933333e+000  1.681989e+000
    endloop
  endfacet
  facet normal  0.000000e+000 -1.000000e+000  0.000000e+000
    outer loop
      vertex  1.520000e+000  6.933333e+000  1.681989e+000
      vertex  1.600000e+000  6.933333e+000  1.681989e+000
      vertex  1.520000e+000  6.933333e+000  2.081989e+000
    endloop
  endfacet
  facet normal  0.000000e+000 -1.000000e+000  0.000000e+000
    outer loop
      vertex  1.520000e+000  6.933333e+000  2.081989e+000
      vertex  1.600000e+000  6.933333e+000  1.681989e+000
      vertex  1.600000e+000  6.933333e+000  2.081989e+000
    endloop
  endfacet
  facet normal  0.000000e+000  0.000000e+000 -1.000000e+000
    outer loop
      vertex  1.520000e+000  5.333333e+000  2.081989e+000
      vertex  1.520000e+000  6.933333e+000  2.081989e+000
      vertex  1.600000e+000  5.333333e+000  2.081989e+000
    endloop
  endfacet
  facet normal  0.000000e+000  0.000000e+000 -1.000000e+000
    outer loop
      vertex  1.600000e+000  5.333333e+000  2.081989e+000
      vertex  1.520000e+000  6.933333e+000  2.081989e+000
      vertex  1.600000e+000  6.933333e+000  2.081989e+000
    endloop
  endfacet
  facet normal -6.051514e-016  9.807853e-001  1.950904e-001
    outer loop
      vertex  1.600000e+000  8.000000e+000  6.922414e-015
      vertex  3.725296e-010  8.000000e+000  1.959370e-015
      vertex  1.600000e+000  7.391036e+000  3.061467e+000
    endloop
  endfacet
  facet normal  0.000000e+000  9.807853e-001  1.950904e-001
    outer loop
      vertex  1.600000e+000  7.391036e+000  3.061467e+000
      vertex  3.725296e-010  8.000000e+000  1.959370e-015
      vertex  3.725296e-010  7.391036e+000  3.061467e+000
    endloop
  endfacet
  facet normal  -0.000000e+000  8.314696e-001  5.555702e-001
    outer loop
      vertex  1.600000e+000  7.391036e+000  3.061467e+000
      vertex  3.725296e-010  7.391036e+000  3.061467e+000
      vertex  1.600000e+000  5.656854e+000  5.656854e+000
    endloop
  endfacet
  facet normal  0.000000e+000  8.314696e-001  5.555702e-001
    outer loop
      vertex  1.600000e+000  5.656854e+000  5.656854e+000
      vertex  3.725296e-010  7.391036e+000  3.061467e+000
      vertex  3.725295e-010  5.656854e+000  5.656854e+000
    endloop
  endfacet
  facet normal  -0.000000e+000  5.555702e-001  8.314696e-001
    outer loop
      vertex  1.600000e+000  5.656854e+000  5.656854e+000
      vertex  3.725295e-010  5.656854e+000  5.656854e+000
      vertex  1.600000e+000  3.061467e+000  7.391036e+000
    endloop
  endfacet
  facet normal  0.000000e+000  5.555702e-001  8.314696e-001
    outer loop
      vertex  1.600000e+000  3.061467e+000  7.391036e+000
      vertex  3.725295e-010  5.656854e+000  5.656854e+000
      vertex  3.725293e-010  3.061467e+000  7.391036e+000
    endloop
  endfacet
  facet normal  -0.000000e+000  1.950904e-001  9.807853e-001
    outer loop
      vertex  1.600000e+000  3.061467e+000  7.391036e+000
      vertex  3.725293e-010  3.061467e+000  7.391036e+000
      vertex  1.600000e+000  7.450724e-010  8.000000e+000
    endloop
  endfacet
  facet normal -9.084797e-011  1.950904e-001  9.807853e-001
    outer loop
      vertex  1.600000e+000  7.450724e-010  8.000000e+000
      vertex  3.725293e-010  3.061467e+000  7.391036e+000
      vertex  3.725291e-010 -1.469528e-015  8.000000e+000
    endloop
  endfacet
  facet normal  9.084797e-011 -1.950904e-001  9.807853e-001
    outer loop
      vertex  1.600000e+000  7.450724e-010  8.000000e+000
      vertex  3.725291e-010 -1.469528e-015  8.000000e+000
      vertex  1.600000e+000 -3.061467e+000  7.391036e+000
    endloop
  endfacet
  facet normal  0.000000e+000 -1.950904e-001  9.807853e-001
    outer loop
      vertex  1.600000e+000 -3.061467e+000  7.391036e+000
      vertex  3.725291e-010 -1.469528e-015  8.000000e+000
      vertex  3.725289e-010 -3.061467e+000  7.391036e+000
    endloop
  endfacet
  facet normal  0.000000e+000 -5.555702e-001  8.314696e-001
    outer loop
      vertex  1.600000e+000 -3.061467e+000  7.391036e+000
      vertex  3.725289e-010 -3.061467e+000  7.391036e+000
      vertex  1.600000e+000 -5.656854e+000  5.656854e+000
    endloop
  endfacet
  facet normal  0.000000e+000 -5.555702e-001  8.314696e-001
    outer loop
      vertex  1.600000e+000 -5.656854e+000  5.656854e+000
      vertex  3.725289e-010 -3.061467e+000  7.391036e+000
      vertex  3.725288e-010 -5.656854e+000  5.656854e+000
    endloop
  endfacet
  facet normal  0.000000e+000 -8.314696e-001  5.555702e-001
    outer loop
      vertex  1.600000e+000 -5.656854e+000  5.656854e+000
      vertex  3.725288e-010 -5.656854e+000  5.656854e+000
      vertex  1.600000e+000 -7.391036e+000  3.061467e+000
    endloop
  endfacet
  facet normal  0.000000e+000 -8.314696e-001  5.555702e-001
    outer loop
      vertex  1.600000e+000 -7.391036e+000  3.061467e+000
      vertex  3.725288e-010 -5.656854e+000  5.656854e+000
      vertex  3.725287e-010 -7.391036e+000  3.061467e+000
    endloop
  endfacet
  facet normal  0.000000e+000 -9.807853e-001  1.950904e-001
    outer loop
      vertex  1.600000e+000 -7.391036e+000  3.061467e+000
      vertex  3.725287e-010 -7.391036e+000  3.061467e+000
      vertex  1.600000e+000 -8.000000e+000 -4.349385e-015
    endloop
  endfacet
  facet normal  5.303271e-016 -9.807853e-001  1.950904e-001
    outer loop
      vertex  1.600000e+000 -8.000000e+000 -4.349385e-015
      vertex  3.725287e-010 -7.391036e+000  3.061467e+000
      vertex -5.179476e-016 -8.000000e+000  0.000000e+000
    endloop
  endfacet
  facet normal -5.303271e-016 -9.807853e-001 -1.950904e-001
    outer loop
      vertex  1.600000e+000 -8.000000e+000 -4.349385e-015
      vertex -5.179476e-016 -8.000000e+000  0.000000e+000
      vertex  1.600000e+000 -7.391036e+000 -3.061467e+000
    endloop
  endfacet
  facet normal  1.284554e-001 -9.833590e-001 -1.284683e-001
    outer loop
      vertex  1.600000e+000 -7.391036e+000 -3.061467e+000
      vertex -5.179476e-016 -8.000000e+000  0.000000e+000
      vertex -5.015073e-016 -7.731510e+000 -2.055155e+000
    endloop
  endfacet
  facet normal -4.207029e-002 -9.242008e-001 -3.795825e-001
    outer loop
      vertex  1.600000e+000 -7.391036e+000 -3.061467e+000
      vertex -5.015073e-016 -7.731510e+000 -2.055155e+000
      vertex -4.532913e-016 -6.944082e+000 -3.972370e+000
    endloop
  endfacet
  facet normal  8.373098e-002 -8.285499e-001 -5.536193e-001
    outer loop
      vertex  1.600000e+000 -7.391036e+000 -3.061467e+000
      vertex -4.532913e-016 -6.944082e+000 -3.972370e+000
      vertex  1.600000e+000 -5.656854e+000 -5.656854e+000
    endloop
  endfacet
  facet normal  3.954909e-003 -7.963668e-001 -6.048010e-001
    outer loop
      vertex  1.600000e+000 -5.656854e+000 -5.656854e+000
      vertex -4.532913e-016 -6.944082e+000 -3.972370e+000
      vertex -3.765346e-016 -5.690550e+000 -5.622948e+000
    endloop
  endfacet
  facet normal -5.919646e-003 -5.555605e-001 -8.314551e-001
    outer loop
      vertex  1.600000e+000 -5.656854e+000 -5.656854e+000
      vertex -3.765346e-016 -5.690550e+000 -5.622948e+000
      vertex  1.600000e+000 -3.061467e+000 -7.391036e+000
    endloop
  endfacet
  facet normal  1.361049e-001 -6.085632e-001 -7.817457e-001
    outer loop
      vertex  1.600000e+000 -3.061467e+000 -7.391036e+000
      vertex -3.765346e-016 -5.690550e+000 -5.622948e+000
      vertex -2.763903e-016 -4.055070e+000 -6.896115e+000
    endloop
  endfacet
  facet normal -4.189246e-002 -3.906028e-001 -9.196057e-001
    outer loop
      vertex  1.600000e+000 -3.061467e+000 -7.391036e+000
      vertex -2.763903e-016 -4.055070e+000 -6.896115e+000
      vertex -1.595794e-016 -2.147403e+000 -7.706398e+000
    endloop
  endfacet
  facet normal  8.158755e-002 -1.944400e-001 -9.775155e-001
    outer loop
      vertex  1.600000e+000 -3.061467e+000 -7.391036e+000
      vertex -1.595794e-016 -2.147403e+000 -7.706398e+000
      vertex  1.600000e+000  7.450645e-010 -8.000000e+000
    endloop
  endfacet
  facet normal  8.094090e-003 -1.413774e-001 -9.899226e-001
    outer loop
      vertex  1.600000e+000  7.450645e-010 -8.000000e+000
      vertex -1.595794e-016 -2.147403e+000 -7.706398e+000
      vertex -3.394289e-017 -9.560253e-002 -7.999429e+000
    endloop
  endfacet
  facet normal -1.200627e-002  1.950763e-001 -9.807145e-001
    outer loop
      vertex  1.600000e+000  7.450645e-010 -8.000000e+000
      vertex -3.394289e-017 -9.560253e-002 -7.999429e+000
      vertex  1.600000e+000  3.061467e+000 -7.391036e+000
    endloop
  endfacet
  facet normal  1.438822e-001  1.164583e-001 -9.827183e-001
    outer loop
      vertex  1.600000e+000  3.061467e+000 -7.391036e+000
      vertex -3.394289e-017 -9.560253e-002 -7.999429e+000
      vertex  9.208655e-017  1.962615e+000 -7.755517e+000
    endloop
  endfacet
  facet normal -4.153609e-002  3.685190e-001 -9.286917e-001
    outer loop
      vertex  1.600000e+000  3.061467e+000 -7.391036e+000
      vertex  9.208655e-017  1.962615e+000 -7.755517e+000
      vertex  2.100499e-016  3.889102e+000 -6.991057e+000
    endloop
  endfacet
  facet normal  7.927411e-002  5.538217e-001 -8.288528e-001
    outer loop
      vertex  1.600000e+000  3.061467e+000 -7.391036e+000
      vertex  2.100499e-016  3.889102e+000 -6.991057e+000
      vertex  1.600000e+000  5.656854e+000 -5.656854e+000
    endloop
  endfacet
  facet normal  1.240149e-002  5.951999e-001 -8.034819e-001
    outer loop
      vertex  1.600000e+000  5.656854e+000 -5.656854e+000
      vertex  2.100499e-016  3.889102e+000 -6.991057e+000
      vertex  3.120287e-016  5.554542e+000 -5.757340e+000
    endloop
  endfacet
  facet normal -1.827350e-002  8.313308e-001 -5.554774e-001
    outer loop
      vertex  1.600000e+000  5.656854e+000 -5.656854e+000
      vertex  3.120287e-016  5.554542e+000 -5.757340e+000
      vertex  1.600000e+000  7.391036e+000 -3.061467e+000
    endloop
  endfacet
  facet normal  1.518145e-001  7.726306e-001 -6.164367e-001
    outer loop
      vertex  1.600000e+000  7.391036e+000 -3.061467e+000
      vertex  3.120287e-016  5.554542e+000 -5.757340e+000
      vertex  3.911789e-016  6.847164e+000 -4.137191e+000
    endloop
  endfacet
  facet normal -4.100221e-002  9.149060e-001 -4.015794e-001
    outer loop
      vertex  1.600000e+000  7.391036e+000 -3.061467e+000
      vertex  3.911789e-016  6.847164e+000 -4.137191e+000
      vertex  4.421868e-016  7.680185e+000 -2.239344e+000
    endloop
  endfacet
  facet normal  1.056624e-001  9.844134e-001 -1.405902e-001
    outer loop
      vertex  4.421868e-016  7.680185e+000 -2.239344e+000
      vertex  3.725296e-010  8.000000e+000  1.959370e-015
      vertex  1.600000e+000  7.391036e+000 -3.061467e+000
    endloop
  endfacet
  facet normal  0.000000e+000  9.807853e-001 -1.950904e-001
    outer loop
      vertex  1.600000e+000  7.391036e+000 -3.061467e+000
      vertex  3.725296e-010  8.000000e+000  1.959370e-015
      vertex  1.600000e+000  8.000000e+000  6.922414e-015
    endloop
  endfacet
  facet normal  1.000000e+000  0.000000e+000  -0.000000e+000
    outer loop
      vertex  1.600000e+000  5.333333e+000  8.819892e-001
      vertex  1.600000e+000  6.933333e+000  6.828427e-001
      vertex  1.600000e+000  6.933333e+000  8.819892e-001
    endloop
  endfacet
  facet normal  1.000000e+000  0.000000e+000  0.000000e+000
    outer loop
      vertex  1.600000e+000  6.416176e+000 -1.799147e+000
      vertex  1.600000e+000  6.533333e+000 -1.516304e+000
      vertex  1.600000e+000  6.416176e+000 -1.233461e+000
    endloop
  endfacet
  facet normal  1.000000e+000  0.000000e+000  -0.000000e+000
    outer loop
      vertex  1.600000e+000  4.200000e+000  0.000000e+000
      vertex  1.600000e+000  5.333333e+000  8.819892e-001
      vertex  1.600000e+000  5.333333e+000  1.281989e+000
    endloop
  endfacet
  facet normal  1.000000e+000  0.000000e+000  -0.000000e+000
    outer loop
      vertex  1.600000e+000  4.200000e+000  0.000000e+000
      vertex  1.600000e+000  5.333333e+000  1.281989e+000
      vertex  1.600000e+000  5.333333e+000  1.681989e+000
    endloop
  endfacet
  facet normal  1.000000e+000  0.000000e+000  -0.000000e+000
    outer loop
      vertex  1.600000e+000  4.200000e+000  0.000000e+000
      vertex  1.600000e+000  5.333333e+000  1.681989e+000
      vertex  1.600000e+000  5.333333e+000  2.081989e+000
    endloop
  endfacet
  facet normal  1.000000e+000  0.000000e+000  0.000000e+000
    outer loop
      vertex  1.600000e+000  4.200000e+000  0.000000e+000
      vertex  1.600000e+000  5.333333e+000  2.081989e+000
      vertex  1.600000e+000  3.637307e+000  2.100000e+000
    endloop
  endfacet
  facet normal  1.000000e+000  0.000000e+000  0.000000e+000
    outer loop
      vertex  1.600000e+000  5.333333e+000  6.828427e-001
      vertex  1.600000e+000  6.933333e+000  6.828427e-001
      vertex  1.600000e+000  5.333333e+000  8.819892e-001
    endloop
  endfacet
  facet normal  9.999999e-001  0.000000e+000  0.000000e+000
    outer loop
      vertex  1.600000e+000  5.333333e+000  6.828427e-001
      vertex  1.600000e+000  5.333333e+000  8.819892e-001
      vertex  1.600000e+000  4.200000e+000  0.000000e+000
    endloop
  endfacet
  facet normal  9.999999e-001  0.000000e+000  0.000000e+000
    outer loop
      vertex  1.600000e+000  5.333333e+000  6.828427e-001
      vertex  1.600000e+000  4.200000e+000  0.000000e+000
      vertex  1.600000e+000  5.333333e+000  2.828427e-001
    endloop
  endfacet
  facet normal  1.000000e+000  0.000000e+000  0.000000e+000
    outer loop
      vertex  1.600000e+000  8.000000e+000  6.922414e-015
      vertex  1.600000e+000  7.391036e+000  3.061467e+000
      vertex  1.600000e+000  6.933333e+000  2.081989e+000
    endloop
  endfacet
  facet normal  9.999999e-001  0.000000e+000  0.000000e+000
    outer loop
      vertex  1.600000e+000  8.000000e+000  6.922414e-015
      vertex  1.600000e+000  6.933333e+000  2.081989e+000
      vertex  1.600000e+000  6.933333e+000  1.681989e+000
    endloop
  endfacet
  facet normal  1.000000e+000  0.000000e+000  0.000000e+000
    outer loop
      vertex  1.600000e+000  8.000000e+000  6.922414e-015
      vertex  1.600000e+000  6.933333e+000  1.681989e+000
      vertex  1.600000e+000  6.933333e+000  1.281989e+000
    endloop
  endfacet
  facet normal  1.000000e+000  0.000000e+000  0.000000e+000
    outer loop
      vertex  1.600000e+000  8.000000e+000  6.922414e-015
      vertex  1.600000e+000  6.933333e+000  1.281989e+000
      vertex  1.600000e+000  6.933333e+000  8.819892e-001
    endloop
  endfacet
  facet normal  9.999999e-001  0.000000e+000  0.000000e+000
    outer loop
      vertex  1.600000e+000  8.000000e+000  6.922414e-015
      vertex  1.600000e+000  6.933333e+000  8.819892e-001
      vertex  1.600000e+000  6.933333e+000  6.828427e-001
    endloop
  endfacet
  facet normal  1.000000e+000  0.000000e+000  0.000000e+000
    outer loop
      vertex  1.600000e+000  8.000000e+000  6.922414e-015
      vertex  1.600000e+000  6.933333e+000  6.828427e-001
      vertex  1.600000e+000  6.933333e+000 -2.124899e-002
    endloop
  endfacet
  facet normal  9.999999e-001  -0.000000e+000  0.000000e+000
    outer loop
      vertex  1.600000e+000  8.000000e+000  6.922414e-015
      vertex  1.600000e+000  6.933333e+000 -2.124899e-002
      vertex  1.600000e+000  7.391036e+000 -3.061467e+000
    endloop
  endfacet
  facet normal  1.000000e+000  0.000000e+000  -0.000000e+000
    outer loop
      vertex  1.600000e+000  7.450645e-010 -8.000000e+000
      vertex  1.600000e+000  3.061467e+000 -7.391036e+000
      vertex  1.600000e+000  5.656854e+000 -5.656854e+000
    endloop
  endfacet
  facet normal  1.000000e+000  0.000000e+000  -0.000000e+000
    outer loop
      vertex  1.600000e+000  7.450645e-010 -8.000000e+000
      vertex  1.600000e+000  5.656854e+000 -5.656854e+000
      vertex  1.600000e+000  5.850491e+000 -1.799147e+000
    endloop
  endfacet
  facet normal  1.000000e+000  0.000000e+000  0.000000e+000
    outer loop
      vertex  1.600000e+000  7.450645e-010 -8.000000e+000
      vertex  1.600000e+000  5.850491e+000 -1.799147e+000
      vertex  1.600000e+000  5.567648e+000 -2.081989e+000
    endloop
  endfacet
  facet normal  1.000000e+000  0.000000e+000  0.000000e+000
    outer loop
      vertex  1.600000e+000  7.450645e-010 -8.000000e+000
      vertex  1.600000e+000  5.567648e+000 -2.081989e+000
      vertex  1.600000e+000  3.637307e+000 -2.100000e+000
    endloop
  endfacet
  facet normal  1.000000e+000  0.000000e+000  0.000000e+000
    outer loop
      vertex  1.600000e+000  7.450645e-010 -8.000000e+000
      vertex  1.600000e+000  3.637307e+000 -2.100000e+000
      vertex  1.600000e+000  2.100000e+000 -3.637307e+000
    endloop
  endfacet
  facet normal  1.000000e+000  0.000000e+000  0.000000e+000
    outer loop
      vertex  1.600000e+000  7.450645e-010 -8.000000e+000
      vertex  1.600000e+000  2.100000e+000 -3.637307e+000
      vertex  1.600000e+000 -1.705979e-015 -4.200000e+000
    endloop
  endfacet
  facet normal  1.000000e+000  0.000000e+000  0.000000e+000
    outer loop
      vertex  1.600000e+000  5.656854e+000 -5.656854e+000
      vertex  1.600000e+000  7.391036e+000 -3.061467e+000
      vertex  1.600000e+000  6.933333e+000 -1.516304e+000
    endloop
  endfacet
  facet normal  1.000000e+000  0.000000e+000  0.000000e+000
    outer loop
      vertex  1.600000e+000  5.656854e+000 -5.656854e+000
      vertex  1.600000e+000  6.933333e+000 -1.516304e+000
      vertex  1.600000e+000  6.699019e+000 -2.081989e+000
    endloop
  endfacet
  facet normal  1.000000e+000  0.000000e+000  0.000000e+000
    outer loop
      vertex  1.600000e+000  5.656854e+000 -5.656854e+000
      vertex  1.600000e+000  6.699019e+000 -2.081989e+000
      vertex  1.600000e+000  6.416176e+000 -1.799147e+000
    endloop
  endfacet
  facet normal  9.999999e-001  0.000000e+000  -0.000000e+000
    outer loop
      vertex  1.600000e+000  5.656854e+000 -5.656854e+000
      vertex  1.600000e+000  6.416176e+000 -1.799147e+000
      vertex  1.600000e+000  6.416176e+000 -1.233461e+000
    endloop
  endfacet
  facet normal  1.000000e+000  0.000000e+000  0.000000e+000
    outer loop
      vertex  1.600000e+000  5.656854e+000 -5.656854e+000
      vertex  1.600000e+000  6.416176e+000 -1.233461e+000
      vertex  1.600000e+000  6.133333e+000 -1.116304e+000
    endloop
  endfacet
  facet normal  1.000000e+000  0.000000e+000  0.000000e+000
    outer loop
      vertex  1.600000e+000  5.656854e+000 -5.656854e+000
      vertex  1.600000e+000  6.133333e+000 -1.116304e+000
      vertex  1.600000e+000  5.850491e+000 -1.799147e+000
    endloop
  endfacet
  facet normal  1.000000e+000  0.000000e+000  0.000000e+000
    outer loop
      vertex  1.600000e+000  3.637307e+000 -2.100000e+000
      vertex  1.600000e+000  5.567648e+000 -2.081989e+000
      vertex  1.600000e+000  5.333333e+000 -1.516304e+000
    endloop
  endfacet
  facet normal  1.000000e+000  0.000000e+000  -0.000000e+000
    outer loop
      vertex  1.600000e+000  3.637307e+000 -2.100000e+000
      vertex  1.600000e+000  5.333333e+000 -1.516304e+000
      vertex  1.600000e+000  5.567648e+000 -9.506183e-001
    endloop
  endfacet
  facet normal  1.000000e+000  0.000000e+000  -0.000000e+000
    outer loop
      vertex  1.600000e+000  3.637307e+000 -2.100000e+000
      vertex  1.600000e+000  5.567648e+000 -9.506183e-001
      vertex  1.600000e+000  6.000320e+000 -2.712490e-001
    endloop
  endfacet
  facet normal  1.000000e+000  0.000000e+000  0.000000e+000
    outer loop
      vertex  1.600000e+000  3.637307e+000 -2.100000e+000
      vertex  1.600000e+000  6.000320e+000 -2.712490e-001
      vertex  1.600000e+000  5.933333e+000 -2.124899e-002
    endloop
  endfacet
  facet normal  1.000000e+000  0.000000e+000  0.000000e+000
    outer loop
      vertex  1.600000e+000  3.637307e+000 -2.100000e+000
      vertex  1.600000e+000  5.933333e+000 -2.124899e-002
      vertex  1.600000e+000  4.200000e+000  0.000000e+000
    endloop
  endfacet
  facet normal  1.000000e+000  0.000000e+000  -0.000000e+000
    outer loop
      vertex  1.600000e+000 -8.694738e-016  4.200000e+000
      vertex  1.600000e+000  2.100000e+000  3.637307e+000
      vertex  1.600000e+000  5.656854e+000  5.656854e+000
    endloop
  endfacet
  facet normal  1.000000e+000  0.000000e+000  0.000000e+000
    outer loop
      vertex  1.600000e+000 -8.694738e-016  4.200000e+000
      vertex  1.600000e+000  5.656854e+000  5.656854e+000
      vertex  1.600000e+000  3.061467e+000  7.391036e+000
    endloop
  endfacet
  facet normal  9.999999e-001  0.000000e+000  0.000000e+000
    outer loop
      vertex  1.600000e+000 -8.694738e-016  4.200000e+000
      vertex  1.600000e+000  3.061467e+000  7.391036e+000
      vertex  1.600000e+000  7.450724e-010  8.000000e+000
    endloop
  endfacet
  facet normal  9.999999e-001  0.000000e+000  0.000000e+000
    outer loop
      vertex  1.600000e+000 -8.694738e-016  4.200000e+000
      vertex  1.600000e+000  7.450724e-010  8.000000e+000
      vertex  1.600000e+000 -3.061467e+000  7.391036e+000
    endloop
  endfacet
  facet normal  1.000000e+000  0.000000e+000  0.000000e+000
    outer loop
      vertex  1.600000e+000 -8.694738e-016  4.200000e+000
      vertex  1.600000e+000 -3.061467e+000  7.391036e+000
      vertex  1.600000e+000 -5.656854e+000  5.656854e+000
    endloop
  endfacet
  facet normal  9.999999e-001  0.000000e+000  0.000000e+000
    outer loop
      vertex  1.600000e+000 -8.694738e-016  4.200000e+000
      vertex  1.600000e+000 -5.656854e+000  5.656854e+000
      vertex  1.600000e+000 -7.391036e+000  3.061467e+000
    endloop
  endfacet
  facet normal  9.999999e-001  0.000000e+000  0.000000e+000
    outer loop
      vertex  1.600000e+000 -8.694738e-016  4.200000e+000
      vertex  1.600000e+000 -7.391036e+000  3.061467e+000
      vertex  1.600000e+000 -2.100000e+000  3.637307e+000
    endloop
  endfacet
  facet normal  1.000000e+000  0.000000e+000  0.000000e+000
    outer loop
      vertex  1.600000e+000  7.391036e+000 -3.061467e+000
      vertex  1.600000e+000  6.933333e+000 -2.124899e-002
      vertex  1.600000e+000  6.866346e+000 -2.712490e-001
    endloop
  endfacet
  facet normal  1.000000e+000  0.000000e+000  0.000000e+000
    outer loop
      vertex  1.600000e+000  7.391036e+000 -3.061467e+000
      vertex  1.600000e+000  6.866346e+000 -2.712490e-001
      vertex  1.600000e+000  6.683333e+000 -4.542617e-001
    endloop
  endfacet
  facet normal  1.000000e+000  0.000000e+000  0.000000e+000
    outer loop
      vertex  1.600000e+000  7.391036e+000 -3.061467e+000
      vertex  1.600000e+000  6.683333e+000 -4.542617e-001
      vertex  1.600000e+000  6.933333e+000 -1.516304e+000
    endloop
  endfacet
  facet normal  9.999999e-001  0.000000e+000  0.000000e+000
    outer loop
      vertex  1.600000e+000  5.850491e+000 -1.233461e+000
      vertex  1.600000e+000  5.733333e+000 -1.516304e+000
      vertex  1.600000e+000  6.133333e+000 -1.116304e+000
    endloop
  endfacet
  facet normal  1.000000e+000  0.000000e+000  0.000000e+000
    outer loop
      vertex  1.600000e+000  6.133333e+000 -1.116304e+000
      vertex  1.600000e+000  5.733333e+000 -1.516304e+000
      vertex  1.600000e+000  5.850491e+000 -1.799147e+000
    endloop
  endfacet
  facet normal  1.000000e+000  0.000000e+000  0.000000e+000
    outer loop
      vertex  1.600000e+000  6.000320e+000 -2.712490e-001
      vertex  1.600000e+000  5.567648e+000 -9.506183e-001
      vertex  1.600000e+000  6.183333e+000 -4.542617e-001
    endloop
  endfacet
  facet normal  1.000000e+000  0.000000e+000  0.000000e+000
    outer loop
      vertex  1.600000e+000  6.183333e+000 -4.542617e-001
      vertex  1.600000e+000  5.567648e+000 -9.506183e-001
      vertex  1.600000e+000  6.133333e+000 -7.163038e-001
    endloop
  endfacet
  facet normal  1.000000e+000  0.000000e+000  0.000000e+000
    outer loop
      vertex  1.600000e+000  6.183333e+000 -4.542617e-001
      vertex  1.600000e+000  6.133333e+000 -7.163038e-001
      vertex  1.600000e+000  6.433333e+000 -5.212491e-001
    endloop
  endfacet
  facet normal  1.000000e+000  0.000000e+000  -0.000000e+000
    outer loop
      vertex  1.600000e+000  2.100000e+000  3.637307e+000
      vertex  1.600000e+000  3.637307e+000  2.100000e+000
      vertex  1.600000e+000  5.656854e+000  5.656854e+000
    endloop
  endfacet
  facet normal  1.000000e+000  0.000000e+000  0.000000e+000
    outer loop
      vertex  1.600000e+000  5.656854e+000  5.656854e+000
      vertex  1.600000e+000  3.637307e+000  2.100000e+000
      vertex  1.600000e+000  5.333333e+000  2.081989e+000
    endloop
  endfacet
  facet normal  9.999999e-001  0.000000e+000  0.000000e+000
    outer loop
      vertex  1.600000e+000  5.656854e+000  5.656854e+000
      vertex  1.600000e+000  5.333333e+000  2.081989e+000
      vertex  1.600000e+000  7.391036e+000  3.061467e+000
    endloop
  endfacet
  facet normal  1.000000e+000  0.000000e+000  0.000000e+000
    outer loop
      vertex  1.600000e+000  7.391036e+000  3.061467e+000
      vertex  1.600000e+000  5.333333e+000  2.081989e+000
      vertex  1.600000e+000  6.933333e+000  2.081989e+000
    endloop
  endfacet
  facet normal  1.000000e+000  -0.000000e+000  0.000000e+000
    outer loop
      vertex  1.600000e+000 -2.100000e+000  3.637307e+000
      vertex  1.600000e+000 -7.391036e+000  3.061467e+000
      vertex  1.600000e+000 -3.637307e+000  2.100000e+000
    endloop
  endfacet
  facet normal  1.000000e+000  0.000000e+000  0.000000e+000
    outer loop
      vertex  1.600000e+000 -3.637307e+000  2.100000e+000
      vertex  1.600000e+000 -7.391036e+000  3.061467e+000
      vertex  1.600000e+000 -8.000000e+000 -4.349385e-015
    endloop
  endfacet
  facet normal  1.000000e+000  0.000000e+000  0.000000e+000
    outer loop
      vertex  1.600000e+000 -3.637307e+000  2.100000e+000
      vertex  1.600000e+000 -8.000000e+000 -4.349385e-015
      vertex  1.600000e+000 -4.200000e+000 -5.143347e-016
    endloop
  endfacet
  facet normal  1.000000e+000  -0.000000e+000  0.000000e+000
    outer loop
      vertex  1.600000e+000 -4.200000e+000 -5.143347e-016
      vertex  1.600000e+000 -8.000000e+000 -4.349385e-015
      vertex  1.600000e+000 -3.637307e+000 -2.100000e+000
    endloop
  endfacet
  facet normal  1.000000e+000  0.000000e+000  0.000000e+000
    outer loop
      vertex  1.600000e+000 -3.637307e+000 -2.100000e+000
      vertex  1.600000e+000 -8.000000e+000 -4.349385e-015
      vertex  1.600000e+000 -7.391036e+000 -3.061467e+000
    endloop
  endfacet
  facet normal  1.000000e+000  -0.000000e+000  0.000000e+000
    outer loop
      vertex  1.600000e+000 -3.637307e+000 -2.100000e+000
      vertex  1.600000e+000 -7.391036e+000 -3.061467e+000
      vertex  1.600000e+000 -2.100000e+000 -3.637307e+000
    endloop
  endfacet
  facet normal  9.999999e-001  0.000000e+000  0.000000e+000
    outer loop
      vertex  1.600000e+000 -2.100000e+000 -3.637307e+000
      vertex  1.600000e+000 -7.391036e+000 -3.061467e+000
      vertex  1.600000e+000 -1.705979e-015 -4.200000e+000
    endloop
  endfacet
  facet normal  9.999999e-001  0.000000e+000  0.000000e+000
    outer loop
      vertex  1.600000e+000 -1.705979e-015 -4.200000e+000
      vertex  1.600000e+000 -7.391036e+000 -3.061467e+000
      vertex  1.600000e+000 -5.656854e+000 -5.656854e+000
    endloop
  endfacet
  facet normal  1.000000e+000  -0.000000e+000  0.000000e+000
    outer loop
      vertex  1.600000e+000 -1.705979e-015 -4.200000e+000
      vertex  1.600000e+000 -5.656854e+000 -5.656854e+000
      vertex  1.600000e+000  7.450645e-010 -8.000000e+000
    endloop
  endfacet
  facet normal  1.000000e+000  0.000000e+000  0.000000e+000
    outer loop
      vertex  1.600000e+000  7.450645e-010 -8.000000e+000
      vertex  1.600000e+000 -5.656854e+000 -5.656854e+000
      vertex  1.600000e+000 -3.061467e+000 -7.391036e+000
    endloop
  endfacet
  facet normal  1.000000e+000  0.000000e+000  0.000000e+000
    outer loop
      vertex  1.600000e+000  4.200000e+000  0.000000e+000
      vertex  1.600000e+000  5.933333e+000 -2.124899e-002
      vertex  1.600000e+000  5.333333e+000  2.828427e-001
    endloop
  endfacet
  facet normal  1.000000e+000  -0.000000e+000  0.000000e+000
    outer loop
      vertex  1.600000e+000  5.333333e+000  2.828427e-001
      vertex  1.600000e+000  5.933333e+000 -2.124899e-002
      vertex  1.600000e+000  5.933333e+000  2.828427e-001
    endloop
  endfacet
  facet normal  1.000000e+000  0.000000e+000  0.000000e+000
    outer loop
      vertex  1.600000e+000  5.333333e+000  1.281989e+000
      vertex  1.600000e+000  5.933333e+000  1.281989e+000
      vertex  1.600000e+000  5.333333e+000  1.681989e+000
    endloop
  endfacet
  facet normal  1.000000e+000  -0.000000e+000  0.000000e+000
    outer loop
      vertex  1.600000e+000  5.333333e+000  1.681989e+000
      vertex  1.600000e+000  5.933333e+000  1.281989e+000
      vertex  1.600000e+000  5.933333e+000  1.681989e+000
    endloop
  endfacet
  facet normal  1.000000e+000  0.000000e+000  0.000000e+000
    outer loop
      vertex  1.600000e+000  6.333333e+000  1.681989e+000
      vertex  1.600000e+000  6.333333e+000  1.281989e+000
      vertex  1.600000e+000  6.933333e+000  1.681989e+000
    endloop
  endfacet
  facet normal  1.000000e+000  0.000000e+000  0.000000e+000
    outer loop
      vertex  1.600000e+000  6.933333e+000  1.681989e+000
      vertex  1.600000e+000  6.333333e+000  1.281989e+000
      vertex  1.600000e+000  6.933333e+000  1.281989e+000
    endloop
  endfacet
  facet normal  1.000000e+000  0.000000e+000  0.000000e+000
    outer loop
      vertex  1.600000e+000  6.433333e+000 -5.212491e-001
      vertex  1.600000e+000  6.133333e+000 -7.163038e-001
      vertex  1.600000e+000  6.683333e+000 -4.542617e-001
    endloop
  endfacet
  facet normal  1.000000e+000  0.000000e+000  0.000000e+000
    outer loop
      vertex  1.600000e+000  6.683333e+000 -4.542617e-001
      vertex  1.600000e+000  6.133333e+000 -7.163038e-001
      vertex  1.600000e+000  6.699019e+000 -9.506183e-001
    endloop
  endfacet
  facet normal  1.000000e+000  -0.000000e+000  -0.000000e+000
    outer loop
      vertex  1.600000e+000  6.683333e+000 -4.542617e-001
      vertex  1.600000e+000  6.699019e+000 -9.506183e-001
      vertex  1.600000e+000  6.933333e+000 -1.516304e+000
    endloop
  endfacet
  facet normal -8.083203e-002  2.579721e-001 -9.627650e-001
    outer loop
      vertex  1.600000e+000 -2.100000e+000  3.637307e+000
      vertex -1.142342e-016 -1.406858e+000  3.957366e+000
      vertex  1.600000e+000 -8.694738e-016  4.200000e+000
    endloop
  endfacet
  facet normal  7.020424e-002  5.471849e-001 -8.340623e-001
    outer loop
      vertex -2.160624e-016 -3.069841e+000  2.866370e+000
      vertex -1.142342e-016 -1.406858e+000  3.957366e+000
      vertex  1.600000e+000 -2.100000e+000  3.637307e+000
    endloop
  endfacet
  facet normal -8.756644e-002  7.043905e-001 -7.043905e-001
    outer loop
      vertex  1.600000e+000 -3.637307e+000  2.100000e+000
      vertex -2.160624e-016 -3.069841e+000  2.866370e+000
      vertex  1.600000e+000 -2.100000e+000  3.637307e+000
    endloop
  endfacet
  facet normal  6.074718e-002  1.021553e-001 -9.929119e-001
    outer loop
      vertex -1.142342e-016 -1.406858e+000  3.957366e+000
      vertex  6.912268e-018  5.716129e-001  4.160921e+000
      vertex  1.600000e+000 -8.694738e-016  4.200000e+000
    endloop
  endfacet
  facet normal -1.076905e-001 -3.646677e-001 -9.248893e-001
    outer loop
      vertex  1.600000e+000 -8.694738e-016  4.200000e+000
      vertex  6.912268e-018  5.716129e-001  4.160921e+000
      vertex  1.202096e-016  2.421900e+000  3.431385e+000
    endloop
  endfacet
  facet normal  7.205676e-002 -2.581462e-001 -9.634150e-001
    outer loop
      vertex  1.600000e+000 -8.694738e-016  4.200000e+000
      vertex  1.202096e-016  2.421900e+000  3.431385e+000
      vertex  1.600000e+000  2.100000e+000  3.637307e+000
    endloop
  endfacet
  facet normal -6.689660e-002 -7.520021e-001 -6.557574e-001
    outer loop
      vertex  1.600000e+000  2.100000e+000  3.637307e+000
      vertex  1.202096e-016  2.421900e+000  3.431385e+000
      vertex  2.002510e-016  3.729074e+000  1.932359e+000
    endloop
  endfacet
  facet normal  3.351315e-002 -7.067096e-001 -7.067096e-001
    outer loop
      vertex  1.600000e+000  2.100000e+000  3.637307e+000
      vertex  2.002510e-016  3.729074e+000  1.932359e+000
      vertex  1.600000e+000  3.637307e+000  2.100000e+000
    endloop
  endfacet
  facet normal -3.090030e-002 -9.711004e-001 -2.366624e-001
    outer loop
      vertex  1.600000e+000  3.637307e+000  2.100000e+000
      vertex  2.002510e-016  3.729074e+000  1.932359e+000
      vertex  2.290869e-016  4.200000e+000  2.220446e-016
    endloop
  endfacet
  facet normal -3.591835e-017 -9.659259e-001 -2.588190e-001
    outer loop
      vertex  1.600000e+000  3.637307e+000  2.100000e+000
      vertex  2.290869e-016  4.200000e+000  2.220446e-016
      vertex  1.600000e+000  4.200000e+000  0.000000e+000
    endloop
  endfacet
  facet normal  7.426405e-002  8.693153e-001 -4.886468e-001
    outer loop
      vertex -2.160624e-016 -3.069841e+000  2.866370e+000
      vertex  1.600000e+000 -3.637307e+000  2.100000e+000
      vertex -2.757375e-016 -4.044409e+000  1.132588e+000
    endloop
  endfacet
  facet normal -8.892505e-002  9.620991e-001 -2.577936e-001
    outer loop
      vertex -2.757375e-016 -4.044409e+000  1.132588e+000
      vertex  1.600000e+000 -3.637307e+000  2.100000e+000
      vertex  1.600000e+000 -4.200000e+000 -5.143347e-016
    endloop
  endfacet
  facet normal  0.000000e+000  9.906954e-001 -1.360983e-001
    outer loop
      vertex -2.757375e-016 -4.044409e+000  1.132588e+000
      vertex  1.600000e+000 -4.200000e+000 -5.143347e-016
      vertex  3.725289e-010 -4.200000e+000 -5.143347e-016
    endloop
  endfacet
  facet normal  -0.000000e+000  2.588190e-001  9.659259e-001
    outer loop
      vertex  1.600000e+000 -1.705979e-015 -4.200000e+000
      vertex  3.725290e-010 -2.100000e+000 -3.637307e+000
      vertex  1.600000e+000 -2.100000e+000 -3.637307e+000
    endloop
  endfacet
  facet normal  0.000000e+000  7.071068e-001  7.071068e-001
    outer loop
      vertex  1.600000e+000 -2.100000e+000 -3.637307e+000
      vertex  3.725290e-010 -2.100000e+000 -3.637307e+000
      vertex  3.725289e-010 -3.637307e+000 -2.100000e+000
    endloop
  endfacet
  facet normal  -0.000000e+000  7.071068e-001  7.071068e-001
    outer loop
      vertex  1.600000e+000 -2.100000e+000 -3.637307e+000
      vertex  3.725289e-010 -3.637307e+000 -2.100000e+000
      vertex  1.600000e+000 -3.637307e+000 -2.100000e+000
    endloop
  endfacet
  facet normal  0.000000e+000  9.659259e-001  2.588190e-001
    outer loop
      vertex  1.600000e+000 -3.637307e+000 -2.100000e+000
      vertex  3.725289e-010 -3.637307e+000 -2.100000e+000
      vertex  3.725289e-010 -4.200000e+000 -5.143347e-016
    endloop
  endfacet
  facet normal  -0.000000e+000  9.659259e-001  2.588190e-001
    outer loop
      vertex  1.600000e+000 -3.637307e+000 -2.100000e+000
      vertex  3.725289e-010 -4.200000e+000 -5.143347e-016
      vertex  1.600000e+000 -4.200000e+000 -5.143347e-016
    endloop
  endfacet
  facet normal  1.584809e-017  2.588190e-001  9.659259e-001
    outer loop
      vertex  3.725290e-010 -2.100000e+000 -3.637307e+000
      vertex  1.600000e+000 -1.705979e-015 -4.200000e+000
      vertex  3.725291e-010 -1.608007e-015 -4.200000e+000
    endloop
  endfacet
  facet normal -1.584809e-017 -2.588190e-001  9.659259e-001
    outer loop
      vertex  3.725291e-010 -1.608007e-015 -4.200000e+000
      vertex  1.600000e+000 -1.705979e-015 -4.200000e+000
      vertex  1.600000e+000  2.100000e+000 -3.637307e+000
    endloop
  endfacet
  facet normal  0.000000e+000 -2.588190e-001  9.659259e-001
    outer loop
      vertex  3.725291e-010 -1.608007e-015 -4.200000e+000
      vertex  1.600000e+000  2.100000e+000 -3.637307e+000
      vertex  3.725293e-010  2.100000e+000 -3.637307e+000
    endloop
  endfacet
  facet normal  0.000000e+000 -7.071068e-001  7.071068e-001
    outer loop
      vertex  3.725293e-010  2.100000e+000 -3.637307e+000
      vertex  1.600000e+000  2.100000e+000 -3.637307e+000
      vertex  1.600000e+000  3.637307e+000 -2.100000e+000
    endloop
  endfacet
  facet normal  0.000000e+000 -7.071068e-001  7.071068e-001
    outer loop
      vertex  3.725293e-010  2.100000e+000 -3.637307e+000
      vertex  1.600000e+000  3.637307e+000 -2.100000e+000
      vertex  3.725293e-010  3.637307e+000 -2.100000e+000
    endloop
  endfacet
  facet normal  0.000000e+000 -9.659259e-001  2.588190e-001
    outer loop
      vertex  3.725293e-010  3.637307e+000 -2.100000e+000
      vertex  1.600000e+000  3.637307e+000 -2.100000e+000
      vertex  1.600000e+000  4.200000e+000  0.000000e+000
    endloop
  endfacet
  facet normal  3.591835e-017 -9.659259e-001  2.588190e-001
    outer loop
      vertex  3.725293e-010  3.637307e+000 -2.100000e+000
      vertex  1.600000e+000  4.200000e+000  0.000000e+000
      vertex  2.290869e-016  4.200000e+000  2.220446e-016
    endloop
  endfacet
  facet normal  0.000000e+000 -2.588190e-001  9.659258e-001
    outer loop
      vertex  1.600000e+000  6.683333e+000 -4.542617e-001
      vertex  1.520000e+000  6.433333e+000 -5.212491e-001
      vertex  1.600000e+000  6.433333e+000 -5.212491e-001
    endloop
  endfacet
  facet normal  0.000000e+000 -2.588190e-001  9.659258e-001
    outer loop
      vertex  1.520000e+000  6.433333e+000 -5.212491e-001
      vertex  1.600000e+000  6.683333e+000 -4.542617e-001
      vertex  1.520000e+000  6.683333e+000 -4.542617e-001
    endloop
  endfacet
  facet normal  0.000000e+000 -7.071072e-001  7.071063e-001
    outer loop
      vertex  1.520000e+000  6.683333e+000 -4.542617e-001
      vertex  1.600000e+000  6.683333e+000 -4.542617e-001
      vertex  1.600000e+000  6.866346e+000 -2.712490e-001
    endloop
  endfacet
  facet normal  0.000000e+000 -7.071072e-001  7.071063e-001
    outer loop
      vertex  1.520000e+000  6.683333e+000 -4.542617e-001
      vertex  1.600000e+000  6.866346e+000 -2.712490e-001
      vertex  1.520000e+000  6.866346e+000 -2.712490e-001
    endloop
  endfacet
  facet normal  0.000000e+000 -9.659256e-001  2.588198e-001
    outer loop
      vertex  1.520000e+000  6.866346e+000 -2.712490e-001
      vertex  1.600000e+000  6.866346e+000 -2.712490e-001
      vertex  1.600000e+000  6.933333e+000 -2.124899e-002
    endloop
  endfacet
  facet normal  6.026115e-009 -9.659256e-001  2.588198e-001
    outer loop
      vertex  1.520000e+000  6.866346e+000 -2.712490e-001
      vertex  1.600000e+000  6.933333e+000 -2.124899e-002
      vertex  1.520000e+000  6.933333e+000 -2.124899e-002
    endloop
  endfacet
  facet normal  6.026075e-009  9.659261e-001  2.588181e-001
    outer loop
      vertex  1.600000e+000  6.000320e+000 -2.712490e-001
      vertex  1.520000e+000  5.933333e+000 -2.124899e-002
      vertex  1.600000e+000  5.933333e+000 -2.124899e-002
    endloop
  endfacet
  facet normal  0.000000e+000  9.659261e-001  2.588181e-001
    outer loop
      vertex  1.520000e+000  5.933333e+000 -2.124899e-002
      vertex  1.600000e+000  6.000320e+000 -2.712490e-001
      vertex  1.520000e+000  6.000320e+000 -2.712490e-001
    endloop
  endfacet
  facet normal  -0.000000e+000  7.071063e-001  7.071072e-001
    outer loop
      vertex  1.520000e+000  6.000320e+000 -2.712490e-001
      vertex  1.600000e+000  6.000320e+000 -2.712490e-001
      vertex  1.600000e+000  6.183333e+000 -4.542617e-001
    endloop
  endfacet
  facet normal  0.000000e+000  7.071063e-001  7.071072e-001
    outer loop
      vertex  1.520000e+000  6.000320e+000 -2.712490e-001
      vertex  1.600000e+000  6.183333e+000 -4.542617e-001
      vertex  1.520000e+000  6.183333e+000 -4.542617e-001
    endloop
  endfacet
  facet normal  -0.000000e+000  2.588190e-001  9.659258e-001
    outer loop
      vertex  1.520000e+000  6.183333e+000 -4.542617e-001
      vertex  1.600000e+000  6.183333e+000 -4.542617e-001
      vertex  1.600000e+000  6.433333e+000 -5.212491e-001
    endloop
  endfacet
  facet normal  0.000000e+000  2.588190e-001  9.659258e-001
    outer loop
      vertex  1.520000e+000  6.183333e+000 -4.542617e-001
      vertex  1.600000e+000  6.433333e+000 -5.212491e-001
      vertex  1.520000e+000  6.433333e+000 -5.212491e-001
    endloop
  endfacet
  facet normal  0.000000e+000  9.999999e-001  0.000000e+000
    outer loop
      vertex  1.520000e+000  6.633333e+000 -2.124899e-002
      vertex  1.520000e+000  6.633333e+000  2.828427e-001
      vertex  1.600000e+000  6.633333e+000 -2.124899e-002
    endloop
  endfacet
  facet normal  0.000000e+000  9.999999e-001  -0.000000e+000
    outer loop
      vertex  1.600000e+000  6.633333e+000 -2.124899e-002
      vertex  1.520000e+000  6.633333e+000  2.828427e-001
      vertex  1.600000e+000  6.633333e+000  2.828427e-001
    endloop
  endfacet
  facet normal  0.000000e+000  3.826835e-001 -9.238795e-001
    outer loop
      vertex  1.600000e+000  6.433333e+000 -2.212490e-001
      vertex  1.520000e+000  6.433333e+000 -2.212490e-001
      vertex  1.600000e+000  6.574755e+000 -1.626704e-001
    endloop
  endfacet
  facet normal  2.423077e-001  2.511064e-001 -9.371406e-001
    outer loop
      vertex  1.600000e+000  6.574755e+000 -1.626704e-001
      vertex  1.520000e+000  6.433333e+000 -2.212490e-001
      vertex  1.520000e+000  6.533333e+000 -1.944541e-001
    endloop
  endfacet
  facet normal -8.487896e-002  7.045554e-001 -7.045546e-001
    outer loop
      vertex  1.600000e+000  6.574755e+000 -1.626704e-001
      vertex  1.520000e+000  6.533333e+000 -1.944541e-001
      vertex  1.520000e+000  6.606538e+000 -1.212490e-001
    endloop
  endfacet
  facet normal -6.026096e-009  9.659259e-001 -2.588190e-001
    outer loop
      vertex  1.520000e+000  6.633333e+000 -2.124899e-002
      vertex  1.600000e+000  6.633333e+000 -2.124899e-002
      vertex  1.520000e+000  6.606538e+000 -1.212490e-001
    endloop
  endfacet
  facet normal  1.665529e-001  9.109757e-001 -3.773375e-001
    outer loop
      vertex  1.520000e+000  6.606538e+000 -1.212490e-001
      vertex  1.600000e+000  6.633333e+000 -2.124899e-002
      vertex  1.600000e+000  6.574755e+000 -1.626704e-001
    endloop
  endfacet
  facet normal -8.910079e-009 -9.238788e-001 -3.826852e-001
    outer loop
      vertex  1.600000e+000  6.233333e+000 -2.124899e-002
      vertex  1.520000e+000  6.233333e+000 -2.124899e-002
      vertex  1.600000e+000  6.291912e+000 -1.626704e-001
    endloop
  endfacet
  facet normal  2.423119e-001 -9.371397e-001 -2.511057e-001
    outer loop
      vertex  1.600000e+000  6.291912e+000 -1.626704e-001
      vertex  1.520000e+000  6.233333e+000 -2.124899e-002
      vertex  1.520000e+000  6.260128e+000 -1.212490e-001
    endloop
  endfacet
  facet normal -8.487688e-002 -7.045533e-001 -7.045571e-001
    outer loop
      vertex  1.600000e+000  6.291912e+000 -1.626704e-001
      vertex  1.520000e+000  6.260128e+000 -1.212490e-001
      vertex  1.520000e+000  6.333333e+000 -1.944541e-001
    endloop
  endfacet
  facet normal  2.423077e-001 -2.511064e-001 -9.371406e-001
    outer loop
      vertex  1.520000e+000  6.333333e+000 -1.944541e-001
      vertex  1.520000e+000  6.433333e+000 -2.212490e-001
      vertex  1.600000e+000  6.291912e+000 -1.626704e-001
    endloop
  endfacet
  facet normal  0.000000e+000 -3.826835e-001 -9.238795e-001
    outer loop
      vertex  1.600000e+000  6.291912e+000 -1.626704e-001
      vertex  1.520000e+000  6.433333e+000 -2.212490e-001
      vertex  1.600000e+000  6.433333e+000 -2.212490e-001
    endloop
  endfacet
  facet normal  0.000000e+000  0.000000e+000  1.000000e+000
    outer loop
      vertex  1.520000e+000  6.233333e+000  2.828427e-001
      vertex  1.600000e+000  6.233333e+000  2.828427e-001
      vertex  1.520000e+000  6.633333e+000  2.828427e-001
    endloop
  endfacet
  facet normal  -0.000000e+000  0.000000e+000  1.000000e+000
    outer loop
      vertex  1.520000e+000  6.633333e+000  2.828427e-001
      vertex  1.600000e+000  6.233333e+000  2.828427e-001
      vertex  1.600000e+000  6.633333e+000  2.828427e-001
    endloop
  endfacet
  facet normal  0.000000e+000 -9.999999e-001  0.000000e+000
    outer loop
      vertex  1.520000e+000  6.233333e+000  2.828427e-001
      vertex  1.520000e+000  6.233333e+000 -2.124899e-002
      vertex  1.600000e+000  6.233333e+000  2.828427e-001
    endloop
  endfacet
  facet normal  0.000000e+000 -9.999999e-001  -0.000000e+000
    outer loop
      vertex  1.600000e+000  6.233333e+000  2.828427e-001
      vertex  1.520000e+000  6.233333e+000 -2.124899e-002
      vertex  1.600000e+000  6.233333e+000 -2.124899e-002
    endloop
  endfacet
  facet normal  1.000000e+000  -0.000000e+000  0.000000e+000
    outer loop
      vertex  1.600000e+000  6.633333e+000  2.828427e-001
      vertex  1.600000e+000  6.233333e+000  2.828427e-001
      vertex  1.600000e+000  6.633333e+000 -2.124899e-002
    endloop
  endfacet
  facet normal  1.000000e+000  0.000000e+000  0.000000e+000
    outer loop
      vertex  1.600000e+000  6.633333e+000 -2.124899e-002
      vertex  1.600000e+000  6.233333e+000  2.828427e-001
      vertex  1.600000e+000  6.233333e+000 -2.124899e-002
    endloop
  endfacet
  facet normal  1.000000e+000  -0.000000e+000  0.000000e+000
    outer loop
      vertex  1.600000e+000  6.633333e+000 -2.124899e-002
      vertex  1.600000e+000  6.233333e+000 -2.124899e-002
      vertex  1.600000e+000  6.574755e+000 -1.626704e-001
    endloop
  endfacet
  facet normal  1.000000e+000  0.000000e+000  0.000000e+000
    outer loop
      vertex  1.600000e+000  6.574755e+000 -1.626704e-001
      vertex  1.600000e+000  6.233333e+000 -2.124899e-002
      vertex  1.600000e+000  6.291912e+000 -1.626704e-001
    endloop
  endfacet
  facet normal  9.999999e-001  -0.000000e+000  0.000000e+000
    outer loop
      vertex  1.600000e+000  6.574755e+000 -1.626704e-001
      vertex  1.600000e+000  6.291912e+000 -1.626704e-001
      vertex  1.600000e+000  6.433333e+000 -2.212490e-001
    endloop
  endfacet
  facet normal  9.999999e-001  0.000000e+000  0.000000e+000
    outer loop
      vertex  1.520000e+000  6.183333e+000 -4.542617e-001
      vertex  1.520000e+000  6.333333e+000 -1.944541e-001
      vertex  1.520000e+000  6.260128e+000 -1.212490e-001
    endloop
  endfacet
  facet normal  1.000000e+000  0.000000e+000  0.000000e+000
    outer loop
      vertex  1.520000e+000  6.233333e+000 -2.124899e-002
      vertex  1.520000e+000  6.183333e+000 -4.542617e-001
      vertex  1.520000e+000  6.260128e+000 -1.212490e-001
    endloop
  endfacet
  facet normal  1.000000e+000  -0.000000e+000  0.000000e+000
    outer loop
      vertex  1.520000e+000  6.933333e+000  6.828427e-001
      vertex  1.520000e+000  5.333333e+000  6.828427e-001
      vertex  1.520000e+000  5.333333e+000  2.828427e-001
    endloop
  endfacet
  facet normal  1.000000e+000  0.000000e+000  0.000000e+000
    outer loop
      vertex  1.520000e+000  6.933333e+000  6.828427e-001
      vertex  1.520000e+000  5.333333e+000  2.828427e-001
      vertex  1.520000e+000  5.933333e+000  2.828427e-001
    endloop
  endfacet
  facet normal  1.000000e+000  0.000000e+000  0.000000e+000
    outer loop
      vertex  1.520000e+000  6.933333e+000  6.828427e-001
      vertex  1.520000e+000  5.933333e+000  2.828427e-001
      vertex  1.520000e+000  6.233333e+000  2.828427e-001
    endloop
  endfacet
  facet normal  1.000000e+000  0.000000e+000  0.000000e+000
    outer loop
      vertex  1.520000e+000  6.933333e+000  6.828427e-001
      vertex  1.520000e+000  6.233333e+000  2.828427e-001
      vertex  1.520000e+000  6.633333e+000  2.828427e-001
    endloop
  endfacet
  facet normal  1.000000e+000  0.000000e+000  0.000000e+000
    outer loop
      vertex  1.520000e+000  6.933333e+000 -2.124899e-002
      vertex  1.520000e+000  6.933333e+000  6.828427e-001
      vertex  1.520000e+000  6.633333e+000  2.828427e-001
    endloop
  endfacet
  facet normal  9.999999e-001  0.000000e+000  0.000000e+000
    outer loop
      vertex  1.520000e+000  6.933333e+000 -2.124899e-002
      vertex  1.520000e+000  6.633333e+000  2.828427e-001
      vertex  1.520000e+000  6.633333e+000 -2.124899e-002
    endloop
  endfacet
  facet normal  1.000000e+000  -0.000000e+000  0.000000e+000
    outer loop
      vertex  1.520000e+000  6.933333e+000 -2.124899e-002
      vertex  1.520000e+000  6.633333e+000 -2.124899e-002
      vertex  1.520000e+000  6.683333e+000 -4.542617e-001
    endloop
  endfacet
  facet normal  1.000000e+000  0.000000e+000  0.000000e+000
    outer loop
      vertex  1.520000e+000  6.933333e+000 -2.124899e-002
      vertex  1.520000e+000  6.683333e+000 -4.542617e-001
      vertex  1.520000e+000  6.866346e+000 -2.712490e-001
    endloop
  endfacet
  facet normal  1.000000e+000  0.000000e+000  0.000000e+000
    outer loop
      vertex  1.520000e+000  6.000320e+000 -2.712490e-001
      vertex  1.520000e+000  6.183333e+000 -4.542617e-001
      vertex  1.520000e+000  5.933333e+000 -2.124899e-002
    endloop
  endfacet
  facet normal  1.000000e+000  -0.000000e+000  0.000000e+000
    outer loop
      vertex  1.520000e+000  5.933333e+000 -2.124899e-002
      vertex  1.520000e+000  6.183333e+000 -4.542617e-001
      vertex  1.520000e+000  6.233333e+000 -2.124899e-002
    endloop
  endfacet
  facet normal  1.000000e+000  0.000000e+000  0.000000e+000
    outer loop
      vertex  1.520000e+000  5.933333e+000 -2.124899e-002
      vertex  1.520000e+000  6.233333e+000 -2.124899e-002
      vertex  1.520000e+000  5.933333e+000  2.828427e-001
    endloop
  endfacet
  facet normal  1.000000e+000  -0.000000e+000  0.000000e+000
    outer loop
      vertex  1.520000e+000  5.933333e+000  2.828427e-001
      vertex  1.520000e+000  6.233333e+000 -2.124899e-002
      vertex  1.520000e+000  6.233333e+000  2.828427e-001
    endloop
  endfacet
  facet normal  1.000000e+000  0.000000e+000  0.000000e+000
    outer loop
      vertex  1.520000e+000  6.533333e+000 -1.944541e-001
      vertex  1.520000e+000  6.433333e+000 -5.212491e-001
      vertex  1.520000e+000  6.606538e+000 -1.212490e-001
    endloop
  endfacet
  facet normal  1.000000e+000  0.000000e+000  0.000000e+000
    outer loop
      vertex  1.520000e+000  6.606538e+000 -1.212490e-001
      vertex  1.520000e+000  6.433333e+000 -5.212491e-001
      vertex  1.520000e+000  6.683333e+000 -4.542617e-001
    endloop
  endfacet
  facet normal  1.000000e+000  0.000000e+000  0.000000e+000
    outer loop
      vertex  1.520000e+000  6.606538e+000 -1.212490e-001
      vertex  1.520000e+000  6.683333e+000 -4.542617e-001
      vertex  1.520000e+000  6.633333e+000 -2.124899e-002
    endloop
  endfacet
  facet normal  1.000000e+000  0.000000e+000  0.000000e+000
    outer loop
      vertex  1.520000e+000  6.333333e+000 -1.944541e-001
      vertex  1.520000e+000  6.183333e+000 -4.542617e-001
      vertex  1.520000e+000  6.433333e+000 -2.212490e-001
    endloop
  endfacet
  facet normal  1.000000e+000  0.000000e+000  0.000000e+000
    outer loop
      vertex  1.520000e+000  6.433333e+000 -2.212490e-001
      vertex  1.520000e+000  6.183333e+000 -4.542617e-001
      vertex  1.520000e+000  6.433333e+000 -5.212491e-001
    endloop
  endfacet
  facet normal  9.999999e-001  0.000000e+000  0.000000e+000
    outer loop
      vertex  1.520000e+000  6.433333e+000 -2.212490e-001
      vertex  1.520000e+000  6.433333e+000 -5.212491e-001
      vertex  1.520000e+000  6.533333e+000 -1.944541e-001
    endloop
  endfacet
  facet normal  0.000000e+000  1.000000e+000  0.000000e+000
    outer loop
      vertex  1.520000e+000  5.333333e+000  6.828427e-001
      vertex  1.600000e+000  5.333333e+000  6.828427e-001
      vertex  1.520000e+000  5.333333e+000  2.828427e-001
    endloop
  endfacet
  facet normal  0.000000e+000  1.000000e+000  0.000000e+000
    outer loop
      vertex  1.520000e+000  5.333333e+000  2.828427e-001
      vertex  1.600000e+000  5.333333e+000  6.828427e-001
      vertex  1.600000e+000  5.333333e+000  2.828427e-001
    endloop
  endfacet
  facet normal  0.000000e+000  0.000000e+000 -1.000000e+000
    outer loop
      vertex  1.520000e+000  5.333333e+000  6.828427e-001
      vertex  1.520000e+000  6.933333e+000  6.828427e-001
      vertex  1.600000e+000  5.333333e+000  6.828427e-001
    endloop
  endfacet
  facet normal  0.000000e+000  0.000000e+000 -1.000000e+000
    outer loop
      vertex  1.600000e+000  5.333333e+000  6.828427e-001
      vertex  1.520000e+000  6.933333e+000  6.828427e-001
      vertex  1.600000e+000  6.933333e+000  6.828427e-001
    endloop
  endfacet
  facet normal -1.000000e+000  6.123233e-017  1.908707e-023
    outer loop
      vertex  3.120287e-016  5.554542e+000 -5.757340e+000
      vertex  2.100499e-016  3.889102e+000 -6.991057e+000
      vertex  9.208655e-017  1.962615e+000 -7.755517e+000
    endloop
  endfacet
  facet normal -1.000000e+000 -9.832830e-012  9.557202e-011
    outer loop
      vertex -1.142342e-016 -1.406858e+000  3.957366e+000
      vertex  3.725291e-010 -1.469528e-015  8.000000e+000
      vertex  6.912268e-018  5.716129e-001  4.160921e+000
    endloop
  endfacet
  facet normal -1.000000e+000 -5.633484e-011  2.102448e-010
    outer loop
      vertex  3.725291e-010 -1.608007e-015 -4.200000e+000
      vertex  3.725293e-010  2.100000e+000 -3.637307e+000
      vertex  3.911789e-016  6.847164e+000 -4.137191e+000
    endloop
  endfacet
  facet normal -9.999999e-001 -5.480739e-011  4.372765e-011
    outer loop
      vertex  3.725291e-010 -1.608007e-015 -4.200000e+000
      vertex  3.911789e-016  6.847164e+000 -4.137191e+000
      vertex  3.120287e-016  5.554542e+000 -5.757340e+000
    endloop
  endfacet
  facet normal -1.000000e+000 -4.459274e-011  8.016011e-011
    outer loop
      vertex  3.725291e-010 -1.608007e-015 -4.200000e+000
      vertex  3.120287e-016  5.554542e+000 -5.757340e+000
      vertex  9.208655e-017  1.962615e+000 -7.755517e+000
    endloop
  endfacet
  facet normal -1.000000e+000 -1.165408e-011  9.834197e-011
    outer loop
      vertex  3.725291e-010 -1.608007e-015 -4.200000e+000
      vertex  9.208655e-017  1.962615e+000 -7.755517e+000
      vertex -3.394289e-017 -9.560253e-002 -7.999429e+000
    endloop
  endfacet
  facet normal -9.999999e-001  1.395291e-011  9.769763e-011
    outer loop
      vertex  3.725291e-010 -1.608007e-015 -4.200000e+000
      vertex -3.394289e-017 -9.560253e-002 -7.999429e+000
      vertex -1.595794e-016 -2.147403e+000 -7.706398e+000
    endloop
  endfacet
  facet normal -9.999999e-001  3.581122e-011  8.431107e-011
    outer loop
      vertex  3.725291e-010 -1.608007e-015 -4.200000e+000
      vertex -1.595794e-016 -2.147403e+000 -7.706398e+000
      vertex -2.763903e-016 -4.055070e+000 -6.896115e+000
    endloop
  endfacet
  facet normal -1.000000e+000  4.954882e-011  6.364915e-011
    outer loop
      vertex  3.725291e-010 -1.608007e-015 -4.200000e+000
      vertex -2.763903e-016 -4.055070e+000 -6.896115e+000
      vertex -3.765346e-016 -5.690550e+000 -5.622948e+000
    endloop
  endfacet
  facet normal -1.000000e+000  5.501671e-011  4.178240e-011
    outer loop
      vertex  3.725291e-010 -1.608007e-015 -4.200000e+000
      vertex -3.765346e-016 -5.690550e+000 -5.622948e+000
      vertex -4.532913e-016 -6.944082e+000 -3.972370e+000
    endloop
  endfacet
  facet normal -1.000000e+000  6.112498e-011  2.281214e-010
    outer loop
      vertex  3.725291e-010 -1.608007e-015 -4.200000e+000
      vertex -4.532913e-016 -6.944082e+000 -3.972370e+000
      vertex  3.725290e-010 -2.100000e+000 -3.637307e+000
    endloop
  endfacet
  facet normal -1.000000e+000  6.769801e-017 -2.129225e-017
    outer loop
      vertex  3.725289e-010 -3.061467e+000  7.391036e+000
      vertex  3.725291e-010 -1.469528e-015  8.000000e+000
      vertex  3.725288e-010 -5.656854e+000  5.656854e+000
    endloop
  endfacet
  facet normal -1.000000e+000 -4.459861e-011  1.076707e-010
    outer loop
      vertex  3.725288e-010 -5.656854e+000  5.656854e+000
      vertex  3.725291e-010 -1.469528e-015  8.000000e+000
      vertex -1.142342e-016 -1.406858e+000  3.957366e+000
    endloop
  endfacet
  facet normal -9.999999e-001 -6.917183e-011  4.621918e-011
    outer loop
      vertex  3.725288e-010 -5.656854e+000  5.656854e+000
      vertex -1.142342e-016 -1.406858e+000  3.957366e+000
      vertex  3.725287e-010 -7.391036e+000  3.061467e+000
    endloop
  endfacet
  facet normal -1.000000e+000 -8.065878e-011  1.229465e-010
    outer loop
      vertex  3.725287e-010 -7.391036e+000  3.061467e+000
      vertex -1.142342e-016 -1.406858e+000  3.957366e+000
      vertex -2.160624e-016 -3.069841e+000  2.866370e+000
    endloop
  endfacet
  facet normal -1.000000e+000 -7.999738e-011  1.375957e-010
    outer loop
      vertex  3.725287e-010 -7.391036e+000  3.061467e+000
      vertex -2.160624e-016 -3.069841e+000  2.866370e+000
      vertex -5.179476e-016 -8.000000e+000  0.000000e+000
    endloop
  endfacet
  facet normal -9.999999e-001  6.123233e-017  1.211132e-023
    outer loop
      vertex -5.179476e-016 -8.000000e+000  0.000000e+000
      vertex -2.160624e-016 -3.069841e+000  2.866370e+000
      vertex -2.757375e-016 -4.044409e+000  1.132588e+000
    endloop
  endfacet
  facet normal -1.000000e+000  9.803405e-011 -3.423860e-010
    outer loop
      vertex -5.179476e-016 -8.000000e+000  0.000000e+000
      vertex -2.757375e-016 -4.044409e+000  1.132588e+000
      vertex  3.725289e-010 -4.200000e+000 -5.143347e-016
    endloop
  endfacet
  facet normal -1.000000e+000  1.989084e-011  9.999766e-011
    outer loop
      vertex  3.725291e-010 -1.469528e-015  8.000000e+000
      vertex  3.725293e-010  3.061467e+000  7.391036e+000
      vertex  6.912268e-018  5.716129e-001  4.160921e+000
    endloop
  endfacet
  facet normal -1.000000e+000  5.086378e-011  7.612294e-011
    outer loop
      vertex  6.912268e-018  5.716129e-001  4.160921e+000
      vertex  3.725293e-010  3.061467e+000  7.391036e+000
      vertex  3.725295e-010  5.656854e+000  5.656854e+000
    endloop
  endfacet
  facet normal -1.000000e+000  4.195481e-011  1.064079e-010
    outer loop
      vertex  6.912268e-018  5.716129e-001  4.160921e+000
      vertex  3.725295e-010  5.656854e+000  5.656854e+000
      vertex  1.202096e-016  2.421900e+000  3.431385e+000
    endloop
  endfacet
  facet normal -9.999999e-001  7.889287e-011  5.271448e-011
    outer loop
      vertex  1.202096e-016  2.421900e+000  3.431385e+000
      vertex  3.725295e-010  5.656854e+000  5.656854e+000
      vertex  3.725296e-010  7.391036e+000  3.061467e+000
    endloop
  endfacet
  facet normal -1.000000e+000  8.017313e-011  6.991214e-011
    outer loop
      vertex  1.202096e-016  2.421900e+000  3.431385e+000
      vertex  3.725296e-010  7.391036e+000  3.061467e+000
      vertex  2.002510e-016  3.729074e+000  1.932359e+000
    endloop
  endfacet
  facet normal -1.000000e+000  9.585077e-011  1.906589e-011
    outer loop
      vertex  2.002510e-016  3.729074e+000  1.932359e+000
      vertex  3.725296e-010  7.391036e+000  3.061467e+000
      vertex  3.725296e-010  8.000000e+000  1.959370e-015
    endloop
  endfacet
  facet normal -1.000000e+000  9.803405e-011  2.389141e-011
    outer loop
      vertex  2.002510e-016  3.729074e+000  1.932359e+000
      vertex  3.725296e-010  8.000000e+000  1.959370e-015
      vertex  2.290869e-016  4.200000e+000  2.220446e-016
    endloop
  endfacet
  facet normal -1.000000e+000  9.803405e-011 -2.036630e-010
    outer loop
      vertex  2.290869e-016  4.200000e+000  2.220446e-016
      vertex  3.725296e-010  8.000000e+000  1.959370e-015
      vertex  3.725293e-010  3.637307e+000 -2.100000e+000
    endloop
  endfacet
  facet normal -1.000000e+000 -8.598749e-011  1.786368e-010
    outer loop
      vertex  3.725293e-010  3.637307e+000 -2.100000e+000
      vertex  3.725296e-010  8.000000e+000  1.959370e-015
      vertex  4.421868e-016  7.680185e+000 -2.239344e+000
    endloop
  endfacet
  facet normal -1.000000e+000 -8.907438e-011  8.907444e-011
    outer loop
      vertex  3.725293e-010  3.637307e+000 -2.100000e+000
      vertex  4.421868e-016  7.680185e+000 -2.239344e+000
      vertex  3.725293e-010  2.100000e+000 -3.637307e+000
    endloop
  endfacet
  facet normal -1.000000e+000 -7.500715e-011  3.292289e-011
    outer loop
      vertex  3.725293e-010  2.100000e+000 -3.637307e+000
      vertex  4.421868e-016  7.680185e+000 -2.239344e+000
      vertex  3.911789e-016  6.847164e+000 -4.137191e+000
    endloop
  endfacet
  facet normal -1.000000e+000  9.803405e-011  1.280738e-011
    outer loop
      vertex -5.179476e-016 -8.000000e+000  0.000000e+000
      vertex  3.725289e-010 -4.200000e+000 -5.143347e-016
      vertex -5.015073e-016 -7.731510e+000 -2.055155e+000
    endloop
  endfacet
  facet normal -1.000000e+000  9.125731e-011  2.445230e-011
    outer loop
      vertex -5.015073e-016 -7.731510e+000 -2.055155e+000
      vertex  3.725289e-010 -4.200000e+000 -5.143347e-016
      vertex  3.725289e-010 -3.637307e+000 -2.100000e+000
    endloop
  endfacet
  facet normal -9.999999e-001  9.140066e-011  3.753953e-011
    outer loop
      vertex -5.015073e-016 -7.731510e+000 -2.055155e+000
      vertex  3.725289e-010 -3.637307e+000 -2.100000e+000
      vertex -4.532913e-016 -6.944082e+000 -3.972370e+000
    endloop
  endfacet
  facet normal -1.000000e+000  7.192875e-011  7.192870e-011
    outer loop
      vertex -4.532913e-016 -6.944082e+000 -3.972370e+000
      vertex  3.725289e-010 -3.637307e+000 -2.100000e+000
      vertex  3.725290e-010 -2.100000e+000 -3.637307e+000
    endloop
  endfacet
endsolid CATIA STL
