solid CATIA STL
  facet normal  0.000000e+000 -1.000000e+000  0.000000e+000
    outer loop
      vertex  3.916648e+001  7.812511e-001  3.342130e+001
      vertex  3.322807e+001  7.812511e-001  1.535377e+001
      vertex  3.335658e+001  7.812511e-001  1.421035e+001
    endloop
  endfacet
  facet normal  0.000000e+000 -1.000000e+000  0.000000e+000
    outer loop
      vertex  3.249082e+001  7.812511e-001  1.623715e+001
      vertex  3.322807e+001  7.812511e-001  1.535377e+001
      vertex  3.916648e+001  7.812511e-001  3.342130e+001
    endloop
  endfacet
  facet normal  0.000000e+000 -1.000000e+000  0.000000e+000
    outer loop
      vertex  1.117272e+001  7.812511e-001  3.100000e+001
      vertex  1.434246e+001  7.812511e-001  1.535377e+001
      vertex  1.507971e+001  7.812511e-001  1.623715e+001
    endloop
  endfacet
  facet normal  0.000000e+000 -9.999999e-001  0.000000e+000
    outer loop
      vertex  1.117272e+001  7.812511e-001  3.100000e+001
      vertex  1.507971e+001  7.812511e-001  1.623715e+001
      vertex  3.741648e+001  7.812511e-001  3.880725e+001
    endloop
  endfacet
  facet normal  -0.000000e+000 -1.000000e+000  0.000000e+000
    outer loop
      vertex  1.117272e+001  7.812511e-001  3.100000e+001
      vertex  3.741648e+001  7.812511e-001  3.880725e+001
      vertex  3.916648e+001  7.812511e-001  4.007870e+001
    endloop
  endfacet
  facet normal  -0.000000e+000 -1.000000e+000  0.000000e+000
    outer loop
      vertex  3.674804e+001  7.812511e-001  7.455000e+001
      vertex  3.741648e+001  7.812511e-001  7.660725e+001
      vertex  1.333672e+001  7.812511e-001  8.676777e+001
    endloop
  endfacet
  facet normal  0.000000e+000 -1.000000e+000  0.000000e+000
    outer loop
      vertex  3.674804e+001  7.812511e-001  7.455000e+001
      vertex  1.333672e+001  7.812511e-001  8.676777e+001
      vertex  1.406895e+001  7.812511e-001  8.500000e+001
    endloop
  endfacet
  facet normal  0.000000e+000 -1.000000e+000  0.000000e+000
    outer loop
      vertex  3.674804e+001  7.812511e-001  7.455000e+001
      vertex  1.406895e+001  7.812511e-001  8.500000e+001
      vertex  3.741648e+001  7.812511e-001  7.249275e+001
    endloop
  endfacet
  facet normal  -0.000000e+000 -1.000000e+000  0.000000e+000
    outer loop
      vertex  1.009523e+001  7.812511e-001  6.500000e+001
      vertex  3.916648e+001  7.812511e-001  7.122131e+001
      vertex  1.156895e+001  7.812511e-001  8.250000e+001
    endloop
  endfacet
  facet normal  -0.000000e+000 -1.000000e+000  0.000000e+000
    outer loop
      vertex  1.009523e+001  7.812511e-001  6.500000e+001
      vertex  1.156895e+001  7.812511e-001  8.250000e+001
      vertex  9.801185e+000  7.812511e-001  8.323223e+001
    endloop
  endfacet
  facet normal  -0.000000e+000 -1.000000e+000  -0.000000e+000
    outer loop
      vertex  1.009523e+001  7.812511e-001  6.500000e+001
      vertex  9.801185e+000  7.812511e-001  8.323223e+001
      vertex  9.068952e+000  7.812511e-001  8.500000e+001
    endloop
  endfacet
  facet normal  0.000000e+000 -1.000000e+000  -0.000000e+000
    outer loop
      vertex  1.009523e+001  7.812511e-001  6.500000e+001
      vertex  9.068952e+000  7.812511e-001  8.500000e+001
      vertex  8.672715e+000  7.812511e-001  3.350000e+001
    endloop
  endfacet
  facet normal  0.000000e+000 -1.000000e+000  -0.000000e+000
    outer loop
      vertex  1.009523e+001  7.812511e-001  4.600000e+001
      vertex  1.009523e+001  7.812511e-001  6.500000e+001
      vertex  8.672715e+000  7.812511e-001  3.350000e+001
    endloop
  endfacet
  facet normal  0.000000e+000 -9.999999e-001  0.000000e+000
    outer loop
      vertex  1.009523e+001  7.812511e-001  4.600000e+001
      vertex  8.672715e+000  7.812511e-001  3.350000e+001
      vertex  1.044048e+001  7.812511e-001  3.276777e+001
    endloop
  endfacet
  facet normal  0.000000e+000 -1.000000e+000  0.000000e+000
    outer loop
      vertex  1.009523e+001  7.812511e-001  4.600000e+001
      vertex  1.044048e+001  7.812511e-001  3.276777e+001
      vertex  1.117272e+001  7.812511e-001  3.100000e+001
    endloop
  endfacet
  facet normal  0.000000e+000 -1.000000e+000  0.000000e+000
    outer loop
      vertex  1.009523e+001  7.812511e-001  4.600000e+001
      vertex  1.117272e+001  7.812511e-001  3.100000e+001
      vertex  3.916648e+001  7.812511e-001  4.007870e+001
    endloop
  endfacet
  facet normal  0.000000e+000 -1.000000e+000  0.000000e+000
    outer loop
      vertex  1.009523e+001  7.812511e-001  4.600000e+001
      vertex  3.916648e+001  7.812511e-001  4.007870e+001
      vertex  7.009523e+001  7.812511e-001  4.600000e+001
    endloop
  endfacet
  facet normal  -0.000000e+000 -1.000000e+000  0.000000e+000
    outer loop
      vertex  1.421395e+001  7.812511e-001  1.421035e+001
      vertex  1.434246e+001  7.812511e-001  1.535377e+001
      vertex  1.117272e+001  7.812511e-001  3.100000e+001
    endloop
  endfacet
  facet normal  0.000000e+000 -1.000000e+000  -0.000000e+000
    outer loop
      vertex  1.421395e+001  7.812511e-001  1.421035e+001
      vertex  1.117272e+001  7.812511e-001  3.100000e+001
      vertex  1.044048e+001  7.812511e-001  2.923223e+001
    endloop
  endfacet
  facet normal  0.000000e+000 -1.000000e+000  -0.000000e+000
    outer loop
      vertex  1.421395e+001  7.812511e-001  1.421035e+001
      vertex  1.044048e+001  7.812511e-001  2.923223e+001
      vertex  8.672715e+000  7.812511e-001  2.850000e+001
    endloop
  endfacet
  facet normal  0.000000e+000 -1.000000e+000  0.000000e+000
    outer loop
      vertex  1.421395e+001  7.812511e-001  1.421035e+001
      vertex  8.672715e+000  7.812511e-001  2.850000e+001
      vertex  1.548668e+001  7.812511e-001  7.210355e+000
    endloop
  endfacet
  facet normal  0.000000e+000 -9.999999e-001  0.000000e+000
    outer loop
      vertex  3.138884e+001  7.812511e-001  1.656813e+001
      vertex  3.249082e+001  7.812511e-001  1.623715e+001
      vertex  3.916648e+001  7.812511e-001  3.342130e+001
    endloop
  endfacet
  facet normal  -0.000000e+000 -9.999999e-001  0.000000e+000
    outer loop
      vertex  3.138884e+001  7.812511e-001  1.656813e+001
      vertex  3.916648e+001  7.812511e-001  3.342130e+001
      vertex  3.741648e+001  7.812511e-001  3.469275e+001
    endloop
  endfacet
  facet normal  -0.000000e+000 -1.000000e+000  0.000000e+000
    outer loop
      vertex  3.138884e+001  7.812511e-001  1.656813e+001
      vertex  3.741648e+001  7.812511e-001  3.469275e+001
      vertex  3.674804e+001  7.812511e-001  3.675000e+001
    endloop
  endfacet
  facet normal  0.000000e+000 -1.000000e+000  0.000000e+000
    outer loop
      vertex  3.138884e+001  7.812511e-001  1.656813e+001
      vertex  3.674804e+001  7.812511e-001  3.675000e+001
      vertex  1.618169e+001  7.812511e-001  1.656813e+001
    endloop
  endfacet
  facet normal  -0.000000e+000 -1.000000e+000  0.000000e+000
    outer loop
      vertex  0.000000e+000  7.812511e-001  0.000000e+000
      vertex  1.617292e+001  7.812511e-001  6.032622e+000
      vertex  1.548668e+001  7.812511e-001  7.210355e+000
    endloop
  endfacet
  facet normal  -0.000000e+000 -1.000000e+000  0.000000e+000
    outer loop
      vertex  0.000000e+000  7.812511e-001  0.000000e+000
      vertex  1.548668e+001  7.812511e-001  7.210355e+000
      vertex  8.672715e+000  7.812511e-001  2.850000e+001
    endloop
  endfacet
  facet normal  -0.000000e+000 -1.000000e+000  0.000000e+000
    outer loop
      vertex  0.000000e+000  7.812511e-001  0.000000e+000
      vertex  8.672715e+000  7.812511e-001  2.850000e+001
      vertex  6.904948e+000  7.812511e-001  2.923223e+001
    endloop
  endfacet
  facet normal  -0.000000e+000 -1.000000e+000  0.000000e+000
    outer loop
      vertex  0.000000e+000  7.812511e-001  0.000000e+000
      vertex  6.904948e+000  7.812511e-001  2.923223e+001
      vertex  6.172715e+000  7.812511e-001  3.100000e+001
    endloop
  endfacet
  facet normal  -0.000000e+000 -1.000000e+000  0.000000e+000
    outer loop
      vertex  2.509523e+001  7.812511e-001  0.000000e+000
      vertex  3.377764e+001  7.812511e-001  7.596123e-001
      vertex  3.011611e+001  7.812511e-001  5.568126e+000
    endloop
  endfacet
  facet normal  -0.000000e+000 -1.000000e+000  0.000000e+000
    outer loop
      vertex  2.509523e+001  7.812511e-001  0.000000e+000
      vertex  3.011611e+001  7.812511e-001  5.568126e+000
      vertex  1.745442e+001  7.812511e-001  5.568126e+000
    endloop
  endfacet
  facet normal  -0.000000e+000 -1.000000e+000  -0.000000e+000
    outer loop
      vertex  2.509523e+001  7.812511e-001  0.000000e+000
      vertex  1.745442e+001  7.812511e-001  5.568126e+000
      vertex  1.617292e+001  7.812511e-001  6.032622e+000
    endloop
  endfacet
  facet normal  0.000000e+000 -1.000000e+000  -0.000000e+000
    outer loop
      vertex  2.509523e+001  7.812511e-001  0.000000e+000
      vertex  1.617292e+001  7.812511e-001  6.032622e+000
      vertex  0.000000e+000  7.812511e-001  0.000000e+000
    endloop
  endfacet
  facet normal  0.000000e+000 -1.000000e+000  -0.000000e+000
    outer loop
      vertex  7.509523e+001  7.812511e-001  6.500000e+001
      vertex  7.434307e+001  7.812511e-001  7.167563e+001
      vertex  4.132960e+001  7.812511e-001  7.122131e+001
    endloop
  endfacet
  facet normal  0.000000e+000 -9.999999e-001  0.000000e+000
    outer loop
      vertex  7.509523e+001  7.812511e-001  6.500000e+001
      vertex  4.132960e+001  7.812511e-001  7.122131e+001
      vertex  7.009523e+001  7.812511e-001  6.500000e+001
    endloop
  endfacet
  facet normal  0.000000e+000 -1.000000e+000  0.000000e+000
    outer loop
      vertex  7.509523e+001  7.812511e-001  6.500000e+001
      vertex  7.009523e+001  7.812511e-001  6.500000e+001
      vertex  7.009523e+001  7.812511e-001  4.600000e+001
    endloop
  endfacet
  facet normal  0.000000e+000 -1.000000e+000  0.000000e+000
    outer loop
      vertex  7.509523e+001  7.812511e-001  6.500000e+001
      vertex  7.009523e+001  7.812511e-001  4.600000e+001
      vertex  7.509523e+001  7.812511e-001  5.000000e+001
    endloop
  endfacet
  facet normal  0.000000e+000 -1.000000e+000  0.000000e+000
    outer loop
      vertex  4.509523e+001  7.812511e-001  9.500000e+001
      vertex  1.156895e+001  7.812511e-001  8.750000e+001
      vertex  1.333672e+001  7.812511e-001  8.676777e+001
    endloop
  endfacet
  facet normal  0.000000e+000 -9.999999e-001  0.000000e+000
    outer loop
      vertex  4.509523e+001  7.812511e-001  9.500000e+001
      vertex  1.333672e+001  7.812511e-001  8.676777e+001
      vertex  3.741648e+001  7.812511e-001  7.660725e+001
    endloop
  endfacet
  facet normal  0.000000e+000 -9.999999e-001  0.000000e+000
    outer loop
      vertex  4.509523e+001  7.812511e-001  9.500000e+001
      vertex  3.741648e+001  7.812511e-001  7.660725e+001
      vertex  3.916648e+001  7.812511e-001  7.787870e+001
    endloop
  endfacet
  facet normal  0.000000e+000 -1.000000e+000  0.000000e+000
    outer loop
      vertex  4.509523e+001  7.812511e-001  9.500000e+001
      vertex  3.916648e+001  7.812511e-001  7.787870e+001
      vertex  4.132960e+001  7.812511e-001  7.787870e+001
    endloop
  endfacet
  facet normal  0.000000e+000 -1.000000e+000  0.000000e+000
    outer loop
      vertex  4.509523e+001  7.812511e-001  9.500000e+001
      vertex  4.132960e+001  7.812511e-001  7.787870e+001
      vertex  7.212430e+001  7.812511e-001  7.801651e+001
    endloop
  endfacet
  facet normal  0.000000e+000 -1.000000e+000  -0.000000e+000
    outer loop
      vertex  3.377764e+001  7.812511e-001  7.596123e-001
      vertex  3.335658e+001  7.812511e-001  1.421035e+001
      vertex  3.208385e+001  7.812511e-001  7.210355e+000
    endloop
  endfacet
  facet normal  0.000000e+000 -9.999999e-001  -0.000000e+000
    outer loop
      vertex  3.377764e+001  7.812511e-001  7.596123e-001
      vertex  3.208385e+001  7.812511e-001  7.210355e+000
      vertex  3.139761e+001  7.812511e-001  6.032622e+000
    endloop
  endfacet
  facet normal  0.000000e+000 -1.000000e+000  -0.000000e+000
    outer loop
      vertex  3.377764e+001  7.812511e-001  7.596123e-001
      vertex  3.139761e+001  7.812511e-001  6.032622e+000
      vertex  3.011611e+001  7.812511e-001  5.568126e+000
    endloop
  endfacet
  facet normal  0.000000e+000 -1.000000e+000  0.000000e+000
    outer loop
      vertex  7.207986e+001  7.812511e-001  3.289899e+001
      vertex  4.219624e+001  7.812511e-001  3.015369e+000
      vertex  5.009523e+001  7.812511e-001  6.698730e+000
    endloop
  endfacet
  facet normal  0.000000e+000 -9.999999e-001  0.000000e+000
    outer loop
      vertex  7.207986e+001  7.812511e-001  3.289899e+001
      vertex  5.009523e+001  7.812511e-001  6.698730e+000
      vertex  5.723461e+001  7.812511e-001  1.169778e+001
    endloop
  endfacet
  facet normal  0.000000e+000 -1.000000e+000  0.000000e+000
    outer loop
      vertex  7.207986e+001  7.812511e-001  3.289899e+001
      vertex  5.723461e+001  7.812511e-001  1.169778e+001
      vertex  6.339745e+001  7.812511e-001  1.786062e+001
    endloop
  endfacet
  facet normal  0.000000e+000 -1.000000e+000  0.000000e+000
    outer loop
      vertex  7.207986e+001  7.812511e-001  3.289899e+001
      vertex  6.339745e+001  7.812511e-001  1.786062e+001
      vertex  6.839650e+001  7.812511e-001  2.500000e+001
    endloop
  endfacet
  facet normal  -0.000000e+000 -1.000000e+000  -0.000000e+000
    outer loop
      vertex  3.916648e+001  7.812511e-001  7.122131e+001
      vertex  3.741648e+001  7.812511e-001  7.249275e+001
      vertex  1.406895e+001  7.812511e-001  8.500000e+001
    endloop
  endfacet
  facet normal  0.000000e+000 -1.000000e+000  -0.000000e+000
    outer loop
      vertex  3.916648e+001  7.812511e-001  7.122131e+001
      vertex  1.406895e+001  7.812511e-001  8.500000e+001
      vertex  1.333672e+001  7.812511e-001  8.323223e+001
    endloop
  endfacet
  facet normal  0.000000e+000 -9.999999e-001  -0.000000e+000
    outer loop
      vertex  3.916648e+001  7.812511e-001  7.122131e+001
      vertex  1.333672e+001  7.812511e-001  8.323223e+001
      vertex  1.156895e+001  7.812511e-001  8.250000e+001
    endloop
  endfacet
  facet normal  -0.000000e+000 -1.000000e+000  -0.000000e+000
    outer loop
      vertex  7.212430e+001  7.812511e-001  7.801651e+001
      vertex  6.855018e+001  7.812511e-001  8.370470e+001
      vertex  6.379992e+001  7.812511e-001  8.845494e+001
    endloop
  endfacet
  facet normal  -0.000000e+000 -9.999999e-001  -0.000000e+000
    outer loop
      vertex  7.212430e+001  7.812511e-001  7.801651e+001
      vertex  6.379992e+001  7.812511e-001  8.845494e+001
      vertex  5.811174e+001  7.812511e-001  9.202907e+001
    endloop
  endfacet
  facet normal  -0.000000e+000 -1.000000e+000  -0.000000e+000
    outer loop
      vertex  7.212430e+001  7.812511e-001  7.801651e+001
      vertex  5.811174e+001  7.812511e-001  9.202907e+001
      vertex  5.177086e+001  7.812511e-001  9.424784e+001
    endloop
  endfacet
  facet normal  -0.000000e+000 -1.000000e+000  -0.000000e+000
    outer loop
      vertex  7.212430e+001  7.812511e-001  7.801651e+001
      vertex  5.177086e+001  7.812511e-001  9.424784e+001
      vertex  4.509523e+001  7.812511e-001  9.500000e+001
    endloop
  endfacet
  facet normal  0.000000e+000 -9.999999e-001  0.000000e+000
    outer loop
      vertex  5.095231e+000  7.812511e-001  9.500000e+001
      vertex  0.000000e+000  7.812511e-001  0.000000e+000
      vertex  6.172715e+000  7.812511e-001  3.100000e+001
    endloop
  endfacet
  facet normal  0.000000e+000 -1.000000e+000  0.000000e+000
    outer loop
      vertex  5.095231e+000  7.812511e-001  9.500000e+001
      vertex  6.172715e+000  7.812511e-001  3.100000e+001
      vertex  6.904948e+000  7.812511e-001  3.276777e+001
    endloop
  endfacet
  facet normal  0.000000e+000 -1.000000e+000  0.000000e+000
    outer loop
      vertex  5.095231e+000  7.812511e-001  9.500000e+001
      vertex  6.904948e+000  7.812511e-001  3.276777e+001
      vertex  8.672715e+000  7.812511e-001  3.350000e+001
    endloop
  endfacet
  facet normal  0.000000e+000 -9.999999e-001  0.000000e+000
    outer loop
      vertex  5.095231e+000  7.812511e-001  9.500000e+001
      vertex  8.672715e+000  7.812511e-001  3.350000e+001
      vertex  9.068952e+000  7.812511e-001  8.500000e+001
    endloop
  endfacet
  facet normal  0.000000e+000 -1.000000e+000  0.000000e+000
    outer loop
      vertex  5.095231e+000  7.812511e-001  9.500000e+001
      vertex  9.068952e+000  7.812511e-001  8.500000e+001
      vertex  9.801185e+000  7.812511e-001  8.676777e+001
    endloop
  endfacet
  facet normal  0.000000e+000 -1.000000e+000  0.000000e+000
    outer loop
      vertex  5.095231e+000  7.812511e-001  9.500000e+001
      vertex  9.801185e+000  7.812511e-001  8.676777e+001
      vertex  1.156895e+001  7.812511e-001  8.750000e+001
    endloop
  endfacet
  facet normal  0.000000e+000 -1.000000e+000  0.000000e+000
    outer loop
      vertex  5.095231e+000  7.812511e-001  9.500000e+001
      vertex  1.156895e+001  7.812511e-001  8.750000e+001
      vertex  4.509523e+001  7.812511e-001  9.500000e+001
    endloop
  endfacet
  facet normal  0.000000e+000 -1.000000e+000  -0.000000e+000
    outer loop
      vertex  7.434307e+001  7.812511e-001  7.167563e+001
      vertex  7.212430e+001  7.812511e-001  7.801651e+001
      vertex  4.132960e+001  7.812511e-001  7.787870e+001
    endloop
  endfacet
  facet normal  0.000000e+000 -1.000000e+000  0.000000e+000
    outer loop
      vertex  7.434307e+001  7.812511e-001  7.167563e+001
      vertex  4.132960e+001  7.812511e-001  7.787870e+001
      vertex  4.307960e+001  7.812511e-001  7.660725e+001
    endloop
  endfacet
  facet normal  0.000000e+000 -9.999999e-001  0.000000e+000
    outer loop
      vertex  7.434307e+001  7.812511e-001  7.167563e+001
      vertex  4.307960e+001  7.812511e-001  7.660725e+001
      vertex  4.374804e+001  7.812511e-001  7.455000e+001
    endloop
  endfacet
  facet normal  0.000000e+000 -1.000000e+000  -0.000000e+000
    outer loop
      vertex  7.434307e+001  7.812511e-001  7.167563e+001
      vertex  4.374804e+001  7.812511e-001  7.455000e+001
      vertex  4.307960e+001  7.812511e-001  7.249275e+001
    endloop
  endfacet
  facet normal  0.000000e+000 -9.999999e-001  -0.000000e+000
    outer loop
      vertex  7.434307e+001  7.812511e-001  7.167563e+001
      vertex  4.307960e+001  7.812511e-001  7.249275e+001
      vertex  4.132960e+001  7.812511e-001  7.122131e+001
    endloop
  endfacet
  facet normal  0.000000e+000 -1.000000e+000  0.000000e+000
    outer loop
      vertex  7.207986e+001  7.812511e-001  3.289899e+001
      vertex  7.433562e+001  7.812511e-001  4.131759e+001
      vertex  4.132959e+001  7.812511e-001  4.007870e+001
    endloop
  endfacet
  facet normal  0.000000e+000 -1.000000e+000  0.000000e+000
    outer loop
      vertex  7.207986e+001  7.812511e-001  3.289899e+001
      vertex  4.132959e+001  7.812511e-001  4.007870e+001
      vertex  4.307959e+001  7.812511e-001  3.880725e+001
    endloop
  endfacet
  facet normal  0.000000e+000 -1.000000e+000  0.000000e+000
    outer loop
      vertex  7.207986e+001  7.812511e-001  3.289899e+001
      vertex  4.307959e+001  7.812511e-001  3.880725e+001
      vertex  4.374804e+001  7.812511e-001  3.675000e+001
    endloop
  endfacet
  facet normal  0.000000e+000 -1.000000e+000  -0.000000e+000
    outer loop
      vertex  7.207986e+001  7.812511e-001  3.289899e+001
      vertex  4.374804e+001  7.812511e-001  3.675000e+001
      vertex  4.307959e+001  7.812511e-001  3.469275e+001
    endloop
  endfacet
  facet normal  0.000000e+000 -1.000000e+000  -0.000000e+000
    outer loop
      vertex  7.207986e+001  7.812511e-001  3.289899e+001
      vertex  4.307959e+001  7.812511e-001  3.469275e+001
      vertex  4.132959e+001  7.812511e-001  3.342130e+001
    endloop
  endfacet
  facet normal  0.000000e+000 -1.000000e+000  0.000000e+000
    outer loop
      vertex  3.741648e+001  7.812511e-001  3.880725e+001
      vertex  1.507971e+001  7.812511e-001  1.623715e+001
      vertex  3.674804e+001  7.812511e-001  3.675000e+001
    endloop
  endfacet
  facet normal  0.000000e+000 -1.000000e+000  0.000000e+000
    outer loop
      vertex  3.674804e+001  7.812511e-001  3.675000e+001
      vertex  1.507971e+001  7.812511e-001  1.623715e+001
      vertex  1.618169e+001  7.812511e-001  1.656813e+001
    endloop
  endfacet
  facet normal  0.000000e+000 -9.999999e-001  0.000000e+000
    outer loop
      vertex  3.916648e+001  7.812511e-001  7.122131e+001
      vertex  1.009523e+001  7.812511e-001  6.500000e+001
      vertex  4.132960e+001  7.812511e-001  7.122131e+001
    endloop
  endfacet
  facet normal  0.000000e+000 -1.000000e+000  -0.000000e+000
    outer loop
      vertex  4.132960e+001  7.812511e-001  7.122131e+001
      vertex  1.009523e+001  7.812511e-001  6.500000e+001
      vertex  7.009523e+001  7.812511e-001  6.500000e+001
    endloop
  endfacet
  facet normal  -0.000000e+000 -9.999999e-001  0.000000e+000
    outer loop
      vertex  3.377764e+001  7.812511e-001  7.596123e-001
      vertex  4.219624e+001  7.812511e-001  3.015369e+000
      vertex  3.335658e+001  7.812511e-001  1.421035e+001
    endloop
  endfacet
  facet normal  0.000000e+000 -1.000000e+000  0.000000e+000
    outer loop
      vertex  3.335658e+001  7.812511e-001  1.421035e+001
      vertex  4.219624e+001  7.812511e-001  3.015369e+000
      vertex  3.916648e+001  7.812511e-001  3.342130e+001
    endloop
  endfacet
  facet normal  -0.000000e+000 -1.000000e+000  0.000000e+000
    outer loop
      vertex  4.219624e+001  7.812511e-001  3.015369e+000
      vertex  7.207986e+001  7.812511e-001  3.289899e+001
      vertex  3.916648e+001  7.812511e-001  3.342130e+001
    endloop
  endfacet
  facet normal  0.000000e+000 -1.000000e+000  0.000000e+000
    outer loop
      vertex  3.916648e+001  7.812511e-001  3.342130e+001
      vertex  7.207986e+001  7.812511e-001  3.289899e+001
      vertex  4.132959e+001  7.812511e-001  3.342130e+001
    endloop
  endfacet
  facet normal  0.000000e+000 -9.999999e-001  0.000000e+000
    outer loop
      vertex  7.509523e+001  7.812511e-001  5.000000e+001
      vertex  7.009523e+001  7.812511e-001  4.600000e+001
      vertex  7.433562e+001  7.812511e-001  4.131759e+001
    endloop
  endfacet
  facet normal  -0.000000e+000 -1.000000e+000  0.000000e+000
    outer loop
      vertex  7.433562e+001  7.812511e-001  4.131759e+001
      vertex  7.009523e+001  7.812511e-001  4.600000e+001
      vertex  3.916648e+001  7.812511e-001  4.007870e+001
    endloop
  endfacet
  facet normal  0.000000e+000 -1.000000e+000  0.000000e+000
    outer loop
      vertex  7.433562e+001  7.812511e-001  4.131759e+001
      vertex  3.916648e+001  7.812511e-001  4.007870e+001
      vertex  4.132959e+001  7.812511e-001  4.007870e+001
    endloop
  endfacet
  facet normal  -0.000000e+000  1.000000e+000  0.000000e+000
    outer loop
      vertex  3.335658e+001  2.781251e+000  1.421035e+001
      vertex  3.322807e+001  2.781251e+000  1.535377e+001
      vertex  3.916648e+001  2.781251e+000  3.342130e+001
    endloop
  endfacet
  facet normal  0.000000e+000  1.000000e+000  -0.000000e+000
    outer loop
      vertex  3.916648e+001  2.781251e+000  3.342130e+001
      vertex  3.322807e+001  2.781251e+000  1.535377e+001
      vertex  3.249082e+001  2.781251e+000  1.623715e+001
    endloop
  endfacet
  facet normal  0.000000e+000  1.000000e+000  0.000000e+000
    outer loop
      vertex  1.117272e+001  2.781251e+000  3.100000e+001
      vertex  3.916648e+001  2.781251e+000  4.007870e+001
      vertex  3.741648e+001  2.781251e+000  3.880725e+001
    endloop
  endfacet
  facet normal  0.000000e+000  9.999999e-001  0.000000e+000
    outer loop
      vertex  1.117272e+001  2.781251e+000  3.100000e+001
      vertex  3.741648e+001  2.781251e+000  3.880725e+001
      vertex  1.507971e+001  2.781251e+000  1.623715e+001
    endloop
  endfacet
  facet normal  0.000000e+000  1.000000e+000  0.000000e+000
    outer loop
      vertex  1.117272e+001  2.781251e+000  3.100000e+001
      vertex  1.507971e+001  2.781251e+000  1.623715e+001
      vertex  1.434246e+001  2.781251e+000  1.535377e+001
    endloop
  endfacet
  facet normal  0.000000e+000  1.000000e+000  0.000000e+000
    outer loop
      vertex  3.674804e+001  2.781251e+000  7.455000e+001
      vertex  3.741648e+001  2.781251e+000  7.249275e+001
      vertex  1.406895e+001  2.781251e+000  8.500000e+001
    endloop
  endfacet
  facet normal  -0.000000e+000  1.000000e+000  -0.000000e+000
    outer loop
      vertex  3.674804e+001  2.781251e+000  7.455000e+001
      vertex  1.406895e+001  2.781251e+000  8.500000e+001
      vertex  1.333672e+001  2.781251e+000  8.676777e+001
    endloop
  endfacet
  facet normal  0.000000e+000  1.000000e+000  0.000000e+000
    outer loop
      vertex  3.674804e+001  2.781251e+000  7.455000e+001
      vertex  1.333672e+001  2.781251e+000  8.676777e+001
      vertex  3.741648e+001  2.781251e+000  7.660725e+001
    endloop
  endfacet
  facet normal  0.000000e+000  1.000000e+000  0.000000e+000
    outer loop
      vertex  1.009523e+001  2.781251e+000  6.500000e+001
      vertex  8.672715e+000  2.781251e+000  3.350000e+001
      vertex  9.068952e+000  2.781251e+000  8.500000e+001
    endloop
  endfacet
  facet normal  0.000000e+000  1.000000e+000  0.000000e+000
    outer loop
      vertex  1.009523e+001  2.781251e+000  6.500000e+001
      vertex  9.068952e+000  2.781251e+000  8.500000e+001
      vertex  9.801185e+000  2.781251e+000  8.323223e+001
    endloop
  endfacet
  facet normal  0.000000e+000  1.000000e+000  0.000000e+000
    outer loop
      vertex  1.009523e+001  2.781251e+000  6.500000e+001
      vertex  9.801185e+000  2.781251e+000  8.323223e+001
      vertex  1.156895e+001  2.781251e+000  8.250000e+001
    endloop
  endfacet
  facet normal  0.000000e+000  1.000000e+000  0.000000e+000
    outer loop
      vertex  1.009523e+001  2.781251e+000  6.500000e+001
      vertex  1.156895e+001  2.781251e+000  8.250000e+001
      vertex  3.916648e+001  2.781251e+000  7.122131e+001
    endloop
  endfacet
  facet normal  0.000000e+000  1.000000e+000  0.000000e+000
    outer loop
      vertex  1.009523e+001  2.781251e+000  4.600000e+001
      vertex  7.009523e+001  2.781251e+000  4.600000e+001
      vertex  3.916648e+001  2.781251e+000  4.007870e+001
    endloop
  endfacet
  facet normal  0.000000e+000  1.000000e+000  0.000000e+000
    outer loop
      vertex  1.009523e+001  2.781251e+000  4.600000e+001
      vertex  3.916648e+001  2.781251e+000  4.007870e+001
      vertex  1.117272e+001  2.781251e+000  3.100000e+001
    endloop
  endfacet
  facet normal  0.000000e+000  1.000000e+000  0.000000e+000
    outer loop
      vertex  1.009523e+001  2.781251e+000  4.600000e+001
      vertex  1.117272e+001  2.781251e+000  3.100000e+001
      vertex  1.044048e+001  2.781251e+000  3.276777e+001
    endloop
  endfacet
  facet normal  0.000000e+000  9.999999e-001  0.000000e+000
    outer loop
      vertex  1.009523e+001  2.781251e+000  4.600000e+001
      vertex  1.044048e+001  2.781251e+000  3.276777e+001
      vertex  8.672715e+000  2.781251e+000  3.350000e+001
    endloop
  endfacet
  facet normal  0.000000e+000  1.000000e+000  0.000000e+000
    outer loop
      vertex  1.009523e+001  2.781251e+000  4.600000e+001
      vertex  8.672715e+000  2.781251e+000  3.350000e+001
      vertex  1.009523e+001  2.781251e+000  6.500000e+001
    endloop
  endfacet
  facet normal  0.000000e+000  9.999999e-001  0.000000e+000
    outer loop
      vertex  1.421395e+001  2.781251e+000  1.421035e+001
      vertex  1.548668e+001  2.781251e+000  7.210355e+000
      vertex  8.672715e+000  2.781251e+000  2.850000e+001
    endloop
  endfacet
  facet normal  -0.000000e+000  1.000000e+000  0.000000e+000
    outer loop
      vertex  1.421395e+001  2.781251e+000  1.421035e+001
      vertex  8.672715e+000  2.781251e+000  2.850000e+001
      vertex  1.044048e+001  2.781251e+000  2.923223e+001
    endloop
  endfacet
  facet normal  -0.000000e+000  1.000000e+000  0.000000e+000
    outer loop
      vertex  1.421395e+001  2.781251e+000  1.421035e+001
      vertex  1.044048e+001  2.781251e+000  2.923223e+001
      vertex  1.117272e+001  2.781251e+000  3.100000e+001
    endloop
  endfacet
  facet normal  0.000000e+000  1.000000e+000  0.000000e+000
    outer loop
      vertex  1.421395e+001  2.781251e+000  1.421035e+001
      vertex  1.117272e+001  2.781251e+000  3.100000e+001
      vertex  1.434246e+001  2.781251e+000  1.535377e+001
    endloop
  endfacet
  facet normal  0.000000e+000  1.000000e+000  0.000000e+000
    outer loop
      vertex  3.138884e+001  2.781251e+000  1.656813e+001
      vertex  1.618169e+001  2.781251e+000  1.656813e+001
      vertex  3.674804e+001  2.781251e+000  3.675000e+001
    endloop
  endfacet
  facet normal  0.000000e+000  1.000000e+000  0.000000e+000
    outer loop
      vertex  3.138884e+001  2.781251e+000  1.656813e+001
      vertex  3.674804e+001  2.781251e+000  3.675000e+001
      vertex  3.741648e+001  2.781251e+000  3.469275e+001
    endloop
  endfacet
  facet normal  0.000000e+000  9.999999e-001  0.000000e+000
    outer loop
      vertex  3.138884e+001  2.781251e+000  1.656813e+001
      vertex  3.741648e+001  2.781251e+000  3.469275e+001
      vertex  3.916648e+001  2.781251e+000  3.342130e+001
    endloop
  endfacet
  facet normal  0.000000e+000  9.999999e-001  0.000000e+000
    outer loop
      vertex  3.138884e+001  2.781251e+000  1.656813e+001
      vertex  3.916648e+001  2.781251e+000  3.342130e+001
      vertex  3.249082e+001  2.781251e+000  1.623715e+001
    endloop
  endfacet
  facet normal  0.000000e+000  1.000000e+000  0.000000e+000
    outer loop
      vertex  0.000000e+000  2.781251e+000  0.000000e+000
      vertex  6.172715e+000  2.781251e+000  3.100000e+001
      vertex  6.904948e+000  2.781251e+000  2.923223e+001
    endloop
  endfacet
  facet normal  0.000000e+000  1.000000e+000  0.000000e+000
    outer loop
      vertex  0.000000e+000  2.781251e+000  0.000000e+000
      vertex  6.904948e+000  2.781251e+000  2.923223e+001
      vertex  8.672715e+000  2.781251e+000  2.850000e+001
    endloop
  endfacet
  facet normal  0.000000e+000  1.000000e+000  0.000000e+000
    outer loop
      vertex  0.000000e+000  2.781251e+000  0.000000e+000
      vertex  8.672715e+000  2.781251e+000  2.850000e+001
      vertex  1.548668e+001  2.781251e+000  7.210355e+000
    endloop
  endfacet
  facet normal  0.000000e+000  1.000000e+000  0.000000e+000
    outer loop
      vertex  0.000000e+000  2.781251e+000  0.000000e+000
      vertex  1.548668e+001  2.781251e+000  7.210355e+000
      vertex  1.617292e+001  2.781251e+000  6.032622e+000
    endloop
  endfacet
  facet normal  0.000000e+000  1.000000e+000  0.000000e+000
    outer loop
      vertex  2.509523e+001  2.781251e+000  0.000000e+000
      vertex  0.000000e+000  2.781251e+000  0.000000e+000
      vertex  1.617292e+001  2.781251e+000  6.032622e+000
    endloop
  endfacet
  facet normal  0.000000e+000  1.000000e+000  0.000000e+000
    outer loop
      vertex  2.509523e+001  2.781251e+000  0.000000e+000
      vertex  1.617292e+001  2.781251e+000  6.032622e+000
      vertex  1.745442e+001  2.781251e+000  5.568126e+000
    endloop
  endfacet
  facet normal  -0.000000e+000  1.000000e+000  0.000000e+000
    outer loop
      vertex  2.509523e+001  2.781251e+000  0.000000e+000
      vertex  1.745442e+001  2.781251e+000  5.568126e+000
      vertex  3.011611e+001  2.781251e+000  5.568126e+000
    endloop
  endfacet
  facet normal  0.000000e+000  1.000000e+000  0.000000e+000
    outer loop
      vertex  2.509523e+001  2.781251e+000  0.000000e+000
      vertex  3.011611e+001  2.781251e+000  5.568126e+000
      vertex  3.377764e+001  2.781251e+000  7.596123e-001
    endloop
  endfacet
  facet normal  0.000000e+000  1.000000e+000  -0.000000e+000
    outer loop
      vertex  7.509523e+001  2.781251e+000  6.500000e+001
      vertex  7.509523e+001  2.781251e+000  5.000000e+001
      vertex  7.009523e+001  2.781251e+000  4.600000e+001
    endloop
  endfacet
  facet normal  0.000000e+000  1.000000e+000  0.000000e+000
    outer loop
      vertex  7.509523e+001  2.781251e+000  6.500000e+001
      vertex  7.009523e+001  2.781251e+000  4.600000e+001
      vertex  7.009523e+001  2.781251e+000  6.500000e+001
    endloop
  endfacet
  facet normal  0.000000e+000  9.999999e-001  -0.000000e+000
    outer loop
      vertex  7.509523e+001  2.781251e+000  6.500000e+001
      vertex  7.009523e+001  2.781251e+000  6.500000e+001
      vertex  4.132960e+001  2.781251e+000  7.122131e+001
    endloop
  endfacet
  facet normal  -0.000000e+000  1.000000e+000  0.000000e+000
    outer loop
      vertex  7.509523e+001  2.781251e+000  6.500000e+001
      vertex  4.132960e+001  2.781251e+000  7.122131e+001
      vertex  7.434307e+001  2.781251e+000  7.167563e+001
    endloop
  endfacet
  facet normal  0.000000e+000  1.000000e+000  0.000000e+000
    outer loop
      vertex  4.509523e+001  2.781251e+000  9.500000e+001
      vertex  7.212430e+001  2.781251e+000  7.801651e+001
      vertex  4.132960e+001  2.781251e+000  7.787870e+001
    endloop
  endfacet
  facet normal  0.000000e+000  1.000000e+000  -0.000000e+000
    outer loop
      vertex  4.509523e+001  2.781251e+000  9.500000e+001
      vertex  4.132960e+001  2.781251e+000  7.787870e+001
      vertex  3.916648e+001  2.781251e+000  7.787870e+001
    endloop
  endfacet
  facet normal  0.000000e+000  9.999999e-001  -0.000000e+000
    outer loop
      vertex  4.509523e+001  2.781251e+000  9.500000e+001
      vertex  3.916648e+001  2.781251e+000  7.787870e+001
      vertex  3.741648e+001  2.781251e+000  7.660725e+001
    endloop
  endfacet
  facet normal  0.000000e+000  9.999999e-001  -0.000000e+000
    outer loop
      vertex  4.509523e+001  2.781251e+000  9.500000e+001
      vertex  3.741648e+001  2.781251e+000  7.660725e+001
      vertex  1.333672e+001  2.781251e+000  8.676777e+001
    endloop
  endfacet
  facet normal  0.000000e+000  1.000000e+000  -0.000000e+000
    outer loop
      vertex  4.509523e+001  2.781251e+000  9.500000e+001
      vertex  1.333672e+001  2.781251e+000  8.676777e+001
      vertex  1.156895e+001  2.781251e+000  8.750000e+001
    endloop
  endfacet
  facet normal  -0.000000e+000  1.000000e+000  0.000000e+000
    outer loop
      vertex  3.377764e+001  2.781251e+000  7.596123e-001
      vertex  3.011611e+001  2.781251e+000  5.568126e+000
      vertex  3.139761e+001  2.781251e+000  6.032622e+000
    endloop
  endfacet
  facet normal  -0.000000e+000  1.000000e+000  0.000000e+000
    outer loop
      vertex  3.377764e+001  2.781251e+000  7.596123e-001
      vertex  3.139761e+001  2.781251e+000  6.032622e+000
      vertex  3.208385e+001  2.781251e+000  7.210355e+000
    endloop
  endfacet
  facet normal  -0.000000e+000  1.000000e+000  0.000000e+000
    outer loop
      vertex  3.377764e+001  2.781251e+000  7.596123e-001
      vertex  3.208385e+001  2.781251e+000  7.210355e+000
      vertex  3.335658e+001  2.781251e+000  1.421035e+001
    endloop
  endfacet
  facet normal  0.000000e+000  1.000000e+000  -0.000000e+000
    outer loop
      vertex  7.207986e+001  2.781251e+000  3.289899e+001
      vertex  6.839650e+001  2.781251e+000  2.500000e+001
      vertex  6.339745e+001  2.781251e+000  1.786062e+001
    endloop
  endfacet
  facet normal  0.000000e+000  1.000000e+000  -0.000000e+000
    outer loop
      vertex  7.207986e+001  2.781251e+000  3.289899e+001
      vertex  6.339745e+001  2.781251e+000  1.786062e+001
      vertex  5.723461e+001  2.781251e+000  1.169778e+001
    endloop
  endfacet
  facet normal  0.000000e+000  1.000000e+000  -0.000000e+000
    outer loop
      vertex  7.207986e+001  2.781251e+000  3.289899e+001
      vertex  5.723461e+001  2.781251e+000  1.169778e+001
      vertex  5.009523e+001  2.781251e+000  6.698730e+000
    endloop
  endfacet
  facet normal  0.000000e+000  1.000000e+000  -0.000000e+000
    outer loop
      vertex  7.207986e+001  2.781251e+000  3.289899e+001
      vertex  5.009523e+001  2.781251e+000  6.698730e+000
      vertex  4.219624e+001  2.781251e+000  3.015369e+000
    endloop
  endfacet
  facet normal  -0.000000e+000  9.999999e-001  0.000000e+000
    outer loop
      vertex  3.916648e+001  2.781251e+000  7.122131e+001
      vertex  1.156895e+001  2.781251e+000  8.250000e+001
      vertex  1.333672e+001  2.781251e+000  8.323223e+001
    endloop
  endfacet
  facet normal  -0.000000e+000  1.000000e+000  0.000000e+000
    outer loop
      vertex  3.916648e+001  2.781251e+000  7.122131e+001
      vertex  1.333672e+001  2.781251e+000  8.323223e+001
      vertex  1.406895e+001  2.781251e+000  8.500000e+001
    endloop
  endfacet
  facet normal  0.000000e+000  1.000000e+000  0.000000e+000
    outer loop
      vertex  3.916648e+001  2.781251e+000  7.122131e+001
      vertex  1.406895e+001  2.781251e+000  8.500000e+001
      vertex  3.741648e+001  2.781251e+000  7.249275e+001
    endloop
  endfacet
  facet normal  0.000000e+000  1.000000e+000  0.000000e+000
    outer loop
      vertex  7.212430e+001  2.781251e+000  7.801651e+001
      vertex  4.509523e+001  2.781251e+000  9.500000e+001
      vertex  5.177086e+001  2.781251e+000  9.424784e+001
    endloop
  endfacet
  facet normal  0.000000e+000  1.000000e+000  0.000000e+000
    outer loop
      vertex  7.212430e+001  2.781251e+000  7.801651e+001
      vertex  5.177086e+001  2.781251e+000  9.424784e+001
      vertex  5.811174e+001  2.781251e+000  9.202907e+001
    endloop
  endfacet
  facet normal  0.000000e+000  9.999999e-001  0.000000e+000
    outer loop
      vertex  7.212430e+001  2.781251e+000  7.801651e+001
      vertex  5.811174e+001  2.781251e+000  9.202907e+001
      vertex  6.379992e+001  2.781251e+000  8.845494e+001
    endloop
  endfacet
  facet normal  0.000000e+000  1.000000e+000  0.000000e+000
    outer loop
      vertex  7.212430e+001  2.781251e+000  7.801651e+001
      vertex  6.379992e+001  2.781251e+000  8.845494e+001
      vertex  6.855018e+001  2.781251e+000  8.370470e+001
    endloop
  endfacet
  facet normal  0.000000e+000  1.000000e+000  0.000000e+000
    outer loop
      vertex  5.095231e+000  2.781251e+000  9.500000e+001
      vertex  4.509523e+001  2.781251e+000  9.500000e+001
      vertex  1.156895e+001  2.781251e+000  8.750000e+001
    endloop
  endfacet
  facet normal  0.000000e+000  1.000000e+000  0.000000e+000
    outer loop
      vertex  5.095231e+000  2.781251e+000  9.500000e+001
      vertex  1.156895e+001  2.781251e+000  8.750000e+001
      vertex  9.801185e+000  2.781251e+000  8.676777e+001
    endloop
  endfacet
  facet normal  0.000000e+000  1.000000e+000  0.000000e+000
    outer loop
      vertex  5.095231e+000  2.781251e+000  9.500000e+001
      vertex  9.801185e+000  2.781251e+000  8.676777e+001
      vertex  9.068952e+000  2.781251e+000  8.500000e+001
    endloop
  endfacet
  facet normal  0.000000e+000  9.999999e-001  0.000000e+000
    outer loop
      vertex  5.095231e+000  2.781251e+000  9.500000e+001
      vertex  9.068952e+000  2.781251e+000  8.500000e+001
      vertex  8.672715e+000  2.781251e+000  3.350000e+001
    endloop
  endfacet
  facet normal  0.000000e+000  1.000000e+000  0.000000e+000
    outer loop
      vertex  5.095231e+000  2.781251e+000  9.500000e+001
      vertex  8.672715e+000  2.781251e+000  3.350000e+001
      vertex  6.904948e+000  2.781251e+000  3.276777e+001
    endloop
  endfacet
  facet normal  0.000000e+000  1.000000e+000  0.000000e+000
    outer loop
      vertex  5.095231e+000  2.781251e+000  9.500000e+001
      vertex  6.904948e+000  2.781251e+000  3.276777e+001
      vertex  6.172715e+000  2.781251e+000  3.100000e+001
    endloop
  endfacet
  facet normal  0.000000e+000  9.999999e-001  0.000000e+000
    outer loop
      vertex  5.095231e+000  2.781251e+000  9.500000e+001
      vertex  6.172715e+000  2.781251e+000  3.100000e+001
      vertex  0.000000e+000  2.781251e+000  0.000000e+000
    endloop
  endfacet
  facet normal  0.000000e+000  9.999999e-001  0.000000e+000
    outer loop
      vertex  7.434307e+001  2.781251e+000  7.167563e+001
      vertex  4.132960e+001  2.781251e+000  7.122131e+001
      vertex  4.307960e+001  2.781251e+000  7.249275e+001
    endloop
  endfacet
  facet normal  -0.000000e+000  1.000000e+000  0.000000e+000
    outer loop
      vertex  7.434307e+001  2.781251e+000  7.167563e+001
      vertex  4.307960e+001  2.781251e+000  7.249275e+001
      vertex  4.374804e+001  2.781251e+000  7.455000e+001
    endloop
  endfacet
  facet normal  -0.000000e+000  9.999999e-001  -0.000000e+000
    outer loop
      vertex  7.434307e+001  2.781251e+000  7.167563e+001
      vertex  4.374804e+001  2.781251e+000  7.455000e+001
      vertex  4.307960e+001  2.781251e+000  7.660725e+001
    endloop
  endfacet
  facet normal  -0.000000e+000  1.000000e+000  -0.000000e+000
    outer loop
      vertex  7.434307e+001  2.781251e+000  7.167563e+001
      vertex  4.307960e+001  2.781251e+000  7.660725e+001
      vertex  4.132960e+001  2.781251e+000  7.787870e+001
    endloop
  endfacet
  facet normal  -0.000000e+000  1.000000e+000  0.000000e+000
    outer loop
      vertex  7.434307e+001  2.781251e+000  7.167563e+001
      vertex  4.132960e+001  2.781251e+000  7.787870e+001
      vertex  7.212430e+001  2.781251e+000  7.801651e+001
    endloop
  endfacet
  facet normal  -0.000000e+000  1.000000e+000  0.000000e+000
    outer loop
      vertex  7.207986e+001  2.781251e+000  3.289899e+001
      vertex  4.132959e+001  2.781251e+000  3.342130e+001
      vertex  4.307959e+001  2.781251e+000  3.469275e+001
    endloop
  endfacet
  facet normal  -0.000000e+000  1.000000e+000  0.000000e+000
    outer loop
      vertex  7.207986e+001  2.781251e+000  3.289899e+001
      vertex  4.307959e+001  2.781251e+000  3.469275e+001
      vertex  4.374804e+001  2.781251e+000  3.675000e+001
    endloop
  endfacet
  facet normal  -0.000000e+000  1.000000e+000  -0.000000e+000
    outer loop
      vertex  7.207986e+001  2.781251e+000  3.289899e+001
      vertex  4.374804e+001  2.781251e+000  3.675000e+001
      vertex  4.307959e+001  2.781251e+000  3.880725e+001
    endloop
  endfacet
  facet normal  -0.000000e+000  1.000000e+000  -0.000000e+000
    outer loop
      vertex  7.207986e+001  2.781251e+000  3.289899e+001
      vertex  4.307959e+001  2.781251e+000  3.880725e+001
      vertex  4.132959e+001  2.781251e+000  4.007870e+001
    endloop
  endfacet
  facet normal  -0.000000e+000  1.000000e+000  0.000000e+000
    outer loop
      vertex  7.207986e+001  2.781251e+000  3.289899e+001
      vertex  4.132959e+001  2.781251e+000  4.007870e+001
      vertex  7.433562e+001  2.781251e+000  4.131759e+001
    endloop
  endfacet
  facet normal  0.000000e+000  1.000000e+000  -0.000000e+000
    outer loop
      vertex  3.741648e+001  2.781251e+000  3.880725e+001
      vertex  3.674804e+001  2.781251e+000  3.675000e+001
      vertex  1.507971e+001  2.781251e+000  1.623715e+001
    endloop
  endfacet
  facet normal  0.000000e+000  1.000000e+000  0.000000e+000
    outer loop
      vertex  1.507971e+001  2.781251e+000  1.623715e+001
      vertex  3.674804e+001  2.781251e+000  3.675000e+001
      vertex  1.618169e+001  2.781251e+000  1.656813e+001
    endloop
  endfacet
  facet normal  0.000000e+000  9.999999e-001  0.000000e+000
    outer loop
      vertex  3.916648e+001  2.781251e+000  7.122131e+001
      vertex  4.132960e+001  2.781251e+000  7.122131e+001
      vertex  1.009523e+001  2.781251e+000  6.500000e+001
    endloop
  endfacet
  facet normal  0.000000e+000  1.000000e+000  0.000000e+000
    outer loop
      vertex  1.009523e+001  2.781251e+000  6.500000e+001
      vertex  4.132960e+001  2.781251e+000  7.122131e+001
      vertex  7.009523e+001  2.781251e+000  6.500000e+001
    endloop
  endfacet
  facet normal  0.000000e+000  1.000000e+000  0.000000e+000
    outer loop
      vertex  3.377764e+001  2.781251e+000  7.596123e-001
      vertex  3.335658e+001  2.781251e+000  1.421035e+001
      vertex  4.219624e+001  2.781251e+000  3.015369e+000
    endloop
  endfacet
  facet normal  0.000000e+000  1.000000e+000  0.000000e+000
    outer loop
      vertex  4.219624e+001  2.781251e+000  3.015369e+000
      vertex  3.335658e+001  2.781251e+000  1.421035e+001
      vertex  3.916648e+001  2.781251e+000  3.342130e+001
    endloop
  endfacet
  facet normal  0.000000e+000  1.000000e+000  0.000000e+000
    outer loop
      vertex  4.219624e+001  2.781251e+000  3.015369e+000
      vertex  3.916648e+001  2.781251e+000  3.342130e+001
      vertex  7.207986e+001  2.781251e+000  3.289899e+001
    endloop
  endfacet
  facet normal  0.000000e+000  1.000000e+000  0.000000e+000
    outer loop
      vertex  7.207986e+001  2.781251e+000  3.289899e+001
      vertex  3.916648e+001  2.781251e+000  3.342130e+001
      vertex  4.132959e+001  2.781251e+000  3.342130e+001
    endloop
  endfacet
  facet normal  0.000000e+000  1.000000e+000  0.000000e+000
    outer loop
      vertex  4.132959e+001  2.781251e+000  4.007870e+001
      vertex  3.916648e+001  2.781251e+000  4.007870e+001
      vertex  7.433562e+001  2.781251e+000  4.131759e+001
    endloop
  endfacet
  facet normal  0.000000e+000  1.000000e+000  0.000000e+000
    outer loop
      vertex  7.433562e+001  2.781251e+000  4.131759e+001
      vertex  3.916648e+001  2.781251e+000  4.007870e+001
      vertex  7.009523e+001  2.781251e+000  4.600000e+001
    endloop
  endfacet
  facet normal  -0.000000e+000  9.999999e-001  0.000000e+000
    outer loop
      vertex  7.433562e+001  2.781251e+000  4.131759e+001
      vertex  7.009523e+001  2.781251e+000  4.600000e+001
      vertex  7.509523e+001  2.781251e+000  5.000000e+001
    endloop
  endfacet
  facet normal  3.826834e-001  0.000000e+000  9.238794e-001
    outer loop
      vertex  8.672715e+000  7.812511e-001  2.850000e+001
      vertex  6.904948e+000  2.781251e+000  2.923223e+001
      vertex  6.904948e+000  7.812511e-001  2.923223e+001
    endloop
  endfacet
  facet normal  9.238794e-001  -0.000000e+000  3.826834e-001
    outer loop
      vertex  6.904948e+000  7.812511e-001  2.923223e+001
      vertex  6.904948e+000  2.781251e+000  2.923223e+001
      vertex  6.172715e+000  2.781251e+000  3.100000e+001
    endloop
  endfacet
  facet normal  9.238794e-001  0.000000e+000  3.826834e-001
    outer loop
      vertex  6.904948e+000  7.812511e-001  2.923223e+001
      vertex  6.172715e+000  2.781251e+000  3.100000e+001
      vertex  6.172715e+000  7.812511e-001  3.100000e+001
    endloop
  endfacet
  facet normal  3.826834e-001  -0.000000e+000  9.238794e-001
    outer loop
      vertex  6.904948e+000  2.781251e+000  2.923223e+001
      vertex  8.672715e+000  7.812511e-001  2.850000e+001
      vertex  8.672715e+000  2.781251e+000  2.850000e+001
    endloop
  endfacet
  facet normal -3.826834e-001  0.000000e+000  9.238794e-001
    outer loop
      vertex  8.672715e+000  2.781251e+000  2.850000e+001
      vertex  8.672715e+000  7.812511e-001  2.850000e+001
      vertex  1.044048e+001  7.812511e-001  2.923223e+001
    endloop
  endfacet
  facet normal -3.826834e-001  0.000000e+000  9.238794e-001
    outer loop
      vertex  8.672715e+000  2.781251e+000  2.850000e+001
      vertex  1.044048e+001  7.812511e-001  2.923223e+001
      vertex  1.044048e+001  2.781251e+000  2.923223e+001
    endloop
  endfacet
  facet normal -9.238794e-001  0.000000e+000  3.826834e-001
    outer loop
      vertex  1.044048e+001  2.781251e+000  2.923223e+001
      vertex  1.044048e+001  7.812511e-001  2.923223e+001
      vertex  1.117272e+001  7.812511e-001  3.100000e+001
    endloop
  endfacet
  facet normal -9.238794e-001  0.000000e+000  3.826834e-001
    outer loop
      vertex  1.044048e+001  2.781251e+000  2.923223e+001
      vertex  1.117272e+001  7.812511e-001  3.100000e+001
      vertex  1.117272e+001  2.781251e+000  3.100000e+001
    endloop
  endfacet
  facet normal -3.826826e-001  -0.000000e+000 -9.238799e-001
    outer loop
      vertex  8.672715e+000  7.812511e-001  3.350000e+001
      vertex  1.044048e+001  2.781251e+000  3.276777e+001
      vertex  1.044048e+001  7.812511e-001  3.276777e+001
    endloop
  endfacet
  facet normal -9.238797e-001  0.000000e+000 -3.826831e-001
    outer loop
      vertex  1.044048e+001  7.812511e-001  3.276777e+001
      vertex  1.044048e+001  2.781251e+000  3.276777e+001
      vertex  1.117272e+001  2.781251e+000  3.100000e+001
    endloop
  endfacet
  facet normal -9.238797e-001  -0.000000e+000 -3.826831e-001
    outer loop
      vertex  1.044048e+001  7.812511e-001  3.276777e+001
      vertex  1.117272e+001  2.781251e+000  3.100000e+001
      vertex  1.117272e+001  7.812511e-001  3.100000e+001
    endloop
  endfacet
  facet normal -3.826826e-001  0.000000e+000 -9.238799e-001
    outer loop
      vertex  1.044048e+001  2.781251e+000  3.276777e+001
      vertex  8.672715e+000  7.812511e-001  3.350000e+001
      vertex  8.672715e+000  2.781251e+000  3.350000e+001
    endloop
  endfacet
  facet normal  3.826826e-001  0.000000e+000 -9.238799e-001
    outer loop
      vertex  8.672715e+000  2.781251e+000  3.350000e+001
      vertex  8.672715e+000  7.812511e-001  3.350000e+001
      vertex  6.904948e+000  7.812511e-001  3.276777e+001
    endloop
  endfacet
  facet normal  3.826826e-001  0.000000e+000 -9.238799e-001
    outer loop
      vertex  8.672715e+000  2.781251e+000  3.350000e+001
      vertex  6.904948e+000  7.812511e-001  3.276777e+001
      vertex  6.904948e+000  2.781251e+000  3.276777e+001
    endloop
  endfacet
  facet normal  9.238797e-001  0.000000e+000 -3.826831e-001
    outer loop
      vertex  6.904948e+000  2.781251e+000  3.276777e+001
      vertex  6.904948e+000  7.812511e-001  3.276777e+001
      vertex  6.172715e+000  7.812511e-001  3.100000e+001
    endloop
  endfacet
  facet normal  9.238797e-001  0.000000e+000 -3.826831e-001
    outer loop
      vertex  6.904948e+000  2.781251e+000  3.276777e+001
      vertex  6.172715e+000  7.812511e-001  3.100000e+001
      vertex  6.172715e+000  2.781251e+000  3.100000e+001
    endloop
  endfacet
  facet normal  3.826826e-001  0.000000e+000  9.238799e-001
    outer loop
      vertex  1.156895e+001  7.812511e-001  8.250000e+001
      vertex  9.801185e+000  2.781251e+000  8.323223e+001
      vertex  9.801185e+000  7.812511e-001  8.323223e+001
    endloop
  endfacet
  facet normal  9.238797e-001  -0.000000e+000  3.826831e-001
    outer loop
      vertex  9.801185e+000  7.812511e-001  8.323223e+001
      vertex  9.801185e+000  2.781251e+000  8.323223e+001
      vertex  9.068952e+000  2.781251e+000  8.500000e+001
    endloop
  endfacet
  facet normal  9.238797e-001  0.000000e+000  3.826831e-001
    outer loop
      vertex  9.801185e+000  7.812511e-001  8.323223e+001
      vertex  9.068952e+000  2.781251e+000  8.500000e+001
      vertex  9.068952e+000  7.812511e-001  8.500000e+001
    endloop
  endfacet
  facet normal  3.826826e-001  -0.000000e+000  9.238799e-001
    outer loop
      vertex  9.801185e+000  2.781251e+000  8.323223e+001
      vertex  1.156895e+001  7.812511e-001  8.250000e+001
      vertex  1.156895e+001  2.781251e+000  8.250000e+001
    endloop
  endfacet
  facet normal -3.826826e-001  0.000000e+000  9.238799e-001
    outer loop
      vertex  1.156895e+001  2.781251e+000  8.250000e+001
      vertex  1.156895e+001  7.812511e-001  8.250000e+001
      vertex  1.333672e+001  7.812511e-001  8.323223e+001
    endloop
  endfacet
  facet normal -3.826826e-001  0.000000e+000  9.238799e-001
    outer loop
      vertex  1.156895e+001  2.781251e+000  8.250000e+001
      vertex  1.333672e+001  7.812511e-001  8.323223e+001
      vertex  1.333672e+001  2.781251e+000  8.323223e+001
    endloop
  endfacet
  facet normal -9.238797e-001  0.000000e+000  3.826831e-001
    outer loop
      vertex  1.333672e+001  2.781251e+000  8.323223e+001
      vertex  1.333672e+001  7.812511e-001  8.323223e+001
      vertex  1.406895e+001  7.812511e-001  8.500000e+001
    endloop
  endfacet
  facet normal -9.238797e-001  0.000000e+000  3.826831e-001
    outer loop
      vertex  1.333672e+001  2.781251e+000  8.323223e+001
      vertex  1.406895e+001  7.812511e-001  8.500000e+001
      vertex  1.406895e+001  2.781251e+000  8.500000e+001
    endloop
  endfacet
  facet normal -3.826826e-001  -0.000000e+000 -9.238799e-001
    outer loop
      vertex  1.156895e+001  7.812511e-001  8.750000e+001
      vertex  1.333672e+001  2.781251e+000  8.676777e+001
      vertex  1.333672e+001  7.812511e-001  8.676777e+001
    endloop
  endfacet
  facet normal -9.238797e-001  0.000000e+000 -3.826831e-001
    outer loop
      vertex  1.333672e+001  7.812511e-001  8.676777e+001
      vertex  1.333672e+001  2.781251e+000  8.676777e+001
      vertex  1.406895e+001  2.781251e+000  8.500000e+001
    endloop
  endfacet
  facet normal -9.238797e-001  -0.000000e+000 -3.826831e-001
    outer loop
      vertex  1.333672e+001  7.812511e-001  8.676777e+001
      vertex  1.406895e+001  2.781251e+000  8.500000e+001
      vertex  1.406895e+001  7.812511e-001  8.500000e+001
    endloop
  endfacet
  facet normal -3.826826e-001  0.000000e+000 -9.238799e-001
    outer loop
      vertex  1.333672e+001  2.781251e+000  8.676777e+001
      vertex  1.156895e+001  7.812511e-001  8.750000e+001
      vertex  1.156895e+001  2.781251e+000  8.750000e+001
    endloop
  endfacet
  facet normal  3.826826e-001  0.000000e+000 -9.238799e-001
    outer loop
      vertex  1.156895e+001  2.781251e+000  8.750000e+001
      vertex  1.156895e+001  7.812511e-001  8.750000e+001
      vertex  9.801185e+000  7.812511e-001  8.676777e+001
    endloop
  endfacet
  facet normal  3.826826e-001  0.000000e+000 -9.238799e-001
    outer loop
      vertex  1.156895e+001  2.781251e+000  8.750000e+001
      vertex  9.801185e+000  7.812511e-001  8.676777e+001
      vertex  9.801185e+000  2.781251e+000  8.676777e+001
    endloop
  endfacet
  facet normal  9.238797e-001  0.000000e+000 -3.826831e-001
    outer loop
      vertex  9.801185e+000  2.781251e+000  8.676777e+001
      vertex  9.801185e+000  7.812511e-001  8.676777e+001
      vertex  9.068952e+000  7.812511e-001  8.500000e+001
    endloop
  endfacet
  facet normal  9.238797e-001  0.000000e+000 -3.826831e-001
    outer loop
      vertex  9.801185e+000  2.781251e+000  8.676777e+001
      vertex  9.068952e+000  7.812511e-001  8.500000e+001
      vertex  9.068952e+000  2.781251e+000  8.500000e+001
    endloop
  endfacet
  facet normal  9.838699e-001  0.000000e+000  1.788854e-001
    outer loop
      vertex  1.548668e+001  2.781251e+000  7.210355e+000
      vertex  1.421395e+001  2.781251e+000  1.421035e+001
      vertex  1.548668e+001  7.812511e-001  7.210355e+000
    endloop
  endfacet
  facet normal  9.838699e-001  0.000000e+000  1.788854e-001
    outer loop
      vertex  1.548668e+001  7.812511e-001  7.210355e+000
      vertex  1.421395e+001  2.781251e+000  1.421035e+001
      vertex  1.421395e+001  7.812511e-001  1.421035e+001
    endloop
  endfacet
  facet normal  9.937432e-001  0.000000e+000 -1.116881e-001
    outer loop
      vertex  1.434246e+001  2.781251e+000  1.535377e+001
      vertex  1.421395e+001  7.812511e-001  1.421035e+001
      vertex  1.421395e+001  2.781251e+000  1.421035e+001
    endloop
  endfacet
  facet normal  9.937432e-001  0.000000e+000 -1.116881e-001
    outer loop
      vertex  1.421395e+001  7.812511e-001  1.421035e+001
      vertex  1.434246e+001  2.781251e+000  1.535377e+001
      vertex  1.434246e+001  7.812511e-001  1.535377e+001
    endloop
  endfacet
  facet normal  7.677521e-001  0.000000e+000 -6.407470e-001
    outer loop
      vertex  1.434246e+001  7.812511e-001  1.535377e+001
      vertex  1.434246e+001  2.781251e+000  1.535377e+001
      vertex  1.507971e+001  2.781251e+000  1.623715e+001
    endloop
  endfacet
  facet normal  7.677521e-001  0.000000e+000 -6.407470e-001
    outer loop
      vertex  1.434246e+001  7.812511e-001  1.535377e+001
      vertex  1.507971e+001  2.781251e+000  1.623715e+001
      vertex  1.507971e+001  7.812511e-001  1.623715e+001
    endloop
  endfacet
  facet normal  2.876530e-001  0.000000e+000 -9.577348e-001
    outer loop
      vertex  1.507971e+001  7.812511e-001  1.623715e+001
      vertex  1.507971e+001  2.781251e+000  1.623715e+001
      vertex  1.618169e+001  2.781251e+000  1.656813e+001
    endloop
  endfacet
  facet normal  2.876530e-001  0.000000e+000 -9.577348e-001
    outer loop
      vertex  1.507971e+001  7.812511e-001  1.623715e+001
      vertex  1.618169e+001  2.781251e+000  1.656813e+001
      vertex  1.618169e+001  7.812511e-001  1.656813e+001
    endloop
  endfacet
  facet normal  -0.000000e+000  0.000000e+000 -9.999999e-001
    outer loop
      vertex  1.618169e+001  2.781251e+000  1.656813e+001
      vertex  3.138884e+001  2.781251e+000  1.656813e+001
      vertex  1.618169e+001  7.812511e-001  1.656813e+001
    endloop
  endfacet
  facet normal  0.000000e+000  0.000000e+000 -9.999999e-001
    outer loop
      vertex  1.618169e+001  7.812511e-001  1.656813e+001
      vertex  3.138884e+001  2.781251e+000  1.656813e+001
      vertex  3.138884e+001  7.812511e-001  1.656813e+001
    endloop
  endfacet
  facet normal -2.876528e-001  0.000000e+000 -9.577348e-001
    outer loop
      vertex  3.249082e+001  2.781251e+000  1.623715e+001
      vertex  3.138884e+001  7.812511e-001  1.656813e+001
      vertex  3.138884e+001  2.781251e+000  1.656813e+001
    endloop
  endfacet
  facet normal -2.876528e-001  -0.000000e+000 -9.577348e-001
    outer loop
      vertex  3.138884e+001  7.812511e-001  1.656813e+001
      vertex  3.249082e+001  2.781251e+000  1.623715e+001
      vertex  3.249082e+001  7.812511e-001  1.623715e+001
    endloop
  endfacet
  facet normal -7.677517e-001  0.000000e+000 -6.407475e-001
    outer loop
      vertex  3.249082e+001  7.812511e-001  1.623715e+001
      vertex  3.249082e+001  2.781251e+000  1.623715e+001
      vertex  3.322807e+001  2.781251e+000  1.535377e+001
    endloop
  endfacet
  facet normal -7.677517e-001  -0.000000e+000 -6.407475e-001
    outer loop
      vertex  3.249082e+001  7.812511e-001  1.623715e+001
      vertex  3.322807e+001  2.781251e+000  1.535377e+001
      vertex  3.322807e+001  7.812511e-001  1.535377e+001
    endloop
  endfacet
  facet normal -9.937432e-001  0.000000e+000 -1.116881e-001
    outer loop
      vertex  3.322807e+001  7.812511e-001  1.535377e+001
      vertex  3.322807e+001  2.781251e+000  1.535377e+001
      vertex  3.335658e+001  2.781251e+000  1.421035e+001
    endloop
  endfacet
  facet normal -9.937432e-001  -0.000000e+000 -1.116881e-001
    outer loop
      vertex  3.322807e+001  7.812511e-001  1.535377e+001
      vertex  3.335658e+001  2.781251e+000  1.421035e+001
      vertex  3.335658e+001  7.812511e-001  1.421035e+001
    endloop
  endfacet
  facet normal -9.838699e-001  0.000000e+000  1.788855e-001
    outer loop
      vertex  3.335658e+001  2.781251e+000  1.421035e+001
      vertex  3.208385e+001  2.781251e+000  7.210355e+000
      vertex  3.335658e+001  7.812511e-001  1.421035e+001
    endloop
  endfacet
  facet normal -9.838699e-001  0.000000e+000  1.788855e-001
    outer loop
      vertex  3.335658e+001  7.812511e-001  1.421035e+001
      vertex  3.208385e+001  2.781251e+000  7.210355e+000
      vertex  3.208385e+001  7.812511e-001  7.210355e+000
    endloop
  endfacet
  facet normal -8.640233e-001  0.000000e+000  5.034517e-001
    outer loop
      vertex  3.208385e+001  2.781251e+000  7.210355e+000
      vertex  3.139761e+001  2.781251e+000  6.032622e+000
      vertex  3.208385e+001  7.812511e-001  7.210355e+000
    endloop
  endfacet
  facet normal -8.640233e-001  0.000000e+000  5.034517e-001
    outer loop
      vertex  3.208385e+001  7.812511e-001  7.210355e+000
      vertex  3.139761e+001  2.781251e+000  6.032622e+000
      vertex  3.139761e+001  7.812511e-001  6.032622e+000
    endloop
  endfacet
  facet normal -3.407698e-001  0.000000e+000  9.401467e-001
    outer loop
      vertex  3.139761e+001  2.781251e+000  6.032622e+000
      vertex  3.011611e+001  2.781251e+000  5.568126e+000
      vertex  3.139761e+001  7.812511e-001  6.032622e+000
    endloop
  endfacet
  facet normal -3.407698e-001  0.000000e+000  9.401467e-001
    outer loop
      vertex  3.139761e+001  7.812511e-001  6.032622e+000
      vertex  3.011611e+001  2.781251e+000  5.568126e+000
      vertex  3.011611e+001  7.812511e-001  5.568126e+000
    endloop
  endfacet
  facet normal  -0.000000e+000  0.000000e+000  1.000000e+000
    outer loop
      vertex  3.011611e+001  2.781251e+000  5.568126e+000
      vertex  1.745442e+001  2.781251e+000  5.568126e+000
      vertex  3.011611e+001  7.812511e-001  5.568126e+000
    endloop
  endfacet
  facet normal  0.000000e+000  0.000000e+000  1.000000e+000
    outer loop
      vertex  3.011611e+001  7.812511e-001  5.568126e+000
      vertex  1.745442e+001  2.781251e+000  5.568126e+000
      vertex  1.745442e+001  7.812511e-001  5.568126e+000
    endloop
  endfacet
  facet normal  3.407698e-001  0.000000e+000  9.401467e-001
    outer loop
      vertex  1.745442e+001  2.781251e+000  5.568126e+000
      vertex  1.617292e+001  2.781251e+000  6.032622e+000
      vertex  1.745442e+001  7.812511e-001  5.568126e+000
    endloop
  endfacet
  facet normal  3.407698e-001  0.000000e+000  9.401467e-001
    outer loop
      vertex  1.745442e+001  7.812511e-001  5.568126e+000
      vertex  1.617292e+001  2.781251e+000  6.032622e+000
      vertex  1.617292e+001  7.812511e-001  6.032622e+000
    endloop
  endfacet
  facet normal  8.640230e-001  0.000000e+000  5.034522e-001
    outer loop
      vertex  1.617292e+001  2.781251e+000  6.032622e+000
      vertex  1.548668e+001  2.781251e+000  7.210355e+000
      vertex  1.617292e+001  7.812511e-001  6.032622e+000
    endloop
  endfacet
  facet normal  8.640230e-001  0.000000e+000  5.034522e-001
    outer loop
      vertex  1.617292e+001  7.812511e-001  6.032622e+000
      vertex  1.548668e+001  2.781251e+000  7.210355e+000
      vertex  1.548668e+001  7.812511e-001  7.210355e+000
    endloop
  endfacet
  facet normal  5.877854e-001  0.000000e+000  8.090169e-001
    outer loop
      vertex  3.916648e+001  7.812511e-001  3.342130e+001
      vertex  3.741648e+001  2.781251e+000  3.469275e+001
      vertex  3.741648e+001  7.812511e-001  3.469275e+001
    endloop
  endfacet
  facet normal  9.510563e-001  -0.000000e+000  3.090177e-001
    outer loop
      vertex  3.741648e+001  7.812511e-001  3.469275e+001
      vertex  3.741648e+001  2.781251e+000  3.469275e+001
      vertex  3.674804e+001  2.781251e+000  3.675000e+001
    endloop
  endfacet
  facet normal  9.510563e-001  0.000000e+000  3.090177e-001
    outer loop
      vertex  3.741648e+001  7.812511e-001  3.469275e+001
      vertex  3.674804e+001  2.781251e+000  3.675000e+001
      vertex  3.674804e+001  7.812511e-001  3.675000e+001
    endloop
  endfacet
  facet normal  5.877854e-001  -0.000000e+000  8.090169e-001
    outer loop
      vertex  3.741648e+001  2.781251e+000  3.469275e+001
      vertex  3.916648e+001  7.812511e-001  3.342130e+001
      vertex  3.916648e+001  2.781251e+000  3.342130e+001
    endloop
  endfacet
  facet normal  0.000000e+000  0.000000e+000  1.000000e+000
    outer loop
      vertex  3.916648e+001  2.781251e+000  3.342130e+001
      vertex  3.916648e+001  7.812511e-001  3.342130e+001
      vertex  4.132959e+001  7.812511e-001  3.342130e+001
    endloop
  endfacet
  facet normal  0.000000e+000  -0.000000e+000  1.000000e+000
    outer loop
      vertex  3.916648e+001  2.781251e+000  3.342130e+001
      vertex  4.132959e+001  7.812511e-001  3.342130e+001
      vertex  4.132959e+001  2.781251e+000  3.342130e+001
    endloop
  endfacet
  facet normal -5.877854e-001  0.000000e+000  8.090169e-001
    outer loop
      vertex  4.132959e+001  2.781251e+000  3.342130e+001
      vertex  4.132959e+001  7.812511e-001  3.342130e+001
      vertex  4.307959e+001  7.812511e-001  3.469275e+001
    endloop
  endfacet
  facet normal -5.877854e-001  0.000000e+000  8.090169e-001
    outer loop
      vertex  4.132959e+001  2.781251e+000  3.342130e+001
      vertex  4.307959e+001  7.812511e-001  3.469275e+001
      vertex  4.307959e+001  2.781251e+000  3.469275e+001
    endloop
  endfacet
  facet normal -9.510563e-001  0.000000e+000  3.090177e-001
    outer loop
      vertex  4.307959e+001  2.781251e+000  3.469275e+001
      vertex  4.307959e+001  7.812511e-001  3.469275e+001
      vertex  4.374804e+001  7.812511e-001  3.675000e+001
    endloop
  endfacet
  facet normal -9.510563e-001  0.000000e+000  3.090177e-001
    outer loop
      vertex  4.307959e+001  2.781251e+000  3.469275e+001
      vertex  4.374804e+001  7.812511e-001  3.675000e+001
      vertex  4.374804e+001  2.781251e+000  3.675000e+001
    endloop
  endfacet
  facet normal -5.877854e-001  -0.000000e+000 -8.090169e-001
    outer loop
      vertex  4.132959e+001  7.812511e-001  4.007870e+001
      vertex  4.307959e+001  2.781251e+000  3.880725e+001
      vertex  4.307959e+001  7.812511e-001  3.880725e+001
    endloop
  endfacet
  facet normal -9.510563e-001  0.000000e+000 -3.090177e-001
    outer loop
      vertex  4.307959e+001  7.812511e-001  3.880725e+001
      vertex  4.307959e+001  2.781251e+000  3.880725e+001
      vertex  4.374804e+001  2.781251e+000  3.675000e+001
    endloop
  endfacet
  facet normal -9.510563e-001  -0.000000e+000 -3.090177e-001
    outer loop
      vertex  4.307959e+001  7.812511e-001  3.880725e+001
      vertex  4.374804e+001  2.781251e+000  3.675000e+001
      vertex  4.374804e+001  7.812511e-001  3.675000e+001
    endloop
  endfacet
  facet normal -5.877854e-001  0.000000e+000 -8.090169e-001
    outer loop
      vertex  4.307959e+001  2.781251e+000  3.880725e+001
      vertex  4.132959e+001  7.812511e-001  4.007870e+001
      vertex  4.132959e+001  2.781251e+000  4.007870e+001
    endloop
  endfacet
  facet normal  0.000000e+000  -0.000000e+000 -1.000000e+000
    outer loop
      vertex  4.132959e+001  2.781251e+000  4.007870e+001
      vertex  4.132959e+001  7.812511e-001  4.007870e+001
      vertex  3.916648e+001  7.812511e-001  4.007870e+001
    endloop
  endfacet
  facet normal  0.000000e+000  0.000000e+000 -1.000000e+000
    outer loop
      vertex  4.132959e+001  2.781251e+000  4.007870e+001
      vertex  3.916648e+001  7.812511e-001  4.007870e+001
      vertex  3.916648e+001  2.781251e+000  4.007870e+001
    endloop
  endfacet
  facet normal  5.877854e-001  0.000000e+000 -8.090169e-001
    outer loop
      vertex  3.916648e+001  2.781251e+000  4.007870e+001
      vertex  3.916648e+001  7.812511e-001  4.007870e+001
      vertex  3.741648e+001  7.812511e-001  3.880725e+001
    endloop
  endfacet
  facet normal  5.877854e-001  0.000000e+000 -8.090169e-001
    outer loop
      vertex  3.916648e+001  2.781251e+000  4.007870e+001
      vertex  3.741648e+001  7.812511e-001  3.880725e+001
      vertex  3.741648e+001  2.781251e+000  3.880725e+001
    endloop
  endfacet
  facet normal  9.510563e-001  0.000000e+000 -3.090177e-001
    outer loop
      vertex  3.741648e+001  2.781251e+000  3.880725e+001
      vertex  3.741648e+001  7.812511e-001  3.880725e+001
      vertex  3.674804e+001  7.812511e-001  3.675000e+001
    endloop
  endfacet
  facet normal  9.510563e-001  0.000000e+000 -3.090177e-001
    outer loop
      vertex  3.741648e+001  2.781251e+000  3.880725e+001
      vertex  3.674804e+001  7.812511e-001  3.675000e+001
      vertex  3.674804e+001  2.781251e+000  3.675000e+001
    endloop
  endfacet
  facet normal  5.877842e-001  0.000000e+000  8.090177e-001
    outer loop
      vertex  3.916648e+001  7.812511e-001  7.122131e+001
      vertex  3.741648e+001  2.781251e+000  7.249275e+001
      vertex  3.741648e+001  7.812511e-001  7.249275e+001
    endloop
  endfacet
  facet normal  9.510564e-001  -0.000000e+000  3.090172e-001
    outer loop
      vertex  3.741648e+001  7.812511e-001  7.249275e+001
      vertex  3.741648e+001  2.781251e+000  7.249275e+001
      vertex  3.674804e+001  2.781251e+000  7.455000e+001
    endloop
  endfacet
  facet normal  9.510564e-001  0.000000e+000  3.090172e-001
    outer loop
      vertex  3.741648e+001  7.812511e-001  7.249275e+001
      vertex  3.674804e+001  2.781251e+000  7.455000e+001
      vertex  3.674804e+001  7.812511e-001  7.455000e+001
    endloop
  endfacet
  facet normal  5.877842e-001  -0.000000e+000  8.090177e-001
    outer loop
      vertex  3.741648e+001  2.781251e+000  7.249275e+001
      vertex  3.916648e+001  7.812511e-001  7.122131e+001
      vertex  3.916648e+001  2.781251e+000  7.122131e+001
    endloop
  endfacet
  facet normal  0.000000e+000  0.000000e+000  1.000000e+000
    outer loop
      vertex  3.916648e+001  2.781251e+000  7.122131e+001
      vertex  3.916648e+001  7.812511e-001  7.122131e+001
      vertex  4.132960e+001  7.812511e-001  7.122131e+001
    endloop
  endfacet
  facet normal  0.000000e+000  -0.000000e+000  1.000000e+000
    outer loop
      vertex  3.916648e+001  2.781251e+000  7.122131e+001
      vertex  4.132960e+001  7.812511e-001  7.122131e+001
      vertex  4.132960e+001  2.781251e+000  7.122131e+001
    endloop
  endfacet
  facet normal -5.877842e-001  0.000000e+000  8.090177e-001
    outer loop
      vertex  4.132960e+001  2.781251e+000  7.122131e+001
      vertex  4.132960e+001  7.812511e-001  7.122131e+001
      vertex  4.307960e+001  7.812511e-001  7.249275e+001
    endloop
  endfacet
  facet normal -5.877842e-001  0.000000e+000  8.090177e-001
    outer loop
      vertex  4.132960e+001  2.781251e+000  7.122131e+001
      vertex  4.307960e+001  7.812511e-001  7.249275e+001
      vertex  4.307960e+001  2.781251e+000  7.249275e+001
    endloop
  endfacet
  facet normal -9.510564e-001  0.000000e+000  3.090172e-001
    outer loop
      vertex  4.307960e+001  2.781251e+000  7.249275e+001
      vertex  4.307960e+001  7.812511e-001  7.249275e+001
      vertex  4.374804e+001  7.812511e-001  7.455000e+001
    endloop
  endfacet
  facet normal -9.510564e-001  0.000000e+000  3.090172e-001
    outer loop
      vertex  4.307960e+001  2.781251e+000  7.249275e+001
      vertex  4.374804e+001  7.812511e-001  7.455000e+001
      vertex  4.374804e+001  2.781251e+000  7.455000e+001
    endloop
  endfacet
  facet normal -5.877866e-001  -0.000000e+000 -8.090160e-001
    outer loop
      vertex  4.132960e+001  7.812511e-001  7.787870e+001
      vertex  4.307960e+001  2.781251e+000  7.660725e+001
      vertex  4.307960e+001  7.812511e-001  7.660725e+001
    endloop
  endfacet
  facet normal -9.510561e-001  0.000000e+000 -3.090182e-001
    outer loop
      vertex  4.307960e+001  7.812511e-001  7.660725e+001
      vertex  4.307960e+001  2.781251e+000  7.660725e+001
      vertex  4.374804e+001  2.781251e+000  7.455000e+001
    endloop
  endfacet
  facet normal -9.510561e-001  -0.000000e+000 -3.090182e-001
    outer loop
      vertex  4.307960e+001  7.812511e-001  7.660725e+001
      vertex  4.374804e+001  2.781251e+000  7.455000e+001
      vertex  4.374804e+001  7.812511e-001  7.455000e+001
    endloop
  endfacet
  facet normal -5.877866e-001  0.000000e+000 -8.090160e-001
    outer loop
      vertex  4.307960e+001  2.781251e+000  7.660725e+001
      vertex  4.132960e+001  7.812511e-001  7.787870e+001
      vertex  4.132960e+001  2.781251e+000  7.787870e+001
    endloop
  endfacet
  facet normal  0.000000e+000  -0.000000e+000 -1.000000e+000
    outer loop
      vertex  4.132960e+001  2.781251e+000  7.787870e+001
      vertex  4.132960e+001  7.812511e-001  7.787870e+001
      vertex  3.916648e+001  7.812511e-001  7.787870e+001
    endloop
  endfacet
  facet normal  0.000000e+000  0.000000e+000 -1.000000e+000
    outer loop
      vertex  4.132960e+001  2.781251e+000  7.787870e+001
      vertex  3.916648e+001  7.812511e-001  7.787870e+001
      vertex  3.916648e+001  2.781251e+000  7.787870e+001
    endloop
  endfacet
  facet normal  5.877866e-001  0.000000e+000 -8.090160e-001
    outer loop
      vertex  3.916648e+001  2.781251e+000  7.787870e+001
      vertex  3.916648e+001  7.812511e-001  7.787870e+001
      vertex  3.741648e+001  7.812511e-001  7.660725e+001
    endloop
  endfacet
  facet normal  5.877866e-001  0.000000e+000 -8.090160e-001
    outer loop
      vertex  3.916648e+001  2.781251e+000  7.787870e+001
      vertex  3.741648e+001  7.812511e-001  7.660725e+001
      vertex  3.741648e+001  2.781251e+000  7.660725e+001
    endloop
  endfacet
  facet normal  9.510561e-001  0.000000e+000 -3.090182e-001
    outer loop
      vertex  3.741648e+001  2.781251e+000  7.660725e+001
      vertex  3.741648e+001  7.812511e-001  7.660725e+001
      vertex  3.674804e+001  7.812511e-001  7.455000e+001
    endloop
  endfacet
  facet normal  9.510561e-001  0.000000e+000 -3.090182e-001
    outer loop
      vertex  3.741648e+001  2.781251e+000  7.660725e+001
      vertex  3.674804e+001  7.812511e-001  7.455000e+001
      vertex  3.674804e+001  2.781251e+000  7.455000e+001
    endloop
  endfacet
  facet normal  0.000000e+000  0.000000e+000 -1.000000e+000
    outer loop
      vertex  7.009523e+001  7.812511e-001  6.500000e+001
      vertex  1.009523e+001  7.812511e-001  6.500000e+001
      vertex  7.009523e+001  2.781251e+000  6.500000e+001
    endloop
  endfacet
  facet normal  -0.000000e+000  0.000000e+000 -1.000000e+000
    outer loop
      vertex  7.009523e+001  2.781251e+000  6.500000e+001
      vertex  1.009523e+001  7.812511e-001  6.500000e+001
      vertex  1.009523e+001  2.781251e+000  6.500000e+001
    endloop
  endfacet
  facet normal  1.000000e+000  0.000000e+000  0.000000e+000
    outer loop
      vertex  1.009523e+001  7.812511e-001  4.600000e+001
      vertex  1.009523e+001  2.781251e+000  4.600000e+001
      vertex  1.009523e+001  7.812511e-001  6.500000e+001
    endloop
  endfacet
  facet normal  1.000000e+000  -0.000000e+000  0.000000e+000
    outer loop
      vertex  1.009523e+001  7.812511e-001  6.500000e+001
      vertex  1.009523e+001  2.781251e+000  4.600000e+001
      vertex  1.009523e+001  2.781251e+000  6.500000e+001
    endloop
  endfacet
  facet normal  0.000000e+000  0.000000e+000  1.000000e+000
    outer loop
      vertex  1.009523e+001  7.812511e-001  4.600000e+001
      vertex  7.009523e+001  7.812511e-001  4.600000e+001
      vertex  1.009523e+001  2.781251e+000  4.600000e+001
    endloop
  endfacet
  facet normal  -0.000000e+000  0.000000e+000  1.000000e+000
    outer loop
      vertex  1.009523e+001  2.781251e+000  4.600000e+001
      vertex  7.009523e+001  7.812511e-001  4.600000e+001
      vertex  7.009523e+001  2.781251e+000  4.600000e+001
    endloop
  endfacet
  facet normal -1.000000e+000  -0.000000e+000  0.000000e+000
    outer loop
      vertex  7.009523e+001  7.812511e-001  6.500000e+001
      vertex  7.009523e+001  2.781251e+000  6.500000e+001
      vertex  7.009523e+001  7.812511e-001  4.600000e+001
    endloop
  endfacet
  facet normal -1.000000e+000  0.000000e+000  0.000000e+000
    outer loop
      vertex  7.009523e+001  7.812511e-001  4.600000e+001
      vertex  7.009523e+001  2.781251e+000  6.500000e+001
      vertex  7.009523e+001  2.781251e+000  4.600000e+001
    endloop
  endfacet
  facet normal -9.985649e-001  0.000000e+000  5.355703e-002
    outer loop
      vertex  5.095231e+000  7.812511e-001  9.500000e+001
      vertex  5.095231e+000  2.781251e+000  9.500000e+001
      vertex  0.000000e+000  7.812511e-001  0.000000e+000
    endloop
  endfacet
  facet normal -9.985649e-001  0.000000e+000  5.355703e-002
    outer loop
      vertex  0.000000e+000  7.812511e-001  0.000000e+000
      vertex  5.095231e+000  2.781251e+000  9.500000e+001
      vertex  0.000000e+000  2.781251e+000  0.000000e+000
    endloop
  endfacet
  facet normal  0.000000e+000  0.000000e+000 -9.999999e-001
    outer loop
      vertex  0.000000e+000  7.812511e-001  0.000000e+000
      vertex  0.000000e+000  2.781251e+000  0.000000e+000
      vertex  2.509523e+001  7.812511e-001  0.000000e+000
    endloop
  endfacet
  facet normal  0.000000e+000  0.000000e+000 -9.999999e-001
    outer loop
      vertex  2.509523e+001  7.812511e-001  0.000000e+000
      vertex  0.000000e+000  2.781251e+000  0.000000e+000
      vertex  2.509523e+001  2.781251e+000  0.000000e+000
    endloop
  endfacet
  facet normal  8.715572e-002  0.000000e+000 -9.961948e-001
    outer loop
      vertex  2.509523e+001  7.812511e-001  0.000000e+000
      vertex  2.509523e+001  2.781251e+000  0.000000e+000
      vertex  3.377764e+001  7.812511e-001  7.596123e-001
    endloop
  endfacet
  facet normal  8.715572e-002  0.000000e+000 -9.961948e-001
    outer loop
      vertex  3.377764e+001  7.812511e-001  7.596123e-001
      vertex  2.509523e+001  2.781251e+000  0.000000e+000
      vertex  3.377764e+001  2.781251e+000  7.596123e-001
    endloop
  endfacet
  facet normal  2.588190e-001  0.000000e+000 -9.659258e-001
    outer loop
      vertex  3.377764e+001  7.812511e-001  7.596123e-001
      vertex  3.377764e+001  2.781251e+000  7.596123e-001
      vertex  4.219624e+001  7.812511e-001  3.015369e+000
    endloop
  endfacet
  facet normal  2.588190e-001  0.000000e+000 -9.659258e-001
    outer loop
      vertex  4.219624e+001  7.812511e-001  3.015369e+000
      vertex  3.377764e+001  2.781251e+000  7.596123e-001
      vertex  4.219624e+001  2.781251e+000  3.015369e+000
    endloop
  endfacet
  facet normal  4.226184e-001  0.000000e+000 -9.063078e-001
    outer loop
      vertex  4.219624e+001  7.812511e-001  3.015369e+000
      vertex  4.219624e+001  2.781251e+000  3.015369e+000
      vertex  5.009523e+001  7.812511e-001  6.698730e+000
    endloop
  endfacet
  facet normal  4.226184e-001  0.000000e+000 -9.063078e-001
    outer loop
      vertex  5.009523e+001  7.812511e-001  6.698730e+000
      vertex  4.219624e+001  2.781251e+000  3.015369e+000
      vertex  5.009523e+001  2.781251e+000  6.698730e+000
    endloop
  endfacet
  facet normal  5.735764e-001  0.000000e+000 -8.191521e-001
    outer loop
      vertex  5.009523e+001  7.812511e-001  6.698730e+000
      vertex  5.009523e+001  2.781251e+000  6.698730e+000
      vertex  5.723461e+001  7.812511e-001  1.169778e+001
    endloop
  endfacet
  facet normal  5.735764e-001  0.000000e+000 -8.191521e-001
    outer loop
      vertex  5.723461e+001  7.812511e-001  1.169778e+001
      vertex  5.009523e+001  2.781251e+000  6.698730e+000
      vertex  5.723461e+001  2.781251e+000  1.169778e+001
    endloop
  endfacet
  facet normal  7.071066e-001  0.000000e+000 -7.071068e-001
    outer loop
      vertex  5.723461e+001  7.812511e-001  1.169778e+001
      vertex  5.723461e+001  2.781251e+000  1.169778e+001
      vertex  6.339745e+001  7.812511e-001  1.786062e+001
    endloop
  endfacet
  facet normal  7.071066e-001  0.000000e+000 -7.071068e-001
    outer loop
      vertex  6.339745e+001  7.812511e-001  1.786062e+001
      vertex  5.723461e+001  2.781251e+000  1.169778e+001
      vertex  6.339745e+001  2.781251e+000  1.786062e+001
    endloop
  endfacet
  facet normal  8.191521e-001  0.000000e+000 -5.735762e-001
    outer loop
      vertex  6.339745e+001  7.812511e-001  1.786062e+001
      vertex  6.339745e+001  2.781251e+000  1.786062e+001
      vertex  6.839650e+001  7.812511e-001  2.500000e+001
    endloop
  endfacet
  facet normal  8.191521e-001  0.000000e+000 -5.735762e-001
    outer loop
      vertex  6.839650e+001  7.812511e-001  2.500000e+001
      vertex  6.339745e+001  2.781251e+000  1.786062e+001
      vertex  6.839650e+001  2.781251e+000  2.500000e+001
    endloop
  endfacet
  facet normal  9.063076e-001  0.000000e+000 -4.226186e-001
    outer loop
      vertex  6.839650e+001  7.812511e-001  2.500000e+001
      vertex  6.839650e+001  2.781251e+000  2.500000e+001
      vertex  7.207986e+001  7.812511e-001  3.289899e+001
    endloop
  endfacet
  facet normal  9.063076e-001  0.000000e+000 -4.226186e-001
    outer loop
      vertex  7.207986e+001  7.812511e-001  3.289899e+001
      vertex  6.839650e+001  2.781251e+000  2.500000e+001
      vertex  7.207986e+001  2.781251e+000  3.289899e+001
    endloop
  endfacet
  facet normal  9.659259e-001  0.000000e+000 -2.588186e-001
    outer loop
      vertex  7.207986e+001  7.812511e-001  3.289899e+001
      vertex  7.207986e+001  2.781251e+000  3.289899e+001
      vertex  7.433562e+001  7.812511e-001  4.131759e+001
    endloop
  endfacet
  facet normal  9.659259e-001  0.000000e+000 -2.588186e-001
    outer loop
      vertex  7.433562e+001  7.812511e-001  4.131759e+001
      vertex  7.207986e+001  2.781251e+000  3.289899e+001
      vertex  7.433562e+001  2.781251e+000  4.131759e+001
    endloop
  endfacet
  facet normal  9.961947e-001  0.000000e+000 -8.715583e-002
    outer loop
      vertex  7.433562e+001  7.812511e-001  4.131759e+001
      vertex  7.433562e+001  2.781251e+000  4.131759e+001
      vertex  7.509523e+001  7.812511e-001  5.000000e+001
    endloop
  endfacet
  facet normal  9.961947e-001  0.000000e+000 -8.715583e-002
    outer loop
      vertex  7.509523e+001  7.812511e-001  5.000000e+001
      vertex  7.433562e+001  2.781251e+000  4.131759e+001
      vertex  7.509523e+001  2.781251e+000  5.000000e+001
    endloop
  endfacet
  facet normal  1.000000e+000  0.000000e+000  0.000000e+000
    outer loop
      vertex  7.509523e+001  7.812511e-001  5.000000e+001
      vertex  7.509523e+001  2.781251e+000  5.000000e+001
      vertex  7.509523e+001  7.812511e-001  6.500000e+001
    endloop
  endfacet
  facet normal  1.000000e+000  -0.000000e+000  0.000000e+000
    outer loop
      vertex  7.509523e+001  7.812511e-001  6.500000e+001
      vertex  7.509523e+001  2.781251e+000  5.000000e+001
      vertex  7.509523e+001  2.781251e+000  6.500000e+001
    endloop
  endfacet
  facet normal  9.937122e-001  0.000000e+000  1.119639e-001
    outer loop
      vertex  7.509523e+001  7.812511e-001  6.500000e+001
      vertex  7.509523e+001  2.781251e+000  6.500000e+001
      vertex  7.434307e+001  7.812511e-001  7.167563e+001
    endloop
  endfacet
  facet normal  9.937122e-001  -0.000000e+000  1.119639e-001
    outer loop
      vertex  7.434307e+001  7.812511e-001  7.167563e+001
      vertex  7.509523e+001  2.781251e+000  6.500000e+001
      vertex  7.434307e+001  2.781251e+000  7.167563e+001
    endloop
  endfacet
  facet normal  9.438832e-001  0.000000e+000  3.302794e-001
    outer loop
      vertex  7.434307e+001  7.812511e-001  7.167563e+001
      vertex  7.434307e+001  2.781251e+000  7.167563e+001
      vertex  7.212430e+001  7.812511e-001  7.801651e+001
    endloop
  endfacet
  facet normal  9.438832e-001  -0.000000e+000  3.302794e-001
    outer loop
      vertex  7.212430e+001  7.812511e-001  7.801651e+001
      vertex  7.434307e+001  2.781251e+000  7.167563e+001
      vertex  7.212430e+001  2.781251e+000  7.801651e+001
    endloop
  endfacet
  facet normal  8.467245e-001  0.000000e+000  5.320315e-001
    outer loop
      vertex  7.212430e+001  7.812511e-001  7.801651e+001
      vertex  7.212430e+001  2.781251e+000  7.801651e+001
      vertex  6.855018e+001  7.812511e-001  8.370470e+001
    endloop
  endfacet
  facet normal  8.467245e-001  -0.000000e+000  5.320315e-001
    outer loop
      vertex  6.855018e+001  7.812511e-001  8.370470e+001
      vertex  7.212430e+001  2.781251e+000  7.801651e+001
      vertex  6.855018e+001  2.781251e+000  8.370470e+001
    endloop
  endfacet
  facet normal  7.071059e-001  0.000000e+000  7.071077e-001
    outer loop
      vertex  6.855018e+001  7.812511e-001  8.370470e+001
      vertex  6.855018e+001  2.781251e+000  8.370470e+001
      vertex  6.379992e+001  7.812511e-001  8.845494e+001
    endloop
  endfacet
  facet normal  7.071059e-001  -0.000000e+000  7.071077e-001
    outer loop
      vertex  6.379992e+001  7.812511e-001  8.845494e+001
      vertex  6.855018e+001  2.781251e+000  8.370470e+001
      vertex  6.379992e+001  2.781251e+000  8.845494e+001
    endloop
  endfacet
  facet normal  5.320329e-001  0.000000e+000  8.467237e-001
    outer loop
      vertex  6.379992e+001  7.812511e-001  8.845494e+001
      vertex  6.379992e+001  2.781251e+000  8.845494e+001
      vertex  5.811174e+001  7.812511e-001  9.202907e+001
    endloop
  endfacet
  facet normal  5.320329e-001  -0.000000e+000  8.467237e-001
    outer loop
      vertex  5.811174e+001  7.812511e-001  9.202907e+001
      vertex  6.379992e+001  2.781251e+000  8.845494e+001
      vertex  5.811174e+001  2.781251e+000  9.202907e+001
    endloop
  endfacet
  facet normal  3.302792e-001  0.000000e+000  9.438834e-001
    outer loop
      vertex  5.811174e+001  7.812511e-001  9.202907e+001
      vertex  5.811174e+001  2.781251e+000  9.202907e+001
      vertex  5.177086e+001  7.812511e-001  9.424784e+001
    endloop
  endfacet
  facet normal  3.302792e-001  -0.000000e+000  9.438834e-001
    outer loop
      vertex  5.177086e+001  7.812511e-001  9.424784e+001
      vertex  5.811174e+001  2.781251e+000  9.202907e+001
      vertex  5.177086e+001  2.781251e+000  9.424784e+001
    endloop
  endfacet
  facet normal  1.119639e-001  0.000000e+000  9.937122e-001
    outer loop
      vertex  5.177086e+001  7.812511e-001  9.424784e+001
      vertex  5.177086e+001  2.781251e+000  9.424784e+001
      vertex  4.509523e+001  7.812511e-001  9.500000e+001
    endloop
  endfacet
  facet normal  1.119639e-001  -0.000000e+000  9.937122e-001
    outer loop
      vertex  4.509523e+001  7.812511e-001  9.500000e+001
      vertex  5.177086e+001  2.781251e+000  9.424784e+001
      vertex  4.509523e+001  2.781251e+000  9.500000e+001
    endloop
  endfacet
  facet normal  0.000000e+000  0.000000e+000  1.000000e+000
    outer loop
      vertex  4.509523e+001  7.812511e-001  9.500000e+001
      vertex  4.509523e+001  2.781251e+000  9.500000e+001
      vertex  5.095231e+000  7.812511e-001  9.500000e+001
    endloop
  endfacet
  facet normal  0.000000e+000  0.000000e+000  1.000000e+000
    outer loop
      vertex  5.095231e+000  7.812511e-001  9.500000e+001
      vertex  4.509523e+001  2.781251e+000  9.500000e+001
      vertex  5.095231e+000  2.781251e+000  9.500000e+001
    endloop
  endfacet
endsolid CATIA STL
