solid CATIA STL
  facet normal  0.000000e+000  9.827812e-001  1.847728e-001
    outer loop
      vertex -3.875000e+001  3.424712e+000  1.870929e+000
      vertex -1.200000e+001  3.424712e+000  1.870929e+000
      vertex -3.875000e+001  3.870355e+000 -4.993822e-001
    endloop
  endfacet
  facet normal  -0.000000e+000  9.827812e-001  1.847728e-001
    outer loop
      vertex -3.875000e+001  3.870355e+000 -4.993822e-001
      vertex -1.200000e+001  3.424712e+000  1.870929e+000
      vertex -1.200000e+001  3.870355e+000 -4.993822e-001
    endloop
  endfacet
  facet normal  0.000000e+000  9.036935e-001 -4.281800e-001
    outer loop
      vertex -3.875000e+001  3.870355e+000 -4.993822e-001
      vertex -1.200000e+001  3.870355e+000 -4.993822e-001
      vertex -3.875000e+001  2.837653e+000 -2.678946e+000
    endloop
  endfacet
  facet normal  0.000000e+000  9.036935e-001 -4.281800e-001
    outer loop
      vertex -3.875000e+001  2.837653e+000 -2.678946e+000
      vertex -1.200000e+001  3.870355e+000 -4.993822e-001
      vertex -1.200000e+001  2.837653e+000 -2.678946e+000
    endloop
  endfacet
  facet normal  0.000000e+000  4.794256e-001 -8.775826e-001
    outer loop
      vertex -3.875000e+001  2.837653e+000 -2.678946e+000
      vertex -1.200000e+001  2.837653e+000 -2.678946e+000
      vertex -3.875000e+001  7.210648e-001 -3.835244e+000
    endloop
  endfacet
  facet normal  0.000000e+000  4.794256e-001 -8.775826e-001
    outer loop
      vertex -3.875000e+001  7.210648e-001 -3.835244e+000
      vertex -1.200000e+001  2.837653e+000 -2.678946e+000
      vertex -1.200000e+001  7.210648e-001 -3.835244e+000
    endloop
  endfacet
  facet normal  -0.000000e+000 -1.279667e-001 -9.917784e-001
    outer loop
      vertex -3.875000e+001  7.210648e-001 -3.835244e+000
      vertex -1.200000e+001  7.210648e-001 -3.835244e+000
      vertex -3.875000e+001 -1.670946e+000 -3.526609e+000
    endloop
  endfacet
  facet normal  0.000000e+000 -1.279667e-001 -9.917784e-001
    outer loop
      vertex -3.875000e+001 -1.670946e+000 -3.526609e+000
      vertex -1.200000e+001  7.210648e-001 -3.835244e+000
      vertex -1.200000e+001 -1.670946e+000 -3.526609e+000
    endloop
  endfacet
  facet normal  -0.000000e+000 -6.864799e-001 -7.271487e-001
    outer loop
      vertex -3.875000e+001 -1.670946e+000 -3.526609e+000
      vertex -1.200000e+001 -1.670946e+000 -3.526609e+000
      vertex -3.875000e+001 -3.424712e+000 -1.870929e+000
    endloop
  endfacet
  facet normal  0.000000e+000 -6.864799e-001 -7.271487e-001
    outer loop
      vertex -3.875000e+001 -3.424712e+000 -1.870929e+000
      vertex -1.200000e+001 -1.670946e+000 -3.526609e+000
      vertex -1.200000e+001 -3.424712e+000 -1.870929e+000
    endloop
  endfacet
  facet normal  -0.000000e+000 -9.827812e-001 -1.847728e-001
    outer loop
      vertex -3.875000e+001 -3.424712e+000 -1.870929e+000
      vertex -1.200000e+001 -3.424712e+000 -1.870929e+000
      vertex -3.875000e+001 -3.870355e+000  4.993822e-001
    endloop
  endfacet
  facet normal  0.000000e+000 -9.827812e-001 -1.847728e-001
    outer loop
      vertex -3.875000e+001 -3.870355e+000  4.993822e-001
      vertex -1.200000e+001 -3.424712e+000 -1.870929e+000
      vertex -1.200000e+001 -3.870355e+000  4.993822e-001
    endloop
  endfacet
  facet normal  0.000000e+000 -9.036935e-001  4.281800e-001
    outer loop
      vertex -3.875000e+001 -3.870355e+000  4.993822e-001
      vertex -1.200000e+001 -3.870355e+000  4.993822e-001
      vertex -3.875000e+001 -2.837653e+000  2.678946e+000
    endloop
  endfacet
  facet normal  0.000000e+000 -9.036935e-001  4.281800e-001
    outer loop
      vertex -3.875000e+001 -2.837653e+000  2.678946e+000
      vertex -1.200000e+001 -3.870355e+000  4.993822e-001
      vertex -1.200000e+001 -2.837653e+000  2.678946e+000
    endloop
  endfacet
  facet normal  0.000000e+000 -4.794256e-001  8.775826e-001
    outer loop
      vertex -3.875000e+001 -2.837653e+000  2.678946e+000
      vertex -1.200000e+001 -2.837653e+000  2.678946e+000
      vertex -3.875000e+001 -7.210648e-001  3.835244e+000
    endloop
  endfacet
  facet normal  0.000000e+000 -4.794256e-001  8.775826e-001
    outer loop
      vertex -3.875000e+001 -7.210648e-001  3.835244e+000
      vertex -1.200000e+001 -2.837653e+000  2.678946e+000
      vertex -1.200000e+001 -7.210648e-001  3.835244e+000
    endloop
  endfacet
  facet normal  0.000000e+000  1.279667e-001  9.917784e-001
    outer loop
      vertex -3.875000e+001 -7.210648e-001  3.835244e+000
      vertex -1.200000e+001 -7.210648e-001  3.835244e+000
      vertex -3.875000e+001  1.670946e+000  3.526609e+000
    endloop
  endfacet
  facet normal  -0.000000e+000  1.279667e-001  9.917784e-001
    outer loop
      vertex -3.875000e+001  1.670946e+000  3.526609e+000
      vertex -1.200000e+001 -7.210648e-001  3.835244e+000
      vertex -1.200000e+001  1.670946e+000  3.526609e+000
    endloop
  endfacet
  facet normal  0.000000e+000  6.864799e-001  7.271487e-001
    outer loop
      vertex -3.875000e+001  1.670946e+000  3.526609e+000
      vertex -1.200000e+001  1.670946e+000  3.526609e+000
      vertex -3.875000e+001  3.424712e+000  1.870929e+000
    endloop
  endfacet
  facet normal  -0.000000e+000  6.864799e-001  7.271487e-001
    outer loop
      vertex -3.875000e+001  3.424712e+000  1.870929e+000
      vertex -1.200000e+001  1.670946e+000  3.526609e+000
      vertex -1.200000e+001  3.424712e+000  1.870929e+000
    endloop
  endfacet
  facet normal -9.999999e-001  0.000000e+000  0.000000e+000
    outer loop
      vertex -4.000000e+001  2.630632e+000 -3.394238e-001
      vertex -4.000000e+001 -1.928718e+000  1.820846e+000
      vertex -4.000000e+001  2.327734e+000  1.271647e+000
    endloop
  endfacet
  facet normal -1.000000e+000  0.000000e+000  0.000000e+000
    outer loop
      vertex -4.000000e+001  2.327734e+000  1.271647e+000
      vertex -4.000000e+001 -1.928718e+000  1.820846e+000
      vertex -4.000000e+001 -4.900987e-001  2.606767e+000
    endloop
  endfacet
  facet normal -9.999999e-001  0.000000e+000  0.000000e+000
    outer loop
      vertex -4.000000e+001  2.327734e+000  1.271647e+000
      vertex -4.000000e+001 -4.900987e-001  2.606767e+000
      vertex -4.000000e+001  1.135721e+000  2.396992e+000
    endloop
  endfacet
  facet normal -1.000000e+000  0.000000e+000  0.000000e+000
    outer loop
      vertex -4.000000e+001 -1.928718e+000  1.820846e+000
      vertex -4.000000e+001  2.630632e+000 -3.394238e-001
      vertex -4.000000e+001 -2.630632e+000  3.394238e-001
    endloop
  endfacet
  facet normal -1.000000e+000  0.000000e+000  0.000000e+000
    outer loop
      vertex -4.000000e+001 -2.630632e+000  3.394238e-001
      vertex -4.000000e+001  2.630632e+000 -3.394238e-001
      vertex -4.000000e+001  1.928718e+000 -1.820846e+000
    endloop
  endfacet
  facet normal -9.999999e-001  0.000000e+000  0.000000e+000
    outer loop
      vertex -4.000000e+001 -2.630632e+000  3.394238e-001
      vertex -4.000000e+001  1.928718e+000 -1.820846e+000
      vertex -4.000000e+001 -2.327734e+000 -1.271647e+000
    endloop
  endfacet
  facet normal -1.000000e+000  0.000000e+000  0.000000e+000
    outer loop
      vertex -4.000000e+001 -2.327734e+000 -1.271647e+000
      vertex -4.000000e+001  1.928718e+000 -1.820846e+000
      vertex -4.000000e+001  4.900987e-001 -2.606767e+000
    endloop
  endfacet
  facet normal -9.999999e-001  0.000000e+000  0.000000e+000
    outer loop
      vertex -4.000000e+001 -2.327734e+000 -1.271647e+000
      vertex -4.000000e+001  4.900987e-001 -2.606767e+000
      vertex -4.000000e+001 -1.135721e+000 -2.396992e+000
    endloop
  endfacet
  facet normal -6.891517e-001 -4.974351e-001 -5.269043e-001
    outer loop
      vertex -3.875000e+001 -3.424712e+000 -1.870929e+000
      vertex -4.000000e+001 -2.327734e+000 -1.271647e+000
      vertex -3.875000e+001 -1.670946e+000 -3.526609e+000
    endloop
  endfacet
  facet normal -6.891517e-001 -4.974352e-001 -5.269043e-001
    outer loop
      vertex -3.875000e+001 -1.670946e+000 -3.526609e+000
      vertex -4.000000e+001 -2.327734e+000 -1.271647e+000
      vertex -4.000000e+001 -1.135721e+000 -2.396992e+000
    endloop
  endfacet
  facet normal -6.891517e-001 -9.272686e-002 -7.186596e-001
    outer loop
      vertex -3.875000e+001 -1.670946e+000 -3.526609e+000
      vertex -4.000000e+001 -1.135721e+000 -2.396992e+000
      vertex -3.875000e+001  7.210648e-001 -3.835244e+000
    endloop
  endfacet
  facet normal -6.891518e-001 -9.272683e-002 -7.186596e-001
    outer loop
      vertex -3.875000e+001  7.210648e-001 -3.835244e+000
      vertex -4.000000e+001 -1.135721e+000 -2.396992e+000
      vertex -4.000000e+001  4.900987e-001 -2.606767e+000
    endloop
  endfacet
  facet normal -6.891517e-001  3.473999e-001 -6.359112e-001
    outer loop
      vertex -3.875000e+001  7.210648e-001 -3.835244e+000
      vertex -4.000000e+001  4.900987e-001 -2.606767e+000
      vertex -3.875000e+001  2.837653e+000 -2.678946e+000
    endloop
  endfacet
  facet normal -6.891518e-001  3.473999e-001 -6.359113e-001
    outer loop
      vertex -3.875000e+001  2.837653e+000 -2.678946e+000
      vertex -4.000000e+001  4.900987e-001 -2.606767e+000
      vertex -4.000000e+001  1.928718e+000 -1.820846e+000
    endloop
  endfacet
  facet normal -6.891517e-001  6.548317e-001 -3.102665e-001
    outer loop
      vertex -3.875000e+001  2.837653e+000 -2.678946e+000
      vertex -4.000000e+001  1.928718e+000 -1.820846e+000
      vertex -3.875000e+001  3.870355e+000 -4.993822e-001
    endloop
  endfacet
  facet normal -6.891518e-001  6.548317e-001 -3.102665e-001
    outer loop
      vertex -3.875000e+001  3.870355e+000 -4.993822e-001
      vertex -4.000000e+001  1.928718e+000 -1.820846e+000
      vertex -4.000000e+001  2.630632e+000 -3.394238e-001
    endloop
  endfacet
  facet normal -6.891517e-001  7.121401e-001  1.338896e-001
    outer loop
      vertex -3.875000e+001  3.870355e+000 -4.993822e-001
      vertex -4.000000e+001  2.630632e+000 -3.394238e-001
      vertex -3.875000e+001  3.424712e+000  1.870929e+000
    endloop
  endfacet
  facet normal -6.891518e-001  7.121400e-001  1.338896e-001
    outer loop
      vertex -3.875000e+001  3.424712e+000  1.870929e+000
      vertex -4.000000e+001  2.630632e+000 -3.394238e-001
      vertex -4.000000e+001  2.327734e+000  1.271647e+000
    endloop
  endfacet
  facet normal -6.891517e-001  4.974351e-001  5.269043e-001
    outer loop
      vertex -3.875000e+001  3.424712e+000  1.870929e+000
      vertex -4.000000e+001  2.327734e+000  1.271647e+000
      vertex -3.875000e+001  1.670946e+000  3.526609e+000
    endloop
  endfacet
  facet normal -6.891517e-001  4.974352e-001  5.269043e-001
    outer loop
      vertex -3.875000e+001  1.670946e+000  3.526609e+000
      vertex -4.000000e+001  2.327734e+000  1.271647e+000
      vertex -4.000000e+001  1.135721e+000  2.396992e+000
    endloop
  endfacet
  facet normal -6.891517e-001  9.272686e-002  7.186596e-001
    outer loop
      vertex -3.875000e+001  1.670946e+000  3.526609e+000
      vertex -4.000000e+001  1.135721e+000  2.396992e+000
      vertex -3.875000e+001 -7.210648e-001  3.835244e+000
    endloop
  endfacet
  facet normal -6.891518e-001  9.272683e-002  7.186596e-001
    outer loop
      vertex -3.875000e+001 -7.210648e-001  3.835244e+000
      vertex -4.000000e+001  1.135721e+000  2.396992e+000
      vertex -4.000000e+001 -4.900987e-001  2.606767e+000
    endloop
  endfacet
  facet normal -6.891517e-001 -3.473999e-001  6.359112e-001
    outer loop
      vertex -3.875000e+001 -7.210648e-001  3.835244e+000
      vertex -4.000000e+001 -4.900987e-001  2.606767e+000
      vertex -3.875000e+001 -2.837653e+000  2.678946e+000
    endloop
  endfacet
  facet normal -6.891518e-001 -3.473999e-001  6.359113e-001
    outer loop
      vertex -3.875000e+001 -2.837653e+000  2.678946e+000
      vertex -4.000000e+001 -4.900987e-001  2.606767e+000
      vertex -4.000000e+001 -1.928718e+000  1.820846e+000
    endloop
  endfacet
  facet normal -6.891517e-001 -6.548317e-001  3.102665e-001
    outer loop
      vertex -3.875000e+001 -2.837653e+000  2.678946e+000
      vertex -4.000000e+001 -1.928718e+000  1.820846e+000
      vertex -3.875000e+001 -3.870355e+000  4.993822e-001
    endloop
  endfacet
  facet normal -6.891518e-001 -6.548317e-001  3.102665e-001
    outer loop
      vertex -3.875000e+001 -3.870355e+000  4.993822e-001
      vertex -4.000000e+001 -1.928718e+000  1.820846e+000
      vertex -4.000000e+001 -2.630632e+000  3.394238e-001
    endloop
  endfacet
  facet normal -6.891517e-001 -7.121401e-001 -1.338896e-001
    outer loop
      vertex -3.875000e+001 -3.870355e+000  4.993822e-001
      vertex -4.000000e+001 -2.630632e+000  3.394238e-001
      vertex -3.875000e+001 -3.424712e+000 -1.870929e+000
    endloop
  endfacet
  facet normal -6.891518e-001 -7.121400e-001 -1.338896e-001
    outer loop
      vertex -3.875000e+001 -3.424712e+000 -1.870929e+000
      vertex -4.000000e+001 -2.630632e+000  3.394238e-001
      vertex -4.000000e+001 -2.327734e+000 -1.271647e+000
    endloop
  endfacet
  facet normal -1.000000e+000  -0.000000e+000  0.000000e+000
    outer loop
      vertex  0.000000e+000  2.289303e+000  3.757538e+000
      vertex  0.000000e+000  5.856297e+000  2.820244e+000
      vertex  0.000000e+000  3.861363e+000  2.109472e+000
    endloop
  endfacet
  facet normal -1.000000e+000  0.000000e+000  0.000000e+000
    outer loop
      vertex  0.000000e+000  3.861363e+000  2.109472e+000
      vertex  0.000000e+000  5.856297e+000  2.820244e+000
      vertex  0.000000e+000  6.500000e+000  0.000000e+000
    endloop
  endfacet
  facet normal -1.000000e+000  -0.000000e+000  0.000000e+000
    outer loop
      vertex  0.000000e+000  3.861363e+000  2.109472e+000
      vertex  0.000000e+000  6.500000e+000  0.000000e+000
      vertex  0.000000e+000  4.398775e+000 -1.038250e-001
    endloop
  endfacet
  facet normal -1.000000e+000  0.000000e+000  0.000000e+000
    outer loop
      vertex  0.000000e+000  4.398775e+000 -1.038250e-001
      vertex  0.000000e+000  6.500000e+000  0.000000e+000
      vertex  0.000000e+000  5.856297e+000 -2.820244e+000
    endloop
  endfacet
  facet normal -1.000000e+000  0.000000e+000  0.000000e+000
    outer loop
      vertex  0.000000e+000  4.398775e+000 -1.038250e-001
      vertex  0.000000e+000  5.856297e+000 -2.820244e+000
      vertex  0.000000e+000  3.757538e+000 -2.289303e+000
    endloop
  endfacet
  facet normal -1.000000e+000  0.000000e+000  0.000000e+000
    outer loop
      vertex  0.000000e+000  3.757538e+000 -2.289303e+000
      vertex  0.000000e+000  5.856297e+000 -2.820244e+000
      vertex  0.000000e+000  4.052684e+000 -5.081904e+000
    endloop
  endfacet
  facet normal -9.999999e-001  0.000000e+000  0.000000e+000
    outer loop
      vertex  0.000000e+000  3.757538e+000 -2.289303e+000
      vertex  0.000000e+000  4.052684e+000 -5.081904e+000
      vertex  0.000000e+000  2.109472e+000 -3.861363e+000
    endloop
  endfacet
  facet normal -1.000000e+000  0.000000e+000  -0.000000e+000
    outer loop
      vertex  0.000000e+000  2.109472e+000 -3.861363e+000
      vertex  0.000000e+000  4.052684e+000 -5.081904e+000
      vertex  0.000000e+000  1.446386e+000 -6.337031e+000
    endloop
  endfacet
  facet normal -1.000000e+000  0.000000e+000  0.000000e+000
    outer loop
      vertex  0.000000e+000  2.109472e+000 -3.861363e+000
      vertex  0.000000e+000  1.446386e+000 -6.337031e+000
      vertex  0.000000e+000 -1.038250e-001 -4.398775e+000
    endloop
  endfacet
  facet normal -1.000000e+000  0.000000e+000  -0.000000e+000
    outer loop
      vertex  0.000000e+000 -1.038250e-001 -4.398775e+000
      vertex  0.000000e+000  1.446386e+000 -6.337031e+000
      vertex  0.000000e+000 -1.446386e+000 -6.337031e+000
    endloop
  endfacet
  facet normal -1.000000e+000  0.000000e+000  0.000000e+000
    outer loop
      vertex  0.000000e+000 -1.038250e-001 -4.398775e+000
      vertex  0.000000e+000 -1.446386e+000 -6.337031e+000
      vertex  0.000000e+000 -4.052684e+000 -5.081904e+000
    endloop
  endfacet
  facet normal -1.000000e+000  0.000000e+000  0.000000e+000
    outer loop
      vertex  0.000000e+000 -1.038250e-001 -4.398775e+000
      vertex  0.000000e+000 -4.052684e+000 -5.081904e+000
      vertex  0.000000e+000 -2.289303e+000 -3.757538e+000
    endloop
  endfacet
  facet normal -1.000000e+000  -0.000000e+000  0.000000e+000
    outer loop
      vertex  0.000000e+000 -2.289303e+000 -3.757538e+000
      vertex  0.000000e+000 -4.052684e+000 -5.081904e+000
      vertex  0.000000e+000 -5.856297e+000 -2.820244e+000
    endloop
  endfacet
  facet normal -1.000000e+000  0.000000e+000  0.000000e+000
    outer loop
      vertex  0.000000e+000 -2.289303e+000 -3.757538e+000
      vertex  0.000000e+000 -5.856297e+000 -2.820244e+000
      vertex  0.000000e+000 -3.861363e+000 -2.109472e+000
    endloop
  endfacet
  facet normal -1.000000e+000  -0.000000e+000  0.000000e+000
    outer loop
      vertex  0.000000e+000 -3.861363e+000 -2.109472e+000
      vertex  0.000000e+000 -5.856297e+000 -2.820244e+000
      vertex  0.000000e+000 -6.500000e+000 -2.090586e-015
    endloop
  endfacet
  facet normal -1.000000e+000  0.000000e+000  0.000000e+000
    outer loop
      vertex  0.000000e+000 -3.861363e+000 -2.109472e+000
      vertex  0.000000e+000 -6.500000e+000 -2.090586e-015
      vertex  0.000000e+000 -4.398775e+000  1.038250e-001
    endloop
  endfacet
  facet normal -1.000000e+000  -0.000000e+000  0.000000e+000
    outer loop
      vertex  0.000000e+000 -4.398775e+000  1.038250e-001
      vertex  0.000000e+000 -6.500000e+000 -2.090586e-015
      vertex  0.000000e+000 -5.856297e+000  2.820244e+000
    endloop
  endfacet
  facet normal -1.000000e+000  0.000000e+000  0.000000e+000
    outer loop
      vertex  0.000000e+000 -4.398775e+000  1.038250e-001
      vertex  0.000000e+000 -5.856297e+000  2.820244e+000
      vertex  0.000000e+000 -3.757538e+000  2.289303e+000
    endloop
  endfacet
  facet normal -1.000000e+000  0.000000e+000  0.000000e+000
    outer loop
      vertex  0.000000e+000 -3.757538e+000  2.289303e+000
      vertex  0.000000e+000 -5.856297e+000  2.820244e+000
      vertex  0.000000e+000 -4.052684e+000  5.081904e+000
    endloop
  endfacet
  facet normal -9.999999e-001  0.000000e+000  0.000000e+000
    outer loop
      vertex  0.000000e+000 -3.757538e+000  2.289303e+000
      vertex  0.000000e+000 -4.052684e+000  5.081904e+000
      vertex  0.000000e+000 -2.109472e+000  3.861363e+000
    endloop
  endfacet
  facet normal -1.000000e+000  0.000000e+000  0.000000e+000
    outer loop
      vertex  0.000000e+000 -2.109472e+000  3.861363e+000
      vertex  0.000000e+000 -4.052684e+000  5.081904e+000
      vertex  0.000000e+000 -1.446386e+000  6.337031e+000
    endloop
  endfacet
  facet normal -1.000000e+000  0.000000e+000  -0.000000e+000
    outer loop
      vertex  0.000000e+000 -2.109472e+000  3.861363e+000
      vertex  0.000000e+000 -1.446386e+000  6.337031e+000
      vertex  0.000000e+000  1.038250e-001  4.398775e+000
    endloop
  endfacet
  facet normal -1.000000e+000  0.000000e+000  0.000000e+000
    outer loop
      vertex  0.000000e+000  1.038250e-001  4.398775e+000
      vertex  0.000000e+000 -1.446386e+000  6.337031e+000
      vertex  0.000000e+000  1.446386e+000  6.337031e+000
    endloop
  endfacet
  facet normal -1.000000e+000  0.000000e+000  -0.000000e+000
    outer loop
      vertex  0.000000e+000  1.038250e-001  4.398775e+000
      vertex  0.000000e+000  1.446386e+000  6.337031e+000
      vertex  0.000000e+000  4.052684e+000  5.081904e+000
    endloop
  endfacet
  facet normal -1.000000e+000  0.000000e+000  0.000000e+000
    outer loop
      vertex  0.000000e+000  2.289303e+000  3.757538e+000
      vertex  0.000000e+000  1.038250e-001  4.398775e+000
      vertex  0.000000e+000  5.856297e+000  2.820244e+000
    endloop
  endfacet
  facet normal -1.000000e+000  0.000000e+000  0.000000e+000
    outer loop
      vertex  0.000000e+000  5.856297e+000  2.820244e+000
      vertex  0.000000e+000  1.038250e-001  4.398775e+000
      vertex  0.000000e+000  4.052684e+000  5.081904e+000
    endloop
  endfacet
  facet normal  0.000000e+000  9.827812e-001  1.847729e-001
    outer loop
      vertex -1.200000e+001  3.510330e+000  1.917702e+000
      vertex -4.000000e-001  3.510330e+000  1.917702e+000
      vertex -1.200000e+001  3.967114e+000 -5.118667e-001
    endloop
  endfacet
  facet normal  -0.000000e+000  9.827812e-001  1.847729e-001
    outer loop
      vertex -1.200000e+001  3.967114e+000 -5.118667e-001
      vertex -4.000000e-001  3.510330e+000  1.917702e+000
      vertex -4.000000e-001  3.967114e+000 -5.118667e-001
    endloop
  endfacet
  facet normal  0.000000e+000  9.036935e-001 -4.281800e-001
    outer loop
      vertex -1.200000e+001  3.967114e+000 -5.118667e-001
      vertex -4.000000e-001  3.967114e+000 -5.118667e-001
      vertex -1.200000e+001  2.908595e+000 -2.745920e+000
    endloop
  endfacet
  facet normal  0.000000e+000  9.036935e-001 -4.281800e-001
    outer loop
      vertex -1.200000e+001  2.908595e+000 -2.745920e+000
      vertex -4.000000e-001  3.967114e+000 -5.118667e-001
      vertex -4.000000e-001  2.908595e+000 -2.745920e+000
    endloop
  endfacet
  facet normal  0.000000e+000  4.794255e-001 -8.775826e-001
    outer loop
      vertex -1.200000e+001  2.908595e+000 -2.745920e+000
      vertex -4.000000e-001  2.908595e+000 -2.745920e+000
      vertex -1.200000e+001  7.390915e-001 -3.931125e+000
    endloop
  endfacet
  facet normal  0.000000e+000  4.794255e-001 -8.775826e-001
    outer loop
      vertex -1.200000e+001  7.390915e-001 -3.931125e+000
      vertex -4.000000e-001  2.908595e+000 -2.745920e+000
      vertex -4.000000e-001  7.390915e-001 -3.931125e+000
    endloop
  endfacet
  facet normal  -0.000000e+000 -1.279666e-001 -9.917785e-001
    outer loop
      vertex -1.200000e+001  7.390915e-001 -3.931125e+000
      vertex -4.000000e-001  7.390915e-001 -3.931125e+000
      vertex -1.200000e+001 -1.712720e+000 -3.614774e+000
    endloop
  endfacet
  facet normal  0.000000e+000 -1.279666e-001 -9.917785e-001
    outer loop
      vertex -1.200000e+001 -1.712720e+000 -3.614774e+000
      vertex -4.000000e-001  7.390915e-001 -3.931125e+000
      vertex -4.000000e-001 -1.712720e+000 -3.614774e+000
    endloop
  endfacet
  facet normal  -0.000000e+000 -6.864800e-001 -7.271487e-001
    outer loop
      vertex -1.200000e+001 -1.712720e+000 -3.614774e+000
      vertex -4.000000e-001 -1.712720e+000 -3.614774e+000
      vertex -1.200000e+001 -3.510330e+000 -1.917702e+000
    endloop
  endfacet
  facet normal  0.000000e+000 -6.864800e-001 -7.271487e-001
    outer loop
      vertex -1.200000e+001 -3.510330e+000 -1.917702e+000
      vertex -4.000000e-001 -1.712720e+000 -3.614774e+000
      vertex -4.000000e-001 -3.510330e+000 -1.917702e+000
    endloop
  endfacet
  facet normal  -0.000000e+000 -9.827812e-001 -1.847729e-001
    outer loop
      vertex -1.200000e+001 -3.510330e+000 -1.917702e+000
      vertex -4.000000e-001 -3.510330e+000 -1.917702e+000
      vertex -1.200000e+001 -3.967114e+000  5.118667e-001
    endloop
  endfacet
  facet normal  0.000000e+000 -9.827812e-001 -1.847729e-001
    outer loop
      vertex -1.200000e+001 -3.967114e+000  5.118667e-001
      vertex -4.000000e-001 -3.510330e+000 -1.917702e+000
      vertex -4.000000e-001 -3.967114e+000  5.118667e-001
    endloop
  endfacet
  facet normal  0.000000e+000 -9.036935e-001  4.281800e-001
    outer loop
      vertex -1.200000e+001 -3.967114e+000  5.118667e-001
      vertex -4.000000e-001 -3.967114e+000  5.118667e-001
      vertex -1.200000e+001 -2.908595e+000  2.745920e+000
    endloop
  endfacet
  facet normal  0.000000e+000 -9.036935e-001  4.281800e-001
    outer loop
      vertex -1.200000e+001 -2.908595e+000  2.745920e+000
      vertex -4.000000e-001 -3.967114e+000  5.118667e-001
      vertex -4.000000e-001 -2.908595e+000  2.745920e+000
    endloop
  endfacet
  facet normal  0.000000e+000 -4.794255e-001  8.775826e-001
    outer loop
      vertex -1.200000e+001 -2.908595e+000  2.745920e+000
      vertex -4.000000e-001 -2.908595e+000  2.745920e+000
      vertex -1.200000e+001 -7.390915e-001  3.931125e+000
    endloop
  endfacet
  facet normal  0.000000e+000 -4.794255e-001  8.775826e-001
    outer loop
      vertex -1.200000e+001 -7.390915e-001  3.931125e+000
      vertex -4.000000e-001 -2.908595e+000  2.745920e+000
      vertex -4.000000e-001 -7.390915e-001  3.931125e+000
    endloop
  endfacet
  facet normal  0.000000e+000  1.279666e-001  9.917785e-001
    outer loop
      vertex -1.200000e+001 -7.390915e-001  3.931125e+000
      vertex -4.000000e-001 -7.390915e-001  3.931125e+000
      vertex -1.200000e+001  1.712720e+000  3.614774e+000
    endloop
  endfacet
  facet normal  -0.000000e+000  1.279666e-001  9.917785e-001
    outer loop
      vertex -1.200000e+001  1.712720e+000  3.614774e+000
      vertex -4.000000e-001 -7.390915e-001  3.931125e+000
      vertex -4.000000e-001  1.712720e+000  3.614774e+000
    endloop
  endfacet
  facet normal  0.000000e+000  6.864800e-001  7.271487e-001
    outer loop
      vertex -1.200000e+001  1.712720e+000  3.614774e+000
      vertex -4.000000e-001  1.712720e+000  3.614774e+000
      vertex -1.200000e+001  3.510330e+000  1.917702e+000
    endloop
  endfacet
  facet normal  -0.000000e+000  6.864800e-001  7.271487e-001
    outer loop
      vertex -1.200000e+001  3.510330e+000  1.917702e+000
      vertex -4.000000e-001  1.712720e+000  3.614774e+000
      vertex -4.000000e-001  3.510330e+000  1.917702e+000
    endloop
  endfacet
  facet normal -6.190706e-001  7.718129e-001  1.451087e-001
    outer loop
      vertex -1.171573e-001  4.116011e+000 -9.715085e-002
      vertex -4.000000e-001  3.967114e+000 -5.118667e-001
      vertex -4.000000e-001  3.510330e+000  1.917702e+000
    endloop
  endfacet
  facet normal -3.714704e-001  9.022293e-001  2.190708e-001
    outer loop
      vertex -1.171573e-001  3.613145e+000  1.973870e+000
      vertex -1.171573e-001  4.116011e+000 -9.715085e-002
      vertex -4.000000e-001  3.510330e+000  1.917702e+000
    endloop
  endfacet
  facet normal -3.714703e-001 -6.718183e-001 -6.408355e-001
    outer loop
      vertex -1.171573e-001 -2.142141e+000 -3.515995e+000
      vertex -1.171573e-001 -3.613145e+000 -1.973870e+000
      vertex -4.000000e-001 -3.510330e+000 -1.917702e+000
    endloop
  endfacet
  facet normal -6.190704e-001 -5.391171e-001 -5.710557e-001
    outer loop
      vertex -4.000000e-001 -1.712720e+000 -3.614774e+000
      vertex -1.171573e-001 -2.142141e+000 -3.515995e+000
      vertex -4.000000e-001 -3.510330e+000 -1.917702e+000
    endloop
  endfacet
  facet normal -7.163393e-001 -8.928899e-002 -6.920155e-001
    outer loop
      vertex -4.000000e-001 -1.712720e+000 -3.614774e+000
      vertex -4.000000e-001  7.390915e-001 -3.931125e+000
      vertex -1.171573e-001 -9.715085e-002 -4.116011e+000
    endloop
  endfacet
  facet normal -9.194015e-002 -2.803472e-001 -9.554855e-001
    outer loop
      vertex -1.171573e-001 -2.142141e+000 -3.515995e+000
      vertex -4.000000e-001 -1.712720e+000 -3.614774e+000
      vertex -1.171573e-001 -9.715085e-002 -4.116011e+000
    endloop
  endfacet
  facet normal -7.418724e-001  3.214745e-001 -5.884551e-001
    outer loop
      vertex -4.000000e-001  7.390915e-001 -3.931125e+000
      vertex -4.000000e-001  2.908595e+000 -2.745920e+000
      vertex -1.171573e-001  1.973870e+000 -3.613145e+000
    endloop
  endfacet
  facet normal  6.227895e-002  2.354965e-001 -9.698777e-001
    outer loop
      vertex -1.171573e-001 -9.715085e-002 -4.116011e+000
      vertex -4.000000e-001  7.390915e-001 -3.931125e+000
      vertex -1.171573e-001  1.973870e+000 -3.613145e+000
    endloop
  endfacet
  facet normal -7.163390e-001  6.305544e-001 -2.987637e-001
    outer loop
      vertex -4.000000e-001  2.908595e+000 -2.745920e+000
      vertex -4.000000e-001  3.967114e+000 -5.118667e-001
      vertex -1.171573e-001  3.515995e+000 -2.142141e+000
    endloop
  endfacet
  facet normal  6.227971e-002  6.888847e-001 -7.221906e-001
    outer loop
      vertex -1.171573e-001  1.973870e+000 -3.613145e+000
      vertex -4.000000e-001  2.908595e+000 -2.745920e+000
      vertex -1.171573e-001  3.515995e+000 -2.142141e+000
    endloop
  endfacet
  facet normal -9.194036e-002  9.554854e-001 -2.803471e-001
    outer loop
      vertex -1.171573e-001  3.515995e+000 -2.142141e+000
      vertex -4.000000e-001  3.967114e+000 -5.118667e-001
      vertex -1.171573e-001  4.116011e+000 -9.715085e-002
    endloop
  endfacet
  facet normal -9.190605e-001  9.299359e-002 -3.829883e-001
    outer loop
      vertex -1.171573e-001  1.973870e+000 -3.613145e+000
      vertex  0.000000e+000 -1.038250e-001 -4.398775e+000
      vertex -1.171573e-001 -9.715085e-002 -4.116011e+000
    endloop
  endfacet
  facet normal -9.190605e-001 -1.109594e-001 -3.781743e-001
    outer loop
      vertex -1.171573e-001 -9.715085e-002 -4.116011e+000
      vertex  0.000000e+000 -1.038250e-001 -4.398775e+000
      vertex  0.000000e+000 -2.289303e+000 -3.757538e+000
    endloop
  endfacet
  facet normal -9.190605e-001 -1.109594e-001 -3.781742e-001
    outer loop
      vertex -1.171573e-001 -9.715085e-002 -4.116011e+000
      vertex  0.000000e+000 -2.289303e+000 -3.757538e+000
      vertex -1.171573e-001 -2.142141e+000 -3.515995e+000
    endloop
  endfacet
  facet normal -9.190605e-001 -2.851808e-001 -2.720288e-001
    outer loop
      vertex -1.171573e-001 -2.142141e+000 -3.515995e+000
      vertex  0.000000e+000 -2.289303e+000 -3.757538e+000
      vertex  0.000000e+000 -3.861363e+000 -2.109472e+000
    endloop
  endfacet
  facet normal -9.190604e-001 -2.851809e-001 -2.720290e-001
    outer loop
      vertex -1.171573e-001 -2.142141e+000 -3.515995e+000
      vertex  0.000000e+000 -3.861363e+000 -2.109472e+000
      vertex -1.171573e-001 -3.613145e+000 -1.973870e+000
    endloop
  endfacet
  facet normal -9.190605e-001  9.299361e-002 -3.829883e-001
    outer loop
      vertex  0.000000e+000 -1.038250e-001 -4.398775e+000
      vertex -1.171573e-001  1.973870e+000 -3.613145e+000
      vertex  0.000000e+000  2.109472e+000 -3.861363e+000
    endloop
  endfacet
  facet normal -9.190604e-001  2.720290e-001 -2.851809e-001
    outer loop
      vertex  0.000000e+000  2.109472e+000 -3.861363e+000
      vertex -1.171573e-001  1.973870e+000 -3.613145e+000
      vertex -1.171573e-001  3.515995e+000 -2.142141e+000
    endloop
  endfacet
  facet normal -9.190605e-001  2.720288e-001 -2.851808e-001
    outer loop
      vertex  0.000000e+000  2.109472e+000 -3.861363e+000
      vertex -1.171573e-001  3.515995e+000 -2.142141e+000
      vertex  0.000000e+000  3.757538e+000 -2.289303e+000
    endloop
  endfacet
  facet normal -9.190605e-001  3.781742e-001 -1.109594e-001
    outer loop
      vertex  0.000000e+000  3.757538e+000 -2.289303e+000
      vertex -1.171573e-001  3.515995e+000 -2.142141e+000
      vertex -1.171573e-001  4.116011e+000 -9.715085e-002
    endloop
  endfacet
  facet normal -9.190605e-001  3.781743e-001 -1.109594e-001
    outer loop
      vertex  0.000000e+000  3.757538e+000 -2.289303e+000
      vertex -1.171573e-001  4.116011e+000 -9.715085e-002
      vertex  0.000000e+000  4.398775e+000 -1.038250e-001
    endloop
  endfacet
  facet normal -9.190605e-001  3.829883e-001  9.299359e-002
    outer loop
      vertex  0.000000e+000  4.398775e+000 -1.038250e-001
      vertex -1.171573e-001  4.116011e+000 -9.715085e-002
      vertex -1.171573e-001  3.613145e+000  1.973870e+000
    endloop
  endfacet
  facet normal -9.190605e-001  3.829883e-001  9.299361e-002
    outer loop
      vertex  0.000000e+000  4.398775e+000 -1.038250e-001
      vertex -1.171573e-001  3.613145e+000  1.973870e+000
      vertex  0.000000e+000  3.861363e+000  2.109472e+000
    endloop
  endfacet
  facet normal -6.190706e-001 -7.718129e-001 -1.451087e-001
    outer loop
      vertex -1.171573e-001 -4.116011e+000  9.715085e-002
      vertex -4.000000e-001 -3.967114e+000  5.118667e-001
      vertex -4.000000e-001 -3.510330e+000 -1.917702e+000
    endloop
  endfacet
  facet normal -3.714704e-001 -9.022293e-001 -2.190708e-001
    outer loop
      vertex -1.171573e-001 -3.613145e+000 -1.973870e+000
      vertex -1.171573e-001 -4.116011e+000  9.715085e-002
      vertex -4.000000e-001 -3.510330e+000 -1.917702e+000
    endloop
  endfacet
  facet normal -3.714703e-001  6.718183e-001  6.408355e-001
    outer loop
      vertex -1.171573e-001  2.142141e+000  3.515995e+000
      vertex -1.171573e-001  3.613145e+000  1.973870e+000
      vertex -4.000000e-001  3.510330e+000  1.917702e+000
    endloop
  endfacet
  facet normal -6.190704e-001  5.391171e-001  5.710557e-001
    outer loop
      vertex -4.000000e-001  1.712720e+000  3.614774e+000
      vertex -1.171573e-001  2.142141e+000  3.515995e+000
      vertex -4.000000e-001  3.510330e+000  1.917702e+000
    endloop
  endfacet
  facet normal -7.163393e-001  8.928899e-002  6.920155e-001
    outer loop
      vertex -4.000000e-001  1.712720e+000  3.614774e+000
      vertex -4.000000e-001 -7.390915e-001  3.931125e+000
      vertex -1.171573e-001  9.715085e-002  4.116011e+000
    endloop
  endfacet
  facet normal -9.194015e-002  2.803472e-001  9.554855e-001
    outer loop
      vertex -1.171573e-001  2.142141e+000  3.515995e+000
      vertex -4.000000e-001  1.712720e+000  3.614774e+000
      vertex -1.171573e-001  9.715085e-002  4.116011e+000
    endloop
  endfacet
  facet normal -7.418724e-001 -3.214745e-001  5.884551e-001
    outer loop
      vertex -4.000000e-001 -7.390915e-001  3.931125e+000
      vertex -4.000000e-001 -2.908595e+000  2.745920e+000
      vertex -1.171573e-001 -1.973870e+000  3.613145e+000
    endloop
  endfacet
  facet normal  6.227895e-002 -2.354965e-001  9.698777e-001
    outer loop
      vertex -1.171573e-001  9.715085e-002  4.116011e+000
      vertex -4.000000e-001 -7.390915e-001  3.931125e+000
      vertex -1.171573e-001 -1.973870e+000  3.613145e+000
    endloop
  endfacet
  facet normal -7.163390e-001 -6.305544e-001  2.987637e-001
    outer loop
      vertex -4.000000e-001 -2.908595e+000  2.745920e+000
      vertex -4.000000e-001 -3.967114e+000  5.118667e-001
      vertex -1.171573e-001 -3.515995e+000  2.142141e+000
    endloop
  endfacet
  facet normal  6.227971e-002 -6.888847e-001  7.221906e-001
    outer loop
      vertex -1.171573e-001 -1.973870e+000  3.613145e+000
      vertex -4.000000e-001 -2.908595e+000  2.745920e+000
      vertex -1.171573e-001 -3.515995e+000  2.142141e+000
    endloop
  endfacet
  facet normal -9.194036e-002 -9.554854e-001  2.803471e-001
    outer loop
      vertex -1.171573e-001 -3.515995e+000  2.142141e+000
      vertex -4.000000e-001 -3.967114e+000  5.118667e-001
      vertex -1.171573e-001 -4.116011e+000  9.715085e-002
    endloop
  endfacet
  facet normal -9.190605e-001 -9.299359e-002  3.829883e-001
    outer loop
      vertex -1.171573e-001 -1.973870e+000  3.613145e+000
      vertex  0.000000e+000  1.038250e-001  4.398775e+000
      vertex -1.171573e-001  9.715085e-002  4.116011e+000
    endloop
  endfacet
  facet normal -9.190605e-001  1.109594e-001  3.781743e-001
    outer loop
      vertex -1.171573e-001  9.715085e-002  4.116011e+000
      vertex  0.000000e+000  1.038250e-001  4.398775e+000
      vertex  0.000000e+000  2.289303e+000  3.757538e+000
    endloop
  endfacet
  facet normal -9.190605e-001  1.109594e-001  3.781742e-001
    outer loop
      vertex -1.171573e-001  9.715085e-002  4.116011e+000
      vertex  0.000000e+000  2.289303e+000  3.757538e+000
      vertex -1.171573e-001  2.142141e+000  3.515995e+000
    endloop
  endfacet
  facet normal -9.190605e-001  2.851808e-001  2.720288e-001
    outer loop
      vertex -1.171573e-001  2.142141e+000  3.515995e+000
      vertex  0.000000e+000  2.289303e+000  3.757538e+000
      vertex  0.000000e+000  3.861363e+000  2.109472e+000
    endloop
  endfacet
  facet normal -9.190604e-001  2.851809e-001  2.720290e-001
    outer loop
      vertex -1.171573e-001  2.142141e+000  3.515995e+000
      vertex  0.000000e+000  3.861363e+000  2.109472e+000
      vertex -1.171573e-001  3.613145e+000  1.973870e+000
    endloop
  endfacet
  facet normal -9.190605e-001 -9.299361e-002  3.829883e-001
    outer loop
      vertex  0.000000e+000  1.038250e-001  4.398775e+000
      vertex -1.171573e-001 -1.973870e+000  3.613145e+000
      vertex  0.000000e+000 -2.109472e+000  3.861363e+000
    endloop
  endfacet
  facet normal -9.190604e-001 -2.720290e-001  2.851809e-001
    outer loop
      vertex  0.000000e+000 -2.109472e+000  3.861363e+000
      vertex -1.171573e-001 -1.973870e+000  3.613145e+000
      vertex -1.171573e-001 -3.515995e+000  2.142141e+000
    endloop
  endfacet
  facet normal -9.190605e-001 -2.720288e-001  2.851808e-001
    outer loop
      vertex  0.000000e+000 -2.109472e+000  3.861363e+000
      vertex -1.171573e-001 -3.515995e+000  2.142141e+000
      vertex  0.000000e+000 -3.757538e+000  2.289303e+000
    endloop
  endfacet
  facet normal -9.190605e-001 -3.781742e-001  1.109594e-001
    outer loop
      vertex  0.000000e+000 -3.757538e+000  2.289303e+000
      vertex -1.171573e-001 -3.515995e+000  2.142141e+000
      vertex -1.171573e-001 -4.116011e+000  9.715085e-002
    endloop
  endfacet
  facet normal -9.190605e-001 -3.781743e-001  1.109594e-001
    outer loop
      vertex  0.000000e+000 -3.757538e+000  2.289303e+000
      vertex -1.171573e-001 -4.116011e+000  9.715085e-002
      vertex  0.000000e+000 -4.398775e+000  1.038250e-001
    endloop
  endfacet
  facet normal -9.190605e-001 -3.829883e-001 -9.299359e-002
    outer loop
      vertex  0.000000e+000 -4.398775e+000  1.038250e-001
      vertex -1.171573e-001 -4.116011e+000  9.715085e-002
      vertex -1.171573e-001 -3.613145e+000 -1.973870e+000
    endloop
  endfacet
  facet normal -9.190605e-001 -3.829883e-001 -9.299361e-002
    outer loop
      vertex  0.000000e+000 -4.398775e+000  1.038250e-001
      vertex -1.171573e-001 -3.613145e+000 -1.973870e+000
      vertex  0.000000e+000 -3.861363e+000 -2.109472e+000
    endloop
  endfacet
  facet normal -1.000000e+000  0.000000e+000  0.000000e+000
    outer loop
      vertex -1.200000e+001 -7.390915e-001  3.931125e+000
      vertex -1.200000e+001 -2.837653e+000  2.678946e+000
      vertex -1.200000e+001 -2.908595e+000  2.745920e+000
    endloop
  endfacet
  facet normal -1.000000e+000  0.000000e+000  -0.000000e+000
    outer loop
      vertex -1.200000e+001 -2.908595e+000  2.745920e+000
      vertex -1.200000e+001 -2.837653e+000  2.678946e+000
      vertex -1.200000e+001 -3.870355e+000  4.993822e-001
    endloop
  endfacet
  facet normal -1.000000e+000  0.000000e+000  0.000000e+000
    outer loop
      vertex -1.200000e+001 -2.908595e+000  2.745920e+000
      vertex -1.200000e+001 -3.870355e+000  4.993822e-001
      vertex -1.200000e+001 -3.967114e+000  5.118667e-001
    endloop
  endfacet
  facet normal -1.000000e+000  0.000000e+000  0.000000e+000
    outer loop
      vertex -1.200000e+001 -3.967114e+000  5.118667e-001
      vertex -1.200000e+001 -3.870355e+000  4.993822e-001
      vertex -1.200000e+001 -3.424712e+000 -1.870929e+000
    endloop
  endfacet
  facet normal -1.000000e+000  -0.000000e+000  0.000000e+000
    outer loop
      vertex -1.200000e+001 -3.967114e+000  5.118667e-001
      vertex -1.200000e+001 -3.424712e+000 -1.870929e+000
      vertex -1.200000e+001 -3.510330e+000 -1.917702e+000
    endloop
  endfacet
  facet normal -1.000000e+000  0.000000e+000  0.000000e+000
    outer loop
      vertex -1.200000e+001 -3.510330e+000 -1.917702e+000
      vertex -1.200000e+001 -3.424712e+000 -1.870929e+000
      vertex -1.200000e+001 -1.670946e+000 -3.526609e+000
    endloop
  endfacet
  facet normal -9.999999e-001  -0.000000e+000  0.000000e+000
    outer loop
      vertex -1.200000e+001 -3.510330e+000 -1.917702e+000
      vertex -1.200000e+001 -1.670946e+000 -3.526609e+000
      vertex -1.200000e+001 -1.712720e+000 -3.614774e+000
    endloop
  endfacet
  facet normal -1.000000e+000  0.000000e+000  0.000000e+000
    outer loop
      vertex -1.200000e+001 -1.712720e+000 -3.614774e+000
      vertex -1.200000e+001 -1.670946e+000 -3.526609e+000
      vertex -1.200000e+001  7.210648e-001 -3.835244e+000
    endloop
  endfacet
  facet normal -1.000000e+000  -0.000000e+000  -0.000000e+000
    outer loop
      vertex -1.200000e+001 -1.712720e+000 -3.614774e+000
      vertex -1.200000e+001  7.210648e-001 -3.835244e+000
      vertex -1.200000e+001  7.390915e-001 -3.931125e+000
    endloop
  endfacet
  facet normal -1.000000e+000  0.000000e+000  -0.000000e+000
    outer loop
      vertex -1.200000e+001 -2.837653e+000  2.678946e+000
      vertex -1.200000e+001 -7.390915e-001  3.931125e+000
      vertex -1.200000e+001 -7.210648e-001  3.835244e+000
    endloop
  endfacet
  facet normal -1.000000e+000  0.000000e+000  0.000000e+000
    outer loop
      vertex -1.200000e+001 -7.210648e-001  3.835244e+000
      vertex -1.200000e+001 -7.390915e-001  3.931125e+000
      vertex -1.200000e+001  1.712720e+000  3.614774e+000
    endloop
  endfacet
  facet normal -1.000000e+000  -0.000000e+000  0.000000e+000
    outer loop
      vertex -1.200000e+001 -7.210648e-001  3.835244e+000
      vertex -1.200000e+001  1.712720e+000  3.614774e+000
      vertex -1.200000e+001  1.670946e+000  3.526609e+000
    endloop
  endfacet
  facet normal -9.999999e-001  0.000000e+000  0.000000e+000
    outer loop
      vertex -1.200000e+001  1.670946e+000  3.526609e+000
      vertex -1.200000e+001  1.712720e+000  3.614774e+000
      vertex -1.200000e+001  3.510330e+000  1.917702e+000
    endloop
  endfacet
  facet normal -1.000000e+000  -0.000000e+000  0.000000e+000
    outer loop
      vertex -1.200000e+001  1.670946e+000  3.526609e+000
      vertex -1.200000e+001  3.510330e+000  1.917702e+000
      vertex -1.200000e+001  3.424712e+000  1.870929e+000
    endloop
  endfacet
  facet normal -1.000000e+000  0.000000e+000  0.000000e+000
    outer loop
      vertex -1.200000e+001  3.424712e+000  1.870929e+000
      vertex -1.200000e+001  3.510330e+000  1.917702e+000
      vertex -1.200000e+001  3.967114e+000 -5.118667e-001
    endloop
  endfacet
  facet normal -1.000000e+000  0.000000e+000  0.000000e+000
    outer loop
      vertex -1.200000e+001  3.424712e+000  1.870929e+000
      vertex -1.200000e+001  3.967114e+000 -5.118667e-001
      vertex -1.200000e+001  3.870355e+000 -4.993822e-001
    endloop
  endfacet
  facet normal -1.000000e+000  0.000000e+000  -0.000000e+000
    outer loop
      vertex -1.200000e+001  3.870355e+000 -4.993822e-001
      vertex -1.200000e+001  3.967114e+000 -5.118667e-001
      vertex -1.200000e+001  2.908595e+000 -2.745920e+000
    endloop
  endfacet
  facet normal -1.000000e+000  0.000000e+000  0.000000e+000
    outer loop
      vertex -1.200000e+001  3.870355e+000 -4.993822e-001
      vertex -1.200000e+001  2.908595e+000 -2.745920e+000
      vertex -1.200000e+001  2.837653e+000 -2.678946e+000
    endloop
  endfacet
  facet normal -1.000000e+000  0.000000e+000  -0.000000e+000
    outer loop
      vertex -1.200000e+001  2.837653e+000 -2.678946e+000
      vertex -1.200000e+001  2.908595e+000 -2.745920e+000
      vertex -1.200000e+001  7.390915e-001 -3.931125e+000
    endloop
  endfacet
  facet normal -1.000000e+000  0.000000e+000  0.000000e+000
    outer loop
      vertex -1.200000e+001  2.837653e+000 -2.678946e+000
      vertex -1.200000e+001  7.390915e-001 -3.931125e+000
      vertex -1.200000e+001  7.210648e-001 -3.835244e+000
    endloop
  endfacet
  facet normal  1.000000e+000  -0.000000e+000  0.000000e+000
    outer loop
      vertex  8.000000e+000  3.000000e+000 -1.665891e+000
      vertex  8.000000e+000  2.942704e+000 -1.765131e+000
      vertex  8.000000e+000  5.495910e+000 -2.646691e+000
    endloop
  endfacet
  facet normal  9.999999e-001  0.000000e+000  -0.000000e+000
    outer loop
      vertex  8.000000e+000  3.000000e+000 -1.665891e+000
      vertex  8.000000e+000  5.495910e+000 -2.646691e+000
      vertex  8.000000e+000  6.100000e+000  2.591601e-015
    endloop
  endfacet
  facet normal  1.000000e+000  0.000000e+000  0.000000e+000
    outer loop
      vertex  8.000000e+000  3.000000e+000 -1.665891e+000
      vertex  8.000000e+000  6.100000e+000  2.591601e-015
      vertex  8.000000e+000  5.495910e+000  2.646691e+000
    endloop
  endfacet
  facet normal  1.000000e+000  0.000000e+000  0.000000e+000
    outer loop
      vertex  8.000000e+000  3.000000e+000 -1.665891e+000
      vertex  8.000000e+000  5.495910e+000  2.646691e+000
      vertex  8.000000e+000  3.000000e+000  1.665891e+000
    endloop
  endfacet
  facet normal  1.000000e+000  0.000000e+000  0.000000e+000
    outer loop
      vertex  8.000000e+000  5.495910e+000 -2.646691e+000
      vertex  8.000000e+000  2.942704e+000 -1.765131e+000
      vertex  8.000000e+000  3.803288e+000 -4.769172e+000
    endloop
  endfacet
  facet normal  1.000000e+000  0.000000e+000  0.000000e+000
    outer loop
      vertex  8.000000e+000  3.803288e+000 -4.769172e+000
      vertex  8.000000e+000  2.942704e+000 -1.765131e+000
      vertex  8.000000e+000  5.729622e-002 -3.431022e+000
    endloop
  endfacet
  facet normal  1.000000e+000  0.000000e+000  0.000000e+000
    outer loop
      vertex  8.000000e+000  1.357378e+000 -5.947060e+000
      vertex  8.000000e+000  3.803288e+000 -4.769172e+000
      vertex  8.000000e+000 -1.357378e+000 -5.947060e+000
    endloop
  endfacet
  facet normal  1.000000e+000  0.000000e+000  0.000000e+000
    outer loop
      vertex  8.000000e+000 -1.357378e+000 -5.947060e+000
      vertex  8.000000e+000  3.803288e+000 -4.769172e+000
      vertex  8.000000e+000  5.729622e-002 -3.431022e+000
    endloop
  endfacet
  facet normal  1.000000e+000  0.000000e+000  0.000000e+000
    outer loop
      vertex  8.000000e+000 -1.357378e+000 -5.947060e+000
      vertex  8.000000e+000  5.729622e-002 -3.431022e+000
      vertex  8.000000e+000 -3.803288e+000 -4.769172e+000
    endloop
  endfacet
  facet normal  1.000000e+000  0.000000e+000  0.000000e+000
    outer loop
      vertex  8.000000e+000 -3.803288e+000 -4.769172e+000
      vertex  8.000000e+000  5.729622e-002 -3.431022e+000
      vertex  8.000000e+000 -5.729622e-002 -3.431022e+000
    endloop
  endfacet
  facet normal  1.000000e+000  0.000000e+000  0.000000e+000
    outer loop
      vertex  8.000000e+000 -3.803288e+000 -4.769172e+000
      vertex  8.000000e+000 -5.729622e-002 -3.431022e+000
      vertex  8.000000e+000 -5.495910e+000 -2.646691e+000
    endloop
  endfacet
  facet normal  1.000000e+000  -0.000000e+000  0.000000e+000
    outer loop
      vertex  8.000000e+000 -5.495910e+000 -2.646691e+000
      vertex  8.000000e+000 -5.729622e-002 -3.431022e+000
      vertex  8.000000e+000 -2.942704e+000 -1.765131e+000
    endloop
  endfacet
  facet normal  9.999999e-001  0.000000e+000  0.000000e+000
    outer loop
      vertex  8.000000e+000 -5.495910e+000 -2.646691e+000
      vertex  8.000000e+000 -2.942704e+000 -1.765131e+000
      vertex  8.000000e+000 -6.100000e+000  2.789820e-015
    endloop
  endfacet
  facet normal  1.000000e+000  0.000000e+000  0.000000e+000
    outer loop
      vertex  8.000000e+000 -6.100000e+000  2.789820e-015
      vertex  8.000000e+000 -2.942704e+000 -1.765131e+000
      vertex  8.000000e+000 -3.000000e+000 -1.665891e+000
    endloop
  endfacet
  facet normal  1.000000e+000  0.000000e+000  -0.000000e+000
    outer loop
      vertex  8.000000e+000 -6.100000e+000  2.789820e-015
      vertex  8.000000e+000 -3.000000e+000 -1.665891e+000
      vertex  8.000000e+000 -3.000000e+000  1.665891e+000
    endloop
  endfacet
  facet normal  1.000000e+000  0.000000e+000  0.000000e+000
    outer loop
      vertex  8.000000e+000  3.803288e+000  4.769172e+000
      vertex  8.000000e+000  1.357378e+000  5.947060e+000
      vertex  8.000000e+000  5.729622e-002  3.431022e+000
    endloop
  endfacet
  facet normal  1.000000e+000  0.000000e+000  -0.000000e+000
    outer loop
      vertex  8.000000e+000  5.729622e-002  3.431022e+000
      vertex  8.000000e+000  1.357378e+000  5.947060e+000
      vertex  8.000000e+000 -1.357378e+000  5.947060e+000
    endloop
  endfacet
  facet normal  1.000000e+000  0.000000e+000  0.000000e+000
    outer loop
      vertex  8.000000e+000  5.729622e-002  3.431022e+000
      vertex  8.000000e+000 -1.357378e+000  5.947060e+000
      vertex  8.000000e+000 -5.729622e-002  3.431022e+000
    endloop
  endfacet
  facet normal  1.000000e+000  0.000000e+000  0.000000e+000
    outer loop
      vertex  8.000000e+000 -5.729622e-002  3.431022e+000
      vertex  8.000000e+000 -1.357378e+000  5.947060e+000
      vertex  8.000000e+000 -3.803288e+000  4.769172e+000
    endloop
  endfacet
  facet normal  1.000000e+000  0.000000e+000  0.000000e+000
    outer loop
      vertex  8.000000e+000 -5.729622e-002  3.431022e+000
      vertex  8.000000e+000 -3.803288e+000  4.769172e+000
      vertex  8.000000e+000 -2.942704e+000  1.765131e+000
    endloop
  endfacet
  facet normal  1.000000e+000  0.000000e+000  0.000000e+000
    outer loop
      vertex  8.000000e+000 -2.942704e+000  1.765131e+000
      vertex  8.000000e+000 -3.803288e+000  4.769172e+000
      vertex  8.000000e+000 -5.495910e+000  2.646691e+000
    endloop
  endfacet
  facet normal  1.000000e+000  0.000000e+000  0.000000e+000
    outer loop
      vertex  8.000000e+000 -2.942704e+000  1.765131e+000
      vertex  8.000000e+000 -5.495910e+000  2.646691e+000
      vertex  8.000000e+000 -3.000000e+000  1.665891e+000
    endloop
  endfacet
  facet normal  9.999999e-001  0.000000e+000  0.000000e+000
    outer loop
      vertex  8.000000e+000 -3.000000e+000  1.665891e+000
      vertex  8.000000e+000 -5.495910e+000  2.646691e+000
      vertex  8.000000e+000 -6.100000e+000  2.789820e-015
    endloop
  endfacet
  facet normal  1.000000e+000  -0.000000e+000  0.000000e+000
    outer loop
      vertex  8.000000e+000  3.803288e+000  4.769172e+000
      vertex  8.000000e+000  5.729622e-002  3.431022e+000
      vertex  8.000000e+000  5.495910e+000  2.646691e+000
    endloop
  endfacet
  facet normal  1.000000e+000  0.000000e+000  0.000000e+000
    outer loop
      vertex  8.000000e+000  5.495910e+000  2.646691e+000
      vertex  8.000000e+000  5.729622e-002  3.431022e+000
      vertex  8.000000e+000  2.942704e+000  1.765131e+000
    endloop
  endfacet
  facet normal  1.000000e+000  -0.000000e+000  0.000000e+000
    outer loop
      vertex  8.000000e+000  5.495910e+000  2.646691e+000
      vertex  8.000000e+000  2.942704e+000  1.765131e+000
      vertex  8.000000e+000  3.000000e+000  1.665891e+000
    endloop
  endfacet
  facet normal  0.000000e+000 -1.000000e+000  -0.000000e+000
    outer loop
      vertex  8.000000e+000  3.000000e+000 -1.665891e+000
      vertex  8.000000e+000  3.000000e+000  1.665891e+000
      vertex  4.000000e+000  3.000000e+000 -1.665891e+000
    endloop
  endfacet
  facet normal  0.000000e+000 -1.000000e+000  0.000000e+000
    outer loop
      vertex  4.000000e+000  3.000000e+000 -1.665891e+000
      vertex  8.000000e+000  3.000000e+000  1.665891e+000
      vertex  4.000000e+000  3.000000e+000  1.665891e+000
    endloop
  endfacet
  facet normal  0.000000e+000 -1.000000e+000  -0.000000e+000
    outer loop
      vertex  4.000000e+000  3.000000e+000 -1.665891e+000
      vertex  4.000000e+000  3.000000e+000  1.665891e+000
      vertex  3.799866e+000  3.000000e+000 -7.185755e-001
    endloop
  endfacet
  facet normal  0.000000e+000 -5.000001e-001  8.660254e-001
    outer loop
      vertex  8.000000e+000  5.729622e-002 -3.431022e+000
      vertex  8.000000e+000  2.942704e+000 -1.765131e+000
      vertex  4.000000e+000  5.729622e-002 -3.431022e+000
    endloop
  endfacet
  facet normal  0.000000e+000 -5.000001e-001  8.660254e-001
    outer loop
      vertex  4.000000e+000  5.729622e-002 -3.431022e+000
      vertex  8.000000e+000  2.942704e+000 -1.765131e+000
      vertex  4.000000e+000  2.942704e+000 -1.765131e+000
    endloop
  endfacet
  facet normal -2.120538e-007 -5.000001e-001  8.660254e-001
    outer loop
      vertex  4.000000e+000  5.729622e-002 -3.431022e+000
      vertex  4.000000e+000  2.942704e+000 -1.765131e+000
      vertex  3.799866e+000  8.776953e-001 -2.957364e+000
    endloop
  endfacet
  facet normal  0.000000e+000  5.000001e-001  8.660254e-001
    outer loop
      vertex  8.000000e+000 -2.942704e+000 -1.765131e+000
      vertex  8.000000e+000 -5.729622e-002 -3.431022e+000
      vertex  4.000000e+000 -2.942704e+000 -1.765131e+000
    endloop
  endfacet
  facet normal  0.000000e+000  5.000001e-001  8.660254e-001
    outer loop
      vertex  4.000000e+000 -2.942704e+000 -1.765131e+000
      vertex  8.000000e+000 -5.729622e-002 -3.431022e+000
      vertex  4.000000e+000 -5.729622e-002 -3.431022e+000
    endloop
  endfacet
  facet normal -2.019945e-007  5.000001e-001  8.660254e-001
    outer loop
      vertex  4.000000e+000 -2.942704e+000 -1.765131e+000
      vertex  4.000000e+000 -5.729622e-002 -3.431022e+000
      vertex  3.751356e+000 -1.438677e+000 -2.633481e+000
    endloop
  endfacet
  facet normal  0.000000e+000  1.000000e+000  -0.000000e+000
    outer loop
      vertex  8.000000e+000 -3.000000e+000  1.665891e+000
      vertex  8.000000e+000 -3.000000e+000 -1.665891e+000
      vertex  4.000000e+000 -3.000000e+000  1.665891e+000
    endloop
  endfacet
  facet normal  0.000000e+000  1.000000e+000  0.000000e+000
    outer loop
      vertex  4.000000e+000 -3.000000e+000  1.665891e+000
      vertex  8.000000e+000 -3.000000e+000 -1.665891e+000
      vertex  4.000000e+000 -3.000000e+000 -1.665891e+000
    endloop
  endfacet
  facet normal  0.000000e+000  1.000000e+000  -0.000000e+000
    outer loop
      vertex  4.000000e+000 -3.000000e+000  1.665891e+000
      vertex  4.000000e+000 -3.000000e+000 -1.665891e+000
      vertex  3.799866e+000 -3.000000e+000 -7.185755e-001
    endloop
  endfacet
  facet normal  0.000000e+000 -5.000001e-001 -8.660254e-001
    outer loop
      vertex  8.000000e+000  2.942704e+000  1.765131e+000
      vertex  8.000000e+000  5.729622e-002  3.431022e+000
      vertex  4.000000e+000  2.942704e+000  1.765131e+000
    endloop
  endfacet
  facet normal  0.000000e+000 -5.000001e-001 -8.660254e-001
    outer loop
      vertex  4.000000e+000  2.942704e+000  1.765131e+000
      vertex  8.000000e+000  5.729622e-002  3.431022e+000
      vertex  4.000000e+000  5.729622e-002  3.431022e+000
    endloop
  endfacet
  facet normal -2.019945e-007 -5.000001e-001 -8.660254e-001
    outer loop
      vertex  4.000000e+000  2.942704e+000  1.765131e+000
      vertex  4.000000e+000  5.729622e-002  3.431022e+000
      vertex  3.751356e+000  1.438677e+000  2.633481e+000
    endloop
  endfacet
  facet normal  0.000000e+000  5.000001e-001 -8.660254e-001
    outer loop
      vertex  8.000000e+000 -5.729622e-002  3.431022e+000
      vertex  8.000000e+000 -2.942704e+000  1.765131e+000
      vertex  4.000000e+000 -5.729622e-002  3.431022e+000
    endloop
  endfacet
  facet normal  0.000000e+000  5.000001e-001 -8.660254e-001
    outer loop
      vertex  4.000000e+000 -5.729622e-002  3.431022e+000
      vertex  8.000000e+000 -2.942704e+000  1.765131e+000
      vertex  4.000000e+000 -2.942704e+000  1.765131e+000
    endloop
  endfacet
  facet normal  2.120538e-007  5.000001e-001 -8.660254e-001
    outer loop
      vertex  4.000000e+000 -5.729622e-002  3.431022e+000
      vertex  4.000000e+000 -2.942704e+000  1.765131e+000
      vertex  3.799866e+000 -2.122305e+000  2.238788e+000
    endloop
  endfacet
  facet normal  0.000000e+000  0.000000e+000  1.000000e+000
    outer loop
      vertex  4.000000e+000  5.729622e-002 -3.431022e+000
      vertex  4.000000e+000 -5.729622e-002 -3.431022e+000
      vertex  8.000000e+000  5.729622e-002 -3.431022e+000
    endloop
  endfacet
  facet normal  0.000000e+000  0.000000e+000  1.000000e+000
    outer loop
      vertex  8.000000e+000  5.729622e-002 -3.431022e+000
      vertex  4.000000e+000 -5.729622e-002 -3.431022e+000
      vertex  8.000000e+000 -5.729622e-002 -3.431022e+000
    endloop
  endfacet
  facet normal  0.000000e+000 -8.660251e-001  5.000004e-001
    outer loop
      vertex  4.000000e+000  3.000000e+000 -1.665891e+000
      vertex  4.000000e+000  2.942704e+000 -1.765131e+000
      vertex  8.000000e+000  3.000000e+000 -1.665891e+000
    endloop
  endfacet
  facet normal  0.000000e+000 -8.660251e-001  5.000004e-001
    outer loop
      vertex  8.000000e+000  3.000000e+000 -1.665891e+000
      vertex  4.000000e+000  2.942704e+000 -1.765131e+000
      vertex  8.000000e+000  2.942704e+000 -1.765131e+000
    endloop
  endfacet
  facet normal  0.000000e+000 -8.660251e-001 -5.000004e-001
    outer loop
      vertex  4.000000e+000  2.942704e+000  1.765131e+000
      vertex  4.000000e+000  3.000000e+000  1.665891e+000
      vertex  8.000000e+000  2.942704e+000  1.765131e+000
    endloop
  endfacet
  facet normal  0.000000e+000 -8.660251e-001 -5.000004e-001
    outer loop
      vertex  8.000000e+000  2.942704e+000  1.765131e+000
      vertex  4.000000e+000  3.000000e+000  1.665891e+000
      vertex  8.000000e+000  3.000000e+000  1.665891e+000
    endloop
  endfacet
  facet normal  0.000000e+000  8.660251e-001 -5.000004e-001
    outer loop
      vertex  4.000000e+000 -3.000000e+000  1.665891e+000
      vertex  4.000000e+000 -2.942704e+000  1.765131e+000
      vertex  8.000000e+000 -3.000000e+000  1.665891e+000
    endloop
  endfacet
  facet normal  0.000000e+000  8.660251e-001 -5.000004e-001
    outer loop
      vertex  8.000000e+000 -3.000000e+000  1.665891e+000
      vertex  4.000000e+000 -2.942704e+000  1.765131e+000
      vertex  8.000000e+000 -2.942704e+000  1.765131e+000
    endloop
  endfacet
  facet normal  0.000000e+000  8.660251e-001  5.000004e-001
    outer loop
      vertex  4.000000e+000 -2.942704e+000 -1.765131e+000
      vertex  4.000000e+000 -3.000000e+000 -1.665891e+000
      vertex  8.000000e+000 -2.942704e+000 -1.765131e+000
    endloop
  endfacet
  facet normal  0.000000e+000  8.660251e-001  5.000004e-001
    outer loop
      vertex  8.000000e+000 -2.942704e+000 -1.765131e+000
      vertex  4.000000e+000 -3.000000e+000 -1.665891e+000
      vertex  8.000000e+000 -3.000000e+000 -1.665891e+000
    endloop
  endfacet
  facet normal  0.000000e+000  0.000000e+000 -1.000000e+000
    outer loop
      vertex  4.000000e+000 -5.729622e-002  3.431022e+000
      vertex  4.000000e+000  5.729622e-002  3.431022e+000
      vertex  8.000000e+000 -5.729622e-002  3.431022e+000
    endloop
  endfacet
  facet normal  0.000000e+000  0.000000e+000 -1.000000e+000
    outer loop
      vertex  8.000000e+000 -5.729622e-002  3.431022e+000
      vertex  4.000000e+000  5.729622e-002  3.431022e+000
      vertex  8.000000e+000  5.729622e-002  3.431022e+000
    endloop
  endfacet
  facet normal  8.500946e-001 -3.226784e-001  4.161946e-001
    outer loop
      vertex  2.022190e+000  1.642204e-003 -5.596997e-003
      vertex  3.799866e+000  8.776953e-001 -2.957364e+000
      vertex  4.000000e+000  2.942704e+000 -1.765131e+000
    endloop
  endfacet
  facet normal  8.500682e-001 -5.218176e-001 -7.134811e-002
    outer loop
      vertex  2.022190e+000  5.596997e-003  1.642204e-003
      vertex  3.799866e+000  3.000000e+000 -7.185755e-001
      vertex  4.000000e+000  3.000000e+000  1.665891e+000
    endloop
  endfacet
  facet normal  8.642728e-001 -5.001284e-001  5.388860e-002
    outer loop
      vertex  2.022190e+000  5.118888e-003 -2.796461e-003
      vertex  3.799866e+000  3.000000e+000 -7.185755e-001
      vertex  2.022190e+000  5.596997e-003  1.642204e-003
    endloop
  endfacet
  facet normal  8.640080e-001 -7.653333e-002  4.976271e-001
    outer loop
      vertex  4.000000e+000  5.729622e-002 -3.431022e+000
      vertex  3.799866e+000  8.776953e-001 -2.957364e+000
      vertex  2.022190e+000  1.642204e-003 -5.596997e-003
    endloop
  endfacet
  facet normal  8.643743e-001  5.385272e-002  4.999571e-001
    outer loop
      vertex  4.000000e+000  5.729622e-002 -3.431022e+000
      vertex  2.022190e+000  1.642204e-003 -5.596997e-003
      vertex  2.022190e+000 -2.796461e-003 -5.118888e-003
    endloop
  endfacet
  facet normal  8.585636e-001  1.226938e-001  4.978100e-001
    outer loop
      vertex  4.000000e+000  5.729622e-002 -3.431022e+000
      vertex  2.022190e+000 -2.796461e-003 -5.118888e-003
      vertex  3.751356e+000 -1.438677e+000 -2.633481e+000
    endloop
  endfacet
  facet normal  9.546798e-001  0.000000e+000  2.976347e-001
    outer loop
      vertex  4.000000e+000  5.729622e-002 -3.431022e+000
      vertex  3.751356e+000 -1.438677e+000 -2.633481e+000
      vertex  4.000000e+000 -5.729622e-002 -3.431022e+000
    endloop
  endfacet
  facet normal  8.640078e-001 -4.692248e-001  1.825337e-001
    outer loop
      vertex  4.000000e+000  3.000000e+000 -1.665891e+000
      vertex  3.799866e+000  3.000000e+000 -7.185755e-001
      vertex  2.022190e+000  5.118888e-003 -2.796461e-003
    endloop
  endfacet
  facet normal  8.487033e-001 -3.317664e-001  4.118665e-001
    outer loop
      vertex  4.000000e+000  3.000000e+000 -1.665891e+000
      vertex  2.022190e+000  5.118888e-003 -2.796461e-003
      vertex  2.022190e+000  1.642204e-003 -5.596997e-003
    endloop
  endfacet
  facet normal  8.660970e-001 -4.329052e-001  2.499382e-001
    outer loop
      vertex  4.000000e+000  3.000000e+000 -1.665891e+000
      vertex  2.022190e+000  1.642204e-003 -5.596997e-003
      vertex  4.000000e+000  2.942704e+000 -1.765131e+000
    endloop
  endfacet
  facet normal  8.581458e-001 -3.556453e-001 -3.702731e-001
    outer loop
      vertex  4.000000e+000  2.942704e+000  1.765131e+000
      vertex  3.751356e+000  1.438677e+000  2.633481e+000
      vertex  2.022190e+000  2.796461e-003  5.118888e-003
    endloop
  endfacet
  facet normal  8.639761e-001 -3.921352e-001 -3.158725e-001
    outer loop
      vertex  4.000000e+000  2.942704e+000  1.765131e+000
      vertex  2.022190e+000  2.796461e-003  5.118888e-003
      vertex  2.022190e+000  5.596997e-003  1.642204e-003
    endloop
  endfacet
  facet normal  8.660056e-001 -4.330424e-001 -2.500174e-001
    outer loop
      vertex  4.000000e+000  2.942704e+000  1.765131e+000
      vertex  2.022190e+000  5.596997e-003  1.642204e-003
      vertex  4.000000e+000  3.000000e+000  1.665891e+000
    endloop
  endfacet
  facet normal  8.525999e-001  5.195590e-001 -5.596413e-002
    outer loop
      vertex  2.022190e+000 -5.596997e-003 -1.642204e-003
      vertex  2.022190e+000 -5.118888e-003  2.796461e-003
      vertex  3.799866e+000 -3.000000e+000 -7.185755e-001
    endloop
  endfacet
  facet normal  8.500929e-001  5.217770e-001 -7.135019e-002
    outer loop
      vertex  3.799866e+000 -3.000000e+000 -7.185755e-001
      vertex  2.022190e+000 -5.118888e-003  2.796461e-003
      vertex  4.000000e+000 -3.000000e+000  1.665891e+000
    endloop
  endfacet
  facet normal  8.500655e-001  1.991220e-001 -4.875851e-001
    outer loop
      vertex  4.000000e+000 -5.729622e-002  3.431022e+000
      vertex  3.799866e+000 -2.122305e+000  2.238788e+000
      vertex  2.022190e+000 -1.642204e-003  5.596997e-003
    endloop
  endfacet
  facet normal  8.643743e-001 -5.385272e-002 -4.999571e-001
    outer loop
      vertex  4.000000e+000 -5.729622e-002  3.431022e+000
      vertex  2.022190e+000 -1.642204e-003  5.596997e-003
      vertex  2.022190e+000  2.796461e-003  5.118888e-003
    endloop
  endfacet
  facet normal  8.585636e-001 -1.226938e-001 -4.978100e-001
    outer loop
      vertex  4.000000e+000 -5.729622e-002  3.431022e+000
      vertex  2.022190e+000  2.796461e-003  5.118888e-003
      vertex  3.751356e+000  1.438677e+000  2.633481e+000
    endloop
  endfacet
  facet normal  9.546798e-001  0.000000e+000 -2.976347e-001
    outer loop
      vertex  4.000000e+000 -5.729622e-002  3.431022e+000
      vertex  3.751356e+000  1.438677e+000  2.633481e+000
      vertex  4.000000e+000  5.729622e-002  3.431022e+000
    endloop
  endfacet
  facet normal  8.581458e-001  3.556453e-001  3.702731e-001
    outer loop
      vertex  4.000000e+000 -2.942704e+000 -1.765131e+000
      vertex  3.751356e+000 -1.438677e+000 -2.633481e+000
      vertex  2.022190e+000 -2.796461e-003 -5.118888e-003
    endloop
  endfacet
  facet normal  8.639761e-001  3.921352e-001  3.158725e-001
    outer loop
      vertex  4.000000e+000 -2.942704e+000 -1.765131e+000
      vertex  2.022190e+000 -2.796461e-003 -5.118888e-003
      vertex  2.022190e+000 -5.596997e-003 -1.642204e-003
    endloop
  endfacet
  facet normal  8.634735e-001  4.669599e-001  1.906876e-001
    outer loop
      vertex  4.000000e+000 -2.942704e+000 -1.765131e+000
      vertex  2.022190e+000 -5.596997e-003 -1.642204e-003
      vertex  3.799866e+000 -3.000000e+000 -7.185755e-001
    endloop
  endfacet
  facet normal  9.211487e-001  3.370664e-001  1.946055e-001
    outer loop
      vertex  4.000000e+000 -2.942704e+000 -1.765131e+000
      vertex  3.799866e+000 -3.000000e+000 -7.185755e-001
      vertex  4.000000e+000 -3.000000e+000 -1.665891e+000
    endloop
  endfacet
  facet normal  8.653508e-001  3.144030e-001 -3.902805e-001
    outer loop
      vertex  2.022190e+000 -1.642204e-003  5.596997e-003
      vertex  3.799866e+000 -2.122305e+000  2.238788e+000
      vertex  2.022190e+000 -5.118888e-003  2.796461e-003
    endloop
  endfacet
  facet normal  8.640107e-001  3.926890e-001 -3.150887e-001
    outer loop
      vertex  2.022190e+000 -5.118888e-003  2.796461e-003
      vertex  3.799866e+000 -2.122305e+000  2.238788e+000
      vertex  4.000000e+000 -2.942704e+000  1.765131e+000
    endloop
  endfacet
  facet normal  8.659953e-001  4.330578e-001 -2.500263e-001
    outer loop
      vertex  2.022190e+000 -5.118888e-003  2.796461e-003
      vertex  4.000000e+000 -2.942704e+000  1.765131e+000
      vertex  4.000000e+000 -3.000000e+000  1.665891e+000
    endloop
  endfacet
  facet normal  1.000000e+000  0.000000e+000  -0.000000e+000
    outer loop
      vertex  2.022190e+000 -2.796461e-003 -5.118888e-003
      vertex  2.022190e+000  1.642204e-003 -5.596997e-003
      vertex  2.022190e+000  5.118888e-003 -2.796461e-003
    endloop
  endfacet
  facet normal  1.000000e+000  0.000000e+000  0.000000e+000
    outer loop
      vertex  2.022190e+000 -2.796461e-003 -5.118888e-003
      vertex  2.022190e+000  5.118888e-003 -2.796461e-003
      vertex  2.022190e+000 -5.596997e-003 -1.642204e-003
    endloop
  endfacet
  facet normal  1.000000e+000  0.000000e+000  0.000000e+000
    outer loop
      vertex  2.022190e+000  2.796461e-003  5.118888e-003
      vertex  2.022190e+000 -1.642204e-003  5.596997e-003
      vertex  2.022190e+000 -5.118888e-003  2.796461e-003
    endloop
  endfacet
  facet normal  1.000000e+000  -0.000000e+000  0.000000e+000
    outer loop
      vertex  2.022190e+000  2.796461e-003  5.118888e-003
      vertex  2.022190e+000 -5.118888e-003  2.796461e-003
      vertex  2.022190e+000  5.596997e-003  1.642204e-003
    endloop
  endfacet
  facet normal  1.000000e+000  0.000000e+000  0.000000e+000
    outer loop
      vertex  2.022190e+000  5.596997e-003  1.642204e-003
      vertex  2.022190e+000 -5.118888e-003  2.796461e-003
      vertex  2.022190e+000 -5.596997e-003 -1.642204e-003
    endloop
  endfacet
  facet normal  1.000000e+000  -0.000000e+000  0.000000e+000
    outer loop
      vertex  2.022190e+000  5.596997e-003  1.642204e-003
      vertex  2.022190e+000 -5.596997e-003 -1.642204e-003
      vertex  2.022190e+000  5.118888e-003 -2.796461e-003
    endloop
  endfacet
  facet normal  1.224208e-016  9.749278e-001 -2.225210e-001
    outer loop
      vertex  0.000000e+000  6.500000e+000  0.000000e+000
      vertex  7.600000e+000  6.500000e+000  4.181171e-015
      vertex  0.000000e+000  5.856297e+000 -2.820244e+000
    endloop
  endfacet
  facet normal  0.000000e+000  9.749278e-001 -2.225210e-001
    outer loop
      vertex  0.000000e+000  5.856297e+000 -2.820244e+000
      vertex  7.600000e+000  6.500000e+000  4.181171e-015
      vertex  7.600000e+000  5.856297e+000 -2.820244e+000
    endloop
  endfacet
  facet normal  0.000000e+000  7.818315e-001 -6.234898e-001
    outer loop
      vertex  0.000000e+000  5.856297e+000 -2.820244e+000
      vertex  7.600000e+000  5.856297e+000 -2.820244e+000
      vertex  0.000000e+000  4.052684e+000 -5.081904e+000
    endloop
  endfacet
  facet normal  0.000000e+000  7.818315e-001 -6.234898e-001
    outer loop
      vertex  0.000000e+000  4.052684e+000 -5.081904e+000
      vertex  7.600000e+000  5.856297e+000 -2.820244e+000
      vertex  7.600000e+000  4.052684e+000 -5.081904e+000
    endloop
  endfacet
  facet normal  0.000000e+000  4.338838e-001 -9.009688e-001
    outer loop
      vertex  0.000000e+000  4.052684e+000 -5.081904e+000
      vertex  7.600000e+000  4.052684e+000 -5.081904e+000
      vertex  0.000000e+000  1.446386e+000 -6.337031e+000
    endloop
  endfacet
  facet normal  0.000000e+000  4.338838e-001 -9.009688e-001
    outer loop
      vertex  0.000000e+000  1.446386e+000 -6.337031e+000
      vertex  7.600000e+000  4.052684e+000 -5.081904e+000
      vertex  7.600000e+000  1.446386e+000 -6.337031e+000
    endloop
  endfacet
  facet normal  -0.000000e+000  0.000000e+000 -1.000000e+000
    outer loop
      vertex  0.000000e+000  1.446386e+000 -6.337031e+000
      vertex  7.600000e+000  1.446386e+000 -6.337031e+000
      vertex  0.000000e+000 -1.446386e+000 -6.337031e+000
    endloop
  endfacet
  facet normal  0.000000e+000  0.000000e+000 -1.000000e+000
    outer loop
      vertex  0.000000e+000 -1.446386e+000 -6.337031e+000
      vertex  7.600000e+000  1.446386e+000 -6.337031e+000
      vertex  7.600000e+000 -1.446386e+000 -6.337031e+000
    endloop
  endfacet
  facet normal  -0.000000e+000 -4.338838e-001 -9.009688e-001
    outer loop
      vertex  0.000000e+000 -1.446386e+000 -6.337031e+000
      vertex  7.600000e+000 -1.446386e+000 -6.337031e+000
      vertex  0.000000e+000 -4.052684e+000 -5.081904e+000
    endloop
  endfacet
  facet normal  0.000000e+000 -4.338838e-001 -9.009688e-001
    outer loop
      vertex  0.000000e+000 -4.052684e+000 -5.081904e+000
      vertex  7.600000e+000 -1.446386e+000 -6.337031e+000
      vertex  7.600000e+000 -4.052684e+000 -5.081904e+000
    endloop
  endfacet
  facet normal  -0.000000e+000 -7.818315e-001 -6.234898e-001
    outer loop
      vertex  0.000000e+000 -4.052684e+000 -5.081904e+000
      vertex  7.600000e+000 -4.052684e+000 -5.081904e+000
      vertex  0.000000e+000 -5.856297e+000 -2.820244e+000
    endloop
  endfacet
  facet normal  0.000000e+000 -7.818315e-001 -6.234898e-001
    outer loop
      vertex  0.000000e+000 -5.856297e+000 -2.820244e+000
      vertex  7.600000e+000 -4.052684e+000 -5.081904e+000
      vertex  7.600000e+000 -5.856297e+000 -2.820244e+000
    endloop
  endfacet
  facet normal  -0.000000e+000 -9.749278e-001 -2.225210e-001
    outer loop
      vertex  0.000000e+000 -5.856297e+000 -2.820244e+000
      vertex  7.600000e+000 -5.856297e+000 -2.820244e+000
      vertex  0.000000e+000 -6.500000e+000 -2.090586e-015
    endloop
  endfacet
  facet normal  0.000000e+000 -9.749278e-001 -2.225210e-001
    outer loop
      vertex  0.000000e+000 -6.500000e+000 -2.090586e-015
      vertex  7.600000e+000 -5.856297e+000 -2.820244e+000
      vertex  7.600000e+000 -6.500000e+000 -2.090586e-015
    endloop
  endfacet
  facet normal  0.000000e+000 -9.749278e-001  2.225210e-001
    outer loop
      vertex  0.000000e+000 -6.500000e+000 -2.090586e-015
      vertex  7.600000e+000 -6.500000e+000 -2.090586e-015
      vertex  0.000000e+000 -5.856297e+000  2.820244e+000
    endloop
  endfacet
  facet normal  0.000000e+000 -9.749278e-001  2.225210e-001
    outer loop
      vertex  0.000000e+000 -5.856297e+000  2.820244e+000
      vertex  7.600000e+000 -6.500000e+000 -2.090586e-015
      vertex  7.600000e+000 -5.856297e+000  2.820244e+000
    endloop
  endfacet
  facet normal  0.000000e+000 -7.818315e-001  6.234898e-001
    outer loop
      vertex  0.000000e+000 -5.856297e+000  2.820244e+000
      vertex  7.600000e+000 -5.856297e+000  2.820244e+000
      vertex  0.000000e+000 -4.052684e+000  5.081904e+000
    endloop
  endfacet
  facet normal  0.000000e+000 -7.818315e-001  6.234898e-001
    outer loop
      vertex  0.000000e+000 -4.052684e+000  5.081904e+000
      vertex  7.600000e+000 -5.856297e+000  2.820244e+000
      vertex  7.600000e+000 -4.052684e+000  5.081904e+000
    endloop
  endfacet
  facet normal  0.000000e+000 -4.338838e-001  9.009688e-001
    outer loop
      vertex  0.000000e+000 -4.052684e+000  5.081904e+000
      vertex  7.600000e+000 -4.052684e+000  5.081904e+000
      vertex  0.000000e+000 -1.446386e+000  6.337031e+000
    endloop
  endfacet
  facet normal  0.000000e+000 -4.338838e-001  9.009688e-001
    outer loop
      vertex  0.000000e+000 -1.446386e+000  6.337031e+000
      vertex  7.600000e+000 -4.052684e+000  5.081904e+000
      vertex  7.600000e+000 -1.446386e+000  6.337031e+000
    endloop
  endfacet
  facet normal  0.000000e+000  0.000000e+000  1.000000e+000
    outer loop
      vertex  0.000000e+000 -1.446386e+000  6.337031e+000
      vertex  7.600000e+000 -1.446386e+000  6.337031e+000
      vertex  0.000000e+000  1.446386e+000  6.337031e+000
    endloop
  endfacet
  facet normal  -0.000000e+000  0.000000e+000  1.000000e+000
    outer loop
      vertex  0.000000e+000  1.446386e+000  6.337031e+000
      vertex  7.600000e+000 -1.446386e+000  6.337031e+000
      vertex  7.600000e+000  1.446386e+000  6.337031e+000
    endloop
  endfacet
  facet normal  0.000000e+000  4.338838e-001  9.009688e-001
    outer loop
      vertex  0.000000e+000  1.446386e+000  6.337031e+000
      vertex  7.600000e+000  1.446386e+000  6.337031e+000
      vertex  0.000000e+000  4.052684e+000  5.081904e+000
    endloop
  endfacet
  facet normal  -0.000000e+000  4.338838e-001  9.009688e-001
    outer loop
      vertex  0.000000e+000  4.052684e+000  5.081904e+000
      vertex  7.600000e+000  1.446386e+000  6.337031e+000
      vertex  7.600000e+000  4.052684e+000  5.081904e+000
    endloop
  endfacet
  facet normal  0.000000e+000  7.818315e-001  6.234898e-001
    outer loop
      vertex  0.000000e+000  4.052684e+000  5.081904e+000
      vertex  7.600000e+000  4.052684e+000  5.081904e+000
      vertex  0.000000e+000  5.856297e+000  2.820244e+000
    endloop
  endfacet
  facet normal  -0.000000e+000  7.818315e-001  6.234898e-001
    outer loop
      vertex  0.000000e+000  5.856297e+000  2.820244e+000
      vertex  7.600000e+000  4.052684e+000  5.081904e+000
      vertex  7.600000e+000  5.856297e+000  2.820244e+000
    endloop
  endfacet
  facet normal  0.000000e+000  9.749278e-001  2.225210e-001
    outer loop
      vertex  0.000000e+000  5.856297e+000  2.820244e+000
      vertex  7.600000e+000  5.856297e+000  2.820244e+000
      vertex  0.000000e+000  6.500000e+000  0.000000e+000
    endloop
  endfacet
  facet normal -1.224208e-016  9.749278e-001  2.225210e-001
    outer loop
      vertex  0.000000e+000  6.500000e+000  0.000000e+000
      vertex  7.600000e+000  5.856297e+000  2.820244e+000
      vertex  7.600000e+000  6.500000e+000  4.181171e-015
    endloop
  endfacet
  facet normal  9.203751e-001  3.812325e-001 -8.701380e-002
    outer loop
      vertex  8.000000e+000  6.100000e+000  2.591601e-015
      vertex  8.000000e+000  5.495910e+000 -2.646691e+000
      vertex  7.882843e+000  6.382843e+000 -1.318485e-015
    endloop
  endfacet
  facet normal  9.203751e-001  3.812327e-001 -8.701388e-002
    outer loop
      vertex  7.882843e+000  6.382843e+000 -1.318485e-015
      vertex  8.000000e+000  5.495910e+000 -2.646691e+000
      vertex  7.882843e+000  5.750742e+000 -2.769412e+000
    endloop
  endfacet
  facet normal  3.744494e-001  9.039993e-001 -2.063319e-001
    outer loop
      vertex  7.882843e+000  6.382843e+000 -1.318485e-015
      vertex  7.882843e+000  5.750742e+000 -2.769412e+000
      vertex  7.600000e+000  6.500000e+000  4.181171e-015
    endloop
  endfacet
  facet normal  3.744490e-001  9.039994e-001 -2.063320e-001
    outer loop
      vertex  7.600000e+000  6.500000e+000  4.181171e-015
      vertex  7.882843e+000  5.750742e+000 -2.769412e+000
      vertex  7.600000e+000  5.856297e+000 -2.820244e+000
    endloop
  endfacet
  facet normal  9.203750e-001 -3.812327e-001 -8.701386e-002
    outer loop
      vertex  8.000000e+000 -5.495910e+000 -2.646691e+000
      vertex  8.000000e+000 -6.100000e+000  2.789820e-015
      vertex  7.882843e+000 -5.750742e+000 -2.769412e+000
    endloop
  endfacet
  facet normal  9.203752e-001 -3.812326e-001 -8.701383e-002
    outer loop
      vertex  7.882843e+000 -5.750742e+000 -2.769412e+000
      vertex  8.000000e+000 -6.100000e+000  2.789820e-015
      vertex  7.882843e+000 -6.382843e+000  1.346050e-015
    endloop
  endfacet
  facet normal  3.744490e-001 -9.039994e-001 -2.063320e-001
    outer loop
      vertex  7.882843e+000 -5.750742e+000 -2.769412e+000
      vertex  7.882843e+000 -6.382843e+000  1.346050e-015
      vertex  7.600000e+000 -5.856297e+000 -2.820244e+000
    endloop
  endfacet
  facet normal  3.744494e-001 -9.039993e-001 -2.063320e-001
    outer loop
      vertex  7.600000e+000 -5.856297e+000 -2.820244e+000
      vertex  7.882843e+000 -6.382843e+000  1.346050e-015
      vertex  7.600000e+000 -6.500000e+000 -2.090586e-015
    endloop
  endfacet
  facet normal  9.203752e-001 -3.057247e-001 -2.438073e-001
    outer loop
      vertex  8.000000e+000 -3.803288e+000 -4.769172e+000
      vertex  8.000000e+000 -5.495910e+000 -2.646691e+000
      vertex  7.882843e+000 -3.979637e+000 -4.990307e+000
    endloop
  endfacet
  facet normal  9.203751e-001 -3.057249e-001 -2.438075e-001
    outer loop
      vertex  7.882843e+000 -3.979637e+000 -4.990307e+000
      vertex  8.000000e+000 -5.495910e+000 -2.646691e+000
      vertex  7.882843e+000 -5.750742e+000 -2.769412e+000
    endloop
  endfacet
  facet normal  3.744488e-001 -7.249514e-001 -5.781294e-001
    outer loop
      vertex  7.882843e+000 -3.979637e+000 -4.990307e+000
      vertex  7.882843e+000 -5.750742e+000 -2.769412e+000
      vertex  7.600000e+000 -4.052684e+000 -5.081904e+000
    endloop
  endfacet
  facet normal  3.744491e-001 -7.249513e-001 -5.781294e-001
    outer loop
      vertex  7.600000e+000 -4.052684e+000 -5.081904e+000
      vertex  7.882843e+000 -5.750742e+000 -2.769412e+000
      vertex  7.600000e+000 -5.856297e+000 -2.820244e+000
    endloop
  endfacet
  facet normal  9.203753e-001 -1.696642e-001 -3.523115e-001
    outer loop
      vertex  8.000000e+000 -1.357378e+000 -5.947060e+000
      vertex  8.000000e+000 -3.803288e+000 -4.769172e+000
      vertex  7.882843e+000 -1.420316e+000 -6.222812e+000
    endloop
  endfacet
  facet normal  9.203751e-001 -1.696645e-001 -3.523119e-001
    outer loop
      vertex  7.882843e+000 -1.420316e+000 -6.222812e+000
      vertex  8.000000e+000 -3.803288e+000 -4.769172e+000
      vertex  7.882843e+000 -3.979637e+000 -4.990307e+000
    endloop
  endfacet
  facet normal  3.744485e-001 -4.023178e-001 -8.354213e-001
    outer loop
      vertex  7.882843e+000 -1.420316e+000 -6.222812e+000
      vertex  7.882843e+000 -3.979637e+000 -4.990307e+000
      vertex  7.600000e+000 -1.446386e+000 -6.337031e+000
    endloop
  endfacet
  facet normal  3.744486e-001 -4.023177e-001 -8.354213e-001
    outer loop
      vertex  7.600000e+000 -1.446386e+000 -6.337031e+000
      vertex  7.882843e+000 -3.979637e+000 -4.990307e+000
      vertex  7.600000e+000 -4.052684e+000 -5.081904e+000
    endloop
  endfacet
  facet normal  9.203753e-001  0.000000e+000 -3.910362e-001
    outer loop
      vertex  8.000000e+000  1.357378e+000 -5.947060e+000
      vertex  8.000000e+000 -1.357378e+000 -5.947060e+000
      vertex  7.882843e+000  1.420316e+000 -6.222812e+000
    endloop
  endfacet
  facet normal  9.203753e-001  0.000000e+000 -3.910362e-001
    outer loop
      vertex  7.882843e+000  1.420316e+000 -6.222812e+000
      vertex  8.000000e+000 -1.357378e+000 -5.947060e+000
      vertex  7.882843e+000 -1.420316e+000 -6.222812e+000
    endloop
  endfacet
  facet normal  3.744483e-001  0.000000e+000 -9.272478e-001
    outer loop
      vertex  7.882843e+000  1.420316e+000 -6.222812e+000
      vertex  7.882843e+000 -1.420316e+000 -6.222812e+000
      vertex  7.600000e+000  1.446386e+000 -6.337031e+000
    endloop
  endfacet
  facet normal  3.744482e-001  0.000000e+000 -9.272478e-001
    outer loop
      vertex  7.600000e+000  1.446386e+000 -6.337031e+000
      vertex  7.882843e+000 -1.420316e+000 -6.222812e+000
      vertex  7.600000e+000 -1.446386e+000 -6.337031e+000
    endloop
  endfacet
  facet normal  9.203751e-001  1.696644e-001 -3.523119e-001
    outer loop
      vertex  8.000000e+000  3.803288e+000 -4.769172e+000
      vertex  8.000000e+000  1.357378e+000 -5.947060e+000
      vertex  7.882843e+000  3.979637e+000 -4.990307e+000
    endloop
  endfacet
  facet normal  9.203753e-001  1.696643e-001 -3.523115e-001
    outer loop
      vertex  7.882843e+000  3.979637e+000 -4.990307e+000
      vertex  8.000000e+000  1.357378e+000 -5.947060e+000
      vertex  7.882843e+000  1.420316e+000 -6.222812e+000
    endloop
  endfacet
  facet normal  3.744483e-001  4.023178e-001 -8.354214e-001
    outer loop
      vertex  7.882843e+000  3.979637e+000 -4.990307e+000
      vertex  7.882843e+000  1.420316e+000 -6.222812e+000
      vertex  7.600000e+000  4.052684e+000 -5.081904e+000
    endloop
  endfacet
  facet normal  3.744482e-001  4.023178e-001 -8.354214e-001
    outer loop
      vertex  7.600000e+000  4.052684e+000 -5.081904e+000
      vertex  7.882843e+000  1.420316e+000 -6.222812e+000
      vertex  7.600000e+000  1.446386e+000 -6.337031e+000
    endloop
  endfacet
  facet normal  9.203750e-001  3.057249e-001 -2.438075e-001
    outer loop
      vertex  8.000000e+000  5.495910e+000 -2.646691e+000
      vertex  8.000000e+000  3.803288e+000 -4.769172e+000
      vertex  7.882843e+000  5.750742e+000 -2.769412e+000
    endloop
  endfacet
  facet normal  9.203750e-001  3.057247e-001 -2.438073e-001
    outer loop
      vertex  7.882843e+000  5.750742e+000 -2.769412e+000
      vertex  8.000000e+000  3.803288e+000 -4.769172e+000
      vertex  7.882843e+000  3.979637e+000 -4.990307e+000
    endloop
  endfacet
  facet normal  3.744491e-001  7.249513e-001 -5.781293e-001
    outer loop
      vertex  7.882843e+000  5.750742e+000 -2.769412e+000
      vertex  7.882843e+000  3.979637e+000 -4.990307e+000
      vertex  7.600000e+000  5.856297e+000 -2.820244e+000
    endloop
  endfacet
  facet normal  3.744488e-001  7.249513e-001 -5.781294e-001
    outer loop
      vertex  7.600000e+000  5.856297e+000 -2.820244e+000
      vertex  7.882843e+000  3.979637e+000 -4.990307e+000
      vertex  7.600000e+000  4.052684e+000 -5.081904e+000
    endloop
  endfacet
  facet normal  9.203751e-001 -3.812325e-001  8.701380e-002
    outer loop
      vertex  8.000000e+000 -6.100000e+000  2.789820e-015
      vertex  8.000000e+000 -5.495910e+000  2.646691e+000
      vertex  7.882843e+000 -6.382843e+000  1.346050e-015
    endloop
  endfacet
  facet normal  9.203751e-001 -3.812327e-001  8.701388e-002
    outer loop
      vertex  7.882843e+000 -6.382843e+000  1.346050e-015
      vertex  8.000000e+000 -5.495910e+000  2.646691e+000
      vertex  7.882843e+000 -5.750742e+000  2.769412e+000
    endloop
  endfacet
  facet normal  3.744494e-001 -9.039993e-001  2.063319e-001
    outer loop
      vertex  7.882843e+000 -6.382843e+000  1.346050e-015
      vertex  7.882843e+000 -5.750742e+000  2.769412e+000
      vertex  7.600000e+000 -6.500000e+000 -2.090586e-015
    endloop
  endfacet
  facet normal  3.744490e-001 -9.039994e-001  2.063320e-001
    outer loop
      vertex  7.600000e+000 -6.500000e+000 -2.090586e-015
      vertex  7.882843e+000 -5.750742e+000  2.769412e+000
      vertex  7.600000e+000 -5.856297e+000  2.820244e+000
    endloop
  endfacet
  facet normal  9.203750e-001  3.812327e-001  8.701386e-002
    outer loop
      vertex  8.000000e+000  5.495910e+000  2.646691e+000
      vertex  8.000000e+000  6.100000e+000  2.591601e-015
      vertex  7.882843e+000  5.750742e+000  2.769412e+000
    endloop
  endfacet
  facet normal  9.203752e-001  3.812326e-001  8.701383e-002
    outer loop
      vertex  7.882843e+000  5.750742e+000  2.769412e+000
      vertex  8.000000e+000  6.100000e+000  2.591601e-015
      vertex  7.882843e+000  6.382843e+000 -1.318485e-015
    endloop
  endfacet
  facet normal  3.744490e-001  9.039994e-001  2.063320e-001
    outer loop
      vertex  7.882843e+000  5.750742e+000  2.769412e+000
      vertex  7.882843e+000  6.382843e+000 -1.318485e-015
      vertex  7.600000e+000  5.856297e+000  2.820244e+000
    endloop
  endfacet
  facet normal  3.744494e-001  9.039993e-001  2.063320e-001
    outer loop
      vertex  7.600000e+000  5.856297e+000  2.820244e+000
      vertex  7.882843e+000  6.382843e+000 -1.318485e-015
      vertex  7.600000e+000  6.500000e+000  4.181171e-015
    endloop
  endfacet
  facet normal  9.203752e-001  3.057247e-001  2.438073e-001
    outer loop
      vertex  8.000000e+000  3.803288e+000  4.769172e+000
      vertex  8.000000e+000  5.495910e+000  2.646691e+000
      vertex  7.882843e+000  3.979637e+000  4.990307e+000
    endloop
  endfacet
  facet normal  9.203751e-001  3.057249e-001  2.438075e-001
    outer loop
      vertex  7.882843e+000  3.979637e+000  4.990307e+000
      vertex  8.000000e+000  5.495910e+000  2.646691e+000
      vertex  7.882843e+000  5.750742e+000  2.769412e+000
    endloop
  endfacet
  facet normal  3.744488e-001  7.249514e-001  5.781294e-001
    outer loop
      vertex  7.882843e+000  3.979637e+000  4.990307e+000
      vertex  7.882843e+000  5.750742e+000  2.769412e+000
      vertex  7.600000e+000  4.052684e+000  5.081904e+000
    endloop
  endfacet
  facet normal  3.744491e-001  7.249513e-001  5.781294e-001
    outer loop
      vertex  7.600000e+000  4.052684e+000  5.081904e+000
      vertex  7.882843e+000  5.750742e+000  2.769412e+000
      vertex  7.600000e+000  5.856297e+000  2.820244e+000
    endloop
  endfacet
  facet normal  9.203753e-001  1.696642e-001  3.523115e-001
    outer loop
      vertex  8.000000e+000  1.357378e+000  5.947060e+000
      vertex  8.000000e+000  3.803288e+000  4.769172e+000
      vertex  7.882843e+000  1.420316e+000  6.222812e+000
    endloop
  endfacet
  facet normal  9.203751e-001  1.696645e-001  3.523119e-001
    outer loop
      vertex  7.882843e+000  1.420316e+000  6.222812e+000
      vertex  8.000000e+000  3.803288e+000  4.769172e+000
      vertex  7.882843e+000  3.979637e+000  4.990307e+000
    endloop
  endfacet
  facet normal  3.744485e-001  4.023178e-001  8.354213e-001
    outer loop
      vertex  7.882843e+000  1.420316e+000  6.222812e+000
      vertex  7.882843e+000  3.979637e+000  4.990307e+000
      vertex  7.600000e+000  1.446386e+000  6.337031e+000
    endloop
  endfacet
  facet normal  3.744486e-001  4.023177e-001  8.354213e-001
    outer loop
      vertex  7.600000e+000  1.446386e+000  6.337031e+000
      vertex  7.882843e+000  3.979637e+000  4.990307e+000
      vertex  7.600000e+000  4.052684e+000  5.081904e+000
    endloop
  endfacet
  facet normal  9.203753e-001  0.000000e+000  3.910362e-001
    outer loop
      vertex  8.000000e+000 -1.357378e+000  5.947060e+000
      vertex  8.000000e+000  1.357378e+000  5.947060e+000
      vertex  7.882843e+000 -1.420316e+000  6.222812e+000
    endloop
  endfacet
  facet normal  9.203753e-001  -0.000000e+000  3.910362e-001
    outer loop
      vertex  7.882843e+000 -1.420316e+000  6.222812e+000
      vertex  8.000000e+000  1.357378e+000  5.947060e+000
      vertex  7.882843e+000  1.420316e+000  6.222812e+000
    endloop
  endfacet
  facet normal  3.744483e-001  0.000000e+000  9.272478e-001
    outer loop
      vertex  7.882843e+000 -1.420316e+000  6.222812e+000
      vertex  7.882843e+000  1.420316e+000  6.222812e+000
      vertex  7.600000e+000 -1.446386e+000  6.337031e+000
    endloop
  endfacet
  facet normal  3.744482e-001  -0.000000e+000  9.272478e-001
    outer loop
      vertex  7.600000e+000 -1.446386e+000  6.337031e+000
      vertex  7.882843e+000  1.420316e+000  6.222812e+000
      vertex  7.600000e+000  1.446386e+000  6.337031e+000
    endloop
  endfacet
  facet normal  9.203751e-001 -1.696644e-001  3.523119e-001
    outer loop
      vertex  8.000000e+000 -3.803288e+000  4.769172e+000
      vertex  8.000000e+000 -1.357378e+000  5.947060e+000
      vertex  7.882843e+000 -3.979637e+000  4.990307e+000
    endloop
  endfacet
  facet normal  9.203753e-001 -1.696643e-001  3.523115e-001
    outer loop
      vertex  7.882843e+000 -3.979637e+000  4.990307e+000
      vertex  8.000000e+000 -1.357378e+000  5.947060e+000
      vertex  7.882843e+000 -1.420316e+000  6.222812e+000
    endloop
  endfacet
  facet normal  3.744483e-001 -4.023178e-001  8.354214e-001
    outer loop
      vertex  7.882843e+000 -3.979637e+000  4.990307e+000
      vertex  7.882843e+000 -1.420316e+000  6.222812e+000
      vertex  7.600000e+000 -4.052684e+000  5.081904e+000
    endloop
  endfacet
  facet normal  3.744482e-001 -4.023178e-001  8.354214e-001
    outer loop
      vertex  7.600000e+000 -4.052684e+000  5.081904e+000
      vertex  7.882843e+000 -1.420316e+000  6.222812e+000
      vertex  7.600000e+000 -1.446386e+000  6.337031e+000
    endloop
  endfacet
  facet normal  9.203750e-001 -3.057249e-001  2.438075e-001
    outer loop
      vertex  8.000000e+000 -5.495910e+000  2.646691e+000
      vertex  8.000000e+000 -3.803288e+000  4.769172e+000
      vertex  7.882843e+000 -5.750742e+000  2.769412e+000
    endloop
  endfacet
  facet normal  9.203750e-001 -3.057247e-001  2.438073e-001
    outer loop
      vertex  7.882843e+000 -5.750742e+000  2.769412e+000
      vertex  8.000000e+000 -3.803288e+000  4.769172e+000
      vertex  7.882843e+000 -3.979637e+000  4.990307e+000
    endloop
  endfacet
  facet normal  3.744491e-001 -7.249513e-001  5.781293e-001
    outer loop
      vertex  7.882843e+000 -5.750742e+000  2.769412e+000
      vertex  7.882843e+000 -3.979637e+000  4.990307e+000
      vertex  7.600000e+000 -5.856297e+000  2.820244e+000
    endloop
  endfacet
  facet normal  3.744488e-001 -7.249513e-001  5.781294e-001
    outer loop
      vertex  7.600000e+000 -5.856297e+000  2.820244e+000
      vertex  7.882843e+000 -3.979637e+000  4.990307e+000
      vertex  7.600000e+000 -4.052684e+000  5.081904e+000
    endloop
  endfacet
endsolid CATIA STL
