solid CATIA STL
  facet normal  0.000000e+000 -9.510565e-001 -3.090170e-001
    outer loop
      vertex -1.800000e+001 -3.902439e+000 -9.557903e-016
      vertex -3.875000e+001 -3.902439e+000 -9.557903e-016
      vertex -1.800000e+001 -3.157140e+000 -2.293796e+000
    endloop
  endfacet
  facet normal  -0.000000e+000 -9.510565e-001 -3.090170e-001
    outer loop
      vertex -1.800000e+001 -3.157140e+000 -2.293796e+000
      vertex -3.875000e+001 -3.902439e+000 -9.557903e-016
      vertex -3.875000e+001 -3.157140e+000 -2.293796e+000
    endloop
  endfacet
  facet normal  0.000000e+000 -5.877852e-001 -8.090169e-001
    outer loop
      vertex -1.800000e+001 -3.157140e+000 -2.293796e+000
      vertex -3.875000e+001 -3.157140e+000 -2.293796e+000
      vertex -1.800000e+001 -1.205920e+000 -3.711440e+000
    endloop
  endfacet
  facet normal  -0.000000e+000 -5.877852e-001 -8.090169e-001
    outer loop
      vertex -1.800000e+001 -1.205920e+000 -3.711440e+000
      vertex -3.875000e+001 -3.157140e+000 -2.293796e+000
      vertex -3.875000e+001 -1.205920e+000 -3.711440e+000
    endloop
  endfacet
  facet normal  0.000000e+000  0.000000e+000 -1.000000e+000
    outer loop
      vertex -1.800000e+001 -1.205920e+000 -3.711440e+000
      vertex -3.875000e+001 -1.205920e+000 -3.711440e+000
      vertex -1.800000e+001  1.205920e+000 -3.711440e+000
    endloop
  endfacet
  facet normal  -0.000000e+000  0.000000e+000 -1.000000e+000
    outer loop
      vertex -1.800000e+001  1.205920e+000 -3.711440e+000
      vertex -3.875000e+001 -1.205920e+000 -3.711440e+000
      vertex -3.875000e+001  1.205920e+000 -3.711440e+000
    endloop
  endfacet
  facet normal  0.000000e+000  5.877852e-001 -8.090169e-001
    outer loop
      vertex -1.800000e+001  1.205920e+000 -3.711440e+000
      vertex -3.875000e+001  1.205920e+000 -3.711440e+000
      vertex -1.800000e+001  3.157140e+000 -2.293796e+000
    endloop
  endfacet
  facet normal  0.000000e+000  5.877852e-001 -8.090169e-001
    outer loop
      vertex -1.800000e+001  3.157140e+000 -2.293796e+000
      vertex -3.875000e+001  1.205920e+000 -3.711440e+000
      vertex -3.875000e+001  3.157140e+000 -2.293796e+000
    endloop
  endfacet
  facet normal  0.000000e+000  9.510565e-001 -3.090170e-001
    outer loop
      vertex -1.800000e+001  3.157140e+000 -2.293796e+000
      vertex -3.875000e+001  3.157140e+000 -2.293796e+000
      vertex -1.800000e+001  3.902439e+000  4.778951e-016
    endloop
  endfacet
  facet normal  0.000000e+000  9.510565e-001 -3.090170e-001
    outer loop
      vertex -1.800000e+001  3.902439e+000  4.778951e-016
      vertex -3.875000e+001  3.157140e+000 -2.293796e+000
      vertex -3.875000e+001  3.902439e+000  4.778951e-016
    endloop
  endfacet
  facet normal  -0.000000e+000  9.510565e-001  3.090170e-001
    outer loop
      vertex -1.800000e+001  3.902439e+000  4.778951e-016
      vertex -3.875000e+001  3.902439e+000  4.778951e-016
      vertex -1.800000e+001  3.157140e+000  2.293796e+000
    endloop
  endfacet
  facet normal  0.000000e+000  9.510565e-001  3.090170e-001
    outer loop
      vertex -1.800000e+001  3.157140e+000  2.293796e+000
      vertex -3.875000e+001  3.902439e+000  4.778951e-016
      vertex -3.875000e+001  3.157140e+000  2.293796e+000
    endloop
  endfacet
  facet normal  -0.000000e+000  5.877852e-001  8.090169e-001
    outer loop
      vertex -1.800000e+001  3.157140e+000  2.293796e+000
      vertex -3.875000e+001  3.157140e+000  2.293796e+000
      vertex -1.800000e+001  1.205920e+000  3.711440e+000
    endloop
  endfacet
  facet normal  0.000000e+000  5.877852e-001  8.090169e-001
    outer loop
      vertex -1.800000e+001  1.205920e+000  3.711440e+000
      vertex -3.875000e+001  3.157140e+000  2.293796e+000
      vertex -3.875000e+001  1.205920e+000  3.711440e+000
    endloop
  endfacet
  facet normal  -0.000000e+000  0.000000e+000  1.000000e+000
    outer loop
      vertex -1.800000e+001  1.205920e+000  3.711440e+000
      vertex -3.875000e+001  1.205920e+000  3.711440e+000
      vertex -1.800000e+001 -1.205920e+000  3.711440e+000
    endloop
  endfacet
  facet normal  0.000000e+000  0.000000e+000  1.000000e+000
    outer loop
      vertex -1.800000e+001 -1.205920e+000  3.711440e+000
      vertex -3.875000e+001  1.205920e+000  3.711440e+000
      vertex -3.875000e+001 -1.205920e+000  3.711440e+000
    endloop
  endfacet
  facet normal  0.000000e+000 -5.877852e-001  8.090169e-001
    outer loop
      vertex -1.800000e+001 -1.205920e+000  3.711440e+000
      vertex -3.875000e+001 -1.205920e+000  3.711440e+000
      vertex -1.800000e+001 -3.157140e+000  2.293796e+000
    endloop
  endfacet
  facet normal  0.000000e+000 -5.877852e-001  8.090169e-001
    outer loop
      vertex -1.800000e+001 -3.157140e+000  2.293796e+000
      vertex -3.875000e+001 -1.205920e+000  3.711440e+000
      vertex -3.875000e+001 -3.157140e+000  2.293796e+000
    endloop
  endfacet
  facet normal  0.000000e+000 -9.510565e-001  3.090170e-001
    outer loop
      vertex -1.800000e+001 -3.157140e+000  2.293796e+000
      vertex -3.875000e+001 -3.157140e+000  2.293796e+000
      vertex -1.800000e+001 -3.902439e+000 -9.557903e-016
    endloop
  endfacet
  facet normal  0.000000e+000 -9.510565e-001  3.090170e-001
    outer loop
      vertex -1.800000e+001 -3.902439e+000 -9.557903e-016
      vertex -3.875000e+001 -3.157140e+000  2.293796e+000
      vertex -3.875000e+001 -3.902439e+000 -9.557903e-016
    endloop
  endfacet
  facet normal  -0.000000e+000  9.510566e-001  3.090170e-001
    outer loop
      vertex -4.000000e-001  4.000000e+000  4.898425e-016
      vertex -1.800000e+001  4.000000e+000  4.898425e-016
      vertex -4.000000e-001  3.236068e+000  2.351141e+000
    endloop
  endfacet
  facet normal  0.000000e+000  9.510566e-001  3.090170e-001
    outer loop
      vertex -4.000000e-001  3.236068e+000  2.351141e+000
      vertex -1.800000e+001  4.000000e+000  4.898425e-016
      vertex -1.800000e+001  3.236068e+000  2.351141e+000
    endloop
  endfacet
  facet normal  -0.000000e+000  5.877853e-001  8.090170e-001
    outer loop
      vertex -4.000000e-001  3.236068e+000  2.351141e+000
      vertex -1.800000e+001  3.236068e+000  2.351141e+000
      vertex -4.000000e-001  1.236068e+000  3.804226e+000
    endloop
  endfacet
  facet normal  0.000000e+000  5.877853e-001  8.090170e-001
    outer loop
      vertex -4.000000e-001  1.236068e+000  3.804226e+000
      vertex -1.800000e+001  3.236068e+000  2.351141e+000
      vertex -1.800000e+001  1.236068e+000  3.804226e+000
    endloop
  endfacet
  facet normal  -0.000000e+000  0.000000e+000  1.000000e+000
    outer loop
      vertex -4.000000e-001  1.236068e+000  3.804226e+000
      vertex -1.800000e+001  1.236068e+000  3.804226e+000
      vertex -4.000000e-001 -1.236068e+000  3.804226e+000
    endloop
  endfacet
  facet normal  0.000000e+000  0.000000e+000  1.000000e+000
    outer loop
      vertex -4.000000e-001 -1.236068e+000  3.804226e+000
      vertex -1.800000e+001  1.236068e+000  3.804226e+000
      vertex -1.800000e+001 -1.236068e+000  3.804226e+000
    endloop
  endfacet
  facet normal  0.000000e+000 -5.877853e-001  8.090170e-001
    outer loop
      vertex -4.000000e-001 -1.236068e+000  3.804226e+000
      vertex -1.800000e+001 -1.236068e+000  3.804226e+000
      vertex -4.000000e-001 -3.236068e+000  2.351141e+000
    endloop
  endfacet
  facet normal  0.000000e+000 -5.877853e-001  8.090170e-001
    outer loop
      vertex -4.000000e-001 -3.236068e+000  2.351141e+000
      vertex -1.800000e+001 -1.236068e+000  3.804226e+000
      vertex -1.800000e+001 -3.236068e+000  2.351141e+000
    endloop
  endfacet
  facet normal  0.000000e+000 -9.510566e-001  3.090170e-001
    outer loop
      vertex -4.000000e-001 -3.236068e+000  2.351141e+000
      vertex -1.800000e+001 -3.236068e+000  2.351141e+000
      vertex -4.000000e-001 -4.000000e+000  0.000000e+000
    endloop
  endfacet
  facet normal  0.000000e+000 -9.510566e-001  3.090170e-001
    outer loop
      vertex -4.000000e-001 -4.000000e+000  0.000000e+000
      vertex -1.800000e+001 -3.236068e+000  2.351141e+000
      vertex -1.800000e+001 -4.000000e+000  0.000000e+000
    endloop
  endfacet
  facet normal  0.000000e+000 -9.510566e-001 -3.090170e-001
    outer loop
      vertex -4.000000e-001 -4.000000e+000  0.000000e+000
      vertex -1.800000e+001 -4.000000e+000  0.000000e+000
      vertex -4.000000e-001 -3.236068e+000 -2.351141e+000
    endloop
  endfacet
  facet normal  -0.000000e+000 -9.510566e-001 -3.090170e-001
    outer loop
      vertex -4.000000e-001 -3.236068e+000 -2.351141e+000
      vertex -1.800000e+001 -4.000000e+000  0.000000e+000
      vertex -1.800000e+001 -3.236068e+000 -2.351141e+000
    endloop
  endfacet
  facet normal  0.000000e+000 -5.877853e-001 -8.090170e-001
    outer loop
      vertex -4.000000e-001 -3.236068e+000 -2.351141e+000
      vertex -1.800000e+001 -3.236068e+000 -2.351141e+000
      vertex -4.000000e-001 -1.236068e+000 -3.804226e+000
    endloop
  endfacet
  facet normal  -0.000000e+000 -5.877853e-001 -8.090170e-001
    outer loop
      vertex -4.000000e-001 -1.236068e+000 -3.804226e+000
      vertex -1.800000e+001 -3.236068e+000 -2.351141e+000
      vertex -1.800000e+001 -1.236068e+000 -3.804226e+000
    endloop
  endfacet
  facet normal  0.000000e+000  0.000000e+000 -1.000000e+000
    outer loop
      vertex -4.000000e-001 -1.236068e+000 -3.804226e+000
      vertex -1.800000e+001 -1.236068e+000 -3.804226e+000
      vertex -4.000000e-001  1.236068e+000 -3.804226e+000
    endloop
  endfacet
  facet normal  -0.000000e+000  0.000000e+000 -1.000000e+000
    outer loop
      vertex -4.000000e-001  1.236068e+000 -3.804226e+000
      vertex -1.800000e+001 -1.236068e+000 -3.804226e+000
      vertex -1.800000e+001  1.236068e+000 -3.804226e+000
    endloop
  endfacet
  facet normal  0.000000e+000  5.877853e-001 -8.090170e-001
    outer loop
      vertex -4.000000e-001  1.236068e+000 -3.804226e+000
      vertex -1.800000e+001  1.236068e+000 -3.804226e+000
      vertex -4.000000e-001  3.236068e+000 -2.351141e+000
    endloop
  endfacet
  facet normal  0.000000e+000  5.877853e-001 -8.090170e-001
    outer loop
      vertex -4.000000e-001  3.236068e+000 -2.351141e+000
      vertex -1.800000e+001  1.236068e+000 -3.804226e+000
      vertex -1.800000e+001  3.236068e+000 -2.351141e+000
    endloop
  endfacet
  facet normal  0.000000e+000  9.510566e-001 -3.090170e-001
    outer loop
      vertex -4.000000e-001  3.236068e+000 -2.351141e+000
      vertex -1.800000e+001  3.236068e+000 -2.351141e+000
      vertex -4.000000e-001  4.000000e+000  4.898425e-016
    endloop
  endfacet
  facet normal  0.000000e+000  9.510566e-001 -3.090170e-001
    outer loop
      vertex -4.000000e-001  4.000000e+000  4.898425e-016
      vertex -1.800000e+001  3.236068e+000 -2.351141e+000
      vertex -1.800000e+001  4.000000e+000  4.898425e-016
    endloop
  endfacet
  facet normal -1.000000e+000  0.000000e+000  0.000000e+000
    outer loop
      vertex  0.000000e+000 -9.351351e-016  5.815000e+000
      vertex  0.000000e+000  2.661435e-014  4.400000e+000
      vertex  0.000000e+000 -2.907500e+000  5.035938e+000
    endloop
  endfacet
  facet normal -1.000000e+000  0.000000e+000  -0.000000e+000
    outer loop
      vertex  0.000000e+000  4.096595e-015 -5.815000e+000
      vertex  0.000000e+000  2.915568e-014 -4.400000e+000
      vertex  0.000000e+000  2.907500e+000 -5.035938e+000
    endloop
  endfacet
  facet normal -9.999999e-001  0.000000e+000  0.000000e+000
    outer loop
      vertex  0.000000e+000  2.661435e-014  4.400000e+000
      vertex  0.000000e+000 -2.200000e+000  3.810512e+000
      vertex  0.000000e+000 -2.907500e+000  5.035938e+000
    endloop
  endfacet
  facet normal -1.000000e+000  0.000000e+000  -0.000000e+000
    outer loop
      vertex  0.000000e+000 -2.907500e+000  5.035938e+000
      vertex  0.000000e+000 -2.200000e+000  3.810512e+000
      vertex  0.000000e+000 -3.810512e+000  2.200000e+000
    endloop
  endfacet
  facet normal -1.000000e+000  0.000000e+000  0.000000e+000
    outer loop
      vertex  0.000000e+000 -2.907500e+000  5.035938e+000
      vertex  0.000000e+000 -3.810512e+000  2.200000e+000
      vertex  0.000000e+000 -5.035938e+000  2.907500e+000
    endloop
  endfacet
  facet normal -9.999999e-001  0.000000e+000  0.000000e+000
    outer loop
      vertex  0.000000e+000 -5.035938e+000  2.907500e+000
      vertex  0.000000e+000 -3.810512e+000  2.200000e+000
      vertex  0.000000e+000 -4.400000e+000  4.991558e-015
    endloop
  endfacet
  facet normal -1.000000e+000  -0.000000e+000  0.000000e+000
    outer loop
      vertex  0.000000e+000 -5.035938e+000  2.907500e+000
      vertex  0.000000e+000 -4.400000e+000  4.991558e-015
      vertex  0.000000e+000 -5.815000e+000 -1.870270e-015
    endloop
  endfacet
  facet normal -1.000000e+000  0.000000e+000  0.000000e+000
    outer loop
      vertex  0.000000e+000 -5.815000e+000 -1.870270e-015
      vertex  0.000000e+000 -4.400000e+000  4.991558e-015
      vertex  0.000000e+000 -3.810512e+000 -2.200000e+000
    endloop
  endfacet
  facet normal -1.000000e+000  -0.000000e+000  0.000000e+000
    outer loop
      vertex  0.000000e+000 -5.815000e+000 -1.870270e-015
      vertex  0.000000e+000 -3.810512e+000 -2.200000e+000
      vertex  0.000000e+000 -5.035938e+000 -2.907500e+000
    endloop
  endfacet
  facet normal -1.000000e+000  0.000000e+000  0.000000e+000
    outer loop
      vertex  0.000000e+000 -5.035938e+000 -2.907500e+000
      vertex  0.000000e+000 -3.810512e+000 -2.200000e+000
      vertex  0.000000e+000 -2.200000e+000 -3.810512e+000
    endloop
  endfacet
  facet normal -1.000000e+000  -0.000000e+000  0.000000e+000
    outer loop
      vertex  0.000000e+000 -5.035938e+000 -2.907500e+000
      vertex  0.000000e+000 -2.200000e+000 -3.810512e+000
      vertex  0.000000e+000 -2.907500e+000 -5.035938e+000
    endloop
  endfacet
  facet normal -9.999999e-001  0.000000e+000  0.000000e+000
    outer loop
      vertex  0.000000e+000 -2.907500e+000 -5.035938e+000
      vertex  0.000000e+000 -2.200000e+000 -3.810512e+000
      vertex  0.000000e+000  2.915568e-014 -4.400000e+000
    endloop
  endfacet
  facet normal -1.000000e+000  0.000000e+000  0.000000e+000
    outer loop
      vertex  0.000000e+000 -2.907500e+000 -5.035938e+000
      vertex  0.000000e+000  2.915568e-014 -4.400000e+000
      vertex  0.000000e+000  4.096595e-015 -5.815000e+000
    endloop
  endfacet
  facet normal -9.999999e-001  0.000000e+000  -0.000000e+000
    outer loop
      vertex  0.000000e+000  2.915568e-014 -4.400000e+000
      vertex  0.000000e+000  2.200000e+000 -3.810512e+000
      vertex  0.000000e+000  2.907500e+000 -5.035938e+000
    endloop
  endfacet
  facet normal -1.000000e+000  0.000000e+000  0.000000e+000
    outer loop
      vertex  0.000000e+000  2.907500e+000 -5.035938e+000
      vertex  0.000000e+000  2.200000e+000 -3.810512e+000
      vertex  0.000000e+000  3.810512e+000 -2.200000e+000
    endloop
  endfacet
  facet normal -1.000000e+000  0.000000e+000  -0.000000e+000
    outer loop
      vertex  0.000000e+000  2.907500e+000 -5.035938e+000
      vertex  0.000000e+000  3.810512e+000 -2.200000e+000
      vertex  0.000000e+000  5.035938e+000 -2.907500e+000
    endloop
  endfacet
  facet normal -9.999999e-001  0.000000e+000  0.000000e+000
    outer loop
      vertex  0.000000e+000  5.035938e+000 -2.907500e+000
      vertex  0.000000e+000  3.810512e+000 -2.200000e+000
      vertex  0.000000e+000  4.400000e+000  6.453171e-016
    endloop
  endfacet
  facet normal -1.000000e+000  0.000000e+000  0.000000e+000
    outer loop
      vertex  0.000000e+000  5.035938e+000 -2.907500e+000
      vertex  0.000000e+000  4.400000e+000  6.453171e-016
      vertex  0.000000e+000  5.815000e+000  0.000000e+000
    endloop
  endfacet
  facet normal -1.000000e+000  0.000000e+000  0.000000e+000
    outer loop
      vertex  0.000000e+000  5.815000e+000  0.000000e+000
      vertex  0.000000e+000  4.400000e+000  6.453171e-016
      vertex  0.000000e+000  3.810512e+000  2.200000e+000
    endloop
  endfacet
  facet normal -1.000000e+000  0.000000e+000  0.000000e+000
    outer loop
      vertex  0.000000e+000  5.815000e+000  0.000000e+000
      vertex  0.000000e+000  3.810512e+000  2.200000e+000
      vertex  0.000000e+000  5.035938e+000  2.907500e+000
    endloop
  endfacet
  facet normal -1.000000e+000  -0.000000e+000  0.000000e+000
    outer loop
      vertex  0.000000e+000  5.035938e+000  2.907500e+000
      vertex  0.000000e+000  3.810512e+000  2.200000e+000
      vertex  0.000000e+000  2.200000e+000  3.810512e+000
    endloop
  endfacet
  facet normal -1.000000e+000  0.000000e+000  0.000000e+000
    outer loop
      vertex  0.000000e+000  5.035938e+000  2.907500e+000
      vertex  0.000000e+000  2.200000e+000  3.810512e+000
      vertex  0.000000e+000  2.907500e+000  5.035938e+000
    endloop
  endfacet
  facet normal -9.999999e-001  0.000000e+000  0.000000e+000
    outer loop
      vertex  0.000000e+000  2.907500e+000  5.035938e+000
      vertex  0.000000e+000  2.200000e+000  3.810512e+000
      vertex  0.000000e+000  2.661435e-014  4.400000e+000
    endloop
  endfacet
  facet normal -1.000000e+000  0.000000e+000  0.000000e+000
    outer loop
      vertex  0.000000e+000  2.907500e+000  5.035938e+000
      vertex  0.000000e+000  2.661435e-014  4.400000e+000
      vertex  0.000000e+000 -9.351351e-016  5.815000e+000
    endloop
  endfacet
  facet normal -6.190703e-001  7.468986e-001 -2.426820e-001
    outer loop
      vertex -1.171573e-001  3.565563e+000 -2.058579e+000
      vertex -4.000000e-001  3.236068e+000 -2.351141e+000
      vertex -4.000000e-001  4.000000e+000  4.898425e-016
    endloop
  endfacet
  facet normal -3.714708e-001  8.968086e-001 -2.402993e-001
    outer loop
      vertex -1.171573e-001  4.117157e+000 -8.881784e-015
      vertex -1.171573e-001  3.565563e+000 -2.058579e+000
      vertex -4.000000e-001  4.000000e+000  4.898425e-016
    endloop
  endfacet
  facet normal -3.714708e-001 -8.968086e-001 -2.402993e-001
    outer loop
      vertex -1.171573e-001 -3.565563e+000 -2.058579e+000
      vertex -1.171573e-001 -4.117157e+000  7.549517e-015
      vertex -4.000000e-001 -4.000000e+000  0.000000e+000
    endloop
  endfacet
  facet normal -6.190703e-001 -7.468986e-001 -2.426820e-001
    outer loop
      vertex -4.000000e-001 -3.236068e+000 -2.351141e+000
      vertex -1.171573e-001 -3.565563e+000 -2.058579e+000
      vertex -4.000000e-001 -4.000000e+000  0.000000e+000
    endloop
  endfacet
  facet normal -7.163389e-001 -4.101287e-001 -5.644937e-001
    outer loop
      vertex -4.000000e-001 -3.236068e+000 -2.351141e+000
      vertex -4.000000e-001 -1.236068e+000 -3.804226e+000
      vertex -1.171573e-001 -2.058579e+000 -3.565563e+000
    endloop
  endfacet
  facet normal -9.194010e-002 -7.041119e-001 -7.041119e-001
    outer loop
      vertex -1.171573e-001 -3.565563e+000 -2.058579e+000
      vertex -4.000000e-001 -3.236068e+000 -2.351141e+000
      vertex -1.171573e-001 -2.058579e+000 -3.565563e+000
    endloop
  endfacet
  facet normal -7.418725e-001  -0.000000e+000 -6.705409e-001
    outer loop
      vertex -4.000000e-001 -1.236068e+000 -3.804226e+000
      vertex -4.000000e-001  1.236068e+000 -3.804226e+000
      vertex -1.171573e-001  3.419487e-014 -4.117157e+000
    endloop
  endfacet
  facet normal  6.227980e-002 -2.583167e-001 -9.640507e-001
    outer loop
      vertex -1.171573e-001 -2.058579e+000 -3.565563e+000
      vertex -4.000000e-001 -1.236068e+000 -3.804226e+000
      vertex -1.171573e-001  3.419487e-014 -4.117157e+000
    endloop
  endfacet
  facet normal -7.163389e-001  4.101287e-001 -5.644937e-001
    outer loop
      vertex -4.000000e-001  1.236068e+000 -3.804226e+000
      vertex -4.000000e-001  3.236068e+000 -2.351141e+000
      vertex -1.171573e-001  2.058579e+000 -3.565563e+000
    endloop
  endfacet
  facet normal  6.227980e-002  2.583167e-001 -9.640507e-001
    outer loop
      vertex -1.171573e-001  3.419487e-014 -4.117157e+000
      vertex -4.000000e-001  1.236068e+000 -3.804226e+000
      vertex -1.171573e-001  2.058579e+000 -3.565563e+000
    endloop
  endfacet
  facet normal -9.194010e-002  7.041119e-001 -7.041119e-001
    outer loop
      vertex -1.171573e-001  2.058579e+000 -3.565563e+000
      vertex -4.000000e-001  3.236068e+000 -2.351141e+000
      vertex -1.171573e-001  3.565563e+000 -2.058579e+000
    endloop
  endfacet
  facet normal -9.190606e-001 -1.020049e-001 -3.806871e-001
    outer loop
      vertex -1.171573e-001  3.419487e-014 -4.117157e+000
      vertex  0.000000e+000 -2.200000e+000 -3.810512e+000
      vertex -1.171573e-001 -2.058579e+000 -3.565563e+000
    endloop
  endfacet
  facet normal -9.190605e-001 -2.786824e-001 -2.786824e-001
    outer loop
      vertex -1.171573e-001 -2.058579e+000 -3.565563e+000
      vertex  0.000000e+000 -2.200000e+000 -3.810512e+000
      vertex  0.000000e+000 -3.810512e+000 -2.200000e+000
    endloop
  endfacet
  facet normal -9.190605e-001 -2.786824e-001 -2.786824e-001
    outer loop
      vertex -1.171573e-001 -2.058579e+000 -3.565563e+000
      vertex  0.000000e+000 -3.810512e+000 -2.200000e+000
      vertex -1.171573e-001 -3.565563e+000 -2.058579e+000
    endloop
  endfacet
  facet normal -9.190605e-001 -3.806872e-001 -1.020048e-001
    outer loop
      vertex -1.171573e-001 -3.565563e+000 -2.058579e+000
      vertex  0.000000e+000 -3.810512e+000 -2.200000e+000
      vertex  0.000000e+000 -4.400000e+000  4.991558e-015
    endloop
  endfacet
  facet normal -9.190605e-001 -3.806874e-001 -1.020049e-001
    outer loop
      vertex -1.171573e-001 -3.565563e+000 -2.058579e+000
      vertex  0.000000e+000 -4.400000e+000  4.991558e-015
      vertex -1.171573e-001 -4.117157e+000  7.549517e-015
    endloop
  endfacet
  facet normal -9.190605e-001 -1.020049e-001 -3.806874e-001
    outer loop
      vertex  0.000000e+000 -2.200000e+000 -3.810512e+000
      vertex -1.171573e-001  3.419487e-014 -4.117157e+000
      vertex  0.000000e+000  2.915568e-014 -4.400000e+000
    endloop
  endfacet
  facet normal -9.190605e-001  1.020049e-001 -3.806874e-001
    outer loop
      vertex  0.000000e+000  2.915568e-014 -4.400000e+000
      vertex -1.171573e-001  3.419487e-014 -4.117157e+000
      vertex -1.171573e-001  2.058579e+000 -3.565563e+000
    endloop
  endfacet
  facet normal -9.190605e-001  1.020048e-001 -3.806872e-001
    outer loop
      vertex  0.000000e+000  2.915568e-014 -4.400000e+000
      vertex -1.171573e-001  2.058579e+000 -3.565563e+000
      vertex  0.000000e+000  2.200000e+000 -3.810512e+000
    endloop
  endfacet
  facet normal -9.190605e-001  2.786824e-001 -2.786824e-001
    outer loop
      vertex  0.000000e+000  2.200000e+000 -3.810512e+000
      vertex -1.171573e-001  2.058579e+000 -3.565563e+000
      vertex -1.171573e-001  3.565563e+000 -2.058579e+000
    endloop
  endfacet
  facet normal -9.190605e-001  2.786824e-001 -2.786824e-001
    outer loop
      vertex  0.000000e+000  2.200000e+000 -3.810512e+000
      vertex -1.171573e-001  3.565563e+000 -2.058579e+000
      vertex  0.000000e+000  3.810512e+000 -2.200000e+000
    endloop
  endfacet
  facet normal -9.190606e-001  3.806871e-001 -1.020049e-001
    outer loop
      vertex  0.000000e+000  3.810512e+000 -2.200000e+000
      vertex -1.171573e-001  3.565563e+000 -2.058579e+000
      vertex -1.171573e-001  4.117157e+000 -8.881784e-015
    endloop
  endfacet
  facet normal -9.190605e-001  3.806874e-001 -1.020049e-001
    outer loop
      vertex  0.000000e+000  3.810512e+000 -2.200000e+000
      vertex -1.171573e-001  4.117157e+000 -8.881784e-015
      vertex  0.000000e+000  4.400000e+000  6.453171e-016
    endloop
  endfacet
  facet normal -6.190703e-001 -7.468986e-001  2.426820e-001
    outer loop
      vertex -1.171573e-001 -3.565563e+000  2.058579e+000
      vertex -4.000000e-001 -3.236068e+000  2.351141e+000
      vertex -4.000000e-001 -4.000000e+000  0.000000e+000
    endloop
  endfacet
  facet normal -3.714708e-001 -8.968086e-001  2.402993e-001
    outer loop
      vertex -1.171573e-001 -4.117157e+000  7.549517e-015
      vertex -1.171573e-001 -3.565563e+000  2.058579e+000
      vertex -4.000000e-001 -4.000000e+000  0.000000e+000
    endloop
  endfacet
  facet normal -3.714708e-001  8.968086e-001  2.402993e-001
    outer loop
      vertex -1.171573e-001  3.565563e+000  2.058579e+000
      vertex -1.171573e-001  4.117157e+000 -8.881784e-015
      vertex -4.000000e-001  4.000000e+000  4.898425e-016
    endloop
  endfacet
  facet normal -6.190703e-001  7.468986e-001  2.426820e-001
    outer loop
      vertex -4.000000e-001  3.236068e+000  2.351141e+000
      vertex -1.171573e-001  3.565563e+000  2.058579e+000
      vertex -4.000000e-001  4.000000e+000  4.898425e-016
    endloop
  endfacet
  facet normal -7.163389e-001  4.101287e-001  5.644937e-001
    outer loop
      vertex -4.000000e-001  3.236068e+000  2.351141e+000
      vertex -4.000000e-001  1.236068e+000  3.804226e+000
      vertex -1.171573e-001  2.058579e+000  3.565563e+000
    endloop
  endfacet
  facet normal -9.194010e-002  7.041119e-001  7.041119e-001
    outer loop
      vertex -1.171573e-001  3.565563e+000  2.058579e+000
      vertex -4.000000e-001  3.236068e+000  2.351141e+000
      vertex -1.171573e-001  2.058579e+000  3.565563e+000
    endloop
  endfacet
  facet normal -7.418725e-001  0.000000e+000  6.705409e-001
    outer loop
      vertex -4.000000e-001  1.236068e+000  3.804226e+000
      vertex -4.000000e-001 -1.236068e+000  3.804226e+000
      vertex -1.171573e-001  3.286260e-014  4.117157e+000
    endloop
  endfacet
  facet normal  6.227980e-002  2.583167e-001  9.640507e-001
    outer loop
      vertex -1.171573e-001  2.058579e+000  3.565563e+000
      vertex -4.000000e-001  1.236068e+000  3.804226e+000
      vertex -1.171573e-001  3.286260e-014  4.117157e+000
    endloop
  endfacet
  facet normal -7.163389e-001 -4.101287e-001  5.644937e-001
    outer loop
      vertex -4.000000e-001 -1.236068e+000  3.804226e+000
      vertex -4.000000e-001 -3.236068e+000  2.351141e+000
      vertex -1.171573e-001 -2.058579e+000  3.565563e+000
    endloop
  endfacet
  facet normal  6.227980e-002 -2.583167e-001  9.640507e-001
    outer loop
      vertex -1.171573e-001  3.286260e-014  4.117157e+000
      vertex -4.000000e-001 -1.236068e+000  3.804226e+000
      vertex -1.171573e-001 -2.058579e+000  3.565563e+000
    endloop
  endfacet
  facet normal -9.194010e-002 -7.041119e-001  7.041119e-001
    outer loop
      vertex -1.171573e-001 -2.058579e+000  3.565563e+000
      vertex -4.000000e-001 -3.236068e+000  2.351141e+000
      vertex -1.171573e-001 -3.565563e+000  2.058579e+000
    endloop
  endfacet
  facet normal -9.190606e-001  1.020049e-001  3.806871e-001
    outer loop
      vertex -1.171573e-001  3.286260e-014  4.117157e+000
      vertex  0.000000e+000  2.200000e+000  3.810512e+000
      vertex -1.171573e-001  2.058579e+000  3.565563e+000
    endloop
  endfacet
  facet normal -9.190605e-001  2.786824e-001  2.786824e-001
    outer loop
      vertex -1.171573e-001  2.058579e+000  3.565563e+000
      vertex  0.000000e+000  2.200000e+000  3.810512e+000
      vertex  0.000000e+000  3.810512e+000  2.200000e+000
    endloop
  endfacet
  facet normal -9.190605e-001  2.786824e-001  2.786824e-001
    outer loop
      vertex -1.171573e-001  2.058579e+000  3.565563e+000
      vertex  0.000000e+000  3.810512e+000  2.200000e+000
      vertex -1.171573e-001  3.565563e+000  2.058579e+000
    endloop
  endfacet
  facet normal -9.190605e-001  3.806872e-001  1.020048e-001
    outer loop
      vertex -1.171573e-001  3.565563e+000  2.058579e+000
      vertex  0.000000e+000  3.810512e+000  2.200000e+000
      vertex  0.000000e+000  4.400000e+000  6.453171e-016
    endloop
  endfacet
  facet normal -9.190605e-001  3.806874e-001  1.020049e-001
    outer loop
      vertex -1.171573e-001  3.565563e+000  2.058579e+000
      vertex  0.000000e+000  4.400000e+000  6.453171e-016
      vertex -1.171573e-001  4.117157e+000 -8.881784e-015
    endloop
  endfacet
  facet normal -9.190605e-001  1.020049e-001  3.806874e-001
    outer loop
      vertex  0.000000e+000  2.200000e+000  3.810512e+000
      vertex -1.171573e-001  3.286260e-014  4.117157e+000
      vertex  0.000000e+000  2.661435e-014  4.400000e+000
    endloop
  endfacet
  facet normal -9.190605e-001 -1.020049e-001  3.806874e-001
    outer loop
      vertex  0.000000e+000  2.661435e-014  4.400000e+000
      vertex -1.171573e-001  3.286260e-014  4.117157e+000
      vertex -1.171573e-001 -2.058579e+000  3.565563e+000
    endloop
  endfacet
  facet normal -9.190605e-001 -1.020048e-001  3.806872e-001
    outer loop
      vertex  0.000000e+000  2.661435e-014  4.400000e+000
      vertex -1.171573e-001 -2.058579e+000  3.565563e+000
      vertex  0.000000e+000 -2.200000e+000  3.810512e+000
    endloop
  endfacet
  facet normal -9.190605e-001 -2.786824e-001  2.786824e-001
    outer loop
      vertex  0.000000e+000 -2.200000e+000  3.810512e+000
      vertex -1.171573e-001 -2.058579e+000  3.565563e+000
      vertex -1.171573e-001 -3.565563e+000  2.058579e+000
    endloop
  endfacet
  facet normal -9.190605e-001 -2.786824e-001  2.786824e-001
    outer loop
      vertex  0.000000e+000 -2.200000e+000  3.810512e+000
      vertex -1.171573e-001 -3.565563e+000  2.058579e+000
      vertex  0.000000e+000 -3.810512e+000  2.200000e+000
    endloop
  endfacet
  facet normal -9.190606e-001 -3.806871e-001  1.020049e-001
    outer loop
      vertex  0.000000e+000 -3.810512e+000  2.200000e+000
      vertex -1.171573e-001 -3.565563e+000  2.058579e+000
      vertex -1.171573e-001 -4.117157e+000  7.549517e-015
    endloop
  endfacet
  facet normal -9.190605e-001 -3.806874e-001  1.020049e-001
    outer loop
      vertex  0.000000e+000 -3.810512e+000  2.200000e+000
      vertex -1.171573e-001 -4.117157e+000  7.549517e-015
      vertex  0.000000e+000 -4.400000e+000  4.991558e-015
    endloop
  endfacet
  facet normal -9.999999e-001  -0.000000e+000  0.000000e+000
    outer loop
      vertex -4.000000e+001 -8.196487e-001  2.522619e+000
      vertex -4.000000e+001  8.196487e-001  2.522619e+000
      vertex -4.000000e+001 -2.145868e+000  1.559065e+000
    endloop
  endfacet
  facet normal -1.000000e+000  0.000000e+000  0.000000e+000
    outer loop
      vertex -4.000000e+001 -2.145868e+000  1.559065e+000
      vertex -4.000000e+001  8.196487e-001  2.522619e+000
      vertex -4.000000e+001  2.145868e+000  1.559065e+000
    endloop
  endfacet
  facet normal -1.000000e+000  -0.000000e+000  0.000000e+000
    outer loop
      vertex -4.000000e+001 -2.145868e+000  1.559065e+000
      vertex -4.000000e+001  2.145868e+000  1.559065e+000
      vertex -4.000000e+001 -2.652439e+000 -3.896841e-016
    endloop
  endfacet
  facet normal -1.000000e+000  0.000000e+000  0.000000e+000
    outer loop
      vertex -4.000000e+001 -2.652439e+000 -3.896841e-016
      vertex -4.000000e+001  2.145868e+000  1.559065e+000
      vertex -4.000000e+001  2.652439e+000  5.963781e-014
    endloop
  endfacet
  facet normal -1.000000e+000  0.000000e+000  0.000000e+000
    outer loop
      vertex -4.000000e+001 -2.652439e+000 -3.896841e-016
      vertex -4.000000e+001  2.652439e+000  5.963781e-014
      vertex -4.000000e+001 -2.145868e+000 -1.559065e+000
    endloop
  endfacet
  facet normal -1.000000e+000  0.000000e+000  0.000000e+000
    outer loop
      vertex -4.000000e+001 -2.145868e+000 -1.559065e+000
      vertex -4.000000e+001  2.652439e+000  5.963781e-014
      vertex -4.000000e+001  2.145868e+000 -1.559065e+000
    endloop
  endfacet
  facet normal -1.000000e+000  -0.000000e+000  0.000000e+000
    outer loop
      vertex -4.000000e+001 -2.145868e+000 -1.559065e+000
      vertex -4.000000e+001  2.145868e+000 -1.559065e+000
      vertex -4.000000e+001 -8.196487e-001 -2.522619e+000
    endloop
  endfacet
  facet normal -9.999999e-001  0.000000e+000  0.000000e+000
    outer loop
      vertex -4.000000e+001 -8.196487e-001 -2.522619e+000
      vertex -4.000000e+001  2.145868e+000 -1.559065e+000
      vertex -4.000000e+001  8.196487e-001 -2.522619e+000
    endloop
  endfacet
  facet normal -6.891518e-001  4.259192e-001 -5.862274e-001
    outer loop
      vertex -3.875000e+001  1.205920e+000 -3.711440e+000
      vertex -4.000000e+001  2.145868e+000 -1.559065e+000
      vertex -3.875000e+001  3.157140e+000 -2.293796e+000
    endloop
  endfacet
  facet normal -6.891518e-001  6.891518e-001 -2.239190e-001
    outer loop
      vertex -3.875000e+001  3.157140e+000 -2.293796e+000
      vertex -4.000000e+001  2.145868e+000 -1.559065e+000
      vertex -4.000000e+001  2.652439e+000  5.963781e-014
    endloop
  endfacet
  facet normal -6.891517e-001  6.891517e-001 -2.239190e-001
    outer loop
      vertex -3.875000e+001  3.157140e+000 -2.293796e+000
      vertex -4.000000e+001  2.652439e+000  5.963781e-014
      vertex -3.875000e+001  3.902439e+000  4.778951e-016
    endloop
  endfacet
  facet normal -6.891517e-001  4.259193e-001 -5.862275e-001
    outer loop
      vertex -4.000000e+001  2.145868e+000 -1.559065e+000
      vertex -3.875000e+001  1.205920e+000 -3.711440e+000
      vertex -4.000000e+001  8.196487e-001 -2.522619e+000
    endloop
  endfacet
  facet normal -6.891517e-001  0.000000e+000 -7.246171e-001
    outer loop
      vertex -4.000000e+001  8.196487e-001 -2.522619e+000
      vertex -3.875000e+001  1.205920e+000 -3.711440e+000
      vertex -3.875000e+001 -1.205920e+000 -3.711440e+000
    endloop
  endfacet
  facet normal -6.891518e-001  0.000000e+000 -7.246171e-001
    outer loop
      vertex -4.000000e+001  8.196487e-001 -2.522619e+000
      vertex -3.875000e+001 -1.205920e+000 -3.711440e+000
      vertex -4.000000e+001 -8.196487e-001 -2.522619e+000
    endloop
  endfacet
  facet normal -6.891518e-001 -4.259192e-001 -5.862275e-001
    outer loop
      vertex -4.000000e+001 -8.196487e-001 -2.522619e+000
      vertex -3.875000e+001 -1.205920e+000 -3.711440e+000
      vertex -3.875000e+001 -3.157140e+000 -2.293796e+000
    endloop
  endfacet
  facet normal -6.891518e-001 -4.259192e-001 -5.862275e-001
    outer loop
      vertex -4.000000e+001 -8.196487e-001 -2.522619e+000
      vertex -3.875000e+001 -3.157140e+000 -2.293796e+000
      vertex -4.000000e+001 -2.145868e+000 -1.559065e+000
    endloop
  endfacet
  facet normal -6.891518e-001 -6.891518e-001 -2.239190e-001
    outer loop
      vertex -4.000000e+001 -2.145868e+000 -1.559065e+000
      vertex -3.875000e+001 -3.157140e+000 -2.293796e+000
      vertex -3.875000e+001 -3.902439e+000 -9.557903e-016
    endloop
  endfacet
  facet normal -6.891518e-001 -6.891518e-001 -2.239190e-001
    outer loop
      vertex -4.000000e+001 -2.145868e+000 -1.559065e+000
      vertex -3.875000e+001 -3.902439e+000 -9.557903e-016
      vertex -4.000000e+001 -2.652439e+000 -3.896841e-016
    endloop
  endfacet
  facet normal -6.891518e-001 -4.259192e-001  5.862274e-001
    outer loop
      vertex -3.875000e+001 -1.205920e+000  3.711440e+000
      vertex -4.000000e+001 -2.145868e+000  1.559065e+000
      vertex -3.875000e+001 -3.157140e+000  2.293796e+000
    endloop
  endfacet
  facet normal -6.891518e-001 -6.891518e-001  2.239190e-001
    outer loop
      vertex -3.875000e+001 -3.157140e+000  2.293796e+000
      vertex -4.000000e+001 -2.145868e+000  1.559065e+000
      vertex -4.000000e+001 -2.652439e+000 -3.896841e-016
    endloop
  endfacet
  facet normal -6.891518e-001 -6.891518e-001  2.239190e-001
    outer loop
      vertex -3.875000e+001 -3.157140e+000  2.293796e+000
      vertex -4.000000e+001 -2.652439e+000 -3.896841e-016
      vertex -3.875000e+001 -3.902439e+000 -9.557903e-016
    endloop
  endfacet
  facet normal -6.891517e-001 -4.259193e-001  5.862275e-001
    outer loop
      vertex -4.000000e+001 -2.145868e+000  1.559065e+000
      vertex -3.875000e+001 -1.205920e+000  3.711440e+000
      vertex -4.000000e+001 -8.196487e-001  2.522619e+000
    endloop
  endfacet
  facet normal -6.891517e-001  0.000000e+000  7.246171e-001
    outer loop
      vertex -4.000000e+001 -8.196487e-001  2.522619e+000
      vertex -3.875000e+001 -1.205920e+000  3.711440e+000
      vertex -3.875000e+001  1.205920e+000  3.711440e+000
    endloop
  endfacet
  facet normal -6.891518e-001  0.000000e+000  7.246171e-001
    outer loop
      vertex -4.000000e+001 -8.196487e-001  2.522619e+000
      vertex -3.875000e+001  1.205920e+000  3.711440e+000
      vertex -4.000000e+001  8.196487e-001  2.522619e+000
    endloop
  endfacet
  facet normal -6.891518e-001  4.259192e-001  5.862275e-001
    outer loop
      vertex -4.000000e+001  8.196487e-001  2.522619e+000
      vertex -3.875000e+001  1.205920e+000  3.711440e+000
      vertex -3.875000e+001  3.157140e+000  2.293796e+000
    endloop
  endfacet
  facet normal -6.891518e-001  4.259192e-001  5.862275e-001
    outer loop
      vertex -4.000000e+001  8.196487e-001  2.522619e+000
      vertex -3.875000e+001  3.157140e+000  2.293796e+000
      vertex -4.000000e+001  2.145868e+000  1.559065e+000
    endloop
  endfacet
  facet normal -6.891518e-001  6.891518e-001  2.239190e-001
    outer loop
      vertex -4.000000e+001  2.145868e+000  1.559065e+000
      vertex -3.875000e+001  3.157140e+000  2.293796e+000
      vertex -3.875000e+001  3.902439e+000  4.778951e-016
    endloop
  endfacet
  facet normal -6.891518e-001  6.891518e-001  2.239190e-001
    outer loop
      vertex -4.000000e+001  2.145868e+000  1.559065e+000
      vertex -3.875000e+001  3.902439e+000  4.778951e-016
      vertex -4.000000e+001  2.652439e+000  5.963781e-014
    endloop
  endfacet
  facet normal -1.000000e+000  0.000000e+000  0.000000e+000
    outer loop
      vertex -1.800000e+001  1.236068e+000  3.804226e+000
      vertex -1.800000e+001  3.236068e+000  2.351141e+000
      vertex -1.800000e+001  1.205920e+000  3.711440e+000
    endloop
  endfacet
  facet normal -1.000000e+000  0.000000e+000  0.000000e+000
    outer loop
      vertex -1.800000e+001  1.236068e+000  3.804226e+000
      vertex -1.800000e+001  1.205920e+000  3.711440e+000
      vertex -1.800000e+001 -1.236068e+000  3.804226e+000
    endloop
  endfacet
  facet normal -1.000000e+000  0.000000e+000  0.000000e+000
    outer loop
      vertex -1.800000e+001 -1.236068e+000  3.804226e+000
      vertex -1.800000e+001  1.205920e+000  3.711440e+000
      vertex -1.800000e+001 -1.205920e+000  3.711440e+000
    endloop
  endfacet
  facet normal -1.000000e+000  -0.000000e+000  0.000000e+000
    outer loop
      vertex -1.800000e+001 -1.236068e+000  3.804226e+000
      vertex -1.800000e+001 -1.205920e+000  3.711440e+000
      vertex -1.800000e+001 -3.236068e+000  2.351141e+000
    endloop
  endfacet
  facet normal -1.000000e+000  0.000000e+000  0.000000e+000
    outer loop
      vertex -1.800000e+001 -3.236068e+000  2.351141e+000
      vertex -1.800000e+001 -1.205920e+000  3.711440e+000
      vertex -1.800000e+001 -3.157140e+000  2.293796e+000
    endloop
  endfacet
  facet normal -9.999999e-001  -0.000000e+000  0.000000e+000
    outer loop
      vertex -1.800000e+001 -3.236068e+000  2.351141e+000
      vertex -1.800000e+001 -3.157140e+000  2.293796e+000
      vertex -1.800000e+001 -4.000000e+000  0.000000e+000
    endloop
  endfacet
  facet normal -1.000000e+000  0.000000e+000  0.000000e+000
    outer loop
      vertex -1.800000e+001 -4.000000e+000  0.000000e+000
      vertex -1.800000e+001 -3.157140e+000  2.293796e+000
      vertex -1.800000e+001 -3.902439e+000 -9.557903e-016
    endloop
  endfacet
  facet normal -1.000000e+000  -0.000000e+000  -0.000000e+000
    outer loop
      vertex -1.800000e+001 -4.000000e+000  0.000000e+000
      vertex -1.800000e+001 -3.902439e+000 -9.557903e-016
      vertex -1.800000e+001 -3.236068e+000 -2.351141e+000
    endloop
  endfacet
  facet normal -9.999999e-001  0.000000e+000  0.000000e+000
    outer loop
      vertex -1.800000e+001 -3.236068e+000 -2.351141e+000
      vertex -1.800000e+001 -3.902439e+000 -9.557903e-016
      vertex -1.800000e+001 -3.157140e+000 -2.293796e+000
    endloop
  endfacet
  facet normal -1.000000e+000  0.000000e+000  -0.000000e+000
    outer loop
      vertex -1.800000e+001 -3.236068e+000 -2.351141e+000
      vertex -1.800000e+001 -3.157140e+000 -2.293796e+000
      vertex -1.800000e+001 -1.236068e+000 -3.804226e+000
    endloop
  endfacet
  facet normal -1.000000e+000  0.000000e+000  0.000000e+000
    outer loop
      vertex -1.800000e+001 -1.236068e+000 -3.804226e+000
      vertex -1.800000e+001 -3.157140e+000 -2.293796e+000
      vertex -1.800000e+001 -1.205920e+000 -3.711440e+000
    endloop
  endfacet
  facet normal -1.000000e+000  0.000000e+000  -0.000000e+000
    outer loop
      vertex -1.800000e+001 -1.236068e+000 -3.804226e+000
      vertex -1.800000e+001 -1.205920e+000 -3.711440e+000
      vertex -1.800000e+001  1.236068e+000 -3.804226e+000
    endloop
  endfacet
  facet normal -1.000000e+000  0.000000e+000  0.000000e+000
    outer loop
      vertex -1.800000e+001  1.236068e+000 -3.804226e+000
      vertex -1.800000e+001 -1.205920e+000 -3.711440e+000
      vertex -1.800000e+001  1.205920e+000 -3.711440e+000
    endloop
  endfacet
  facet normal -1.000000e+000  0.000000e+000  0.000000e+000
    outer loop
      vertex -1.800000e+001  1.236068e+000 -3.804226e+000
      vertex -1.800000e+001  1.205920e+000 -3.711440e+000
      vertex -1.800000e+001  3.236068e+000 -2.351141e+000
    endloop
  endfacet
  facet normal -1.000000e+000  -0.000000e+000  0.000000e+000
    outer loop
      vertex -1.800000e+001  3.236068e+000 -2.351141e+000
      vertex -1.800000e+001  1.205920e+000 -3.711440e+000
      vertex -1.800000e+001  3.157140e+000 -2.293796e+000
    endloop
  endfacet
  facet normal -9.999999e-001  0.000000e+000  0.000000e+000
    outer loop
      vertex -1.800000e+001  3.236068e+000 -2.351141e+000
      vertex -1.800000e+001  3.157140e+000 -2.293796e+000
      vertex -1.800000e+001  4.000000e+000  4.898425e-016
    endloop
  endfacet
  facet normal -1.000000e+000  0.000000e+000  0.000000e+000
    outer loop
      vertex -1.800000e+001  4.000000e+000  4.898425e-016
      vertex -1.800000e+001  3.157140e+000 -2.293796e+000
      vertex -1.800000e+001  3.902439e+000  4.778951e-016
    endloop
  endfacet
  facet normal -1.000000e+000  0.000000e+000  0.000000e+000
    outer loop
      vertex -1.800000e+001  4.000000e+000  4.898425e-016
      vertex -1.800000e+001  3.902439e+000  4.778951e-016
      vertex -1.800000e+001  3.236068e+000  2.351141e+000
    endloop
  endfacet
  facet normal -9.999999e-001  0.000000e+000  -0.000000e+000
    outer loop
      vertex -1.800000e+001  3.236068e+000  2.351141e+000
      vertex -1.800000e+001  3.902439e+000  4.778951e-016
      vertex -1.800000e+001  3.157140e+000  2.293796e+000
    endloop
  endfacet
  facet normal -1.000000e+000  0.000000e+000  0.000000e+000
    outer loop
      vertex -1.800000e+001  3.236068e+000  2.351141e+000
      vertex -1.800000e+001  3.157140e+000  2.293796e+000
      vertex -1.800000e+001  1.205920e+000  3.711440e+000
    endloop
  endfacet
  facet normal  1.000000e+000  0.000000e+000  0.000000e+000
    outer loop
      vertex  5.450000e+000  3.102306e+000  5.678732e+000
      vertex  5.450000e+000  3.311712e-001  6.462401e+000
      vertex  5.450000e+000 -2.505556e+000  5.966112e+000
    endloop
  endfacet
  facet normal  1.000000e+000  0.000000e+000  0.000000e+000
    outer loop
      vertex  5.450000e+000  3.102306e+000  5.678732e+000
      vertex  5.450000e+000 -2.505556e+000  5.966112e+000
      vertex  5.450000e+000  5.258990e+000  3.770321e+000
    endloop
  endfacet
  facet normal  1.000000e+000  0.000000e+000  0.000000e+000
    outer loop
      vertex  5.450000e+000  5.258990e+000  3.770321e+000
      vertex  5.450000e+000 -2.505556e+000  5.966112e+000
      vertex  5.450000e+000 -4.846027e+000  4.288161e+000
    endloop
  endfacet
  facet normal  1.000000e+000  0.000000e+000  0.000000e+000
    outer loop
      vertex  5.450000e+000  5.258990e+000  3.770321e+000
      vertex  5.450000e+000 -4.846027e+000  4.288161e+000
      vertex  5.450000e+000  6.374068e+000  1.115152e+000
    endloop
  endfacet
  facet normal  1.000000e+000  0.000000e+000  0.000000e+000
    outer loop
      vertex  5.450000e+000  6.374068e+000  1.115152e+000
      vertex  5.450000e+000 -4.846027e+000  4.288161e+000
      vertex  5.450000e+000 -6.226683e+000  1.760888e+000
    endloop
  endfacet
  facet normal  1.000000e+000  0.000000e+000  0.000000e+000
    outer loop
      vertex  5.450000e+000  6.374068e+000  1.115152e+000
      vertex  5.450000e+000 -6.226683e+000  1.760888e+000
      vertex  5.450000e+000  6.226683e+000 -1.760888e+000
    endloop
  endfacet
  facet normal  1.000000e+000  0.000000e+000  0.000000e+000
    outer loop
      vertex  5.450000e+000  6.226683e+000 -1.760888e+000
      vertex  5.450000e+000 -6.226683e+000  1.760888e+000
      vertex  5.450000e+000 -6.374068e+000 -1.115152e+000
    endloop
  endfacet
  facet normal  1.000000e+000  0.000000e+000  0.000000e+000
    outer loop
      vertex  5.450000e+000  6.226683e+000 -1.760888e+000
      vertex  5.450000e+000 -6.374068e+000 -1.115152e+000
      vertex  5.450000e+000  4.846027e+000 -4.288161e+000
    endloop
  endfacet
  facet normal  1.000000e+000  0.000000e+000  0.000000e+000
    outer loop
      vertex  5.450000e+000  4.846027e+000 -4.288161e+000
      vertex  5.450000e+000 -6.374068e+000 -1.115152e+000
      vertex  5.450000e+000 -5.258990e+000 -3.770321e+000
    endloop
  endfacet
  facet normal  1.000000e+000  0.000000e+000  0.000000e+000
    outer loop
      vertex  5.450000e+000  4.846027e+000 -4.288161e+000
      vertex  5.450000e+000 -5.258990e+000 -3.770321e+000
      vertex  5.450000e+000  2.505556e+000 -5.966112e+000
    endloop
  endfacet
  facet normal  1.000000e+000  0.000000e+000  0.000000e+000
    outer loop
      vertex  5.450000e+000  2.505556e+000 -5.966112e+000
      vertex  5.450000e+000 -5.258990e+000 -3.770321e+000
      vertex  5.450000e+000 -3.102306e+000 -5.678732e+000
    endloop
  endfacet
  facet normal  1.000000e+000  0.000000e+000  0.000000e+000
    outer loop
      vertex  5.450000e+000  2.505556e+000 -5.966112e+000
      vertex  5.450000e+000 -3.102306e+000 -5.678732e+000
      vertex  5.450000e+000 -3.311712e-001 -6.462401e+000
    endloop
  endfacet
  facet normal  0.000000e+000  5.000001e-001 -8.660254e-001
    outer loop
      vertex  6.000000e-001  6.500000e+000 -3.752777e+000
      vertex  4.852632e+000  6.500000e+000 -3.752777e+000
      vertex  6.000000e-001  2.220446e-015 -7.505554e+000
    endloop
  endfacet
  facet normal  1.012651e-007  5.000000e-001 -8.660254e-001
    outer loop
      vertex  6.000000e-001  2.220446e-015 -7.505554e+000
      vertex  4.852632e+000  6.500000e+000 -3.752777e+000
      vertex  5.339056e+000  4.518702e+000 -4.896680e+000
    endloop
  endfacet
  facet normal  0.000000e+000  5.000001e-001 -8.660254e-001
    outer loop
      vertex  6.000000e-001  2.220446e-015 -7.505554e+000
      vertex  5.339056e+000  4.518702e+000 -4.896680e+000
      vertex  4.852632e+000  3.552714e-015 -7.505554e+000
    endloop
  endfacet
  facet normal  1.371335e-007  5.000001e-001 -8.660254e-001
    outer loop
      vertex  4.852632e+000  3.552714e-015 -7.505554e+000
      vertex  5.339056e+000  4.518702e+000 -4.896680e+000
      vertex  5.357589e+000  2.114419e+000 -6.284793e+000
    endloop
  endfacet
  facet normal  1.566404e-016 -5.000001e-001 -8.660254e-001
    outer loop
      vertex  6.000000e-001  2.220446e-015 -7.505554e+000
      vertex  4.852632e+000  3.552714e-015 -7.505554e+000
      vertex  6.000000e-001 -6.500000e+000 -3.752777e+000
    endloop
  endfacet
  facet normal  6.661433e-008 -5.000001e-001 -8.660253e-001
    outer loop
      vertex  6.000000e-001 -6.500000e+000 -3.752777e+000
      vertex  4.852632e+000  3.552714e-015 -7.505554e+000
      vertex  5.432143e+000 -3.117134e+000 -5.705875e+000
    endloop
  endfacet
  facet normal  0.000000e+000 -5.000000e-001 -8.660254e-001
    outer loop
      vertex  6.000000e-001 -6.500000e+000 -3.752777e+000
      vertex  5.432143e+000 -3.117134e+000 -5.705875e+000
      vertex  4.852632e+000 -6.500000e+000 -3.752777e+000
    endloop
  endfacet
  facet normal  0.000000e+000 -1.000000e+000  0.000000e+000
    outer loop
      vertex  6.000000e-001 -6.500000e+000 -3.752777e+000
      vertex  4.852632e+000 -6.500000e+000 -3.752777e+000
      vertex  6.000000e-001 -6.500000e+000  3.752777e+000
    endloop
  endfacet
  facet normal  0.000000e+000 -1.000000e+000  0.000000e+000
    outer loop
      vertex  6.000000e-001 -6.500000e+000  3.752777e+000
      vertex  4.852632e+000 -6.500000e+000 -3.752777e+000
      vertex  5.339056e+000 -6.500000e+000 -1.464970e+000
    endloop
  endfacet
  facet normal  0.000000e+000 -1.000000e+000  0.000000e+000
    outer loop
      vertex  6.000000e-001 -6.500000e+000  3.752777e+000
      vertex  5.339056e+000 -6.500000e+000 -1.464970e+000
      vertex  4.852632e+000 -6.500000e+000  3.752777e+000
    endloop
  endfacet
  facet normal  0.000000e+000 -1.000000e+000  0.000000e+000
    outer loop
      vertex  4.852632e+000 -6.500000e+000  3.752777e+000
      vertex  5.339056e+000 -6.500000e+000 -1.464970e+000
      vertex  5.357589e+000 -6.500000e+000  1.311255e+000
    endloop
  endfacet
  facet normal  0.000000e+000 -5.000001e-001  8.660254e-001
    outer loop
      vertex  6.000000e-001 -6.500000e+000  3.752777e+000
      vertex  4.852632e+000 -6.500000e+000  3.752777e+000
      vertex  6.000000e-001  1.776357e-015  7.505554e+000
    endloop
  endfacet
  facet normal  1.012651e-007 -5.000000e-001  8.660254e-001
    outer loop
      vertex  6.000000e-001  1.776357e-015  7.505554e+000
      vertex  4.852632e+000 -6.500000e+000  3.752777e+000
      vertex  5.339056e+000 -4.518702e+000  4.896680e+000
    endloop
  endfacet
  facet normal  0.000000e+000 -5.000001e-001  8.660254e-001
    outer loop
      vertex  6.000000e-001  1.776357e-015  7.505554e+000
      vertex  5.339056e+000 -4.518702e+000  4.896680e+000
      vertex  4.852632e+000  1.776357e-015  7.505554e+000
    endloop
  endfacet
  facet normal  1.371335e-007 -5.000001e-001  8.660254e-001
    outer loop
      vertex  4.852632e+000  1.776357e-015  7.505554e+000
      vertex  5.339056e+000 -4.518702e+000  4.896680e+000
      vertex  5.357589e+000 -2.114419e+000  6.284793e+000
    endloop
  endfacet
  facet normal  0.000000e+000  5.000001e-001  8.660254e-001
    outer loop
      vertex  6.000000e-001  1.776357e-015  7.505554e+000
      vertex  4.852632e+000  1.776357e-015  7.505554e+000
      vertex  6.000000e-001  6.500000e+000  3.752777e+000
    endloop
  endfacet
  facet normal  6.661433e-008  5.000001e-001  8.660253e-001
    outer loop
      vertex  6.000000e-001  6.500000e+000  3.752777e+000
      vertex  4.852632e+000  1.776357e-015  7.505554e+000
      vertex  5.432143e+000  3.117134e+000  5.705875e+000
    endloop
  endfacet
  facet normal  0.000000e+000  5.000000e-001  8.660254e-001
    outer loop
      vertex  6.000000e-001  6.500000e+000  3.752777e+000
      vertex  5.432143e+000  3.117134e+000  5.705875e+000
      vertex  4.852632e+000  6.500000e+000  3.752777e+000
    endloop
  endfacet
  facet normal  0.000000e+000  1.000000e+000  0.000000e+000
    outer loop
      vertex  6.000000e-001  6.500000e+000  3.752777e+000
      vertex  4.852632e+000  6.500000e+000  3.752777e+000
      vertex  6.000000e-001  6.500000e+000 -3.752777e+000
    endloop
  endfacet
  facet normal  0.000000e+000  1.000000e+000  0.000000e+000
    outer loop
      vertex  6.000000e-001  6.500000e+000 -3.752777e+000
      vertex  4.852632e+000  6.500000e+000  3.752777e+000
      vertex  5.339056e+000  6.500000e+000  1.464970e+000
    endloop
  endfacet
  facet normal  0.000000e+000  1.000000e+000  0.000000e+000
    outer loop
      vertex  6.000000e-001  6.500000e+000 -3.752777e+000
      vertex  5.339056e+000  6.500000e+000  1.464970e+000
      vertex  4.852632e+000  6.500000e+000 -3.752777e+000
    endloop
  endfacet
  facet normal  0.000000e+000  1.000000e+000  0.000000e+000
    outer loop
      vertex  4.852632e+000  6.500000e+000 -3.752777e+000
      vertex  5.339056e+000  6.500000e+000  1.464970e+000
      vertex  5.357589e+000  6.500000e+000 -1.311255e+000
    endloop
  endfacet
  facet normal  8.052199e-001  3.938646e-001  4.432736e-001
    outer loop
      vertex  4.852632e+000  6.500000e+000  3.752777e+000
      vertex  5.432143e+000  3.117134e+000  5.705875e+000
      vertex  5.450000e+000  5.258990e+000  3.770321e+000
    endloop
  endfacet
  facet normal  8.839483e-001  4.281513e-001  1.879414e-001
    outer loop
      vertex  4.852632e+000  6.500000e+000  3.752777e+000
      vertex  5.450000e+000  5.258990e+000  3.770321e+000
      vertex  5.339056e+000  6.500000e+000  1.464970e+000
    endloop
  endfacet
  facet normal  8.371433e-001 -1.483328e-001 -5.264870e-001
    outer loop
      vertex  5.432143e+000 -3.117134e+000 -5.705875e+000
      vertex  4.852632e+000  3.552714e-015 -7.505554e+000
      vertex  5.450000e+000 -3.311712e-001 -6.462401e+000
    endloop
  endfacet
  facet normal  8.604397e-001 -1.386618e-001 -4.903227e-001
    outer loop
      vertex  5.432143e+000 -3.117134e+000 -5.705875e+000
      vertex  5.450000e+000 -3.311712e-001 -6.462401e+000
      vertex  5.450000e+000 -3.102306e+000 -5.678732e+000
    endloop
  endfacet
  facet normal  7.572613e-001  6.530925e-001  5.055244e-003
    outer loop
      vertex  5.450000e+000  6.374068e+000  1.115152e+000
      vertex  5.357589e+000  6.500000e+000 -1.311255e+000
      vertex  5.339056e+000  6.500000e+000  1.464970e+000
    endloop
  endfacet
  facet normal  9.149691e-001  3.720466e-001  1.562464e-001
    outer loop
      vertex  5.450000e+000  6.374068e+000  1.115152e+000
      vertex  5.339056e+000  6.500000e+000  1.464970e+000
      vertex  5.450000e+000  5.258990e+000  3.770321e+000
    endloop
  endfacet
  facet normal  6.431822e-001  3.865690e-001 -6.609698e-001
    outer loop
      vertex  5.450000e+000  2.505556e+000 -5.966112e+000
      vertex  5.357589e+000  2.114419e+000 -6.284793e+000
      vertex  5.339056e+000  4.518702e+000 -4.896680e+000
    endloop
  endfacet
  facet normal  9.393365e-001  1.998504e-001 -2.787591e-001
    outer loop
      vertex  5.450000e+000  2.505556e+000 -5.966112e+000
      vertex  5.339056e+000  4.518702e+000 -4.896680e+000
      vertex  5.450000e+000  4.846027e+000 -4.288161e+000
    endloop
  endfacet
  facet normal  8.749235e-001  6.788221e-002 -4.794799e-001
    outer loop
      vertex  4.852632e+000  3.552714e-015 -7.505554e+000
      vertex  5.357589e+000  2.114419e+000 -6.284793e+000
      vertex  5.450000e+000 -3.311712e-001 -6.462401e+000
    endloop
  endfacet
  facet normal  8.604395e-001  3.376733e-001  3.816027e-001
    outer loop
      vertex  5.450000e+000  3.102306e+000  5.678732e+000
      vertex  5.450000e+000  5.258990e+000  3.770321e+000
      vertex  5.432143e+000  3.117134e+000  5.705875e+000
    endloop
  endfacet
  facet normal  9.379468e-001  3.463248e-001 -1.774772e-002
    outer loop
      vertex  5.357589e+000  6.500000e+000 -1.311255e+000
      vertex  5.450000e+000  6.374068e+000  1.115152e+000
      vertex  5.450000e+000  6.226683e+000 -1.760888e+000
    endloop
  endfacet
  facet normal  9.363654e-001  6.049373e-002 -3.457749e-001
    outer loop
      vertex  5.450000e+000 -3.311712e-001 -6.462401e+000
      vertex  5.357589e+000  2.114419e+000 -6.284793e+000
      vertex  5.450000e+000  2.505556e+000 -5.966112e+000
    endloop
  endfacet
  facet normal  8.157001e-001  5.533285e-001 -1.687037e-001
    outer loop
      vertex  4.852632e+000  6.500000e+000 -3.752777e+000
      vertex  5.357589e+000  6.500000e+000 -1.311255e+000
      vertex  5.450000e+000  6.226683e+000 -1.760888e+000
    endloop
  endfacet
  facet normal  8.944398e-001  3.924446e-001 -2.143935e-001
    outer loop
      vertex  4.852632e+000  6.500000e+000 -3.752777e+000
      vertex  5.450000e+000  6.226683e+000 -1.760888e+000
      vertex  5.450000e+000  4.846027e+000 -4.288161e+000
    endloop
  endfacet
  facet normal  8.256913e-001  4.200903e-001 -3.765077e-001
    outer loop
      vertex  4.852632e+000  6.500000e+000 -3.752777e+000
      vertex  5.450000e+000  4.846027e+000 -4.288161e+000
      vertex  5.339056e+000  4.518702e+000 -4.896680e+000
    endloop
  endfacet
  facet normal  8.052199e-001 -3.938646e-001 -4.432736e-001
    outer loop
      vertex  4.852632e+000 -6.500000e+000 -3.752777e+000
      vertex  5.432143e+000 -3.117134e+000 -5.705875e+000
      vertex  5.450000e+000 -5.258990e+000 -3.770321e+000
    endloop
  endfacet
  facet normal  8.839483e-001 -4.281513e-001 -1.879414e-001
    outer loop
      vertex  4.852632e+000 -6.500000e+000 -3.752777e+000
      vertex  5.450000e+000 -5.258990e+000 -3.770321e+000
      vertex  5.339056e+000 -6.500000e+000 -1.464970e+000
    endloop
  endfacet
  facet normal  8.371433e-001  1.483328e-001  5.264870e-001
    outer loop
      vertex  5.432143e+000  3.117134e+000  5.705875e+000
      vertex  4.852632e+000  1.776357e-015  7.505554e+000
      vertex  5.450000e+000  3.311712e-001  6.462401e+000
    endloop
  endfacet
  facet normal  8.604397e-001  1.386618e-001  4.903227e-001
    outer loop
      vertex  5.432143e+000  3.117134e+000  5.705875e+000
      vertex  5.450000e+000  3.311712e-001  6.462401e+000
      vertex  5.450000e+000  3.102306e+000  5.678732e+000
    endloop
  endfacet
  facet normal  7.572613e-001 -6.530925e-001 -5.055244e-003
    outer loop
      vertex  5.450000e+000 -6.374068e+000 -1.115152e+000
      vertex  5.357589e+000 -6.500000e+000  1.311255e+000
      vertex  5.339056e+000 -6.500000e+000 -1.464970e+000
    endloop
  endfacet
  facet normal  9.149691e-001 -3.720466e-001 -1.562464e-001
    outer loop
      vertex  5.450000e+000 -6.374068e+000 -1.115152e+000
      vertex  5.339056e+000 -6.500000e+000 -1.464970e+000
      vertex  5.450000e+000 -5.258990e+000 -3.770321e+000
    endloop
  endfacet
  facet normal  6.431822e-001 -3.865690e-001  6.609698e-001
    outer loop
      vertex  5.450000e+000 -2.505556e+000  5.966112e+000
      vertex  5.357589e+000 -2.114419e+000  6.284793e+000
      vertex  5.339056e+000 -4.518702e+000  4.896680e+000
    endloop
  endfacet
  facet normal  9.393365e-001 -1.998504e-001  2.787591e-001
    outer loop
      vertex  5.450000e+000 -2.505556e+000  5.966112e+000
      vertex  5.339056e+000 -4.518702e+000  4.896680e+000
      vertex  5.450000e+000 -4.846027e+000  4.288161e+000
    endloop
  endfacet
  facet normal  8.749235e-001 -6.788221e-002  4.794799e-001
    outer loop
      vertex  4.852632e+000  1.776357e-015  7.505554e+000
      vertex  5.357589e+000 -2.114419e+000  6.284793e+000
      vertex  5.450000e+000  3.311712e-001  6.462401e+000
    endloop
  endfacet
  facet normal  8.604395e-001 -3.376733e-001 -3.816027e-001
    outer loop
      vertex  5.450000e+000 -3.102306e+000 -5.678732e+000
      vertex  5.450000e+000 -5.258990e+000 -3.770321e+000
      vertex  5.432143e+000 -3.117134e+000 -5.705875e+000
    endloop
  endfacet
  facet normal  9.379468e-001 -3.463248e-001  1.774772e-002
    outer loop
      vertex  5.357589e+000 -6.500000e+000  1.311255e+000
      vertex  5.450000e+000 -6.374068e+000 -1.115152e+000
      vertex  5.450000e+000 -6.226683e+000  1.760888e+000
    endloop
  endfacet
  facet normal  9.363654e-001 -6.049373e-002  3.457749e-001
    outer loop
      vertex  5.450000e+000  3.311712e-001  6.462401e+000
      vertex  5.357589e+000 -2.114419e+000  6.284793e+000
      vertex  5.450000e+000 -2.505556e+000  5.966112e+000
    endloop
  endfacet
  facet normal  8.157001e-001 -5.533285e-001  1.687037e-001
    outer loop
      vertex  4.852632e+000 -6.500000e+000  3.752777e+000
      vertex  5.357589e+000 -6.500000e+000  1.311255e+000
      vertex  5.450000e+000 -6.226683e+000  1.760888e+000
    endloop
  endfacet
  facet normal  8.944398e-001 -3.924446e-001  2.143935e-001
    outer loop
      vertex  4.852632e+000 -6.500000e+000  3.752777e+000
      vertex  5.450000e+000 -6.226683e+000  1.760888e+000
      vertex  5.450000e+000 -4.846027e+000  4.288161e+000
    endloop
  endfacet
  facet normal  8.256913e-001 -4.200903e-001  3.765077e-001
    outer loop
      vertex  4.852632e+000 -6.500000e+000  3.752777e+000
      vertex  5.450000e+000 -4.846027e+000  4.288161e+000
      vertex  5.339056e+000 -4.518702e+000  4.896680e+000
    endloop
  endfacet
  facet normal -1.000000e+000  0.000000e+000  -0.000000e+000
    outer loop
      vertex  6.000000e-001  5.035938e+000 -2.907500e+000
      vertex  6.000000e-001  5.815000e+000  0.000000e+000
      vertex  6.000000e-001  6.500000e+000 -3.752777e+000
    endloop
  endfacet
  facet normal -1.000000e+000  0.000000e+000  -0.000000e+000
    outer loop
      vertex  6.000000e-001  2.907500e+000 -5.035938e+000
      vertex  6.000000e-001  5.035938e+000 -2.907500e+000
      vertex  6.000000e-001  6.500000e+000 -3.752777e+000
    endloop
  endfacet
  facet normal -1.000000e+000  0.000000e+000  0.000000e+000
    outer loop
      vertex  6.000000e-001  2.220446e-015 -7.505554e+000
      vertex  6.000000e-001 -2.907500e+000 -5.035938e+000
      vertex  6.000000e-001  4.096595e-015 -5.815000e+000
    endloop
  endfacet
  facet normal -1.000000e+000  0.000000e+000  -0.000000e+000
    outer loop
      vertex  6.000000e-001  2.220446e-015 -7.505554e+000
      vertex  6.000000e-001  4.096595e-015 -5.815000e+000
      vertex  6.000000e-001  2.907500e+000 -5.035938e+000
    endloop
  endfacet
  facet normal -1.000000e+000  0.000000e+000  -0.000000e+000
    outer loop
      vertex  6.000000e-001  2.220446e-015 -7.505554e+000
      vertex  6.000000e-001  2.907500e+000 -5.035938e+000
      vertex  6.000000e-001  6.500000e+000 -3.752777e+000
    endloop
  endfacet
  facet normal -1.000000e+000  0.000000e+000  -0.000000e+000
    outer loop
      vertex  6.000000e-001 -6.500000e+000 -3.752777e+000
      vertex  6.000000e-001 -5.815000e+000 -1.870270e-015
      vertex  6.000000e-001 -5.035938e+000 -2.907500e+000
    endloop
  endfacet
  facet normal -1.000000e+000  0.000000e+000  -0.000000e+000
    outer loop
      vertex  6.000000e-001 -6.500000e+000 -3.752777e+000
      vertex  6.000000e-001 -5.035938e+000 -2.907500e+000
      vertex  6.000000e-001 -2.907500e+000 -5.035938e+000
    endloop
  endfacet
  facet normal -1.000000e+000  -0.000000e+000  -0.000000e+000
    outer loop
      vertex  6.000000e-001 -6.500000e+000 -3.752777e+000
      vertex  6.000000e-001 -2.907500e+000 -5.035938e+000
      vertex  6.000000e-001  2.220446e-015 -7.505554e+000
    endloop
  endfacet
  facet normal -1.000000e+000  0.000000e+000  0.000000e+000
    outer loop
      vertex  6.000000e-001 -6.500000e+000  3.752777e+000
      vertex  6.000000e-001 -2.907500e+000  5.035938e+000
      vertex  6.000000e-001 -5.035938e+000  2.907500e+000
    endloop
  endfacet
  facet normal -1.000000e+000  -0.000000e+000  0.000000e+000
    outer loop
      vertex  6.000000e-001 -6.500000e+000  3.752777e+000
      vertex  6.000000e-001 -5.035938e+000  2.907500e+000
      vertex  6.000000e-001 -5.815000e+000 -1.870270e-015
    endloop
  endfacet
  facet normal -1.000000e+000  -0.000000e+000  0.000000e+000
    outer loop
      vertex  6.000000e-001 -6.500000e+000  3.752777e+000
      vertex  6.000000e-001 -5.815000e+000 -1.870270e-015
      vertex  6.000000e-001 -6.500000e+000 -3.752777e+000
    endloop
  endfacet
  facet normal -1.000000e+000  0.000000e+000  0.000000e+000
    outer loop
      vertex  6.000000e-001  1.776357e-015  7.505554e+000
      vertex  6.000000e-001  2.907500e+000  5.035938e+000
      vertex  6.000000e-001 -9.351351e-016  5.815000e+000
    endloop
  endfacet
  facet normal -1.000000e+000  -0.000000e+000  0.000000e+000
    outer loop
      vertex  6.000000e-001  1.776357e-015  7.505554e+000
      vertex  6.000000e-001 -9.351351e-016  5.815000e+000
      vertex  6.000000e-001 -2.907500e+000  5.035938e+000
    endloop
  endfacet
  facet normal -1.000000e+000  -0.000000e+000  0.000000e+000
    outer loop
      vertex  6.000000e-001  1.776357e-015  7.505554e+000
      vertex  6.000000e-001 -2.907500e+000  5.035938e+000
      vertex  6.000000e-001 -6.500000e+000  3.752777e+000
    endloop
  endfacet
  facet normal -1.000000e+000  0.000000e+000  0.000000e+000
    outer loop
      vertex  6.000000e-001  6.500000e+000  3.752777e+000
      vertex  6.000000e-001  6.500000e+000 -3.752777e+000
      vertex  6.000000e-001  5.815000e+000  0.000000e+000
    endloop
  endfacet
  facet normal -1.000000e+000  0.000000e+000  0.000000e+000
    outer loop
      vertex  6.000000e-001  6.500000e+000  3.752777e+000
      vertex  6.000000e-001  5.815000e+000  0.000000e+000
      vertex  6.000000e-001  5.035938e+000  2.907500e+000
    endloop
  endfacet
  facet normal -1.000000e+000  0.000000e+000  0.000000e+000
    outer loop
      vertex  6.000000e-001  6.500000e+000  3.752777e+000
      vertex  6.000000e-001  5.035938e+000  2.907500e+000
      vertex  6.000000e-001  2.907500e+000  5.035938e+000
    endloop
  endfacet
  facet normal -1.000000e+000  0.000000e+000  0.000000e+000
    outer loop
      vertex  6.000000e-001  6.500000e+000  3.752777e+000
      vertex  6.000000e-001  2.907500e+000  5.035938e+000
      vertex  6.000000e-001  1.776357e-015  7.505554e+000
    endloop
  endfacet
  facet normal  0.000000e+000  9.659259e-001 -2.588191e-001
    outer loop
      vertex  0.000000e+000  5.815000e+000  0.000000e+000
      vertex  6.000000e-001  5.815000e+000  0.000000e+000
      vertex  0.000000e+000  5.035938e+000 -2.907500e+000
    endloop
  endfacet
  facet normal  0.000000e+000  9.659259e-001 -2.588191e-001
    outer loop
      vertex  0.000000e+000  5.035938e+000 -2.907500e+000
      vertex  6.000000e-001  5.815000e+000  0.000000e+000
      vertex  6.000000e-001  5.035938e+000 -2.907500e+000
    endloop
  endfacet
  facet normal  0.000000e+000  7.071068e-001 -7.071068e-001
    outer loop
      vertex  0.000000e+000  5.035938e+000 -2.907500e+000
      vertex  6.000000e-001  5.035938e+000 -2.907500e+000
      vertex  0.000000e+000  2.907500e+000 -5.035938e+000
    endloop
  endfacet
  facet normal  0.000000e+000  7.071068e-001 -7.071068e-001
    outer loop
      vertex  0.000000e+000  2.907500e+000 -5.035938e+000
      vertex  6.000000e-001  5.035938e+000 -2.907500e+000
      vertex  6.000000e-001  2.907500e+000 -5.035938e+000
    endloop
  endfacet
  facet normal  0.000000e+000  2.588191e-001 -9.659259e-001
    outer loop
      vertex  0.000000e+000  2.907500e+000 -5.035938e+000
      vertex  6.000000e-001  2.907500e+000 -5.035938e+000
      vertex  0.000000e+000  4.096595e-015 -5.815000e+000
    endloop
  endfacet
  facet normal  0.000000e+000  2.588191e-001 -9.659259e-001
    outer loop
      vertex  0.000000e+000  4.096595e-015 -5.815000e+000
      vertex  6.000000e-001  2.907500e+000 -5.035938e+000
      vertex  6.000000e-001  4.096595e-015 -5.815000e+000
    endloop
  endfacet
  facet normal  -0.000000e+000 -2.588191e-001 -9.659259e-001
    outer loop
      vertex  0.000000e+000  4.096595e-015 -5.815000e+000
      vertex  6.000000e-001  4.096595e-015 -5.815000e+000
      vertex  0.000000e+000 -2.907500e+000 -5.035938e+000
    endloop
  endfacet
  facet normal  0.000000e+000 -2.588191e-001 -9.659259e-001
    outer loop
      vertex  0.000000e+000 -2.907500e+000 -5.035938e+000
      vertex  6.000000e-001  4.096595e-015 -5.815000e+000
      vertex  6.000000e-001 -2.907500e+000 -5.035938e+000
    endloop
  endfacet
  facet normal  -0.000000e+000 -7.071068e-001 -7.071068e-001
    outer loop
      vertex  0.000000e+000 -2.907500e+000 -5.035938e+000
      vertex  6.000000e-001 -2.907500e+000 -5.035938e+000
      vertex  0.000000e+000 -5.035938e+000 -2.907500e+000
    endloop
  endfacet
  facet normal  0.000000e+000 -7.071068e-001 -7.071068e-001
    outer loop
      vertex  0.000000e+000 -5.035938e+000 -2.907500e+000
      vertex  6.000000e-001 -2.907500e+000 -5.035938e+000
      vertex  6.000000e-001 -5.035938e+000 -2.907500e+000
    endloop
  endfacet
  facet normal  -0.000000e+000 -9.659259e-001 -2.588191e-001
    outer loop
      vertex  0.000000e+000 -5.035938e+000 -2.907500e+000
      vertex  6.000000e-001 -5.035938e+000 -2.907500e+000
      vertex  0.000000e+000 -5.815000e+000 -1.870270e-015
    endloop
  endfacet
  facet normal  0.000000e+000 -9.659259e-001 -2.588191e-001
    outer loop
      vertex  0.000000e+000 -5.815000e+000 -1.870270e-015
      vertex  6.000000e-001 -5.035938e+000 -2.907500e+000
      vertex  6.000000e-001 -5.815000e+000 -1.870270e-015
    endloop
  endfacet
  facet normal  0.000000e+000 -9.659259e-001  2.588191e-001
    outer loop
      vertex  0.000000e+000 -5.815000e+000 -1.870270e-015
      vertex  6.000000e-001 -5.815000e+000 -1.870270e-015
      vertex  0.000000e+000 -5.035938e+000  2.907500e+000
    endloop
  endfacet
  facet normal  0.000000e+000 -9.659259e-001  2.588191e-001
    outer loop
      vertex  0.000000e+000 -5.035938e+000  2.907500e+000
      vertex  6.000000e-001 -5.815000e+000 -1.870270e-015
      vertex  6.000000e-001 -5.035938e+000  2.907500e+000
    endloop
  endfacet
  facet normal  0.000000e+000 -7.071068e-001  7.071068e-001
    outer loop
      vertex  0.000000e+000 -5.035938e+000  2.907500e+000
      vertex  6.000000e-001 -5.035938e+000  2.907500e+000
      vertex  0.000000e+000 -2.907500e+000  5.035938e+000
    endloop
  endfacet
  facet normal  0.000000e+000 -7.071068e-001  7.071068e-001
    outer loop
      vertex  0.000000e+000 -2.907500e+000  5.035938e+000
      vertex  6.000000e-001 -5.035938e+000  2.907500e+000
      vertex  6.000000e-001 -2.907500e+000  5.035938e+000
    endloop
  endfacet
  facet normal  0.000000e+000 -2.588191e-001  9.659259e-001
    outer loop
      vertex  0.000000e+000 -2.907500e+000  5.035938e+000
      vertex  6.000000e-001 -2.907500e+000  5.035938e+000
      vertex  0.000000e+000 -9.351351e-016  5.815000e+000
    endloop
  endfacet
  facet normal  0.000000e+000 -2.588191e-001  9.659259e-001
    outer loop
      vertex  0.000000e+000 -9.351351e-016  5.815000e+000
      vertex  6.000000e-001 -2.907500e+000  5.035938e+000
      vertex  6.000000e-001 -9.351351e-016  5.815000e+000
    endloop
  endfacet
  facet normal  0.000000e+000  2.588191e-001  9.659259e-001
    outer loop
      vertex  0.000000e+000 -9.351351e-016  5.815000e+000
      vertex  6.000000e-001 -9.351351e-016  5.815000e+000
      vertex  0.000000e+000  2.907500e+000  5.035938e+000
    endloop
  endfacet
  facet normal  -0.000000e+000  2.588191e-001  9.659259e-001
    outer loop
      vertex  0.000000e+000  2.907500e+000  5.035938e+000
      vertex  6.000000e-001 -9.351351e-016  5.815000e+000
      vertex  6.000000e-001  2.907500e+000  5.035938e+000
    endloop
  endfacet
  facet normal  0.000000e+000  7.071068e-001  7.071068e-001
    outer loop
      vertex  0.000000e+000  2.907500e+000  5.035938e+000
      vertex  6.000000e-001  2.907500e+000  5.035938e+000
      vertex  0.000000e+000  5.035938e+000  2.907500e+000
    endloop
  endfacet
  facet normal  -0.000000e+000  7.071068e-001  7.071068e-001
    outer loop
      vertex  0.000000e+000  5.035938e+000  2.907500e+000
      vertex  6.000000e-001  2.907500e+000  5.035938e+000
      vertex  6.000000e-001  5.035938e+000  2.907500e+000
    endloop
  endfacet
  facet normal  0.000000e+000  9.659259e-001  2.588191e-001
    outer loop
      vertex  0.000000e+000  5.035938e+000  2.907500e+000
      vertex  6.000000e-001  5.035938e+000  2.907500e+000
      vertex  0.000000e+000  5.815000e+000  0.000000e+000
    endloop
  endfacet
  facet normal  -0.000000e+000  9.659259e-001  2.588191e-001
    outer loop
      vertex  0.000000e+000  5.815000e+000  0.000000e+000
      vertex  6.000000e-001  5.035938e+000  2.907500e+000
      vertex  6.000000e-001  5.815000e+000  0.000000e+000
    endloop
  endfacet
endsolid CATIA STL
