**ABCDEFGHIJKLMNOPQRSTUVWXYZabcdefghijklmnopqrstuvwxyz**************************
**PARASOLID !"#$%&'()*+,-./:;<=>?@[\]^_`{|}~0123456789**************************
**PART1;
MC=AMD64;
MC_MODEL=Intel64 Family 6 Model 61 Stepping 4, GenuineIntel;
MC_ID=unknown;
OS=Windows_NT;
OS_RELEASE=unknown;
FRU=Parasolid Version 28.0, build 209,  1-25-2016;
APPL=SOLIDWORKS 2016-2016195;
SITE=;
USER=unknown;
FORMAT=text;
GUISE=transmit;
KEY=makeProjectedPlanarWire;
FILE=makeProjectedPlanarWire.x_t;
DATE=Fri Aug 03 20:08:38 2018;
**PART2;
SCH=SCH_2800209_28002;
USFLD_SIZE=0;
**PART3;
**END_OF_HEADER*****************************************************************
T51 : TRANSMIT FILE created by modeller version 280020923 SCH_2800209_28002_1300
6200 0 12 30 CCCCCCCCCCCCCDI5 owner1040 0 CCCCCCCCCA13 boundary_mesh1006 0 A16 i
ndex_map_offset0 0 1 dA9 index_map82 0 A17 node_id_index_map82 0 A20 schema_embe
dding_map82 0 A5 child12 0 A14 lowest_node_id0 0 1 dZ1 64 0 0 0 0 0 0 1e3 1e-8 0
 2 0 1 0 3 1 3 4 5 6 7 8 9 0 0 0 0 0 0 0 13 255 3 53 0 1 0 10 0 0 7 10 50 255 4
 2 0 10 0 0 0 +0 0 0 0 0 1 1 0 0 30 255 5 22 0 8 11 0 0 +.1925 .1925 0 1 0 0 29
 255 6 46 0 9 12 0 -.1925 .1925 0 19 8 CCCCCCCA5 owner12 0 Z7 52 0 1 0 0 3 V0 16
 255 8 21 0 ?13 0 14 5 0 0 1 18 255 9 44 0 15 0 16 6 ?1 17 255 15 0 0 0 0 9 17 1
8 0 19 +18 16 41 0 20 9 21 12 ?1 17 20 0 22 19 23 16 24 14 0 13 -18 21 38 0 23 1
6 25 26 ?1 29 12 43 0 16 26 6 .1925 .1925 0 29 26 40 0 21 27 12 .1925 -.1925 0 2
9 27 37 0 25 28 26 -.1925 -.1925 0 18 25 35 0 17 21 29 27 ?1 29 28 34 0 29 30 27
 .1778 .1524 0 18 29 32 0 31 25 32 28 ?1 29 30 31 0 32 33 28 -.1778 .1524 0 18 3
2 29 0 34 29 35 30 ?1 29 33 28 0 35 36 30 -.1778 -.1524 -260681786549832e-31 18
 35 26 0 37 32 38 33 ?1 29 36 25 0 38 0 33 .1777999999999205 -.1524 0 18 38 23 0
 39 35 0 36 ?1 17 39 0 40 37 41 38 31 42 0 43 -15 255 40 5 0 39 10 22 17 37 0 40
 44 39 35 43 45 0 46 -17 41 0 40 39 44 29 34 47 0 0 -17 31 0 0 0 0 29 39 42 0 41
 +16 42 7 0 ?31 45 0 48 0 0 1 17 43 0 0 0 0 38 37 45 0 0 +16 45 9 0 ?43 49 42 50
 0 0 1 16 49 11 0 ?46 47 45 51 0 0 1 30 50 10 0 45 48 51 0 +-.1778 -.1524 0 1 0
 0 30 48 8 0 42 0 50 0 +.1778 -.1524 0 0 1 0 30 51 12 0 49 50 52 0 --.1778 -.152
4 0 0 1 0 30 52 14 0 47 51 53 0 --.1778 .1524 0 1 0 0 16 47 13 0 ?34 18 49 52 0
 0 1 30 53 16 0 18 52 54 0 +-.1925 -.1925 0 0 1 0 16 18 15 0 ?15 55 47 53 0 0 1
 30 54 18 0 55 53 11 0 +.1925 -.1925 0 -1 0 0 16 55 17 0 ?56 14 18 54 0 0 1 30 1
1 20 0 14 54 5 0 +.1925 -.1925 0 0 -1 0 16 14 19 0 ?24 8 55 11 0 0 1 17 24 0 0 0
 0 21 20 14 0 0 +17 56 0 0 0 0 25 23 55 0 0 +17 23 0 22 20 17 21 56 55 0 24 -15
 22 6 0 17 10 0 17 17 0 22 23 19 25 15 18 0 56 -17 19 0 22 17 20 9 13 8 0 0 -17
 13 0 0 0 0 16 19 8 0 0 +14 255 10 1 0 ?0 0 40 3 4 +0 0 0 0 3 17 34 0 0 0 0 32 4
1 47 0 44 +17 44 0 40 41 37 32 46 49 0 0 -17 46 0 0 0 0 35 44 49 0 0 +1 0 
